<?xml version="1.0" encoding="utf-8" standalone="no"?>
<!DOCTYPE svg PUBLIC "-//W3C//DTD SVG 1.1//EN"
  "http://www.w3.org/Graphics/SVG/1.1/DTD/svg11.dtd">
<svg xmlns:xlink="http://www.w3.org/1999/xlink" width="460.8pt" height="345.6pt" viewBox="0 0 460.8 345.6" xmlns="http://www.w3.org/2000/svg" version="1.1">
 <metadata>
  <rdf:RDF xmlns:dc="http://purl.org/dc/elements/1.1/" xmlns:cc="http://creativecommons.org/ns#" xmlns:rdf="http://www.w3.org/1999/02/22-rdf-syntax-ns#">
   <cc:Work>
    <dc:type rdf:resource="http://purl.org/dc/dcmitype/StillImage"/>
    <dc:date>2025-02-24T14:34:42.647640</dc:date>
    <dc:format>image/svg+xml</dc:format>
    <dc:creator>
     <cc:Agent>
      <dc:title>Matplotlib v3.8.4, https://matplotlib.org/</dc:title>
     </cc:Agent>
    </dc:creator>
   </cc:Work>
  </rdf:RDF>
 </metadata>
 <defs>
  <style type="text/css">*{stroke-linejoin: round; stroke-linecap: butt}</style>
 </defs>
 <g id="figure_1">
  <g id="patch_1">
   <path d="M 0 345.6 
L 460.8 345.6 
L 460.8 0 
L 0 0 
z
" style="fill: #ffffff"/>
  </g>
  <g id="axes_1">
   <g id="patch_2">
    <path d="M 47.63 88.382224 
L 446.305714 88.382224 
L 446.305714 26.88 
L 47.63 26.88 
z
" style="fill: #ffffff"/>
   </g>
   <g id="matplotlib.axis_1">
    <g id="xtick_1">
     <g id="line2d_1">
      <defs>
       <path id="m4f65e0796a" d="M 0 0 
L 0 3.5 
" style="stroke: #000000; stroke-width: 0.8"/>
      </defs>
      <g>
       <use xlink:href="#m4f65e0796a" x="76.226992" y="88.382224" style="stroke: #000000; stroke-width: 0.8"/>
      </g>
     </g>
    </g>
    <g id="xtick_2">
     <g id="line2d_2">
      <g>
       <use xlink:href="#m4f65e0796a" x="119.963568" y="88.382224" style="stroke: #000000; stroke-width: 0.8"/>
      </g>
     </g>
    </g>
    <g id="xtick_3">
     <g id="line2d_3">
      <g>
       <use xlink:href="#m4f65e0796a" x="164.180766" y="88.382224" style="stroke: #000000; stroke-width: 0.8"/>
      </g>
     </g>
    </g>
    <g id="xtick_4">
     <g id="line2d_4">
      <g>
       <use xlink:href="#m4f65e0796a" x="207.677032" y="88.382224" style="stroke: #000000; stroke-width: 0.8"/>
      </g>
     </g>
    </g>
    <g id="xtick_5">
     <g id="line2d_5">
      <g>
       <use xlink:href="#m4f65e0796a" x="251.89423" y="88.382224" style="stroke: #000000; stroke-width: 0.8"/>
      </g>
     </g>
    </g>
    <g id="xtick_6">
     <g id="line2d_6">
      <g>
       <use xlink:href="#m4f65e0796a" x="295.390495" y="88.382224" style="stroke: #000000; stroke-width: 0.8"/>
      </g>
     </g>
    </g>
    <g id="xtick_7">
     <g id="line2d_7">
      <g>
       <use xlink:href="#m4f65e0796a" x="339.607693" y="88.382224" style="stroke: #000000; stroke-width: 0.8"/>
      </g>
     </g>
    </g>
    <g id="xtick_8">
     <g id="line2d_8">
      <g>
       <use xlink:href="#m4f65e0796a" x="383.103958" y="88.382224" style="stroke: #000000; stroke-width: 0.8"/>
      </g>
     </g>
    </g>
    <g id="xtick_9">
     <g id="line2d_9">
      <g>
       <use xlink:href="#m4f65e0796a" x="427.321156" y="88.382224" style="stroke: #000000; stroke-width: 0.8"/>
      </g>
     </g>
    </g>
   </g>
   <g id="matplotlib.axis_2">
    <g id="ytick_1">
     <g id="line2d_10">
      <defs>
       <path id="m5348a02909" d="M 0 0 
L -3.5 0 
" style="stroke: #000000; stroke-width: 0.8"/>
      </defs>
      <g>
       <use xlink:href="#m5348a02909" x="47.63" y="86.281172" style="stroke: #000000; stroke-width: 0.8"/>
      </g>
     </g>
     <g id="text_1">
      <!-- 0 -->
      <g transform="translate(34.2675 90.080391) scale(0.1 -0.1)">
       <defs>
        <path id="DejaVuSans-30" d="M 2034 4250 
Q 1547 4250 1301 3770 
Q 1056 3291 1056 2328 
Q 1056 1369 1301 889 
Q 1547 409 2034 409 
Q 2525 409 2770 889 
Q 3016 1369 3016 2328 
Q 3016 3291 2770 3770 
Q 2525 4250 2034 4250 
z
M 2034 4750 
Q 2819 4750 3233 4129 
Q 3647 3509 3647 2328 
Q 3647 1150 3233 529 
Q 2819 -91 2034 -91 
Q 1250 -91 836 529 
Q 422 1150 422 2328 
Q 422 3509 836 4129 
Q 1250 4750 2034 4750 
z
" transform="scale(0.015625)"/>
       </defs>
       <use xlink:href="#DejaVuSans-30"/>
      </g>
     </g>
    </g>
    <g id="ytick_2">
     <g id="line2d_11">
      <g>
       <use xlink:href="#m5348a02909" x="47.63" y="55.190279" style="stroke: #000000; stroke-width: 0.8"/>
      </g>
     </g>
     <g id="text_2">
      <!-- 10 -->
      <g transform="translate(27.905 58.989498) scale(0.1 -0.1)">
       <defs>
        <path id="DejaVuSans-31" d="M 794 531 
L 1825 531 
L 1825 4091 
L 703 3866 
L 703 4441 
L 1819 4666 
L 2450 4666 
L 2450 531 
L 3481 531 
L 3481 0 
L 794 0 
L 794 531 
z
" transform="scale(0.015625)"/>
       </defs>
       <use xlink:href="#DejaVuSans-31"/>
       <use xlink:href="#DejaVuSans-30" x="63.623047"/>
      </g>
     </g>
    </g>
   </g>
   <g id="line2d_12">
    <path d="M 47.63 76.206 
L 49.071865 72.316488 
L 50.754041 54.948533 
L 50.994352 42.005611 
L 51.234663 36.735849 
L 52.916839 78.211306 
L 53.15715 75.93185 
L 53.397461 77.056637 
L 54.599015 72.158191 
L 57.242434 68.221235 
L 57.482745 69.055096 
L 57.723056 65.768724 
L 61.087408 31.241974 
L 62.288962 29.675556 
L 63.009895 31.874083 
L 64.692071 54.263484 
L 66.133936 65.059371 
L 66.374247 58.852549 
L 67.575801 68.448578 
L 67.816112 56.974998 
L 69.017666 64.640465 
L 69.738599 62.277937 
L 70.219221 59.180371 
L 71.180464 63.308899 
L 72.382018 72.648715 
L 74.785127 70.426054 
L 76.707614 77.78343 
L 77.909168 79.870771 
L 77.909168 79.870771 
L 80.071966 81.656333 
L 81.513831 62.693274 
L 82.955696 65.234443 
L 84.397561 80.132743 
L 86.079737 78.952685 
L 88.242535 75.895702 
L 89.444089 73.944865 
L 91.606887 53.627884 
L 93.048752 66.075205 
L 93.048752 66.075205 
L 94.490617 71.770704 
L 101.219321 75.008989 
L 102.901497 78.735565 
L 104.583673 79.024961 
L 106.265849 82.491867 
L 107.948025 83.142524 
L 108.188336 81.989456 
L 109.389891 84.085375 
L 109.870512 77.696405 
L 111.072067 84.064109 
L 112.754243 79.064807 
L 112.994554 85.441035 
L 115.157351 85.586668 
L 116.118595 81.708809 
L 118.041082 84.071978 
L 118.762014 83.136427 
L 121.405434 82.872945 
L 123.808542 83.974973 
L 125.250407 79.530643 
L 125.250407 79.530643 
L 126.451962 79.705527 
L 128.134138 81.777921 
L 130.296935 83.355627 
L 131.7388 82.965752 
L 133.420976 83.039452 
L 135.343463 80.72834 
L 137.025639 83.549966 
L 138.467505 81.758297 
L 140.389991 83.423685 
L 141.831857 82.44729 
L 143.754343 83.632374 
L 145.196209 83.505773 
L 147.118695 80.228361 
L 148.800871 82.759849 
L 150.242737 78.182562 
L 152.165223 81.50773 
L 153.607089 81.65765 
L 155.289265 80.968633 
L 157.211751 83.487696 
L 158.893927 81.332536 
L 160.095482 81.64928 
L 161.537347 82.855553 
L 163.459834 83.005414 
L 165.14201 84.41637 
L 167.064497 82.327702 
L 168.746673 81.613361 
L 170.428849 78.599742 
L 172.111025 77.257655 
L 174.273822 82.398296 
L 175.475377 84.481502 
L 177.157553 84.65117 
L 179.32035 84.468753 
L 180.521905 83.390163 
L 181.723459 84.520859 
L 183.886257 84.140039 
L 187.010298 84.543884 
L 188.692474 84.519625 
L 190.37465 84.039576 
L 192.056826 84.415216 
L 194.219624 84.330007 
L 195.9018 83.974937 
L 197.583976 84.491392 
L 198.78553 84.163619 
L 200.708017 83.452602 
L 203.591747 84.448034 
L 205.514234 84.730485 
L 207.677032 83.900889 
L 208.878586 84.426966 
L 210.801073 83.811981 
L 212.242938 82.937084 
L 213.925114 81.365232 
L 215.60729 76.173769 
L 217.049155 76.618929 
L 218.010399 74.136503 
L 218.731331 76.551342 
L 219.452264 75.646436 
L 220.653818 70.939924 
L 221.13444 67.832612 
L 222.095683 75.659102 
L 222.816616 75.569157 
L 225.460035 73.823863 
L 227.142211 64.290599 
L 228.824387 70.771874 
L 229.54532 65.540028 
L 231.227496 70.089892 
L 232.188739 73.705315 
L 233.870915 80.535293 
L 236.274024 78.979903 
L 237.9562 78.69848 
L 239.638376 81.910411 
L 241.320552 80.055966 
L 243.243039 80.776994 
L 244.444593 82.80793 
L 246.607391 83.170786 
L 247.808945 83.22048 
L 249.25081 82.0541 
L 250.932986 83.805035 
L 252.615162 83.455075 
L 254.537649 84.43703 
L 258.142312 83.876627 
L 259.584177 84.397347 
L 261.506664 81.487106 
L 262.948529 84.088727 
L 266.312881 85.016328 
L 268.475679 84.347169 
L 271.59972 82.915567 
L 272.560964 83.189047 
L 274.723761 80.700041 
L 275.925316 80.655501 
L 277.847802 82.017247 
L 278.568735 79.502176 
L 279.770289 82.303323 
L 281.933087 82.973034 
L 284.816817 81.068348 
L 286.739304 84.192324 
L 288.42148 84.096306 
L 290.343967 84.492916 
L 292.026143 84.318748 
L 293.708319 84.945538 
L 295.150184 84.682123 
L 296.592049 84.262334 
L 298.514536 84.590543 
L 299.956401 84.541652 
L 301.878888 84.038881 
L 303.320753 84.382829 
L 305.24324 84.649191 
L 306.685105 84.153972 
L 308.367281 84.590333 
L 310.289768 84.035975 
L 311.731634 84.082215 
L 313.65412 84.493802 
L 315.095986 84.173783 
L 317.018472 80.568014 
L 318.460338 82.003687 
L 319.902203 80.458496 
L 321.584379 82.736131 
L 323.506866 82.559459 
L 325.189042 83.413458 
L 326.871218 78.44936 
L 328.793704 83.776091 
L 330.47588 83.102816 
L 332.158056 82.005056 
L 333.599922 81.638166 
L 335.762719 81.9377 
L 336.723963 81.277123 
L 338.406139 83.025234 
L 340.088315 83.755739 
L 341.770491 82.748032 
L 344.173599 83.771677 
L 345.375154 83.668419 
L 347.05733 84.907354 
L 348.739506 84.487451 
L 350.181371 84.314079 
L 352.344169 84.373712 
L 353.786034 85.346508 
L 355.46821 85.183198 
L 357.390697 85.227489 
L 358.832562 84.867302 
L 360.514738 85.285592 
L 361.956603 84.890018 
L 363.638779 85.174882 
L 365.801577 85.014682 
L 367.483753 85.229424 
L 369.165929 84.832814 
L 370.848105 85.340718 
L 372.530281 85.265639 
L 374.212457 84.993666 
L 375.654322 85.21372 
L 376.855876 84.995784 
L 378.778363 84.168193 
L 384.065202 85.18637 
L 385.747378 84.827857 
L 387.429554 84.788971 
L 389.11173 85.136566 
L 390.553595 84.886114 
L 392.716393 84.341682 
L 394.398569 84.816431 
L 396.080745 84.748887 
L 397.52261 84.819596 
L 399.445097 84.125948 
L 400.886962 83.7882 
L 402.809449 83.548177 
L 404.251314 84.569772 
L 407.615666 83.818855 
L 409.057531 83.76556 
L 410.980018 81.688717 
L 412.421883 82.605506 
L 414.34437 83.233478 
L 416.266857 84.336393 
L 418.189344 84.48124 
L 419.390898 84.346841 
L 421.313385 83.803061 
L 422.75525 83.65881 
L 424.197115 84.371458 
L 426.119602 84.45279 
L 427.801778 83.814279 
L 429.243643 84.107024 
L 430.925819 84.995711 
L 432.607995 84.117901 
L 434.770793 84.646849 
L 435.972347 84.34059 
L 437.654523 84.857118 
L 439.336699 85.157365 
L 443.181673 84.608065 
L 444.623538 85.479816 
L 446.305714 84.951803 
L 446.305714 84.951803 
" clip-path="url(#p564bc94316)" style="fill: none; stroke: #1f77b4; stroke-width: 1.5; stroke-linecap: square"/>
   </g>
   <g id="patch_3">
    <path d="M 47.63 88.382224 
L 47.63 26.88 
" style="fill: none; stroke: #000000; stroke-width: 0.8; stroke-linejoin: miter; stroke-linecap: square"/>
   </g>
   <g id="patch_4">
    <path d="M 446.305714 88.382224 
L 446.305714 26.88 
" style="fill: none; stroke: #000000; stroke-width: 0.8; stroke-linejoin: miter; stroke-linecap: square"/>
   </g>
   <g id="patch_5">
    <path d="M 47.63 88.382224 
L 446.305714 88.382224 
" style="fill: none; stroke: #000000; stroke-width: 0.8; stroke-linejoin: miter; stroke-linecap: square"/>
   </g>
   <g id="patch_6">
    <path d="M 47.63 26.88 
L 446.305714 26.88 
" style="fill: none; stroke: #000000; stroke-width: 0.8; stroke-linejoin: miter; stroke-linecap: square"/>
   </g>
   <g id="text_3">
    <!-- Clorofila -->
    <g transform="translate(222.31442 20.88) scale(0.12 -0.12)">
     <defs>
      <path id="DejaVuSans-43" d="M 4122 4306 
L 4122 3641 
Q 3803 3938 3442 4084 
Q 3081 4231 2675 4231 
Q 1875 4231 1450 3742 
Q 1025 3253 1025 2328 
Q 1025 1406 1450 917 
Q 1875 428 2675 428 
Q 3081 428 3442 575 
Q 3803 722 4122 1019 
L 4122 359 
Q 3791 134 3420 21 
Q 3050 -91 2638 -91 
Q 1578 -91 968 557 
Q 359 1206 359 2328 
Q 359 3453 968 4101 
Q 1578 4750 2638 4750 
Q 3056 4750 3426 4639 
Q 3797 4528 4122 4306 
z
" transform="scale(0.015625)"/>
      <path id="DejaVuSans-6c" d="M 603 4863 
L 1178 4863 
L 1178 0 
L 603 0 
L 603 4863 
z
" transform="scale(0.015625)"/>
      <path id="DejaVuSans-6f" d="M 1959 3097 
Q 1497 3097 1228 2736 
Q 959 2375 959 1747 
Q 959 1119 1226 758 
Q 1494 397 1959 397 
Q 2419 397 2687 759 
Q 2956 1122 2956 1747 
Q 2956 2369 2687 2733 
Q 2419 3097 1959 3097 
z
M 1959 3584 
Q 2709 3584 3137 3096 
Q 3566 2609 3566 1747 
Q 3566 888 3137 398 
Q 2709 -91 1959 -91 
Q 1206 -91 779 398 
Q 353 888 353 1747 
Q 353 2609 779 3096 
Q 1206 3584 1959 3584 
z
" transform="scale(0.015625)"/>
      <path id="DejaVuSans-72" d="M 2631 2963 
Q 2534 3019 2420 3045 
Q 2306 3072 2169 3072 
Q 1681 3072 1420 2755 
Q 1159 2438 1159 1844 
L 1159 0 
L 581 0 
L 581 3500 
L 1159 3500 
L 1159 2956 
Q 1341 3275 1631 3429 
Q 1922 3584 2338 3584 
Q 2397 3584 2469 3576 
Q 2541 3569 2628 3553 
L 2631 2963 
z
" transform="scale(0.015625)"/>
      <path id="DejaVuSans-66" d="M 2375 4863 
L 2375 4384 
L 1825 4384 
Q 1516 4384 1395 4259 
Q 1275 4134 1275 3809 
L 1275 3500 
L 2222 3500 
L 2222 3053 
L 1275 3053 
L 1275 0 
L 697 0 
L 697 3053 
L 147 3053 
L 147 3500 
L 697 3500 
L 697 3744 
Q 697 4328 969 4595 
Q 1241 4863 1831 4863 
L 2375 4863 
z
" transform="scale(0.015625)"/>
      <path id="DejaVuSans-69" d="M 603 3500 
L 1178 3500 
L 1178 0 
L 603 0 
L 603 3500 
z
M 603 4863 
L 1178 4863 
L 1178 4134 
L 603 4134 
L 603 4863 
z
" transform="scale(0.015625)"/>
      <path id="DejaVuSans-61" d="M 2194 1759 
Q 1497 1759 1228 1600 
Q 959 1441 959 1056 
Q 959 750 1161 570 
Q 1363 391 1709 391 
Q 2188 391 2477 730 
Q 2766 1069 2766 1631 
L 2766 1759 
L 2194 1759 
z
M 3341 1997 
L 3341 0 
L 2766 0 
L 2766 531 
Q 2569 213 2275 61 
Q 1981 -91 1556 -91 
Q 1019 -91 701 211 
Q 384 513 384 1019 
Q 384 1609 779 1909 
Q 1175 2209 1959 2209 
L 2766 2209 
L 2766 2266 
Q 2766 2663 2505 2880 
Q 2244 3097 1772 3097 
Q 1472 3097 1187 3025 
Q 903 2953 641 2809 
L 641 3341 
Q 956 3463 1253 3523 
Q 1550 3584 1831 3584 
Q 2591 3584 2966 3190 
Q 3341 2797 3341 1997 
z
" transform="scale(0.015625)"/>
     </defs>
     <use xlink:href="#DejaVuSans-43"/>
     <use xlink:href="#DejaVuSans-6c" x="69.824219"/>
     <use xlink:href="#DejaVuSans-6f" x="97.607422"/>
     <use xlink:href="#DejaVuSans-72" x="158.789062"/>
     <use xlink:href="#DejaVuSans-6f" x="197.652344"/>
     <use xlink:href="#DejaVuSans-66" x="258.833984"/>
     <use xlink:href="#DejaVuSans-69" x="294.039062"/>
     <use xlink:href="#DejaVuSans-6c" x="321.822266"/>
     <use xlink:href="#DejaVuSans-61" x="349.605469"/>
    </g>
   </g>
  </g>
  <g id="axes_2">
   <g id="patch_7">
    <path d="M 47.63 164.828149 
L 446.305714 164.828149 
L 446.305714 103.325925 
L 47.63 103.325925 
z
" style="fill: #ffffff"/>
   </g>
   <g id="matplotlib.axis_3">
    <g id="xtick_10">
     <g id="line2d_13">
      <g>
       <use xlink:href="#m4f65e0796a" x="76.226992" y="164.828149" style="stroke: #000000; stroke-width: 0.8"/>
      </g>
     </g>
    </g>
    <g id="xtick_11">
     <g id="line2d_14">
      <g>
       <use xlink:href="#m4f65e0796a" x="119.963568" y="164.828149" style="stroke: #000000; stroke-width: 0.8"/>
      </g>
     </g>
    </g>
    <g id="xtick_12">
     <g id="line2d_15">
      <g>
       <use xlink:href="#m4f65e0796a" x="164.180766" y="164.828149" style="stroke: #000000; stroke-width: 0.8"/>
      </g>
     </g>
    </g>
    <g id="xtick_13">
     <g id="line2d_16">
      <g>
       <use xlink:href="#m4f65e0796a" x="207.677032" y="164.828149" style="stroke: #000000; stroke-width: 0.8"/>
      </g>
     </g>
    </g>
    <g id="xtick_14">
     <g id="line2d_17">
      <g>
       <use xlink:href="#m4f65e0796a" x="251.89423" y="164.828149" style="stroke: #000000; stroke-width: 0.8"/>
      </g>
     </g>
    </g>
    <g id="xtick_15">
     <g id="line2d_18">
      <g>
       <use xlink:href="#m4f65e0796a" x="295.390495" y="164.828149" style="stroke: #000000; stroke-width: 0.8"/>
      </g>
     </g>
    </g>
    <g id="xtick_16">
     <g id="line2d_19">
      <g>
       <use xlink:href="#m4f65e0796a" x="339.607693" y="164.828149" style="stroke: #000000; stroke-width: 0.8"/>
      </g>
     </g>
    </g>
    <g id="xtick_17">
     <g id="line2d_20">
      <g>
       <use xlink:href="#m4f65e0796a" x="383.103958" y="164.828149" style="stroke: #000000; stroke-width: 0.8"/>
      </g>
     </g>
    </g>
    <g id="xtick_18">
     <g id="line2d_21">
      <g>
       <use xlink:href="#m4f65e0796a" x="427.321156" y="164.828149" style="stroke: #000000; stroke-width: 0.8"/>
      </g>
     </g>
    </g>
   </g>
   <g id="matplotlib.axis_4">
    <g id="ytick_3">
     <g id="line2d_22">
      <g>
       <use xlink:href="#m5348a02909" x="47.63" y="146.431518" style="stroke: #000000; stroke-width: 0.8"/>
      </g>
     </g>
     <g id="text_4">
      <!-- 2.5 -->
      <g transform="translate(24.726875 150.230737) scale(0.1 -0.1)">
       <defs>
        <path id="DejaVuSans-32" d="M 1228 531 
L 3431 531 
L 3431 0 
L 469 0 
L 469 531 
Q 828 903 1448 1529 
Q 2069 2156 2228 2338 
Q 2531 2678 2651 2914 
Q 2772 3150 2772 3378 
Q 2772 3750 2511 3984 
Q 2250 4219 1831 4219 
Q 1534 4219 1204 4116 
Q 875 4013 500 3803 
L 500 4441 
Q 881 4594 1212 4672 
Q 1544 4750 1819 4750 
Q 2544 4750 2975 4387 
Q 3406 4025 3406 3419 
Q 3406 3131 3298 2873 
Q 3191 2616 2906 2266 
Q 2828 2175 2409 1742 
Q 1991 1309 1228 531 
z
" transform="scale(0.015625)"/>
        <path id="DejaVuSans-2e" d="M 684 794 
L 1344 794 
L 1344 0 
L 684 0 
L 684 794 
z
" transform="scale(0.015625)"/>
        <path id="DejaVuSans-35" d="M 691 4666 
L 3169 4666 
L 3169 4134 
L 1269 4134 
L 1269 2991 
Q 1406 3038 1543 3061 
Q 1681 3084 1819 3084 
Q 2600 3084 3056 2656 
Q 3513 2228 3513 1497 
Q 3513 744 3044 326 
Q 2575 -91 1722 -91 
Q 1428 -91 1123 -41 
Q 819 9 494 109 
L 494 744 
Q 775 591 1075 516 
Q 1375 441 1709 441 
Q 2250 441 2565 725 
Q 2881 1009 2881 1497 
Q 2881 1984 2565 2268 
Q 2250 2553 1709 2553 
Q 1456 2553 1204 2497 
Q 953 2441 691 2322 
L 691 4666 
z
" transform="scale(0.015625)"/>
       </defs>
       <use xlink:href="#DejaVuSans-32"/>
       <use xlink:href="#DejaVuSans-2e" x="63.623047"/>
       <use xlink:href="#DejaVuSans-35" x="95.410156"/>
      </g>
     </g>
    </g>
    <g id="ytick_4">
     <g id="line2d_23">
      <g>
       <use xlink:href="#m5348a02909" x="47.63" y="127.492204" style="stroke: #000000; stroke-width: 0.8"/>
      </g>
     </g>
     <g id="text_5">
      <!-- 5.0 -->
      <g transform="translate(24.726875 131.291423) scale(0.1 -0.1)">
       <use xlink:href="#DejaVuSans-35"/>
       <use xlink:href="#DejaVuSans-2e" x="63.623047"/>
       <use xlink:href="#DejaVuSans-30" x="95.410156"/>
      </g>
     </g>
    </g>
    <g id="ytick_5">
     <g id="line2d_24">
      <g>
       <use xlink:href="#m5348a02909" x="47.63" y="108.55289" style="stroke: #000000; stroke-width: 0.8"/>
      </g>
     </g>
     <g id="text_6">
      <!-- 7.5 -->
      <g transform="translate(24.726875 112.352109) scale(0.1 -0.1)">
       <defs>
        <path id="DejaVuSans-37" d="M 525 4666 
L 3525 4666 
L 3525 4397 
L 1831 0 
L 1172 0 
L 2766 4134 
L 525 4134 
L 525 4666 
z
" transform="scale(0.015625)"/>
       </defs>
       <use xlink:href="#DejaVuSans-37"/>
       <use xlink:href="#DejaVuSans-2e" x="63.623047"/>
       <use xlink:href="#DejaVuSans-35" x="95.410156"/>
      </g>
     </g>
    </g>
    <g id="text_7">
     <!-- Trend -->
     <g transform="translate(18.647188 147.755944) rotate(-90) scale(0.1 -0.1)">
      <defs>
       <path id="DejaVuSans-54" d="M -19 4666 
L 3928 4666 
L 3928 4134 
L 2272 4134 
L 2272 0 
L 1638 0 
L 1638 4134 
L -19 4134 
L -19 4666 
z
" transform="scale(0.015625)"/>
       <path id="DejaVuSans-65" d="M 3597 1894 
L 3597 1613 
L 953 1613 
Q 991 1019 1311 708 
Q 1631 397 2203 397 
Q 2534 397 2845 478 
Q 3156 559 3463 722 
L 3463 178 
Q 3153 47 2828 -22 
Q 2503 -91 2169 -91 
Q 1331 -91 842 396 
Q 353 884 353 1716 
Q 353 2575 817 3079 
Q 1281 3584 2069 3584 
Q 2775 3584 3186 3129 
Q 3597 2675 3597 1894 
z
M 3022 2063 
Q 3016 2534 2758 2815 
Q 2500 3097 2075 3097 
Q 1594 3097 1305 2825 
Q 1016 2553 972 2059 
L 3022 2063 
z
" transform="scale(0.015625)"/>
       <path id="DejaVuSans-6e" d="M 3513 2113 
L 3513 0 
L 2938 0 
L 2938 2094 
Q 2938 2591 2744 2837 
Q 2550 3084 2163 3084 
Q 1697 3084 1428 2787 
Q 1159 2491 1159 1978 
L 1159 0 
L 581 0 
L 581 3500 
L 1159 3500 
L 1159 2956 
Q 1366 3272 1645 3428 
Q 1925 3584 2291 3584 
Q 2894 3584 3203 3211 
Q 3513 2838 3513 2113 
z
" transform="scale(0.015625)"/>
       <path id="DejaVuSans-64" d="M 2906 2969 
L 2906 4863 
L 3481 4863 
L 3481 0 
L 2906 0 
L 2906 525 
Q 2725 213 2448 61 
Q 2172 -91 1784 -91 
Q 1150 -91 751 415 
Q 353 922 353 1747 
Q 353 2572 751 3078 
Q 1150 3584 1784 3584 
Q 2172 3584 2448 3432 
Q 2725 3281 2906 2969 
z
M 947 1747 
Q 947 1113 1208 752 
Q 1469 391 1925 391 
Q 2381 391 2643 752 
Q 2906 1113 2906 1747 
Q 2906 2381 2643 2742 
Q 2381 3103 1925 3103 
Q 1469 3103 1208 2742 
Q 947 2381 947 1747 
z
" transform="scale(0.015625)"/>
      </defs>
      <use xlink:href="#DejaVuSans-54"/>
      <use xlink:href="#DejaVuSans-72" x="46.333984"/>
      <use xlink:href="#DejaVuSans-65" x="85.197266"/>
      <use xlink:href="#DejaVuSans-6e" x="146.720703"/>
      <use xlink:href="#DejaVuSans-64" x="210.099609"/>
     </g>
    </g>
   </g>
   <g id="line2d_25">
    <path d="M 63.009895 106.290944 
L 64.692071 106.121481 
L 66.133936 106.148393 
L 66.374247 108.114478 
L 67.575801 111.377298 
L 67.816112 112.997712 
L 69.017666 112.822981 
L 69.738599 111.790832 
L 70.219221 110.592341 
L 71.180464 110.258156 
L 72.382018 110.049989 
L 74.785127 110.172718 
L 76.707614 111.641641 
L 77.909168 114.606528 
L 77.909168 118.187257 
L 80.071966 121.931351 
L 81.513831 124.840005 
L 84.397561 128.247905 
L 86.079737 129.78424 
L 88.242535 131.435113 
L 89.444089 133.066293 
L 91.606887 134.481253 
L 93.048752 136.173523 
L 93.048752 139.304061 
L 94.490617 140.28768 
L 101.219321 141.648008 
L 102.901497 141.82354 
L 104.583673 142.737211 
L 106.265849 144.182052 
L 108.188336 144.744299 
L 109.389891 145.013753 
L 111.072067 147.208418 
L 112.754243 149.088776 
L 112.994554 150.372778 
L 115.157351 151.677512 
L 116.118595 152.792776 
L 118.041082 153.602559 
L 118.762014 154.346511 
L 121.405434 155.580406 
L 125.250407 155.882752 
L 125.250407 155.692207 
L 126.451962 155.471217 
L 128.134138 155.353062 
L 131.7388 155.496837 
L 133.420976 155.565522 
L 135.343463 155.503631 
L 137.025639 155.238733 
L 138.467505 155.180476 
L 141.831857 155.228261 
L 143.754343 155.140062 
L 145.196209 154.911168 
L 147.118695 154.464836 
L 148.800871 154.308499 
L 153.607089 155.338039 
L 160.095482 155.820771 
L 161.537347 156.015101 
L 174.273822 156.928855 
L 177.157553 157.543646 
L 180.521905 158.031714 
L 181.723459 158.188939 
L 187.010298 158.480766 
L 188.692474 158.472542 
L 190.37465 158.134581 
L 194.219624 156.891176 
L 195.9018 156.352954 
L 197.583976 156.027447 
L 198.78553 155.650944 
L 200.708017 154.802855 
L 202.149882 153.85305 
L 203.591747 153.125941 
L 205.514234 152.324819 
L 207.677032 151.116877 
L 208.878586 149.782877 
L 210.801073 148.469164 
L 212.242938 147.126819 
L 213.925114 146.100658 
L 215.60729 145.51917 
L 217.049155 145.156128 
L 219.452264 144.130188 
L 221.13444 143.648816 
L 229.54532 143.182111 
L 232.188739 143.412472 
L 237.9562 144.981956 
L 243.243039 147.346612 
L 244.444593 148.503617 
L 247.808945 149.936106 
L 249.25081 150.421912 
L 254.537649 153.528984 
L 256.219825 154.732945 
L 258.142312 155.586158 
L 259.584177 155.937826 
L 261.506664 156.171153 
L 262.948529 156.602042 
L 268.475679 157.546522 
L 279.770289 158.372973 
L 284.816817 158.420731 
L 290.343967 158.631797 
L 296.592049 157.844262 
L 298.514536 157.901381 
L 299.956401 158.088896 
L 303.320753 158.084676 
L 305.24324 158.29071 
L 311.731634 158.181055 
L 315.095986 157.945736 
L 321.584379 157.636741 
L 333.599922 157.883358 
L 340.088315 158.15118 
L 344.173599 158.678828 
L 345.375154 158.99199 
L 348.739506 159.494565 
L 352.344169 160.005494 
L 353.786034 160.287272 
L 357.390697 160.542152 
L 361.956603 161.328192 
L 363.638779 161.556553 
L 372.530281 162.032594 
L 378.778363 161.858361 
L 384.065202 161.580061 
L 390.553595 160.872395 
L 396.080745 160.682165 
L 399.445097 160.463942 
L 406.173801 160.293577 
L 419.390898 160.241026 
L 419.390898 160.241026 
" clip-path="url(#p74201dce04)" style="fill: none; stroke: #1f77b4; stroke-width: 1.5; stroke-linecap: square"/>
   </g>
   <g id="patch_8">
    <path d="M 47.63 164.828149 
L 47.63 103.325925 
" style="fill: none; stroke: #000000; stroke-width: 0.8; stroke-linejoin: miter; stroke-linecap: square"/>
   </g>
   <g id="patch_9">
    <path d="M 446.305714 164.828149 
L 446.305714 103.325925 
" style="fill: none; stroke: #000000; stroke-width: 0.8; stroke-linejoin: miter; stroke-linecap: square"/>
   </g>
   <g id="patch_10">
    <path d="M 47.63 164.828149 
L 446.305714 164.828149 
" style="fill: none; stroke: #000000; stroke-width: 0.8; stroke-linejoin: miter; stroke-linecap: square"/>
   </g>
   <g id="patch_11">
    <path d="M 47.63 103.325925 
L 446.305714 103.325925 
" style="fill: none; stroke: #000000; stroke-width: 0.8; stroke-linejoin: miter; stroke-linecap: square"/>
   </g>
  </g>
  <g id="axes_3">
   <g id="patch_12">
    <path d="M 47.63 241.274075 
L 446.305714 241.274075 
L 446.305714 179.771851 
L 47.63 179.771851 
z
" style="fill: #ffffff"/>
   </g>
   <g id="matplotlib.axis_5">
    <g id="xtick_19">
     <g id="line2d_26">
      <g>
       <use xlink:href="#m4f65e0796a" x="76.226992" y="241.274075" style="stroke: #000000; stroke-width: 0.8"/>
      </g>
     </g>
    </g>
    <g id="xtick_20">
     <g id="line2d_27">
      <g>
       <use xlink:href="#m4f65e0796a" x="119.963568" y="241.274075" style="stroke: #000000; stroke-width: 0.8"/>
      </g>
     </g>
    </g>
    <g id="xtick_21">
     <g id="line2d_28">
      <g>
       <use xlink:href="#m4f65e0796a" x="164.180766" y="241.274075" style="stroke: #000000; stroke-width: 0.8"/>
      </g>
     </g>
    </g>
    <g id="xtick_22">
     <g id="line2d_29">
      <g>
       <use xlink:href="#m4f65e0796a" x="207.677032" y="241.274075" style="stroke: #000000; stroke-width: 0.8"/>
      </g>
     </g>
    </g>
    <g id="xtick_23">
     <g id="line2d_30">
      <g>
       <use xlink:href="#m4f65e0796a" x="251.89423" y="241.274075" style="stroke: #000000; stroke-width: 0.8"/>
      </g>
     </g>
    </g>
    <g id="xtick_24">
     <g id="line2d_31">
      <g>
       <use xlink:href="#m4f65e0796a" x="295.390495" y="241.274075" style="stroke: #000000; stroke-width: 0.8"/>
      </g>
     </g>
    </g>
    <g id="xtick_25">
     <g id="line2d_32">
      <g>
       <use xlink:href="#m4f65e0796a" x="339.607693" y="241.274075" style="stroke: #000000; stroke-width: 0.8"/>
      </g>
     </g>
    </g>
    <g id="xtick_26">
     <g id="line2d_33">
      <g>
       <use xlink:href="#m4f65e0796a" x="383.103958" y="241.274075" style="stroke: #000000; stroke-width: 0.8"/>
      </g>
     </g>
    </g>
    <g id="xtick_27">
     <g id="line2d_34">
      <g>
       <use xlink:href="#m4f65e0796a" x="427.321156" y="241.274075" style="stroke: #000000; stroke-width: 0.8"/>
      </g>
     </g>
    </g>
   </g>
   <g id="matplotlib.axis_6">
    <g id="ytick_6">
     <g id="line2d_35">
      <g>
       <use xlink:href="#m5348a02909" x="47.63" y="216.804057" style="stroke: #000000; stroke-width: 0.8"/>
      </g>
     </g>
     <g id="text_8">
      <!-- 0 -->
      <g transform="translate(34.2675 220.603275) scale(0.1 -0.1)">
       <use xlink:href="#DejaVuSans-30"/>
      </g>
     </g>
    </g>
    <g id="ytick_7">
     <g id="line2d_36">
      <g>
       <use xlink:href="#m5348a02909" x="47.63" y="190.436437" style="stroke: #000000; stroke-width: 0.8"/>
      </g>
     </g>
     <g id="text_9">
      <!-- 1 -->
      <g transform="translate(34.2675 194.235656) scale(0.1 -0.1)">
       <use xlink:href="#DejaVuSans-31"/>
      </g>
     </g>
    </g>
    <g id="text_10">
     <!-- Seasonal -->
     <g transform="translate(28.187813 233.123744) rotate(-90) scale(0.1 -0.1)">
      <defs>
       <path id="DejaVuSans-53" d="M 3425 4513 
L 3425 3897 
Q 3066 4069 2747 4153 
Q 2428 4238 2131 4238 
Q 1616 4238 1336 4038 
Q 1056 3838 1056 3469 
Q 1056 3159 1242 3001 
Q 1428 2844 1947 2747 
L 2328 2669 
Q 3034 2534 3370 2195 
Q 3706 1856 3706 1288 
Q 3706 609 3251 259 
Q 2797 -91 1919 -91 
Q 1588 -91 1214 -16 
Q 841 59 441 206 
L 441 856 
Q 825 641 1194 531 
Q 1563 422 1919 422 
Q 2459 422 2753 634 
Q 3047 847 3047 1241 
Q 3047 1584 2836 1778 
Q 2625 1972 2144 2069 
L 1759 2144 
Q 1053 2284 737 2584 
Q 422 2884 422 3419 
Q 422 4038 858 4394 
Q 1294 4750 2059 4750 
Q 2388 4750 2728 4690 
Q 3069 4631 3425 4513 
z
" transform="scale(0.015625)"/>
       <path id="DejaVuSans-73" d="M 2834 3397 
L 2834 2853 
Q 2591 2978 2328 3040 
Q 2066 3103 1784 3103 
Q 1356 3103 1142 2972 
Q 928 2841 928 2578 
Q 928 2378 1081 2264 
Q 1234 2150 1697 2047 
L 1894 2003 
Q 2506 1872 2764 1633 
Q 3022 1394 3022 966 
Q 3022 478 2636 193 
Q 2250 -91 1575 -91 
Q 1294 -91 989 -36 
Q 684 19 347 128 
L 347 722 
Q 666 556 975 473 
Q 1284 391 1588 391 
Q 1994 391 2212 530 
Q 2431 669 2431 922 
Q 2431 1156 2273 1281 
Q 2116 1406 1581 1522 
L 1381 1569 
Q 847 1681 609 1914 
Q 372 2147 372 2553 
Q 372 3047 722 3315 
Q 1072 3584 1716 3584 
Q 2034 3584 2315 3537 
Q 2597 3491 2834 3397 
z
" transform="scale(0.015625)"/>
      </defs>
      <use xlink:href="#DejaVuSans-53"/>
      <use xlink:href="#DejaVuSans-65" x="63.476562"/>
      <use xlink:href="#DejaVuSans-61" x="125"/>
      <use xlink:href="#DejaVuSans-73" x="186.279297"/>
      <use xlink:href="#DejaVuSans-6f" x="238.378906"/>
      <use xlink:href="#DejaVuSans-6e" x="299.560547"/>
      <use xlink:href="#DejaVuSans-61" x="362.939453"/>
      <use xlink:href="#DejaVuSans-6c" x="424.21875"/>
     </g>
    </g>
   </g>
   <g id="line2d_37">
    <path d="M 47.63 225.469676 
L 49.071865 198.883348 
L 50.754041 192.247425 
L 50.994352 224.381352 
L 51.234663 218.860126 
L 52.916839 215.721058 
L 53.397461 182.567406 
L 54.599015 193.038159 
L 57.242434 195.30126 
L 57.482745 200.864527 
L 57.723056 211.839154 
L 59.885854 217.100256 
L 61.087408 218.469145 
L 62.288962 225.394819 
L 63.009895 192.804835 
L 64.692071 215.683321 
L 66.133936 233.703542 
L 66.374247 223.555083 
L 67.575801 234.216522 
L 67.816112 221.951528 
L 69.017666 222.577262 
L 69.738599 231.895368 
L 70.219221 220.68095 
L 71.180464 229.690806 
L 72.382018 238.478519 
L 74.785127 224.26922 
L 76.707614 232.995728 
L 77.909168 231.84612 
L 77.909168 232.774601 
L 80.071966 225.469676 
L 81.513831 198.883348 
L 82.955696 192.247425 
L 84.397561 224.381352 
L 86.079737 218.860126 
L 88.242535 215.721058 
L 89.444089 196.860581 
L 91.606887 182.567406 
L 93.048752 193.038159 
L 93.048752 200.864527 
L 94.490617 211.839154 
L 98.09528 217.100256 
L 99.537145 218.469145 
L 101.219321 225.394819 
L 102.901497 192.804835 
L 104.583673 215.683321 
L 106.265849 233.703542 
L 107.948025 223.555083 
L 108.188336 234.216522 
L 109.389891 221.951528 
L 109.870512 222.577262 
L 111.072067 231.895368 
L 112.754243 220.68095 
L 112.994554 229.690806 
L 115.157351 238.478519 
L 116.118595 224.26922 
L 118.041082 232.995728 
L 118.762014 231.84612 
L 120.203879 232.774601 
L 121.405434 225.469676 
L 123.808542 198.883348 
L 125.250407 192.247425 
L 125.250407 224.381352 
L 126.451962 218.860126 
L 128.134138 215.721058 
L 130.296935 196.860581 
L 131.7388 182.567406 
L 133.420976 193.038159 
L 135.343463 195.30126 
L 137.025639 200.864527 
L 138.467505 211.839154 
L 140.389991 217.100256 
L 141.831857 218.469145 
L 143.754343 225.394819 
L 145.196209 192.804835 
L 147.118695 215.683321 
L 148.800871 233.703542 
L 150.242737 223.555083 
L 152.165223 234.216522 
L 153.607089 221.951528 
L 155.289265 222.577262 
L 157.211751 231.895368 
L 158.893927 220.68095 
L 160.095482 229.690806 
L 161.537347 238.478519 
L 163.459834 224.26922 
L 165.14201 232.995728 
L 167.064497 231.84612 
L 168.746673 232.774601 
L 170.428849 225.469676 
L 172.111025 198.883348 
L 174.273822 192.247425 
L 175.475377 224.381352 
L 177.157553 218.860126 
L 179.32035 215.721058 
L 180.521905 196.860581 
L 181.723459 182.567406 
L 183.886257 193.038159 
L 187.010298 195.30126 
L 188.692474 200.864527 
L 190.37465 211.839154 
L 192.056826 217.100256 
L 194.219624 218.469145 
L 195.9018 225.394819 
L 197.583976 192.804835 
L 198.78553 215.683321 
L 200.708017 233.703542 
L 202.149882 223.555083 
L 203.591747 234.216522 
L 205.514234 221.951528 
L 207.677032 222.577262 
L 208.878586 231.895368 
L 210.801073 220.68095 
L 212.242938 229.690806 
L 213.925114 238.478519 
L 215.60729 224.26922 
L 217.049155 232.995728 
L 218.010399 231.84612 
L 218.731331 232.774601 
L 219.452264 225.469676 
L 220.653818 198.883348 
L 221.13444 192.247425 
L 222.095683 224.381352 
L 222.816616 218.860126 
L 225.460035 215.721058 
L 227.142211 196.860581 
L 228.824387 182.567406 
L 229.54532 193.038159 
L 231.227496 195.30126 
L 232.188739 200.864527 
L 233.870915 211.839154 
L 236.274024 217.100256 
L 237.9562 218.469145 
L 239.638376 225.394819 
L 241.320552 192.804835 
L 243.243039 215.683321 
L 244.444593 233.703542 
L 246.607391 223.555083 
L 247.808945 234.216522 
L 249.25081 221.951528 
L 250.932986 222.577262 
L 252.615162 231.895368 
L 254.537649 220.68095 
L 256.219825 229.690806 
L 258.142312 238.478519 
L 259.584177 224.26922 
L 261.506664 232.995728 
L 262.948529 231.84612 
L 264.871016 232.774601 
L 266.312881 225.469676 
L 268.475679 198.883348 
L 271.59972 192.247425 
L 272.560964 224.381352 
L 275.925316 215.721058 
L 277.847802 196.860581 
L 278.568735 182.567406 
L 279.770289 193.038159 
L 281.933087 195.30126 
L 283.615263 200.864527 
L 284.816817 211.839154 
L 286.739304 217.100256 
L 288.42148 218.469145 
L 290.343967 225.394819 
L 292.026143 192.804835 
L 293.708319 215.683321 
L 295.150184 233.703542 
L 296.592049 223.555083 
L 298.514536 234.216522 
L 299.956401 221.951528 
L 301.878888 222.577262 
L 303.320753 231.895368 
L 305.24324 220.68095 
L 306.685105 229.690806 
L 308.367281 238.478519 
L 310.289768 224.26922 
L 311.731634 232.995728 
L 313.65412 231.84612 
L 315.095986 232.774601 
L 317.018472 225.469676 
L 318.460338 198.883348 
L 319.902203 192.247425 
L 321.584379 224.381352 
L 323.506866 218.860126 
L 325.189042 215.721058 
L 326.871218 196.860581 
L 328.793704 182.567406 
L 330.47588 193.038159 
L 332.158056 195.30126 
L 333.599922 200.864527 
L 336.723963 217.100256 
L 338.406139 218.469145 
L 340.088315 225.394819 
L 341.770491 192.804835 
L 344.173599 215.683321 
L 345.375154 233.703542 
L 347.05733 223.555083 
L 348.739506 234.216522 
L 350.181371 221.951528 
L 352.344169 222.577262 
L 353.786034 231.895368 
L 355.46821 220.68095 
L 357.390697 229.690806 
L 358.832562 238.478519 
L 360.514738 224.26922 
L 361.956603 232.995728 
L 363.638779 231.84612 
L 365.801577 232.774601 
L 367.483753 225.469676 
L 369.165929 198.883348 
L 370.848105 192.247425 
L 372.530281 224.381352 
L 374.212457 218.860126 
L 375.654322 215.721058 
L 376.855876 196.860581 
L 378.778363 182.567406 
L 380.70085 193.038159 
L 382.383026 195.30126 
L 384.065202 200.864527 
L 385.747378 211.839154 
L 387.429554 217.100256 
L 389.11173 218.469145 
L 390.553595 225.394819 
L 392.716393 192.804835 
L 394.398569 215.683321 
L 396.080745 233.703542 
L 397.52261 223.555083 
L 399.445097 234.216522 
L 400.886962 221.951528 
L 402.809449 222.577262 
L 404.251314 231.895368 
L 406.173801 220.68095 
L 409.057531 238.478519 
L 410.980018 224.26922 
L 412.421883 232.995728 
L 414.34437 231.84612 
L 416.266857 232.774601 
L 418.189344 225.469676 
L 419.390898 198.883348 
L 421.313385 192.247425 
L 422.75525 224.381352 
L 424.197115 218.860126 
L 426.119602 215.721058 
L 427.801778 196.860581 
L 429.243643 182.567406 
L 430.925819 193.038159 
L 432.607995 195.30126 
L 434.770793 200.864527 
L 435.972347 211.839154 
L 437.654523 217.100256 
L 439.336699 218.469145 
L 443.181673 225.394819 
L 444.623538 192.804835 
L 446.305714 215.683321 
L 446.305714 215.683321 
" clip-path="url(#ped36c4c865)" style="fill: none; stroke: #1f77b4; stroke-width: 1.5; stroke-linecap: square"/>
   </g>
   <g id="patch_13">
    <path d="M 47.63 241.274075 
L 47.63 179.771851 
" style="fill: none; stroke: #000000; stroke-width: 0.8; stroke-linejoin: miter; stroke-linecap: square"/>
   </g>
   <g id="patch_14">
    <path d="M 446.305714 241.274075 
L 446.305714 179.771851 
" style="fill: none; stroke: #000000; stroke-width: 0.8; stroke-linejoin: miter; stroke-linecap: square"/>
   </g>
   <g id="patch_15">
    <path d="M 47.63 241.274075 
L 446.305714 241.274075 
" style="fill: none; stroke: #000000; stroke-width: 0.8; stroke-linejoin: miter; stroke-linecap: square"/>
   </g>
   <g id="patch_16">
    <path d="M 47.63 179.771851 
L 446.305714 179.771851 
" style="fill: none; stroke: #000000; stroke-width: 0.8; stroke-linejoin: miter; stroke-linecap: square"/>
   </g>
  </g>
  <g id="axes_4">
   <g id="patch_17">
    <path d="M 47.63 317.72 
L 446.305714 317.72 
L 446.305714 256.217776 
L 47.63 256.217776 
z
" style="fill: #ffffff"/>
   </g>
   <g id="line2d_38">
    <path d="M 47.63 297.234356 
L 446.305714 297.234356 
" clip-path="url(#p822d2cac1a)" style="fill: none; stroke: #000000; stroke-width: 1.5; stroke-linecap: square"/>
   </g>
   <g id="matplotlib.axis_7">
    <g id="xtick_28">
     <g id="line2d_39">
      <g>
       <use xlink:href="#m4f65e0796a" x="76.226992" y="317.72" style="stroke: #000000; stroke-width: 0.8"/>
      </g>
     </g>
     <g id="text_11">
      <!-- 2020-01 -->
      <g transform="translate(55.335586 332.318437) scale(0.1 -0.1)">
       <defs>
        <path id="DejaVuSans-2d" d="M 313 2009 
L 1997 2009 
L 1997 1497 
L 313 1497 
L 313 2009 
z
" transform="scale(0.015625)"/>
       </defs>
       <use xlink:href="#DejaVuSans-32"/>
       <use xlink:href="#DejaVuSans-30" x="63.623047"/>
       <use xlink:href="#DejaVuSans-32" x="127.246094"/>
       <use xlink:href="#DejaVuSans-30" x="190.869141"/>
       <use xlink:href="#DejaVuSans-2d" x="254.492188"/>
       <use xlink:href="#DejaVuSans-30" x="290.576172"/>
       <use xlink:href="#DejaVuSans-31" x="354.199219"/>
      </g>
     </g>
    </g>
    <g id="xtick_29">
     <g id="line2d_40">
      <g>
       <use xlink:href="#m4f65e0796a" x="119.963568" y="317.72" style="stroke: #000000; stroke-width: 0.8"/>
      </g>
     </g>
     <g id="text_12">
      <!-- 2020-07 -->
      <g transform="translate(99.072162 332.318437) scale(0.1 -0.1)">
       <use xlink:href="#DejaVuSans-32"/>
       <use xlink:href="#DejaVuSans-30" x="63.623047"/>
       <use xlink:href="#DejaVuSans-32" x="127.246094"/>
       <use xlink:href="#DejaVuSans-30" x="190.869141"/>
       <use xlink:href="#DejaVuSans-2d" x="254.492188"/>
       <use xlink:href="#DejaVuSans-30" x="290.576172"/>
       <use xlink:href="#DejaVuSans-37" x="354.199219"/>
      </g>
     </g>
    </g>
    <g id="xtick_30">
     <g id="line2d_41">
      <g>
       <use xlink:href="#m4f65e0796a" x="164.180766" y="317.72" style="stroke: #000000; stroke-width: 0.8"/>
      </g>
     </g>
     <g id="text_13">
      <!-- 2021-01 -->
      <g transform="translate(143.28936 332.318437) scale(0.1 -0.1)">
       <use xlink:href="#DejaVuSans-32"/>
       <use xlink:href="#DejaVuSans-30" x="63.623047"/>
       <use xlink:href="#DejaVuSans-32" x="127.246094"/>
       <use xlink:href="#DejaVuSans-31" x="190.869141"/>
       <use xlink:href="#DejaVuSans-2d" x="254.492188"/>
       <use xlink:href="#DejaVuSans-30" x="290.576172"/>
       <use xlink:href="#DejaVuSans-31" x="354.199219"/>
      </g>
     </g>
    </g>
    <g id="xtick_31">
     <g id="line2d_42">
      <g>
       <use xlink:href="#m4f65e0796a" x="207.677032" y="317.72" style="stroke: #000000; stroke-width: 0.8"/>
      </g>
     </g>
     <g id="text_14">
      <!-- 2021-07 -->
      <g transform="translate(186.785626 332.318437) scale(0.1 -0.1)">
       <use xlink:href="#DejaVuSans-32"/>
       <use xlink:href="#DejaVuSans-30" x="63.623047"/>
       <use xlink:href="#DejaVuSans-32" x="127.246094"/>
       <use xlink:href="#DejaVuSans-31" x="190.869141"/>
       <use xlink:href="#DejaVuSans-2d" x="254.492188"/>
       <use xlink:href="#DejaVuSans-30" x="290.576172"/>
       <use xlink:href="#DejaVuSans-37" x="354.199219"/>
      </g>
     </g>
    </g>
    <g id="xtick_32">
     <g id="line2d_43">
      <g>
       <use xlink:href="#m4f65e0796a" x="251.89423" y="317.72" style="stroke: #000000; stroke-width: 0.8"/>
      </g>
     </g>
     <g id="text_15">
      <!-- 2022-01 -->
      <g transform="translate(231.002823 332.318437) scale(0.1 -0.1)">
       <use xlink:href="#DejaVuSans-32"/>
       <use xlink:href="#DejaVuSans-30" x="63.623047"/>
       <use xlink:href="#DejaVuSans-32" x="127.246094"/>
       <use xlink:href="#DejaVuSans-32" x="190.869141"/>
       <use xlink:href="#DejaVuSans-2d" x="254.492188"/>
       <use xlink:href="#DejaVuSans-30" x="290.576172"/>
       <use xlink:href="#DejaVuSans-31" x="354.199219"/>
      </g>
     </g>
    </g>
    <g id="xtick_33">
     <g id="line2d_44">
      <g>
       <use xlink:href="#m4f65e0796a" x="295.390495" y="317.72" style="stroke: #000000; stroke-width: 0.8"/>
      </g>
     </g>
     <g id="text_16">
      <!-- 2022-07 -->
      <g transform="translate(274.499089 332.318437) scale(0.1 -0.1)">
       <use xlink:href="#DejaVuSans-32"/>
       <use xlink:href="#DejaVuSans-30" x="63.623047"/>
       <use xlink:href="#DejaVuSans-32" x="127.246094"/>
       <use xlink:href="#DejaVuSans-32" x="190.869141"/>
       <use xlink:href="#DejaVuSans-2d" x="254.492188"/>
       <use xlink:href="#DejaVuSans-30" x="290.576172"/>
       <use xlink:href="#DejaVuSans-37" x="354.199219"/>
      </g>
     </g>
    </g>
    <g id="xtick_34">
     <g id="line2d_45">
      <g>
       <use xlink:href="#m4f65e0796a" x="339.607693" y="317.72" style="stroke: #000000; stroke-width: 0.8"/>
      </g>
     </g>
     <g id="text_17">
      <!-- 2023-01 -->
      <g transform="translate(318.716287 332.318437) scale(0.1 -0.1)">
       <defs>
        <path id="DejaVuSans-33" d="M 2597 2516 
Q 3050 2419 3304 2112 
Q 3559 1806 3559 1356 
Q 3559 666 3084 287 
Q 2609 -91 1734 -91 
Q 1441 -91 1130 -33 
Q 819 25 488 141 
L 488 750 
Q 750 597 1062 519 
Q 1375 441 1716 441 
Q 2309 441 2620 675 
Q 2931 909 2931 1356 
Q 2931 1769 2642 2001 
Q 2353 2234 1838 2234 
L 1294 2234 
L 1294 2753 
L 1863 2753 
Q 2328 2753 2575 2939 
Q 2822 3125 2822 3475 
Q 2822 3834 2567 4026 
Q 2313 4219 1838 4219 
Q 1578 4219 1281 4162 
Q 984 4106 628 3988 
L 628 4550 
Q 988 4650 1302 4700 
Q 1616 4750 1894 4750 
Q 2613 4750 3031 4423 
Q 3450 4097 3450 3541 
Q 3450 3153 3228 2886 
Q 3006 2619 2597 2516 
z
" transform="scale(0.015625)"/>
       </defs>
       <use xlink:href="#DejaVuSans-32"/>
       <use xlink:href="#DejaVuSans-30" x="63.623047"/>
       <use xlink:href="#DejaVuSans-32" x="127.246094"/>
       <use xlink:href="#DejaVuSans-33" x="190.869141"/>
       <use xlink:href="#DejaVuSans-2d" x="254.492188"/>
       <use xlink:href="#DejaVuSans-30" x="290.576172"/>
       <use xlink:href="#DejaVuSans-31" x="354.199219"/>
      </g>
     </g>
    </g>
    <g id="xtick_35">
     <g id="line2d_46">
      <g>
       <use xlink:href="#m4f65e0796a" x="383.103958" y="317.72" style="stroke: #000000; stroke-width: 0.8"/>
      </g>
     </g>
     <g id="text_18">
      <!-- 2023-07 -->
      <g transform="translate(362.212552 332.318437) scale(0.1 -0.1)">
       <use xlink:href="#DejaVuSans-32"/>
       <use xlink:href="#DejaVuSans-30" x="63.623047"/>
       <use xlink:href="#DejaVuSans-32" x="127.246094"/>
       <use xlink:href="#DejaVuSans-33" x="190.869141"/>
       <use xlink:href="#DejaVuSans-2d" x="254.492188"/>
       <use xlink:href="#DejaVuSans-30" x="290.576172"/>
       <use xlink:href="#DejaVuSans-37" x="354.199219"/>
      </g>
     </g>
    </g>
    <g id="xtick_36">
     <g id="line2d_47">
      <g>
       <use xlink:href="#m4f65e0796a" x="427.321156" y="317.72" style="stroke: #000000; stroke-width: 0.8"/>
      </g>
     </g>
     <g id="text_19">
      <!-- 2024-01 -->
      <g transform="translate(406.42975 332.318437) scale(0.1 -0.1)">
       <defs>
        <path id="DejaVuSans-34" d="M 2419 4116 
L 825 1625 
L 2419 1625 
L 2419 4116 
z
M 2253 4666 
L 3047 4666 
L 3047 1625 
L 3713 1625 
L 3713 1100 
L 3047 1100 
L 3047 0 
L 2419 0 
L 2419 1100 
L 313 1100 
L 313 1709 
L 2253 4666 
z
" transform="scale(0.015625)"/>
       </defs>
       <use xlink:href="#DejaVuSans-32"/>
       <use xlink:href="#DejaVuSans-30" x="63.623047"/>
       <use xlink:href="#DejaVuSans-32" x="127.246094"/>
       <use xlink:href="#DejaVuSans-34" x="190.869141"/>
       <use xlink:href="#DejaVuSans-2d" x="254.492188"/>
       <use xlink:href="#DejaVuSans-30" x="290.576172"/>
       <use xlink:href="#DejaVuSans-31" x="354.199219"/>
      </g>
     </g>
    </g>
   </g>
   <g id="matplotlib.axis_8">
    <g id="ytick_8">
     <g id="line2d_48">
      <g>
       <use xlink:href="#m5348a02909" x="47.63" y="297.234356" style="stroke: #000000; stroke-width: 0.8"/>
      </g>
     </g>
     <g id="text_20">
      <!-- 0 -->
      <g transform="translate(34.2675 301.033575) scale(0.1 -0.1)">
       <use xlink:href="#DejaVuSans-30"/>
      </g>
     </g>
    </g>
    <g id="ytick_9">
     <g id="line2d_49">
      <g>
       <use xlink:href="#m5348a02909" x="47.63" y="275.494666" style="stroke: #000000; stroke-width: 0.8"/>
      </g>
     </g>
     <g id="text_21">
      <!-- 5 -->
      <g transform="translate(34.2675 279.293884) scale(0.1 -0.1)">
       <use xlink:href="#DejaVuSans-35"/>
      </g>
     </g>
    </g>
    <g id="text_22">
     <!-- Resid -->
     <g transform="translate(28.187813 300.462638) rotate(-90) scale(0.1 -0.1)">
      <defs>
       <path id="DejaVuSans-52" d="M 2841 2188 
Q 3044 2119 3236 1894 
Q 3428 1669 3622 1275 
L 4263 0 
L 3584 0 
L 2988 1197 
Q 2756 1666 2539 1819 
Q 2322 1972 1947 1972 
L 1259 1972 
L 1259 0 
L 628 0 
L 628 4666 
L 2053 4666 
Q 2853 4666 3247 4331 
Q 3641 3997 3641 3322 
Q 3641 2881 3436 2590 
Q 3231 2300 2841 2188 
z
M 1259 4147 
L 1259 2491 
L 2053 2491 
Q 2509 2491 2742 2702 
Q 2975 2913 2975 3322 
Q 2975 3731 2742 3939 
Q 2509 4147 2053 4147 
L 1259 4147 
z
" transform="scale(0.015625)"/>
      </defs>
      <use xlink:href="#DejaVuSans-52"/>
      <use xlink:href="#DejaVuSans-65" x="64.982422"/>
      <use xlink:href="#DejaVuSans-73" x="126.505859"/>
      <use xlink:href="#DejaVuSans-69" x="178.605469"/>
      <use xlink:href="#DejaVuSans-64" x="206.388672"/>
     </g>
    </g>
   </g>
   <g id="line2d_50">
    <defs>
     <path id="mab96d717d4" d="M 0 3 
C 0.795609 3 1.55874 2.683901 2.12132 2.12132 
C 2.683901 1.55874 3 0.795609 3 0 
C 3 -0.795609 2.683901 -1.55874 2.12132 -2.12132 
C 1.55874 -2.683901 0.795609 -3 0 -3 
C -0.795609 -3 -1.55874 -2.683901 -2.12132 -2.12132 
C -2.683901 -1.55874 -3 -0.795609 -3 0 
C -3 0.795609 -2.683901 1.55874 -2.12132 2.12132 
C -1.55874 2.683901 -0.795609 3 0 3 
z
" style="stroke: #1f77b4"/>
    </defs>
    <g clip-path="url(#p822d2cac1a)">
     <use xlink:href="#mab96d717d4" x="63.009895" y="259.013332" style="fill: #1f77b4; stroke: #1f77b4"/>
     <use xlink:href="#mab96d717d4" x="64.692071" y="286.648689" style="fill: #1f77b4; stroke: #1f77b4"/>
     <use xlink:href="#mab96d717d4" x="66.133936" y="298.759386" style="fill: #1f77b4; stroke: #1f77b4"/>
     <use xlink:href="#mab96d717d4" x="66.374247" y="290.624445" style="fill: #1f77b4; stroke: #1f77b4"/>
     <use xlink:href="#mab96d717d4" x="67.575801" y="300.413442" style="fill: #1f77b4; stroke: #1f77b4"/>
     <use xlink:href="#mab96d717d4" x="67.816112" y="285.46055" style="fill: #1f77b4; stroke: #1f77b4"/>
     <use xlink:href="#mab96d717d4" x="69.017666" y="296.177503" style="fill: #1f77b4; stroke: #1f77b4"/>
     <use xlink:href="#mab96d717d4" x="69.738599" y="291.929457" style="fill: #1f77b4; stroke: #1f77b4"/>
     <use xlink:href="#mab96d717d4" x="70.219221" y="290.134705" style="fill: #1f77b4; stroke: #1f77b4"/>
     <use xlink:href="#mab96d717d4" x="71.180464" y="294.614391" style="fill: #1f77b4; stroke: #1f77b4"/>
     <use xlink:href="#mab96d717d4" x="72.382018" y="306.34616" style="fill: #1f77b4; stroke: #1f77b4"/>
     <use xlink:href="#mab96d717d4" x="74.785127" y="305.510487" style="fill: #1f77b4; stroke: #1f77b4"/>
     <use xlink:href="#mab96d717d4" x="76.707614" y="313.517453" style="fill: #1f77b4; stroke: #1f77b4"/>
     <use xlink:href="#mab96d717d4" x="77.909168" y="314.924444" style="fill: #1f77b4; stroke: #1f77b4"/>
     <use xlink:href="#mab96d717d4" x="77.909168" y="312.716252" style="fill: #1f77b4; stroke: #1f77b4"/>
     <use xlink:href="#mab96d717d4" x="80.071966" y="314.269001" style="fill: #1f77b4; stroke: #1f77b4"/>
     <use xlink:href="#mab96d717d4" x="81.513831" y="290.464553" style="fill: #1f77b4; stroke: #1f77b4"/>
     <use xlink:href="#mab96d717d4" x="82.955696" y="294.129077" style="fill: #1f77b4; stroke: #1f77b4"/>
     <use xlink:href="#mab96d717d4" x="84.397561" y="308.69252" style="fill: #1f77b4; stroke: #1f77b4"/>
     <use xlink:href="#mab96d717d4" x="86.079737" y="307.07094" style="fill: #1f77b4; stroke: #1f77b4"/>
     <use xlink:href="#mab96d717d4" x="88.242535" y="302.366007" style="fill: #1f77b4; stroke: #1f77b4"/>
     <use xlink:href="#mab96d717d4" x="89.444089" y="301.811689" style="fill: #1f77b4; stroke: #1f77b4"/>
     <use xlink:href="#mab96d717d4" x="91.606887" y="274.944009" style="fill: #1f77b4; stroke: #1f77b4"/>
     <use xlink:href="#mab96d717d4" x="93.048752" y="289.653253" style="fill: #1f77b4; stroke: #1f77b4"/>
     <use xlink:href="#mab96d717d4" x="93.048752" y="288.300766" style="fill: #1f77b4; stroke: #1f77b4"/>
     <use xlink:href="#mab96d717d4" x="93.048752" y="286.565999" style="fill: #1f77b4; stroke: #1f77b4"/>
     <use xlink:href="#mab96d717d4" x="94.490617" y="292.156719" style="fill: #1f77b4; stroke: #1f77b4"/>
     <use xlink:href="#mab96d717d4" x="98.09528" y="293.257577" style="fill: #1f77b4; stroke: #1f77b4"/>
     <use xlink:href="#mab96d717d4" x="99.537145" y="293.6617" style="fill: #1f77b4; stroke: #1f77b4"/>
     <use xlink:href="#mab96d717d4" x="101.219321" y="293.669311" style="fill: #1f77b4; stroke: #1f77b4"/>
     <use xlink:href="#mab96d717d4" x="102.901497" y="304.154024" style="fill: #1f77b4; stroke: #1f77b4"/>
     <use xlink:href="#mab96d717d4" x="104.583673" y="300.261758" style="fill: #1f77b4; stroke: #1f77b4"/>
     <use xlink:href="#mab96d717d4" x="106.265849" y="301.309373" style="fill: #1f77b4; stroke: #1f77b4"/>
     <use xlink:href="#mab96d717d4" x="107.948025" y="303.573562" style="fill: #1f77b4; stroke: #1f77b4"/>
     <use xlink:href="#mab96d717d4" x="108.188336" y="300.199492" style="fill: #1f77b4; stroke: #1f77b4"/>
     <use xlink:href="#mab96d717d4" x="109.389891" y="304.998362" style="fill: #1f77b4; stroke: #1f77b4"/>
     <use xlink:href="#mab96d717d4" x="109.870512" y="295.604015" style="fill: #1f77b4; stroke: #1f77b4"/>
     <use xlink:href="#mab96d717d4" x="111.072067" y="302.069331" style="fill: #1f77b4; stroke: #1f77b4"/>
     <use xlink:href="#mab96d717d4" x="112.754243" y="295.848033" style="fill: #1f77b4; stroke: #1f77b4"/>
     <use xlink:href="#mab96d717d4" x="112.994554" y="302.542311" style="fill: #1f77b4; stroke: #1f77b4"/>
     <use xlink:href="#mab96d717d4" x="115.157351" y="300.54808" style="fill: #1f77b4; stroke: #1f77b4"/>
     <use xlink:href="#mab96d717d4" x="116.118595" y="296.828032" style="fill: #1f77b4; stroke: #1f77b4"/>
     <use xlink:href="#mab96d717d4" x="118.041082" y="298.229098" style="fill: #1f77b4; stroke: #1f77b4"/>
     <use xlink:href="#mab96d717d4" x="118.762014" y="296.683357" style="fill: #1f77b4; stroke: #1f77b4"/>
     <use xlink:href="#mab96d717d4" x="120.203879" y="295.910556" style="fill: #1f77b4; stroke: #1f77b4"/>
     <use xlink:href="#mab96d717d4" x="121.405434" y="296.658173" style="fill: #1f77b4; stroke: #1f77b4"/>
     <use xlink:href="#mab96d717d4" x="123.808542" y="302.444088" style="fill: #1f77b4; stroke: #1f77b4"/>
     <use xlink:href="#mab96d717d4" x="125.250407" y="297.288817" style="fill: #1f77b4; stroke: #1f77b4"/>
     <use xlink:href="#mab96d717d4" x="125.250407" y="292.099392" style="fill: #1f77b4; stroke: #1f77b4"/>
     <use xlink:href="#mab96d717d4" x="126.451962" y="293.381226" style="fill: #1f77b4; stroke: #1f77b4"/>
     <use xlink:href="#mab96d717d4" x="128.134138" y="296.864822" style="fill: #1f77b4; stroke: #1f77b4"/>
     <use xlink:href="#mab96d717d4" x="130.296935" y="302.161532" style="fill: #1f77b4; stroke: #1f77b4"/>
     <use xlink:href="#mab96d717d4" x="131.7388" y="303.910374" style="fill: #1f77b4; stroke: #1f77b4"/>
     <use xlink:href="#mab96d717d4" x="133.420976" y="302.247425" style="fill: #1f77b4; stroke: #1f77b4"/>
     <use xlink:href="#mab96d717d4" x="135.343463" y="298.677769" style="fill: #1f77b4; stroke: #1f77b4"/>
     <use xlink:href="#mab96d717d4" x="137.025639" y="301.858369" style="fill: #1f77b4; stroke: #1f77b4"/>
     <use xlink:href="#mab96d717d4" x="138.467505" y="297.576545" style="fill: #1f77b4; stroke: #1f77b4"/>
     <use xlink:href="#mab96d717d4" x="140.389991" y="298.999737" style="fill: #1f77b4; stroke: #1f77b4"/>
     <use xlink:href="#mab96d717d4" x="141.831857" y="297.419385" style="fill: #1f77b4; stroke: #1f77b4"/>
     <use xlink:href="#mab96d717d4" x="143.754343" y="297.985275" style="fill: #1f77b4; stroke: #1f77b4"/>
     <use xlink:href="#mab96d717d4" x="145.196209" y="303.313585" style="fill: #1f77b4; stroke: #1f77b4"/>
     <use xlink:href="#mab96d717d4" x="147.118695" y="295.213827" style="fill: #1f77b4; stroke: #1f77b4"/>
     <use xlink:href="#mab96d717d4" x="148.800871" y="295.87226" style="fill: #1f77b4; stroke: #1f77b4"/>
     <use xlink:href="#mab96d717d4" x="150.242737" y="290.962324" style="fill: #1f77b4; stroke: #1f77b4"/>
     <use xlink:href="#mab96d717d4" x="152.165223" y="293.623738" style="fill: #1f77b4; stroke: #1f77b4"/>
     <use xlink:href="#mab96d717d4" x="153.607089" y="295.677866" style="fill: #1f77b4; stroke: #1f77b4"/>
     <use xlink:href="#mab96d717d4" x="155.289265" y="294.547598" style="fill: #1f77b4; stroke: #1f77b4"/>
     <use xlink:href="#mab96d717d4" x="157.211751" y="296.496832" style="fill: #1f77b4; stroke: #1f77b4"/>
     <use xlink:href="#mab96d717d4" x="158.893927" y="295.27025" style="fill: #1f77b4; stroke: #1f77b4"/>
     <use xlink:href="#mab96d717d4" x="160.095482" y="294.112923" style="fill: #1f77b4; stroke: #1f77b4"/>
     <use xlink:href="#mab96d717d4" x="161.537347" y="294.23925" style="fill: #1f77b4; stroke: #1f77b4"/>
     <use xlink:href="#mab96d717d4" x="163.459834" y="296.716122" style="fill: #1f77b4; stroke: #1f77b4"/>
     <use xlink:href="#mab96d717d4" x="165.14201" y="297.174032" style="fill: #1f77b4; stroke: #1f77b4"/>
     <use xlink:href="#mab96d717d4" x="167.064497" y="294.375687" style="fill: #1f77b4; stroke: #1f77b4"/>
     <use xlink:href="#mab96d717d4" x="168.746673" y="293.171741" style="fill: #1f77b4; stroke: #1f77b4"/>
     <use xlink:href="#mab96d717d4" x="170.428849" y="290.130916" style="fill: #1f77b4; stroke: #1f77b4"/>
     <use xlink:href="#mab96d717d4" x="172.111025" y="292.523369" style="fill: #1f77b4; stroke: #1f77b4"/>
     <use xlink:href="#mab96d717d4" x="174.273822" y="300.698726" style="fill: #1f77b4; stroke: #1f77b4"/>
     <use xlink:href="#mab96d717d4" x="175.475377" y="298.162992" style="fill: #1f77b4; stroke: #1f77b4"/>
     <use xlink:href="#mab96d717d4" x="177.157553" y="299.108082" style="fill: #1f77b4; stroke: #1f77b4"/>
     <use xlink:href="#mab96d717d4" x="179.32035" y="299.23045" style="fill: #1f77b4; stroke: #1f77b4"/>
     <use xlink:href="#mab96d717d4" x="180.521905" y="300.692154" style="fill: #1f77b4; stroke: #1f77b4"/>
     <use xlink:href="#mab96d717d4" x="181.723459" y="304.540051" style="fill: #1f77b4; stroke: #1f77b4"/>
     <use xlink:href="#mab96d717d4" x="183.886257" y="302.201211" style="fill: #1f77b4; stroke: #1f77b4"/>
     <use xlink:href="#mab96d717d4" x="187.010298" y="302.304989" style="fill: #1f77b4; stroke: #1f77b4"/>
     <use xlink:href="#mab96d717d4" x="188.692474" y="301.358419" style="fill: #1f77b4; stroke: #1f77b4"/>
     <use xlink:href="#mab96d717d4" x="190.37465" y="299.071374" style="fill: #1f77b4; stroke: #1f77b4"/>
     <use xlink:href="#mab96d717d4" x="192.056826" y="299.070122" style="fill: #1f77b4; stroke: #1f77b4"/>
     <use xlink:href="#mab96d717d4" x="194.219624" y="299.097892" style="fill: #1f77b4; stroke: #1f77b4"/>
     <use xlink:href="#mab96d717d4" x="195.9018" y="297.76822" style="fill: #1f77b4; stroke: #1f77b4"/>
     <use xlink:href="#mab96d717d4" x="197.583976" y="304.051268" style="fill: #1f77b4; stroke: #1f77b4"/>
     <use xlink:href="#mab96d717d4" x="198.78553" y="300.036385" style="fill: #1f77b4; stroke: #1f77b4"/>
     <use xlink:href="#mab96d717d4" x="200.708017" y="296.557322" style="fill: #1f77b4; stroke: #1f77b4"/>
     <use xlink:href="#mab96d717d4" x="202.149882" y="299.451036" style="fill: #1f77b4; stroke: #1f77b4"/>
     <use xlink:href="#mab96d717d4" x="203.591747" y="298.827238" style="fill: #1f77b4; stroke: #1f77b4"/>
     <use xlink:href="#mab96d717d4" x="205.514234" y="301.704482" style="fill: #1f77b4; stroke: #1f77b4"/>
     <use xlink:href="#mab96d717d4" x="207.677032" y="301.134416" style="fill: #1f77b4; stroke: #1f77b4"/>
     <use xlink:href="#mab96d717d4" x="208.878586" y="301.099212" style="fill: #1f77b4; stroke: #1f77b4"/>
     <use xlink:href="#mab96d717d4" x="210.801073" y="302.842382" style="fill: #1f77b4; stroke: #1f77b4"/>
     <use xlink:href="#mab96d717d4" x="212.242938" y="300.903587" style="fill: #1f77b4; stroke: #1f77b4"/>
     <use xlink:href="#mab96d717d4" x="213.925114" y="297.845294" style="fill: #1f77b4; stroke: #1f77b4"/>
     <use xlink:href="#mab96d717d4" x="215.60729" y="293.262041" style="fill: #1f77b4; stroke: #1f77b4"/>
     <use xlink:href="#mab96d717d4" x="217.049155" y="292.653966" style="fill: #1f77b4; stroke: #1f77b4"/>
     <use xlink:href="#mab96d717d4" x="218.010399" y="289.629901" style="fill: #1f77b4; stroke: #1f77b4"/>
     <use xlink:href="#mab96d717d4" x="218.731331" y="293.033231" style="fill: #1f77b4; stroke: #1f77b4"/>
     <use xlink:href="#mab96d717d4" x="219.452264" y="293.123815" style="fill: #1f77b4; stroke: #1f77b4"/>
     <use xlink:href="#mab96d717d4" x="220.653818" y="291.10826" style="fill: #1f77b4; stroke: #1f77b4"/>
     <use xlink:href="#mab96d717d4" x="221.13444" y="287.95101" style="fill: #1f77b4; stroke: #1f77b4"/>
     <use xlink:href="#mab96d717d4" x="222.095683" y="293.630109" style="fill: #1f77b4; stroke: #1f77b4"/>
     <use xlink:href="#mab96d717d4" x="222.816616" y="294.461189" style="fill: #1f77b4; stroke: #1f77b4"/>
     <use xlink:href="#mab96d717d4" x="225.460035" y="292.629079" style="fill: #1f77b4; stroke: #1f77b4"/>
     <use xlink:href="#mab96d717d4" x="227.142211" y="282.471837" style="fill: #1f77b4; stroke: #1f77b4"/>
     <use xlink:href="#mab96d717d4" x="228.824387" y="293.917429" style="fill: #1f77b4; stroke: #1f77b4"/>
     <use xlink:href="#mab96d717d4" x="229.54532" y="284.882389" style="fill: #1f77b4; stroke: #1f77b4"/>
     <use xlink:href="#mab96d717d4" x="231.227496" y="290.827893" style="fill: #1f77b4; stroke: #1f77b4"/>
     <use xlink:href="#mab96d717d4" x="232.188739" y="294.878465" style="fill: #1f77b4; stroke: #1f77b4"/>
     <use xlink:href="#mab96d717d4" x="233.870915" y="302.370029" style="fill: #1f77b4; stroke: #1f77b4"/>
     <use xlink:href="#mab96d717d4" x="236.274024" y="299.022201" style="fill: #1f77b4; stroke: #1f77b4"/>
     <use xlink:href="#mab96d717d4" x="237.9562" y="298.057486" style="fill: #1f77b4; stroke: #1f77b4"/>
     <use xlink:href="#mab96d717d4" x="239.638376" y="300.987304" style="fill: #1f77b4; stroke: #1f77b4"/>
     <use xlink:href="#mab96d717d4" x="241.320552" y="303.361576" style="fill: #1f77b4; stroke: #1f77b4"/>
     <use xlink:href="#mab96d717d4" x="243.243039" y="300.066432" style="fill: #1f77b4; stroke: #1f77b4"/>
     <use xlink:href="#mab96d717d4" x="244.444593" y="299.271098" style="fill: #1f77b4; stroke: #1f77b4"/>
     <use xlink:href="#mab96d717d4" x="246.607391" y="300.924932" style="fill: #1f77b4; stroke: #1f77b4"/>
     <use xlink:href="#mab96d717d4" x="247.808945" y="298.941294" style="fill: #1f77b4; stroke: #1f77b4"/>
     <use xlink:href="#mab96d717d4" x="249.25081" y="299.053799" style="fill: #1f77b4; stroke: #1f77b4"/>
     <use xlink:href="#mab96d717d4" x="250.932986" y="300.826834" style="fill: #1f77b4; stroke: #1f77b4"/>
     <use xlink:href="#mab96d717d4" x="252.615162" y="298.184253" style="fill: #1f77b4; stroke: #1f77b4"/>
     <use xlink:href="#mab96d717d4" x="254.537649" y="300.812503" style="fill: #1f77b4; stroke: #1f77b4"/>
     <use xlink:href="#mab96d717d4" x="256.219825" y="298.311434" style="fill: #1f77b4; stroke: #1f77b4"/>
     <use xlink:href="#mab96d717d4" x="258.142312" y="295.913365" style="fill: #1f77b4; stroke: #1f77b4"/>
     <use xlink:href="#mab96d717d4" x="259.584177" y="298.782808" style="fill: #1f77b4; stroke: #1f77b4"/>
     <use xlink:href="#mab96d717d4" x="261.506664" y="293.140063" style="fill: #1f77b4; stroke: #1f77b4"/>
     <use xlink:href="#mab96d717d4" x="262.948529" y="296.720594" style="fill: #1f77b4; stroke: #1f77b4"/>
     <use xlink:href="#mab96d717d4" x="264.871016" y="297.118115" style="fill: #1f77b4; stroke: #1f77b4"/>
     <use xlink:href="#mab96d717d4" x="266.312881" y="298.723711" style="fill: #1f77b4; stroke: #1f77b4"/>
     <use xlink:href="#mab96d717d4" x="268.475679" y="301.975406" style="fill: #1f77b4; stroke: #1f77b4"/>
     <use xlink:href="#mab96d717d4" x="271.59972" y="300.926769" style="fill: #1f77b4; stroke: #1f77b4"/>
     <use xlink:href="#mab96d717d4" x="272.560964" y="295.941312" style="fill: #1f77b4; stroke: #1f77b4"/>
     <use xlink:href="#mab96d717d4" x="274.723761" y="293.313594" style="fill: #1f77b4; stroke: #1f77b4"/>
     <use xlink:href="#mab96d717d4" x="275.925316" y="293.679017" style="fill: #1f77b4; stroke: #1f77b4"/>
     <use xlink:href="#mab96d717d4" x="277.847802" y="298.629968" style="fill: #1f77b4; stroke: #1f77b4"/>
     <use xlink:href="#mab96d717d4" x="278.568735" y="297.442567" style="fill: #1f77b4; stroke: #1f77b4"/>
     <use xlink:href="#mab96d717d4" x="279.770289" y="299.606697" style="fill: #1f77b4; stroke: #1f77b4"/>
     <use xlink:href="#mab96d717d4" x="281.933087" y="300.16633" style="fill: #1f77b4; stroke: #1f77b4"/>
     <use xlink:href="#mab96d717d4" x="283.615263" y="297.637504" style="fill: #1f77b4; stroke: #1f77b4"/>
     <use xlink:href="#mab96d717d4" x="284.816817" y="294.751999" style="fill: #1f77b4; stroke: #1f77b4"/>
     <use xlink:href="#mab96d717d4" x="286.739304" y="298.201152" style="fill: #1f77b4; stroke: #1f77b4"/>
     <use xlink:href="#mab96d717d4" x="288.42148" y="297.771223" style="fill: #1f77b4; stroke: #1f77b4"/>
     <use xlink:href="#mab96d717d4" x="290.343967" y="297.184697" style="fill: #1f77b4; stroke: #1f77b4"/>
     <use xlink:href="#mab96d717d4" x="292.026143" y="302.429092" style="fill: #1f77b4; stroke: #1f77b4"/>
     <use xlink:href="#mab96d717d4" x="293.708319" y="299.691342" style="fill: #1f77b4; stroke: #1f77b4"/>
     <use xlink:href="#mab96d717d4" x="295.150184" y="296.463379" style="fill: #1f77b4; stroke: #1f77b4"/>
     <use xlink:href="#mab96d717d4" x="296.592049" y="297.617594" style="fill: #1f77b4; stroke: #1f77b4"/>
     <use xlink:href="#mab96d717d4" x="298.514536" y="296.285761" style="fill: #1f77b4; stroke: #1f77b4"/>
     <use xlink:href="#mab96d717d4" x="299.956401" y="298.132228" style="fill: #1f77b4; stroke: #1f77b4"/>
     <use xlink:href="#mab96d717d4" x="301.878888" y="297.344819" style="fill: #1f77b4; stroke: #1f77b4"/>
     <use xlink:href="#mab96d717d4" x="303.320753" y="296.272834" style="fill: #1f77b4; stroke: #1f77b4"/>
     <use xlink:href="#mab96d717d4" x="305.24324" y="298.376303" style="fill: #1f77b4; stroke: #1f77b4"/>
     <use xlink:href="#mab96d717d4" x="306.685105" y="296.20199" style="fill: #1f77b4; stroke: #1f77b4"/>
     <use xlink:href="#mab96d717d4" x="308.367281" y="295.39023" style="fill: #1f77b4; stroke: #1f77b4"/>
     <use xlink:href="#mab96d717d4" x="310.289768" y="296.942301" style="fill: #1f77b4; stroke: #1f77b4"/>
     <use xlink:href="#mab96d717d4" x="311.731634" y="295.615676" style="fill: #1f77b4; stroke: #1f77b4"/>
     <use xlink:href="#mab96d717d4" x="313.65412" y="296.473742" style="fill: #1f77b4; stroke: #1f77b4"/>
     <use xlink:href="#mab96d717d4" x="315.095986" y="295.91525" style="fill: #1f77b4; stroke: #1f77b4"/>
     <use xlink:href="#mab96d717d4" x="317.018472" y="292.131076" style="fill: #1f77b4; stroke: #1f77b4"/>
     <use xlink:href="#mab96d717d4" x="318.460338" y="298.586781" style="fill: #1f77b4; stroke: #1f77b4"/>
     <use xlink:href="#mab96d717d4" x="319.902203" y="297.571122" style="fill: #1f77b4; stroke: #1f77b4"/>
     <use xlink:href="#mab96d717d4" x="321.584379" y="295.466113" style="fill: #1f77b4; stroke: #1f77b4"/>
     <use xlink:href="#mab96d717d4" x="323.506866" y="296.116846" style="fill: #1f77b4; stroke: #1f77b4"/>
     <use xlink:href="#mab96d717d4" x="325.189042" y="297.83646" style="fill: #1f77b4; stroke: #1f77b4"/>
     <use xlink:href="#mab96d717d4" x="326.871218" y="294.001899" style="fill: #1f77b4; stroke: #1f77b4"/>
     <use xlink:href="#mab96d717d4" x="328.793704" y="303.777757" style="fill: #1f77b4; stroke: #1f77b4"/>
     <use xlink:href="#mab96d717d4" x="330.47588" y="301.074706" style="fill: #1f77b4; stroke: #1f77b4"/>
     <use xlink:href="#mab96d717d4" x="332.158056" y="299.128885" style="fill: #1f77b4; stroke: #1f77b4"/>
     <use xlink:href="#mab96d717d4" x="333.599922" y="297.666963" style="fill: #1f77b4; stroke: #1f77b4"/>
     <use xlink:href="#mab96d717d4" x="335.762719" y="296.240587" style="fill: #1f77b4; stroke: #1f77b4"/>
     <use xlink:href="#mab96d717d4" x="336.723963" y="294.401302" style="fill: #1f77b4; stroke: #1f77b4"/>
     <use xlink:href="#mab96d717d4" x="338.406139" y="296.585538" style="fill: #1f77b4; stroke: #1f77b4"/>
     <use xlink:href="#mab96d717d4" x="340.088315" y="296.429626" style="fill: #1f77b4; stroke: #1f77b4"/>
     <use xlink:href="#mab96d717d4" x="341.770491" y="300.266127" style="fill: #1f77b4; stroke: #1f77b4"/>
     <use xlink:href="#mab96d717d4" x="344.173599" y="297.750477" style="fill: #1f77b4; stroke: #1f77b4"/>
     <use xlink:href="#mab96d717d4" x="345.375154" y="294.454862" style="fill: #1f77b4; stroke: #1f77b4"/>
     <use xlink:href="#mab96d717d4" x="347.05733" y="297.688162" style="fill: #1f77b4; stroke: #1f77b4"/>
     <use xlink:href="#mab96d717d4" x="348.739506" y="295.227214" style="fill: #1f77b4; stroke: #1f77b4"/>
     <use xlink:href="#mab96d717d4" x="350.181371" y="296.908524" style="fill: #1f77b4; stroke: #1f77b4"/>
     <use xlink:href="#mab96d717d4" x="352.344169" y="296.694195" style="fill: #1f77b4; stroke: #1f77b4"/>
     <use xlink:href="#mab96d717d4" x="353.786034" y="296.356364" style="fill: #1f77b4; stroke: #1f77b4"/>
     <use xlink:href="#mab96d717d4" x="355.46821" y="297.93407" style="fill: #1f77b4; stroke: #1f77b4"/>
     <use xlink:href="#mab96d717d4" x="357.390697" y="296.407163" style="fill: #1f77b4; stroke: #1f77b4"/>
     <use xlink:href="#mab96d717d4" x="358.832562" y="294.302537" style="fill: #1f77b4; stroke: #1f77b4"/>
     <use xlink:href="#mab96d717d4" x="360.514738" y="297.080504" style="fill: #1f77b4; stroke: #1f77b4"/>
     <use xlink:href="#mab96d717d4" x="361.956603" y="294.93912" style="fill: #1f77b4; stroke: #1f77b4"/>
     <use xlink:href="#mab96d717d4" x="363.638779" y="295.395994" style="fill: #1f77b4; stroke: #1f77b4"/>
     <use xlink:href="#mab96d717d4" x="365.801577" y="294.9433" style="fill: #1f77b4; stroke: #1f77b4"/>
     <use xlink:href="#mab96d717d4" x="367.483753" y="296.384677" style="fill: #1f77b4; stroke: #1f77b4"/>
     <use xlink:href="#mab96d717d4" x="369.165929" y="300.152542" style="fill: #1f77b4; stroke: #1f77b4"/>
     <use xlink:href="#mab96d717d4" x="370.848105" y="301.907535" style="fill: #1f77b4; stroke: #1f77b4"/>
     <use xlink:href="#mab96d717d4" x="372.530281" y="296.480617" style="fill: #1f77b4; stroke: #1f77b4"/>
     <use xlink:href="#mab96d717d4" x="374.212457" y="297.021177" style="fill: #1f77b4; stroke: #1f77b4"/>
     <use xlink:href="#mab96d717d4" x="375.654322" y="297.86722" style="fill: #1f77b4; stroke: #1f77b4"/>
     <use xlink:href="#mab96d717d4" x="376.855876" y="300.703976" style="fill: #1f77b4; stroke: #1f77b4"/>
     <use xlink:href="#mab96d717d4" x="378.778363" y="301.940869" style="fill: #1f77b4; stroke: #1f77b4"/>
     <use xlink:href="#mab96d717d4" x="380.70085" y="300.807374" style="fill: #1f77b4; stroke: #1f77b4"/>
     <use xlink:href="#mab96d717d4" x="382.383026" y="301.066422" style="fill: #1f77b4; stroke: #1f77b4"/>
     <use xlink:href="#mab96d717d4" x="384.065202" y="300.507336" style="fill: #1f77b4; stroke: #1f77b4"/>
     <use xlink:href="#mab96d717d4" x="385.747378" y="298.305802" style="fill: #1f77b4; stroke: #1f77b4"/>
     <use xlink:href="#mab96d717d4" x="387.429554" y="297.520964" style="fill: #1f77b4; stroke: #1f77b4"/>
     <use xlink:href="#mab96d717d4" x="389.11173" y="297.879832" style="fill: #1f77b4; stroke: #1f77b4"/>
     <use xlink:href="#mab96d717d4" x="390.553595" y="296.448622" style="fill: #1f77b4; stroke: #1f77b4"/>
     <use xlink:href="#mab96d717d4" x="392.716393" y="301.09449" style="fill: #1f77b4; stroke: #1f77b4"/>
     <use xlink:href="#mab96d717d4" x="394.398569" y="298.014581" style="fill: #1f77b4; stroke: #1f77b4"/>
     <use xlink:href="#mab96d717d4" x="396.080745" y="294.995812" style="fill: #1f77b4; stroke: #1f77b4"/>
     <use xlink:href="#mab96d717d4" x="397.52261" y="296.841436" style="fill: #1f77b4; stroke: #1f77b4"/>
     <use xlink:href="#mab96d717d4" x="399.445097" y="294.165312" style="fill: #1f77b4; stroke: #1f77b4"/>
     <use xlink:href="#mab96d717d4" x="400.886962" y="295.747682" style="fill: #1f77b4; stroke: #1f77b4"/>
     <use xlink:href="#mab96d717d4" x="402.809449" y="295.354111" style="fill: #1f77b4; stroke: #1f77b4"/>
     <use xlink:href="#mab96d717d4" x="404.251314" y="295.275209" style="fill: #1f77b4; stroke: #1f77b4"/>
     <use xlink:href="#mab96d717d4" x="406.173801" y="296.465246" style="fill: #1f77b4; stroke: #1f77b4"/>
     <use xlink:href="#mab96d717d4" x="407.615666" y="294.589693" style="fill: #1f77b4; stroke: #1f77b4"/>
     <use xlink:href="#mab96d717d4" x="409.057531" y="293.098578" style="fill: #1f77b4; stroke: #1f77b4"/>
     <use xlink:href="#mab96d717d4" x="410.980018" y="292.561196" style="fill: #1f77b4; stroke: #1f77b4"/>
     <use xlink:href="#mab96d717d4" x="412.421883" y="292.414084" style="fill: #1f77b4; stroke: #1f77b4"/>
     <use xlink:href="#mab96d717d4" x="414.34437" y="293.479772" style="fill: #1f77b4; stroke: #1f77b4"/>
     <use xlink:href="#mab96d717d4" x="416.266857" y="294.875046" style="fill: #1f77b4; stroke: #1f77b4"/>
     <use xlink:href="#mab96d717d4" x="418.189344" y="296.262122" style="fill: #1f77b4; stroke: #1f77b4"/>
     <use xlink:href="#mab96d717d4" x="419.390898" y="300.428492" style="fill: #1f77b4; stroke: #1f77b4"/>
    </g>
   </g>
   <g id="patch_18">
    <path d="M 47.63 317.72 
L 47.63 256.217776 
" style="fill: none; stroke: #000000; stroke-width: 0.8; stroke-linejoin: miter; stroke-linecap: square"/>
   </g>
   <g id="patch_19">
    <path d="M 446.305714 317.72 
L 446.305714 256.217776 
" style="fill: none; stroke: #000000; stroke-width: 0.8; stroke-linejoin: miter; stroke-linecap: square"/>
   </g>
   <g id="patch_20">
    <path d="M 47.63 317.72 
L 446.305714 317.72 
" style="fill: none; stroke: #000000; stroke-width: 0.8; stroke-linejoin: miter; stroke-linecap: square"/>
   </g>
   <g id="patch_21">
    <path d="M 47.63 256.217776 
L 446.305714 256.217776 
" style="fill: none; stroke: #000000; stroke-width: 0.8; stroke-linejoin: miter; stroke-linecap: square"/>
   </g>
  </g>
  <g id="text_23">
   <!-- Descomposicin de la serie temporal de Clorofila -->
   <g transform="translate(34.0975 19.7095) scale(0.16 -0.16)">
    <defs>
     <path id="DejaVuSans-44" d="M 1259 4147 
L 1259 519 
L 2022 519 
Q 2988 519 3436 956 
Q 3884 1394 3884 2338 
Q 3884 3275 3436 3711 
Q 2988 4147 2022 4147 
L 1259 4147 
z
M 628 4666 
L 1925 4666 
Q 3281 4666 3915 4102 
Q 4550 3538 4550 2338 
Q 4550 1131 3912 565 
Q 3275 0 1925 0 
L 628 0 
L 628 4666 
z
" transform="scale(0.015625)"/>
     <path id="DejaVuSans-63" d="M 3122 3366 
L 3122 2828 
Q 2878 2963 2633 3030 
Q 2388 3097 2138 3097 
Q 1578 3097 1268 2742 
Q 959 2388 959 1747 
Q 959 1106 1268 751 
Q 1578 397 2138 397 
Q 2388 397 2633 464 
Q 2878 531 3122 666 
L 3122 134 
Q 2881 22 2623 -34 
Q 2366 -91 2075 -91 
Q 1284 -91 818 406 
Q 353 903 353 1747 
Q 353 2603 823 3093 
Q 1294 3584 2113 3584 
Q 2378 3584 2631 3529 
Q 2884 3475 3122 3366 
z
" transform="scale(0.015625)"/>
     <path id="DejaVuSans-6d" d="M 3328 2828 
Q 3544 3216 3844 3400 
Q 4144 3584 4550 3584 
Q 5097 3584 5394 3201 
Q 5691 2819 5691 2113 
L 5691 0 
L 5113 0 
L 5113 2094 
Q 5113 2597 4934 2840 
Q 4756 3084 4391 3084 
Q 3944 3084 3684 2787 
Q 3425 2491 3425 1978 
L 3425 0 
L 2847 0 
L 2847 2094 
Q 2847 2600 2669 2842 
Q 2491 3084 2119 3084 
Q 1678 3084 1418 2786 
Q 1159 2488 1159 1978 
L 1159 0 
L 581 0 
L 581 3500 
L 1159 3500 
L 1159 2956 
Q 1356 3278 1631 3431 
Q 1906 3584 2284 3584 
Q 2666 3584 2933 3390 
Q 3200 3197 3328 2828 
z
" transform="scale(0.015625)"/>
     <path id="DejaVuSans-70" d="M 1159 525 
L 1159 -1331 
L 581 -1331 
L 581 3500 
L 1159 3500 
L 1159 2969 
Q 1341 3281 1617 3432 
Q 1894 3584 2278 3584 
Q 2916 3584 3314 3078 
Q 3713 2572 3713 1747 
Q 3713 922 3314 415 
Q 2916 -91 2278 -91 
Q 1894 -91 1617 61 
Q 1341 213 1159 525 
z
M 3116 1747 
Q 3116 2381 2855 2742 
Q 2594 3103 2138 3103 
Q 1681 3103 1420 2742 
Q 1159 2381 1159 1747 
Q 1159 1113 1420 752 
Q 1681 391 2138 391 
Q 2594 391 2855 752 
Q 3116 1113 3116 1747 
z
" transform="scale(0.015625)"/>
     <path id="DejaVuSans-f3" d="M 1959 3097 
Q 1497 3097 1228 2736 
Q 959 2375 959 1747 
Q 959 1119 1226 758 
Q 1494 397 1959 397 
Q 2419 397 2687 759 
Q 2956 1122 2956 1747 
Q 2956 2369 2687 2733 
Q 2419 3097 1959 3097 
z
M 1959 3584 
Q 2709 3584 3137 3096 
Q 3566 2609 3566 1747 
Q 3566 888 3137 398 
Q 2709 -91 1959 -91 
Q 1206 -91 779 398 
Q 353 888 353 1747 
Q 353 2609 779 3096 
Q 1206 3584 1959 3584 
z
M 2394 5119 
L 3016 5119 
L 1998 3944 
L 1519 3944 
L 2394 5119 
z
" transform="scale(0.015625)"/>
     <path id="DejaVuSans-20" transform="scale(0.015625)"/>
     <path id="DejaVuSans-74" d="M 1172 4494 
L 1172 3500 
L 2356 3500 
L 2356 3053 
L 1172 3053 
L 1172 1153 
Q 1172 725 1289 603 
Q 1406 481 1766 481 
L 2356 481 
L 2356 0 
L 1766 0 
Q 1100 0 847 248 
Q 594 497 594 1153 
L 594 3053 
L 172 3053 
L 172 3500 
L 594 3500 
L 594 4494 
L 1172 4494 
z
" transform="scale(0.015625)"/>
    </defs>
    <use xlink:href="#DejaVuSans-44"/>
    <use xlink:href="#DejaVuSans-65" x="77.001953"/>
    <use xlink:href="#DejaVuSans-73" x="138.525391"/>
    <use xlink:href="#DejaVuSans-63" x="190.625"/>
    <use xlink:href="#DejaVuSans-6f" x="245.605469"/>
    <use xlink:href="#DejaVuSans-6d" x="306.787109"/>
    <use xlink:href="#DejaVuSans-70" x="404.199219"/>
    <use xlink:href="#DejaVuSans-6f" x="467.675781"/>
    <use xlink:href="#DejaVuSans-73" x="528.857422"/>
    <use xlink:href="#DejaVuSans-69" x="580.957031"/>
    <use xlink:href="#DejaVuSans-63" x="608.740234"/>
    <use xlink:href="#DejaVuSans-69" x="663.720703"/>
    <use xlink:href="#DejaVuSans-f3" x="691.503906"/>
    <use xlink:href="#DejaVuSans-6e" x="752.685547"/>
    <use xlink:href="#DejaVuSans-20" x="816.064453"/>
    <use xlink:href="#DejaVuSans-64" x="847.851562"/>
    <use xlink:href="#DejaVuSans-65" x="911.328125"/>
    <use xlink:href="#DejaVuSans-20" x="972.851562"/>
    <use xlink:href="#DejaVuSans-6c" x="1004.638672"/>
    <use xlink:href="#DejaVuSans-61" x="1032.421875"/>
    <use xlink:href="#DejaVuSans-20" x="1093.701172"/>
    <use xlink:href="#DejaVuSans-73" x="1125.488281"/>
    <use xlink:href="#DejaVuSans-65" x="1177.587891"/>
    <use xlink:href="#DejaVuSans-72" x="1239.111328"/>
    <use xlink:href="#DejaVuSans-69" x="1280.224609"/>
    <use xlink:href="#DejaVuSans-65" x="1308.007812"/>
    <use xlink:href="#DejaVuSans-20" x="1369.53125"/>
    <use xlink:href="#DejaVuSans-74" x="1401.318359"/>
    <use xlink:href="#DejaVuSans-65" x="1440.527344"/>
    <use xlink:href="#DejaVuSans-6d" x="1502.050781"/>
    <use xlink:href="#DejaVuSans-70" x="1599.462891"/>
    <use xlink:href="#DejaVuSans-6f" x="1662.939453"/>
    <use xlink:href="#DejaVuSans-72" x="1724.121094"/>
    <use xlink:href="#DejaVuSans-61" x="1765.234375"/>
    <use xlink:href="#DejaVuSans-6c" x="1826.513672"/>
    <use xlink:href="#DejaVuSans-20" x="1854.296875"/>
    <use xlink:href="#DejaVuSans-64" x="1886.083984"/>
    <use xlink:href="#DejaVuSans-65" x="1949.560547"/>
    <use xlink:href="#DejaVuSans-20" x="2011.083984"/>
    <use xlink:href="#DejaVuSans-43" x="2042.871094"/>
    <use xlink:href="#DejaVuSans-6c" x="2112.695312"/>
    <use xlink:href="#DejaVuSans-6f" x="2140.478516"/>
    <use xlink:href="#DejaVuSans-72" x="2201.660156"/>
    <use xlink:href="#DejaVuSans-6f" x="2240.523438"/>
    <use xlink:href="#DejaVuSans-66" x="2301.705078"/>
    <use xlink:href="#DejaVuSans-69" x="2336.910156"/>
    <use xlink:href="#DejaVuSans-6c" x="2364.693359"/>
    <use xlink:href="#DejaVuSans-61" x="2392.476562"/>
   </g>
  </g>
 </g>
 <defs>
  <clipPath id="p564bc94316">
   <rect x="47.63" y="26.88" width="398.675714" height="61.502224"/>
  </clipPath>
  <clipPath id="p74201dce04">
   <rect x="47.63" y="103.325925" width="398.675714" height="61.502224"/>
  </clipPath>
  <clipPath id="ped36c4c865">
   <rect x="47.63" y="179.771851" width="398.675714" height="61.502224"/>
  </clipPath>
  <clipPath id="p822d2cac1a">
   <rect x="47.63" y="256.217776" width="398.675714" height="61.502224"/>
  </clipPath>
 </defs>
</svg>
