<?xml version="1.0" encoding="utf-8" standalone="no"?>
<!DOCTYPE svg PUBLIC "-//W3C//DTD SVG 1.1//EN"
  "http://www.w3.org/Graphics/SVG/1.1/DTD/svg11.dtd">
<svg xmlns:xlink="http://www.w3.org/1999/xlink" width="460.8pt" height="345.6pt" viewBox="0 0 460.8 345.6" xmlns="http://www.w3.org/2000/svg" version="1.1">
 <metadata>
  <rdf:RDF xmlns:dc="http://purl.org/dc/elements/1.1/" xmlns:cc="http://creativecommons.org/ns#" xmlns:rdf="http://www.w3.org/1999/02/22-rdf-syntax-ns#">
   <cc:Work>
    <dc:type rdf:resource="http://purl.org/dc/dcmitype/StillImage"/>
    <dc:date>2025-02-24T14:38:28.461202</dc:date>
    <dc:format>image/svg+xml</dc:format>
    <dc:creator>
     <cc:Agent>
      <dc:title>Matplotlib v3.8.4, https://matplotlib.org/</dc:title>
     </cc:Agent>
    </dc:creator>
   </cc:Work>
  </rdf:RDF>
 </metadata>
 <defs>
  <style type="text/css">*{stroke-linejoin: round; stroke-linecap: butt}</style>
 </defs>
 <g id="figure_1">
  <g id="patch_1">
   <path d="M 0 345.6 
L 460.8 345.6 
L 460.8 0 
L 0 0 
z
" style="fill: #ffffff"/>
  </g>
  <g id="axes_1">
   <g id="patch_2">
    <path d="M 62.3 85.90086 
L 450 85.90086 
L 450 26.88 
L 62.3 26.88 
z
" style="fill: #ffffff"/>
   </g>
   <g id="matplotlib.axis_1">
    <g id="xtick_1">
     <g id="line2d_1">
      <defs>
       <path id="m939208568f" d="M 0 0 
L 0 3.5 
" style="stroke: #000000; stroke-width: 0.8"/>
      </defs>
      <g>
       <use xlink:href="#m939208568f" x="77.98967" y="85.90086" style="stroke: #000000; stroke-width: 0.8"/>
      </g>
     </g>
    </g>
    <g id="xtick_2">
     <g id="line2d_2">
      <g>
       <use xlink:href="#m939208568f" x="115.975186" y="85.90086" style="stroke: #000000; stroke-width: 0.8"/>
      </g>
     </g>
    </g>
    <g id="xtick_3">
     <g id="line2d_3">
      <g>
       <use xlink:href="#m939208568f" x="153.134931" y="85.90086" style="stroke: #000000; stroke-width: 0.8"/>
      </g>
     </g>
    </g>
    <g id="xtick_4">
     <g id="line2d_4">
      <g>
       <use xlink:href="#m939208568f" x="190.707561" y="85.90086" style="stroke: #000000; stroke-width: 0.8"/>
      </g>
     </g>
    </g>
    <g id="xtick_5">
     <g id="line2d_5">
      <g>
       <use xlink:href="#m939208568f" x="228.693078" y="85.90086" style="stroke: #000000; stroke-width: 0.8"/>
      </g>
     </g>
    </g>
    <g id="xtick_6">
     <g id="line2d_6">
      <g>
       <use xlink:href="#m939208568f" x="266.678594" y="85.90086" style="stroke: #000000; stroke-width: 0.8"/>
      </g>
     </g>
    </g>
    <g id="xtick_7">
     <g id="line2d_7">
      <g>
       <use xlink:href="#m939208568f" x="303.838339" y="85.90086" style="stroke: #000000; stroke-width: 0.8"/>
      </g>
     </g>
    </g>
    <g id="xtick_8">
     <g id="line2d_8">
      <g>
       <use xlink:href="#m939208568f" x="341.410969" y="85.90086" style="stroke: #000000; stroke-width: 0.8"/>
      </g>
     </g>
    </g>
    <g id="xtick_9">
     <g id="line2d_9">
      <g>
       <use xlink:href="#m939208568f" x="379.396486" y="85.90086" style="stroke: #000000; stroke-width: 0.8"/>
      </g>
     </g>
    </g>
    <g id="xtick_10">
     <g id="line2d_10">
      <g>
       <use xlink:href="#m939208568f" x="417.382002" y="85.90086" style="stroke: #000000; stroke-width: 0.8"/>
      </g>
     </g>
    </g>
   </g>
   <g id="matplotlib.axis_2">
    <g id="ytick_1">
     <g id="line2d_11">
      <defs>
       <path id="mfb946c3734" d="M 0 0 
L -3.5 0 
" style="stroke: #000000; stroke-width: 0.8"/>
      </defs>
      <g>
       <use xlink:href="#mfb946c3734" x="62.3" y="69.554314" style="stroke: #000000; stroke-width: 0.8"/>
      </g>
     </g>
     <g id="text_1">
      <!-- 0.5 -->
      <g transform="translate(39.396875 73.353533) scale(0.1 -0.1)">
       <defs>
        <path id="DejaVuSans-30" d="M 2034 4250 
Q 1547 4250 1301 3770 
Q 1056 3291 1056 2328 
Q 1056 1369 1301 889 
Q 1547 409 2034 409 
Q 2525 409 2770 889 
Q 3016 1369 3016 2328 
Q 3016 3291 2770 3770 
Q 2525 4250 2034 4250 
z
M 2034 4750 
Q 2819 4750 3233 4129 
Q 3647 3509 3647 2328 
Q 3647 1150 3233 529 
Q 2819 -91 2034 -91 
Q 1250 -91 836 529 
Q 422 1150 422 2328 
Q 422 3509 836 4129 
Q 1250 4750 2034 4750 
z
" transform="scale(0.015625)"/>
        <path id="DejaVuSans-2e" d="M 684 794 
L 1344 794 
L 1344 0 
L 684 0 
L 684 794 
z
" transform="scale(0.015625)"/>
        <path id="DejaVuSans-35" d="M 691 4666 
L 3169 4666 
L 3169 4134 
L 1269 4134 
L 1269 2991 
Q 1406 3038 1543 3061 
Q 1681 3084 1819 3084 
Q 2600 3084 3056 2656 
Q 3513 2228 3513 1497 
Q 3513 744 3044 326 
Q 2575 -91 1722 -91 
Q 1428 -91 1123 -41 
Q 819 9 494 109 
L 494 744 
Q 775 591 1075 516 
Q 1375 441 1709 441 
Q 2250 441 2565 725 
Q 2881 1009 2881 1497 
Q 2881 1984 2565 2268 
Q 2250 2553 1709 2553 
Q 1456 2553 1204 2497 
Q 953 2441 691 2322 
L 691 4666 
z
" transform="scale(0.015625)"/>
       </defs>
       <use xlink:href="#DejaVuSans-30"/>
       <use xlink:href="#DejaVuSans-2e" x="63.623047"/>
       <use xlink:href="#DejaVuSans-35" x="95.410156"/>
      </g>
     </g>
    </g>
    <g id="ytick_2">
     <g id="line2d_12">
      <g>
       <use xlink:href="#mfb946c3734" x="62.3" y="52.891169" style="stroke: #000000; stroke-width: 0.8"/>
      </g>
     </g>
     <g id="text_2">
      <!-- 1.0 -->
      <g transform="translate(39.396875 56.690388) scale(0.1 -0.1)">
       <defs>
        <path id="DejaVuSans-31" d="M 794 531 
L 1825 531 
L 1825 4091 
L 703 3866 
L 703 4441 
L 1819 4666 
L 2450 4666 
L 2450 531 
L 3481 531 
L 3481 0 
L 794 0 
L 794 531 
z
" transform="scale(0.015625)"/>
       </defs>
       <use xlink:href="#DejaVuSans-31"/>
       <use xlink:href="#DejaVuSans-2e" x="63.623047"/>
       <use xlink:href="#DejaVuSans-30" x="95.410156"/>
      </g>
     </g>
    </g>
    <g id="ytick_3">
     <g id="line2d_13">
      <g>
       <use xlink:href="#mfb946c3734" x="62.3" y="36.228024" style="stroke: #000000; stroke-width: 0.8"/>
      </g>
     </g>
     <g id="text_3">
      <!-- 1.5 -->
      <g transform="translate(39.396875 40.027243) scale(0.1 -0.1)">
       <use xlink:href="#DejaVuSans-31"/>
       <use xlink:href="#DejaVuSans-2e" x="63.623047"/>
       <use xlink:href="#DejaVuSans-35" x="95.410156"/>
      </g>
     </g>
    </g>
   </g>
   <g id="line2d_14">
    <path d="M 62.3 29.562766 
L 63.125772 70.22084 
L 64.777316 83.218093 
L 66.015974 72.220418 
L 70.557721 78.21915 
L 73.447923 79.218938 
L 76.338126 75.553047 
L 77.576784 75.553047 
L 80.466986 76.219572 
L 82.11853 77.885887 
L 85.008733 75.219784 
L 89.137593 72.55368 
L 92.027796 75.553047 
L 94.917998 71.553892 
L 97.8082 68.554526 
L 101.111289 66.554948 
L 103.175719 75.886309 
L 106.891693 77.219361 
L 108.956124 75.886309 
L 111.43344 78.21915 
L 117.213845 75.553047 
L 120.516933 76.886098 
L 123.407135 68.554526 
L 126.710224 76.219572 
L 129.18754 76.552835 
L 132.490628 78.885676 
L 134.967945 78.885676 
L 138.271033 81.551779 
L 140.748349 81.551779 
L 144.464324 79.218938 
L 149.831842 77.885887 
L 151.483387 52.224644 
L 155.199361 67.554737 
L 157.263791 72.220418 
L 160.56688 66.888211 
L 161.805538 66.888211 
L 163.869968 76.219572 
L 167.585942 72.55368 
L 170.476145 73.553469 
L 172.540575 77.885887 
L 175.843663 77.552624 
L 178.733866 74.553258 
L 182.036954 76.886098 
L 184.927157 69.221051 
L 187.817359 66.888211 
L 190.294675 67.888 
L 192.771991 61.889268 
L 196.07508 75.219784 
L 198.552396 75.219784 
L 201.855485 77.219361 
L 204.332801 76.219572 
L 207.635889 77.885887 
L 210.113206 78.552413 
L 213.003408 78.21915 
L 216.306496 74.886521 
L 218.783813 77.885887 
L 222.086901 76.552835 
L 224.564217 73.220206 
L 227.867306 73.886732 
L 230.344622 64.222108 
L 232.821938 72.55368 
L 235.712141 71.553892 
L 239.015229 71.553892 
L 241.905431 69.887577 
L 244.795634 70.22084 
L 248.098722 66.888211 
L 250.988924 70.22084 
L 253.879127 69.554314 
L 256.356443 76.219572 
L 260.072417 72.220418 
L 261.723962 75.553047 
L 264.614164 74.553258 
L 267.504366 76.552835 
L 270.394569 67.221474 
L 276.587859 75.553047 
L 279.478062 75.886309 
L 282.368264 68.887789 
L 284.84558 79.885464 
L 288.561555 77.885887 
L 291.038871 80.218727 
L 293.929073 75.886309 
L 297.232162 76.886098 
L 299.709478 80.885253 
L 302.599681 80.885253 
L 305.076997 79.885464 
L 307.967199 80.55199 
L 311.683174 81.885042 
L 314.573376 82.551567 
L 317.463578 81.885042 
L 320.353781 83.218093 
L 323.243983 75.886309 
L 326.134185 71.220629 
L 328.611502 78.885676 
L 330.675932 80.885253 
L 333.97902 77.552624 
L 337.282109 77.552624 
L 340.172311 74.219995 
L 345.952716 73.553469 
L 348.842918 76.552835 
L 351.73312 71.553892 
L 354.210437 68.887789 
L 357.926411 67.221474 
L 360.816613 66.888211 
L 363.706816 64.222108 
L 366.184132 75.886309 
L 369.48722 79.885464 
L 371.964537 79.218938 
L 377.744941 79.218938 
L 381.04803 81.218516 
L 383.525346 79.552201 
L 386.002662 79.218938 
L 389.305751 79.218938 
L 391.783067 79.885464 
L 395.086155 80.55199 
L 398.389244 78.885676 
L 401.692332 81.551779 
L 403.756763 80.218727 
L 407.059851 81.218516 
L 409.537167 79.885464 
L 412.014483 78.885676 
L 415.317572 79.552201 
L 418.207774 75.886309 
L 420.685091 80.218727 
L 423.575293 78.552413 
L 426.465495 75.886309 
L 430.18147 79.218938 
L 432.2459 78.885676 
L 435.136102 78.885676 
L 438.026305 81.551779 
L 444.632481 78.21915 
L 447.109798 75.553047 
L 450 73.553469 
L 450 73.553469 
" clip-path="url(#p11d8c64364)" style="fill: none; stroke: #1f77b4; stroke-width: 1.5; stroke-linecap: square"/>
   </g>
   <g id="patch_3">
    <path d="M 62.3 85.90086 
L 62.3 26.88 
" style="fill: none; stroke: #000000; stroke-width: 0.8; stroke-linejoin: miter; stroke-linecap: square"/>
   </g>
   <g id="patch_4">
    <path d="M 450 85.90086 
L 450 26.88 
" style="fill: none; stroke: #000000; stroke-width: 0.8; stroke-linejoin: miter; stroke-linecap: square"/>
   </g>
   <g id="patch_5">
    <path d="M 62.3 85.90086 
L 450 85.90086 
" style="fill: none; stroke: #000000; stroke-width: 0.8; stroke-linejoin: miter; stroke-linecap: square"/>
   </g>
   <g id="patch_6">
    <path d="M 62.3 26.88 
L 450 26.88 
" style="fill: none; stroke: #000000; stroke-width: 0.8; stroke-linejoin: miter; stroke-linecap: square"/>
   </g>
   <g id="text_4">
    <!-- Fosfatos -->
    <g transform="translate(231.181562 20.88) scale(0.12 -0.12)">
     <defs>
      <path id="DejaVuSans-46" d="M 628 4666 
L 3309 4666 
L 3309 4134 
L 1259 4134 
L 1259 2759 
L 3109 2759 
L 3109 2228 
L 1259 2228 
L 1259 0 
L 628 0 
L 628 4666 
z
" transform="scale(0.015625)"/>
      <path id="DejaVuSans-6f" d="M 1959 3097 
Q 1497 3097 1228 2736 
Q 959 2375 959 1747 
Q 959 1119 1226 758 
Q 1494 397 1959 397 
Q 2419 397 2687 759 
Q 2956 1122 2956 1747 
Q 2956 2369 2687 2733 
Q 2419 3097 1959 3097 
z
M 1959 3584 
Q 2709 3584 3137 3096 
Q 3566 2609 3566 1747 
Q 3566 888 3137 398 
Q 2709 -91 1959 -91 
Q 1206 -91 779 398 
Q 353 888 353 1747 
Q 353 2609 779 3096 
Q 1206 3584 1959 3584 
z
" transform="scale(0.015625)"/>
      <path id="DejaVuSans-73" d="M 2834 3397 
L 2834 2853 
Q 2591 2978 2328 3040 
Q 2066 3103 1784 3103 
Q 1356 3103 1142 2972 
Q 928 2841 928 2578 
Q 928 2378 1081 2264 
Q 1234 2150 1697 2047 
L 1894 2003 
Q 2506 1872 2764 1633 
Q 3022 1394 3022 966 
Q 3022 478 2636 193 
Q 2250 -91 1575 -91 
Q 1294 -91 989 -36 
Q 684 19 347 128 
L 347 722 
Q 666 556 975 473 
Q 1284 391 1588 391 
Q 1994 391 2212 530 
Q 2431 669 2431 922 
Q 2431 1156 2273 1281 
Q 2116 1406 1581 1522 
L 1381 1569 
Q 847 1681 609 1914 
Q 372 2147 372 2553 
Q 372 3047 722 3315 
Q 1072 3584 1716 3584 
Q 2034 3584 2315 3537 
Q 2597 3491 2834 3397 
z
" transform="scale(0.015625)"/>
      <path id="DejaVuSans-66" d="M 2375 4863 
L 2375 4384 
L 1825 4384 
Q 1516 4384 1395 4259 
Q 1275 4134 1275 3809 
L 1275 3500 
L 2222 3500 
L 2222 3053 
L 1275 3053 
L 1275 0 
L 697 0 
L 697 3053 
L 147 3053 
L 147 3500 
L 697 3500 
L 697 3744 
Q 697 4328 969 4595 
Q 1241 4863 1831 4863 
L 2375 4863 
z
" transform="scale(0.015625)"/>
      <path id="DejaVuSans-61" d="M 2194 1759 
Q 1497 1759 1228 1600 
Q 959 1441 959 1056 
Q 959 750 1161 570 
Q 1363 391 1709 391 
Q 2188 391 2477 730 
Q 2766 1069 2766 1631 
L 2766 1759 
L 2194 1759 
z
M 3341 1997 
L 3341 0 
L 2766 0 
L 2766 531 
Q 2569 213 2275 61 
Q 1981 -91 1556 -91 
Q 1019 -91 701 211 
Q 384 513 384 1019 
Q 384 1609 779 1909 
Q 1175 2209 1959 2209 
L 2766 2209 
L 2766 2266 
Q 2766 2663 2505 2880 
Q 2244 3097 1772 3097 
Q 1472 3097 1187 3025 
Q 903 2953 641 2809 
L 641 3341 
Q 956 3463 1253 3523 
Q 1550 3584 1831 3584 
Q 2591 3584 2966 3190 
Q 3341 2797 3341 1997 
z
" transform="scale(0.015625)"/>
      <path id="DejaVuSans-74" d="M 1172 4494 
L 1172 3500 
L 2356 3500 
L 2356 3053 
L 1172 3053 
L 1172 1153 
Q 1172 725 1289 603 
Q 1406 481 1766 481 
L 2356 481 
L 2356 0 
L 1766 0 
Q 1100 0 847 248 
Q 594 497 594 1153 
L 594 3053 
L 172 3053 
L 172 3500 
L 594 3500 
L 594 4494 
L 1172 4494 
z
" transform="scale(0.015625)"/>
     </defs>
     <use xlink:href="#DejaVuSans-46"/>
     <use xlink:href="#DejaVuSans-6f" x="53.894531"/>
     <use xlink:href="#DejaVuSans-73" x="115.076172"/>
     <use xlink:href="#DejaVuSans-66" x="167.175781"/>
     <use xlink:href="#DejaVuSans-61" x="202.380859"/>
     <use xlink:href="#DejaVuSans-74" x="263.660156"/>
     <use xlink:href="#DejaVuSans-6f" x="302.869141"/>
     <use xlink:href="#DejaVuSans-73" x="364.050781"/>
    </g>
   </g>
  </g>
  <g id="axes_2">
   <g id="patch_7">
    <path d="M 62.3 163.173906 
L 450 163.173906 
L 450 104.153047 
L 62.3 104.153047 
z
" style="fill: #ffffff"/>
   </g>
   <g id="matplotlib.axis_3">
    <g id="xtick_11">
     <g id="line2d_15">
      <g>
       <use xlink:href="#m939208568f" x="77.98967" y="163.173906" style="stroke: #000000; stroke-width: 0.8"/>
      </g>
     </g>
    </g>
    <g id="xtick_12">
     <g id="line2d_16">
      <g>
       <use xlink:href="#m939208568f" x="115.975186" y="163.173906" style="stroke: #000000; stroke-width: 0.8"/>
      </g>
     </g>
    </g>
    <g id="xtick_13">
     <g id="line2d_17">
      <g>
       <use xlink:href="#m939208568f" x="153.134931" y="163.173906" style="stroke: #000000; stroke-width: 0.8"/>
      </g>
     </g>
    </g>
    <g id="xtick_14">
     <g id="line2d_18">
      <g>
       <use xlink:href="#m939208568f" x="190.707561" y="163.173906" style="stroke: #000000; stroke-width: 0.8"/>
      </g>
     </g>
    </g>
    <g id="xtick_15">
     <g id="line2d_19">
      <g>
       <use xlink:href="#m939208568f" x="228.693078" y="163.173906" style="stroke: #000000; stroke-width: 0.8"/>
      </g>
     </g>
    </g>
    <g id="xtick_16">
     <g id="line2d_20">
      <g>
       <use xlink:href="#m939208568f" x="266.678594" y="163.173906" style="stroke: #000000; stroke-width: 0.8"/>
      </g>
     </g>
    </g>
    <g id="xtick_17">
     <g id="line2d_21">
      <g>
       <use xlink:href="#m939208568f" x="303.838339" y="163.173906" style="stroke: #000000; stroke-width: 0.8"/>
      </g>
     </g>
    </g>
    <g id="xtick_18">
     <g id="line2d_22">
      <g>
       <use xlink:href="#m939208568f" x="341.410969" y="163.173906" style="stroke: #000000; stroke-width: 0.8"/>
      </g>
     </g>
    </g>
    <g id="xtick_19">
     <g id="line2d_23">
      <g>
       <use xlink:href="#m939208568f" x="379.396486" y="163.173906" style="stroke: #000000; stroke-width: 0.8"/>
      </g>
     </g>
    </g>
    <g id="xtick_20">
     <g id="line2d_24">
      <g>
       <use xlink:href="#m939208568f" x="417.382002" y="163.173906" style="stroke: #000000; stroke-width: 0.8"/>
      </g>
     </g>
    </g>
   </g>
   <g id="matplotlib.axis_4">
    <g id="ytick_4">
     <g id="line2d_25">
      <g>
       <use xlink:href="#mfb946c3734" x="62.3" y="140.905926" style="stroke: #000000; stroke-width: 0.8"/>
      </g>
     </g>
     <g id="text_5">
      <!-- 0.3 -->
      <g transform="translate(39.396875 144.705144) scale(0.1 -0.1)">
       <defs>
        <path id="DejaVuSans-33" d="M 2597 2516 
Q 3050 2419 3304 2112 
Q 3559 1806 3559 1356 
Q 3559 666 3084 287 
Q 2609 -91 1734 -91 
Q 1441 -91 1130 -33 
Q 819 25 488 141 
L 488 750 
Q 750 597 1062 519 
Q 1375 441 1716 441 
Q 2309 441 2620 675 
Q 2931 909 2931 1356 
Q 2931 1769 2642 2001 
Q 2353 2234 1838 2234 
L 1294 2234 
L 1294 2753 
L 1863 2753 
Q 2328 2753 2575 2939 
Q 2822 3125 2822 3475 
Q 2822 3834 2567 4026 
Q 2313 4219 1838 4219 
Q 1578 4219 1281 4162 
Q 984 4106 628 3988 
L 628 4550 
Q 988 4650 1302 4700 
Q 1616 4750 1894 4750 
Q 2613 4750 3031 4423 
Q 3450 4097 3450 3541 
Q 3450 3153 3228 2886 
Q 3006 2619 2597 2516 
z
" transform="scale(0.015625)"/>
       </defs>
       <use xlink:href="#DejaVuSans-30"/>
       <use xlink:href="#DejaVuSans-2e" x="63.623047"/>
       <use xlink:href="#DejaVuSans-33" x="95.410156"/>
      </g>
     </g>
    </g>
    <g id="ytick_5">
     <g id="line2d_26">
      <g>
       <use xlink:href="#mfb946c3734" x="62.3" y="110.304028" style="stroke: #000000; stroke-width: 0.8"/>
      </g>
     </g>
     <g id="text_6">
      <!-- 0.4 -->
      <g transform="translate(39.396875 114.103247) scale(0.1 -0.1)">
       <defs>
        <path id="DejaVuSans-34" d="M 2419 4116 
L 825 1625 
L 2419 1625 
L 2419 4116 
z
M 2253 4666 
L 3047 4666 
L 3047 1625 
L 3713 1625 
L 3713 1100 
L 3047 1100 
L 3047 0 
L 2419 0 
L 2419 1100 
L 313 1100 
L 313 1709 
L 2253 4666 
z
" transform="scale(0.015625)"/>
       </defs>
       <use xlink:href="#DejaVuSans-30"/>
       <use xlink:href="#DejaVuSans-2e" x="63.623047"/>
       <use xlink:href="#DejaVuSans-34" x="95.410156"/>
      </g>
     </g>
    </g>
    <g id="text_7">
     <!-- Trend -->
     <g transform="translate(33.317188 147.342383) rotate(-90) scale(0.1 -0.1)">
      <defs>
       <path id="DejaVuSans-54" d="M -19 4666 
L 3928 4666 
L 3928 4134 
L 2272 4134 
L 2272 0 
L 1638 0 
L 1638 4134 
L -19 4134 
L -19 4666 
z
" transform="scale(0.015625)"/>
       <path id="DejaVuSans-72" d="M 2631 2963 
Q 2534 3019 2420 3045 
Q 2306 3072 2169 3072 
Q 1681 3072 1420 2755 
Q 1159 2438 1159 1844 
L 1159 0 
L 581 0 
L 581 3500 
L 1159 3500 
L 1159 2956 
Q 1341 3275 1631 3429 
Q 1922 3584 2338 3584 
Q 2397 3584 2469 3576 
Q 2541 3569 2628 3553 
L 2631 2963 
z
" transform="scale(0.015625)"/>
       <path id="DejaVuSans-65" d="M 3597 1894 
L 3597 1613 
L 953 1613 
Q 991 1019 1311 708 
Q 1631 397 2203 397 
Q 2534 397 2845 478 
Q 3156 559 3463 722 
L 3463 178 
Q 3153 47 2828 -22 
Q 2503 -91 2169 -91 
Q 1331 -91 842 396 
Q 353 884 353 1716 
Q 353 2575 817 3079 
Q 1281 3584 2069 3584 
Q 2775 3584 3186 3129 
Q 3597 2675 3597 1894 
z
M 3022 2063 
Q 3016 2534 2758 2815 
Q 2500 3097 2075 3097 
Q 1594 3097 1305 2825 
Q 1016 2553 972 2059 
L 3022 2063 
z
" transform="scale(0.015625)"/>
       <path id="DejaVuSans-6e" d="M 3513 2113 
L 3513 0 
L 2938 0 
L 2938 2094 
Q 2938 2591 2744 2837 
Q 2550 3084 2163 3084 
Q 1697 3084 1428 2787 
Q 1159 2491 1159 1978 
L 1159 0 
L 581 0 
L 581 3500 
L 1159 3500 
L 1159 2956 
Q 1366 3272 1645 3428 
Q 1925 3584 2291 3584 
Q 2894 3584 3203 3211 
Q 3513 2838 3513 2113 
z
" transform="scale(0.015625)"/>
       <path id="DejaVuSans-64" d="M 2906 2969 
L 2906 4863 
L 3481 4863 
L 3481 0 
L 2906 0 
L 2906 525 
Q 2725 213 2448 61 
Q 2172 -91 1784 -91 
Q 1150 -91 751 415 
Q 353 922 353 1747 
Q 353 2572 751 3078 
Q 1150 3584 1784 3584 
Q 2172 3584 2448 3432 
Q 2725 3281 2906 2969 
z
M 947 1747 
Q 947 1113 1208 752 
Q 1469 391 1925 391 
Q 2381 391 2643 752 
Q 2906 1113 2906 1747 
Q 2906 2381 2643 2742 
Q 2381 3103 1925 3103 
Q 1469 3103 1208 2742 
Q 947 2381 947 1747 
z
" transform="scale(0.015625)"/>
      </defs>
      <use xlink:href="#DejaVuSans-54"/>
      <use xlink:href="#DejaVuSans-72" x="46.333984"/>
      <use xlink:href="#DejaVuSans-65" x="85.197266"/>
      <use xlink:href="#DejaVuSans-6e" x="146.720703"/>
      <use xlink:href="#DejaVuSans-64" x="210.099609"/>
     </g>
    </g>
   </g>
   <g id="line2d_27">
    <path d="M 101.111289 130.144258 
L 103.175719 138.916802 
L 106.891693 135.346581 
L 108.956124 129.889243 
L 111.43344 128.257141 
L 114.323642 125.451967 
L 117.213845 122.238768 
L 120.516933 121.014692 
L 123.407135 120.555664 
L 126.710224 119.331588 
L 129.18754 119.076572 
L 132.490628 120.249645 
L 134.967945 120.861683 
L 138.271033 121.524724 
L 140.748349 122.442781 
L 144.464324 122.59579 
L 149.831842 121.422718 
L 151.483387 117.852496 
L 155.199361 115.404344 
L 157.263791 114.84331 
L 160.56688 114.435284 
L 163.869968 114.84331 
L 167.585942 116.526414 
L 170.476145 118.362528 
L 172.540575 118.413531 
L 175.843663 118.005506 
L 178.733866 117.495474 
L 182.036954 115.863373 
L 184.927157 113.415221 
L 190.294675 106.835813 
L 192.771991 108.977946 
L 196.07508 112.548167 
L 198.552396 112.803183 
L 201.855485 112.956193 
L 204.332801 113.466224 
L 207.635889 112.548167 
L 210.113206 111.171082 
L 213.003408 111.120079 
L 216.306496 110.66105 
L 218.783813 109.487978 
L 222.086901 109.181959 
L 224.564217 109.130955 
L 227.867306 108.773933 
L 230.344622 109.385971 
L 232.821938 111.477101 
L 235.712141 114.792306 
L 239.015229 115.965379 
L 241.905431 115.710363 
L 244.795634 116.526414 
L 248.098722 117.240458 
L 250.988924 117.546477 
L 253.879127 116.985442 
L 256.356443 117.138452 
L 260.072417 118.464534 
L 261.723962 119.68861 
L 264.614164 120.606667 
L 267.504366 122.544787 
L 270.394569 125.196952 
L 274.523429 129.226201 
L 276.587859 133.56147 
L 279.478062 135.856613 
L 282.368264 136.468651 
L 284.84558 137.794733 
L 288.561555 140.803919 
L 291.038871 144.068122 
L 293.929073 146.822293 
L 297.232162 148.658406 
L 299.709478 149.015429 
L 302.599681 148.862419 
L 305.076997 149.219441 
L 307.967199 148.913422 
L 314.573376 146.108248 
L 317.463578 145.190191 
L 320.353781 142.538027 
L 323.243983 140.803919 
L 326.134185 142.487024 
L 328.611502 144.068122 
L 330.675932 144.170128 
L 333.97902 144.221131 
L 337.282109 144.884172 
L 340.172311 146.108248 
L 343.062513 146.261258 
L 345.952716 145.751226 
L 348.842918 145.49621 
L 351.73312 145.49621 
L 357.926411 144.425144 
L 360.816613 144.017119 
L 363.706816 143.456084 
L 366.184132 143.762103 
L 371.964537 146.822293 
L 375.267625 146.159251 
L 377.744941 145.802229 
L 383.525346 146.771289 
L 386.002662 147.842356 
L 391.783067 150.64753 
L 395.086155 152.534647 
L 398.389244 155.49283 
L 401.692332 158.195998 
L 403.756763 160.49114 
L 403.756763 160.49114 
" clip-path="url(#p894b385ead)" style="fill: none; stroke: #1f77b4; stroke-width: 1.5; stroke-linecap: square"/>
   </g>
   <g id="patch_8">
    <path d="M 62.3 163.173906 
L 62.3 104.153047 
" style="fill: none; stroke: #000000; stroke-width: 0.8; stroke-linejoin: miter; stroke-linecap: square"/>
   </g>
   <g id="patch_9">
    <path d="M 450 163.173906 
L 450 104.153047 
" style="fill: none; stroke: #000000; stroke-width: 0.8; stroke-linejoin: miter; stroke-linecap: square"/>
   </g>
   <g id="patch_10">
    <path d="M 62.3 163.173906 
L 450 163.173906 
" style="fill: none; stroke: #000000; stroke-width: 0.8; stroke-linejoin: miter; stroke-linecap: square"/>
   </g>
   <g id="patch_11">
    <path d="M 62.3 104.153047 
L 450 104.153047 
" style="fill: none; stroke: #000000; stroke-width: 0.8; stroke-linejoin: miter; stroke-linecap: square"/>
   </g>
  </g>
  <g id="axes_3">
   <g id="patch_12">
    <path d="M 62.3 240.446953 
L 450 240.446953 
L 450 181.426094 
L 62.3 181.426094 
z
" style="fill: #ffffff"/>
   </g>
   <g id="matplotlib.axis_5">
    <g id="xtick_21">
     <g id="line2d_28">
      <g>
       <use xlink:href="#m939208568f" x="77.98967" y="240.446953" style="stroke: #000000; stroke-width: 0.8"/>
      </g>
     </g>
    </g>
    <g id="xtick_22">
     <g id="line2d_29">
      <g>
       <use xlink:href="#m939208568f" x="115.975186" y="240.446953" style="stroke: #000000; stroke-width: 0.8"/>
      </g>
     </g>
    </g>
    <g id="xtick_23">
     <g id="line2d_30">
      <g>
       <use xlink:href="#m939208568f" x="153.134931" y="240.446953" style="stroke: #000000; stroke-width: 0.8"/>
      </g>
     </g>
    </g>
    <g id="xtick_24">
     <g id="line2d_31">
      <g>
       <use xlink:href="#m939208568f" x="190.707561" y="240.446953" style="stroke: #000000; stroke-width: 0.8"/>
      </g>
     </g>
    </g>
    <g id="xtick_25">
     <g id="line2d_32">
      <g>
       <use xlink:href="#m939208568f" x="228.693078" y="240.446953" style="stroke: #000000; stroke-width: 0.8"/>
      </g>
     </g>
    </g>
    <g id="xtick_26">
     <g id="line2d_33">
      <g>
       <use xlink:href="#m939208568f" x="266.678594" y="240.446953" style="stroke: #000000; stroke-width: 0.8"/>
      </g>
     </g>
    </g>
    <g id="xtick_27">
     <g id="line2d_34">
      <g>
       <use xlink:href="#m939208568f" x="303.838339" y="240.446953" style="stroke: #000000; stroke-width: 0.8"/>
      </g>
     </g>
    </g>
    <g id="xtick_28">
     <g id="line2d_35">
      <g>
       <use xlink:href="#m939208568f" x="341.410969" y="240.446953" style="stroke: #000000; stroke-width: 0.8"/>
      </g>
     </g>
    </g>
    <g id="xtick_29">
     <g id="line2d_36">
      <g>
       <use xlink:href="#m939208568f" x="379.396486" y="240.446953" style="stroke: #000000; stroke-width: 0.8"/>
      </g>
     </g>
    </g>
    <g id="xtick_30">
     <g id="line2d_37">
      <g>
       <use xlink:href="#m939208568f" x="417.382002" y="240.446953" style="stroke: #000000; stroke-width: 0.8"/>
      </g>
     </g>
    </g>
   </g>
   <g id="matplotlib.axis_6">
    <g id="ytick_6">
     <g id="line2d_38">
      <g>
       <use xlink:href="#mfb946c3734" x="62.3" y="217.757201" style="stroke: #000000; stroke-width: 0.8"/>
      </g>
     </g>
     <g id="text_8">
      <!-- 0.00 -->
      <g transform="translate(33.034375 221.55642) scale(0.1 -0.1)">
       <use xlink:href="#DejaVuSans-30"/>
       <use xlink:href="#DejaVuSans-2e" x="63.623047"/>
       <use xlink:href="#DejaVuSans-30" x="95.410156"/>
       <use xlink:href="#DejaVuSans-30" x="159.033203"/>
      </g>
     </g>
    </g>
    <g id="ytick_7">
     <g id="line2d_39">
      <g>
       <use xlink:href="#mfb946c3734" x="62.3" y="181.434064" style="stroke: #000000; stroke-width: 0.8"/>
      </g>
     </g>
     <g id="text_9">
      <!-- 0.25 -->
      <g transform="translate(33.034375 185.233283) scale(0.1 -0.1)">
       <defs>
        <path id="DejaVuSans-32" d="M 1228 531 
L 3431 531 
L 3431 0 
L 469 0 
L 469 531 
Q 828 903 1448 1529 
Q 2069 2156 2228 2338 
Q 2531 2678 2651 2914 
Q 2772 3150 2772 3378 
Q 2772 3750 2511 3984 
Q 2250 4219 1831 4219 
Q 1534 4219 1204 4116 
Q 875 4013 500 3803 
L 500 4441 
Q 881 4594 1212 4672 
Q 1544 4750 1819 4750 
Q 2544 4750 2975 4387 
Q 3406 4025 3406 3419 
Q 3406 3131 3298 2873 
Q 3191 2616 2906 2266 
Q 2828 2175 2409 1742 
Q 1991 1309 1228 531 
z
" transform="scale(0.015625)"/>
       </defs>
       <use xlink:href="#DejaVuSans-30"/>
       <use xlink:href="#DejaVuSans-2e" x="63.623047"/>
       <use xlink:href="#DejaVuSans-32" x="95.410156"/>
       <use xlink:href="#DejaVuSans-35" x="159.033203"/>
      </g>
     </g>
    </g>
    <g id="text_10">
     <!-- Seasonal -->
     <g transform="translate(26.954688 233.537305) rotate(-90) scale(0.1 -0.1)">
      <defs>
       <path id="DejaVuSans-53" d="M 3425 4513 
L 3425 3897 
Q 3066 4069 2747 4153 
Q 2428 4238 2131 4238 
Q 1616 4238 1336 4038 
Q 1056 3838 1056 3469 
Q 1056 3159 1242 3001 
Q 1428 2844 1947 2747 
L 2328 2669 
Q 3034 2534 3370 2195 
Q 3706 1856 3706 1288 
Q 3706 609 3251 259 
Q 2797 -91 1919 -91 
Q 1588 -91 1214 -16 
Q 841 59 441 206 
L 441 856 
Q 825 641 1194 531 
Q 1563 422 1919 422 
Q 2459 422 2753 634 
Q 3047 847 3047 1241 
Q 3047 1584 2836 1778 
Q 2625 1972 2144 2069 
L 1759 2144 
Q 1053 2284 737 2584 
Q 422 2884 422 3419 
Q 422 4038 858 4394 
Q 1294 4750 2059 4750 
Q 2388 4750 2728 4690 
Q 3069 4631 3425 4513 
z
" transform="scale(0.015625)"/>
       <path id="DejaVuSans-6c" d="M 603 4863 
L 1178 4863 
L 1178 0 
L 603 0 
L 603 4863 
z
" transform="scale(0.015625)"/>
      </defs>
      <use xlink:href="#DejaVuSans-53"/>
      <use xlink:href="#DejaVuSans-65" x="63.476562"/>
      <use xlink:href="#DejaVuSans-61" x="125"/>
      <use xlink:href="#DejaVuSans-73" x="186.279297"/>
      <use xlink:href="#DejaVuSans-6f" x="238.378906"/>
      <use xlink:href="#DejaVuSans-6e" x="299.560547"/>
      <use xlink:href="#DejaVuSans-61" x="362.939453"/>
      <use xlink:href="#DejaVuSans-6c" x="424.21875"/>
     </g>
    </g>
   </g>
   <g id="line2d_40">
    <path d="M 62.3 222.254207 
L 63.125772 233.193525 
L 64.777316 184.10886 
L 66.015974 199.542157 
L 70.557721 214.918952 
L 73.447923 210.479457 
L 76.338126 200.647995 
L 77.576784 218.857994 
L 80.466986 207.347596 
L 82.11853 217.663367 
L 85.008733 217.526146 
L 89.137593 226.154909 
L 92.027796 213.014005 
L 94.917998 215.459763 
L 97.8082 188.403062 
L 101.111289 189.908454 
L 103.175719 200.048663 
L 106.891693 207.900515 
L 108.956124 217.647223 
L 111.43344 231.304722 
L 114.323642 229.88812 
L 117.213845 229.863905 
L 120.516933 230.451129 
L 123.407135 221.321914 
L 126.710224 233.290387 
L 129.18754 229.930497 
L 132.490628 235.197352 
L 134.967945 234.973359 
L 138.271033 233.653619 
L 140.748349 237.764187 
L 144.464324 222.254207 
L 149.831842 233.193525 
L 151.483387 184.10886 
L 155.199361 199.542157 
L 157.263791 214.918952 
L 160.56688 210.479457 
L 161.805538 200.647995 
L 163.869968 218.857994 
L 167.585942 207.347596 
L 170.476145 217.663367 
L 172.540575 217.526146 
L 175.843663 226.154909 
L 178.733866 213.014005 
L 182.036954 215.459763 
L 184.927157 188.403062 
L 187.817359 189.908454 
L 190.294675 200.048663 
L 192.771991 207.900515 
L 196.07508 217.647223 
L 198.552396 231.304722 
L 201.855485 229.88812 
L 204.332801 229.863905 
L 207.635889 230.451129 
L 210.113206 221.321914 
L 213.003408 233.290387 
L 216.306496 229.930497 
L 218.783813 235.197352 
L 222.086901 234.973359 
L 224.564217 233.653619 
L 227.867306 237.764187 
L 230.344622 222.254207 
L 232.821938 233.193525 
L 235.712141 184.10886 
L 239.015229 199.542157 
L 241.905431 214.918952 
L 244.795634 210.479457 
L 248.098722 200.647995 
L 250.988924 218.857994 
L 253.879127 207.347596 
L 256.356443 217.663367 
L 260.072417 217.526146 
L 261.723962 226.154909 
L 264.614164 213.014005 
L 267.504366 215.459763 
L 270.394569 188.403062 
L 274.523429 189.908454 
L 276.587859 200.048663 
L 279.478062 207.900515 
L 282.368264 217.647223 
L 284.84558 231.304722 
L 288.561555 229.88812 
L 291.038871 229.863905 
L 293.929073 230.451129 
L 297.232162 221.321914 
L 299.709478 233.290387 
L 302.599681 229.930497 
L 305.076997 235.197352 
L 307.967199 234.973359 
L 311.683174 233.653619 
L 314.573376 237.764187 
L 317.463578 222.254207 
L 320.353781 233.193525 
L 323.243983 184.10886 
L 326.134185 199.542157 
L 328.611502 214.918952 
L 330.675932 210.479457 
L 333.97902 200.647995 
L 337.282109 218.857994 
L 340.172311 207.347596 
L 343.062513 217.663367 
L 345.952716 217.526146 
L 348.842918 226.154909 
L 351.73312 213.014005 
L 354.210437 215.459763 
L 357.926411 188.403062 
L 360.816613 189.908454 
L 363.706816 200.048663 
L 366.184132 207.900515 
L 369.48722 217.647223 
L 371.964537 231.304722 
L 375.267625 229.88812 
L 377.744941 229.863905 
L 381.04803 230.451129 
L 383.525346 221.321914 
L 386.002662 233.290387 
L 389.305751 229.930497 
L 391.783067 235.197352 
L 395.086155 234.973359 
L 398.389244 233.653619 
L 401.692332 237.764187 
L 403.756763 222.254207 
L 407.059851 233.193525 
L 409.537167 184.10886 
L 412.014483 199.542157 
L 415.317572 214.918952 
L 418.207774 210.479457 
L 420.685091 200.647995 
L 423.575293 218.857994 
L 426.465495 207.347596 
L 430.18147 217.663367 
L 432.2459 217.526146 
L 435.136102 226.154909 
L 438.026305 213.014005 
L 444.632481 215.459763 
L 447.109798 188.403062 
L 450 189.908454 
L 450 189.908454 
" clip-path="url(#pdd0390655b)" style="fill: none; stroke: #1f77b4; stroke-width: 1.5; stroke-linecap: square"/>
   </g>
   <g id="patch_13">
    <path d="M 62.3 240.446953 
L 62.3 181.426094 
" style="fill: none; stroke: #000000; stroke-width: 0.8; stroke-linejoin: miter; stroke-linecap: square"/>
   </g>
   <g id="patch_14">
    <path d="M 450 240.446953 
L 450 181.426094 
" style="fill: none; stroke: #000000; stroke-width: 0.8; stroke-linejoin: miter; stroke-linecap: square"/>
   </g>
   <g id="patch_15">
    <path d="M 62.3 240.446953 
L 450 240.446953 
" style="fill: none; stroke: #000000; stroke-width: 0.8; stroke-linejoin: miter; stroke-linecap: square"/>
   </g>
   <g id="patch_16">
    <path d="M 62.3 181.426094 
L 450 181.426094 
" style="fill: none; stroke: #000000; stroke-width: 0.8; stroke-linejoin: miter; stroke-linecap: square"/>
   </g>
  </g>
  <g id="axes_4">
   <g id="patch_17">
    <path d="M 62.3 317.72 
L 450 317.72 
L 450 258.69914 
L 62.3 258.69914 
z
" style="fill: #ffffff"/>
   </g>
   <g id="line2d_41">
    <path d="M 62.3 296.285448 
L 450 296.285448 
" clip-path="url(#pf5b96db98a)" style="fill: none; stroke: #000000; stroke-width: 1.5; stroke-linecap: square"/>
   </g>
   <g id="matplotlib.axis_7">
    <g id="xtick_31">
     <g id="line2d_42">
      <g>
       <use xlink:href="#m939208568f" x="77.98967" y="317.72" style="stroke: #000000; stroke-width: 0.8"/>
      </g>
     </g>
     <g id="text_11">
      <!-- 2021-10 -->
      <g transform="translate(57.098264 332.318437) scale(0.1 -0.1)">
       <defs>
        <path id="DejaVuSans-2d" d="M 313 2009 
L 1997 2009 
L 1997 1497 
L 313 1497 
L 313 2009 
z
" transform="scale(0.015625)"/>
       </defs>
       <use xlink:href="#DejaVuSans-32"/>
       <use xlink:href="#DejaVuSans-30" x="63.623047"/>
       <use xlink:href="#DejaVuSans-32" x="127.246094"/>
       <use xlink:href="#DejaVuSans-31" x="190.869141"/>
       <use xlink:href="#DejaVuSans-2d" x="254.492188"/>
       <use xlink:href="#DejaVuSans-31" x="290.576172"/>
       <use xlink:href="#DejaVuSans-30" x="354.199219"/>
      </g>
     </g>
    </g>
    <g id="xtick_32">
     <g id="line2d_43">
      <g>
       <use xlink:href="#m939208568f" x="115.975186" y="317.72" style="stroke: #000000; stroke-width: 0.8"/>
      </g>
     </g>
     <g id="text_12">
      <!-- 2022-01 -->
      <g transform="translate(95.08378 332.318437) scale(0.1 -0.1)">
       <use xlink:href="#DejaVuSans-32"/>
       <use xlink:href="#DejaVuSans-30" x="63.623047"/>
       <use xlink:href="#DejaVuSans-32" x="127.246094"/>
       <use xlink:href="#DejaVuSans-32" x="190.869141"/>
       <use xlink:href="#DejaVuSans-2d" x="254.492188"/>
       <use xlink:href="#DejaVuSans-30" x="290.576172"/>
       <use xlink:href="#DejaVuSans-31" x="354.199219"/>
      </g>
     </g>
    </g>
    <g id="xtick_33">
     <g id="line2d_44">
      <g>
       <use xlink:href="#m939208568f" x="153.134931" y="317.72" style="stroke: #000000; stroke-width: 0.8"/>
      </g>
     </g>
     <g id="text_13">
      <!-- 2022-04 -->
      <g transform="translate(132.243525 332.318437) scale(0.1 -0.1)">
       <use xlink:href="#DejaVuSans-32"/>
       <use xlink:href="#DejaVuSans-30" x="63.623047"/>
       <use xlink:href="#DejaVuSans-32" x="127.246094"/>
       <use xlink:href="#DejaVuSans-32" x="190.869141"/>
       <use xlink:href="#DejaVuSans-2d" x="254.492188"/>
       <use xlink:href="#DejaVuSans-30" x="290.576172"/>
       <use xlink:href="#DejaVuSans-34" x="354.199219"/>
      </g>
     </g>
    </g>
    <g id="xtick_34">
     <g id="line2d_45">
      <g>
       <use xlink:href="#m939208568f" x="190.707561" y="317.72" style="stroke: #000000; stroke-width: 0.8"/>
      </g>
     </g>
     <g id="text_14">
      <!-- 2022-07 -->
      <g transform="translate(169.816155 332.318437) scale(0.1 -0.1)">
       <defs>
        <path id="DejaVuSans-37" d="M 525 4666 
L 3525 4666 
L 3525 4397 
L 1831 0 
L 1172 0 
L 2766 4134 
L 525 4134 
L 525 4666 
z
" transform="scale(0.015625)"/>
       </defs>
       <use xlink:href="#DejaVuSans-32"/>
       <use xlink:href="#DejaVuSans-30" x="63.623047"/>
       <use xlink:href="#DejaVuSans-32" x="127.246094"/>
       <use xlink:href="#DejaVuSans-32" x="190.869141"/>
       <use xlink:href="#DejaVuSans-2d" x="254.492188"/>
       <use xlink:href="#DejaVuSans-30" x="290.576172"/>
       <use xlink:href="#DejaVuSans-37" x="354.199219"/>
      </g>
     </g>
    </g>
    <g id="xtick_35">
     <g id="line2d_46">
      <g>
       <use xlink:href="#m939208568f" x="228.693078" y="317.72" style="stroke: #000000; stroke-width: 0.8"/>
      </g>
     </g>
     <g id="text_15">
      <!-- 2022-10 -->
      <g transform="translate(207.801671 332.318437) scale(0.1 -0.1)">
       <use xlink:href="#DejaVuSans-32"/>
       <use xlink:href="#DejaVuSans-30" x="63.623047"/>
       <use xlink:href="#DejaVuSans-32" x="127.246094"/>
       <use xlink:href="#DejaVuSans-32" x="190.869141"/>
       <use xlink:href="#DejaVuSans-2d" x="254.492188"/>
       <use xlink:href="#DejaVuSans-31" x="290.576172"/>
       <use xlink:href="#DejaVuSans-30" x="354.199219"/>
      </g>
     </g>
    </g>
    <g id="xtick_36">
     <g id="line2d_47">
      <g>
       <use xlink:href="#m939208568f" x="266.678594" y="317.72" style="stroke: #000000; stroke-width: 0.8"/>
      </g>
     </g>
     <g id="text_16">
      <!-- 2023-01 -->
      <g transform="translate(245.787188 332.318437) scale(0.1 -0.1)">
       <use xlink:href="#DejaVuSans-32"/>
       <use xlink:href="#DejaVuSans-30" x="63.623047"/>
       <use xlink:href="#DejaVuSans-32" x="127.246094"/>
       <use xlink:href="#DejaVuSans-33" x="190.869141"/>
       <use xlink:href="#DejaVuSans-2d" x="254.492188"/>
       <use xlink:href="#DejaVuSans-30" x="290.576172"/>
       <use xlink:href="#DejaVuSans-31" x="354.199219"/>
      </g>
     </g>
    </g>
    <g id="xtick_37">
     <g id="line2d_48">
      <g>
       <use xlink:href="#m939208568f" x="303.838339" y="317.72" style="stroke: #000000; stroke-width: 0.8"/>
      </g>
     </g>
     <g id="text_17">
      <!-- 2023-04 -->
      <g transform="translate(282.946932 332.318437) scale(0.1 -0.1)">
       <use xlink:href="#DejaVuSans-32"/>
       <use xlink:href="#DejaVuSans-30" x="63.623047"/>
       <use xlink:href="#DejaVuSans-32" x="127.246094"/>
       <use xlink:href="#DejaVuSans-33" x="190.869141"/>
       <use xlink:href="#DejaVuSans-2d" x="254.492188"/>
       <use xlink:href="#DejaVuSans-30" x="290.576172"/>
       <use xlink:href="#DejaVuSans-34" x="354.199219"/>
      </g>
     </g>
    </g>
    <g id="xtick_38">
     <g id="line2d_49">
      <g>
       <use xlink:href="#m939208568f" x="341.410969" y="317.72" style="stroke: #000000; stroke-width: 0.8"/>
      </g>
     </g>
     <g id="text_18">
      <!-- 2023-07 -->
      <g transform="translate(320.519563 332.318437) scale(0.1 -0.1)">
       <use xlink:href="#DejaVuSans-32"/>
       <use xlink:href="#DejaVuSans-30" x="63.623047"/>
       <use xlink:href="#DejaVuSans-32" x="127.246094"/>
       <use xlink:href="#DejaVuSans-33" x="190.869141"/>
       <use xlink:href="#DejaVuSans-2d" x="254.492188"/>
       <use xlink:href="#DejaVuSans-30" x="290.576172"/>
       <use xlink:href="#DejaVuSans-37" x="354.199219"/>
      </g>
     </g>
    </g>
    <g id="xtick_39">
     <g id="line2d_50">
      <g>
       <use xlink:href="#m939208568f" x="379.396486" y="317.72" style="stroke: #000000; stroke-width: 0.8"/>
      </g>
     </g>
     <g id="text_19">
      <!-- 2023-10 -->
      <g transform="translate(358.505079 332.318437) scale(0.1 -0.1)">
       <use xlink:href="#DejaVuSans-32"/>
       <use xlink:href="#DejaVuSans-30" x="63.623047"/>
       <use xlink:href="#DejaVuSans-32" x="127.246094"/>
       <use xlink:href="#DejaVuSans-33" x="190.869141"/>
       <use xlink:href="#DejaVuSans-2d" x="254.492188"/>
       <use xlink:href="#DejaVuSans-31" x="290.576172"/>
       <use xlink:href="#DejaVuSans-30" x="354.199219"/>
      </g>
     </g>
    </g>
    <g id="xtick_40">
     <g id="line2d_51">
      <g>
       <use xlink:href="#m939208568f" x="417.382002" y="317.72" style="stroke: #000000; stroke-width: 0.8"/>
      </g>
     </g>
     <g id="text_20">
      <!-- 2024-01 -->
      <g transform="translate(396.490596 332.318437) scale(0.1 -0.1)">
       <use xlink:href="#DejaVuSans-32"/>
       <use xlink:href="#DejaVuSans-30" x="63.623047"/>
       <use xlink:href="#DejaVuSans-32" x="127.246094"/>
       <use xlink:href="#DejaVuSans-34" x="190.869141"/>
       <use xlink:href="#DejaVuSans-2d" x="254.492188"/>
       <use xlink:href="#DejaVuSans-30" x="290.576172"/>
       <use xlink:href="#DejaVuSans-31" x="354.199219"/>
      </g>
     </g>
    </g>
   </g>
   <g id="matplotlib.axis_8">
    <g id="ytick_8">
     <g id="line2d_52">
      <g>
       <use xlink:href="#mfb946c3734" x="62.3" y="317.409592" style="stroke: #000000; stroke-width: 0.8"/>
      </g>
     </g>
     <g id="text_21">
      <!-- −0.25 -->
      <g transform="translate(24.654688 321.208811) scale(0.1 -0.1)">
       <defs>
        <path id="DejaVuSans-2212" d="M 678 2272 
L 4684 2272 
L 4684 1741 
L 678 1741 
L 678 2272 
z
" transform="scale(0.015625)"/>
       </defs>
       <use xlink:href="#DejaVuSans-2212"/>
       <use xlink:href="#DejaVuSans-30" x="83.789062"/>
       <use xlink:href="#DejaVuSans-2e" x="147.412109"/>
       <use xlink:href="#DejaVuSans-32" x="179.199219"/>
       <use xlink:href="#DejaVuSans-35" x="242.822266"/>
      </g>
     </g>
    </g>
    <g id="ytick_9">
     <g id="line2d_53">
      <g>
       <use xlink:href="#mfb946c3734" x="62.3" y="296.285448" style="stroke: #000000; stroke-width: 0.8"/>
      </g>
     </g>
     <g id="text_22">
      <!-- 0.00 -->
      <g transform="translate(33.034375 300.084667) scale(0.1 -0.1)">
       <use xlink:href="#DejaVuSans-30"/>
       <use xlink:href="#DejaVuSans-2e" x="63.623047"/>
       <use xlink:href="#DejaVuSans-30" x="95.410156"/>
       <use xlink:href="#DejaVuSans-30" x="159.033203"/>
      </g>
     </g>
    </g>
    <g id="ytick_10">
     <g id="line2d_54">
      <g>
       <use xlink:href="#mfb946c3734" x="62.3" y="275.161304" style="stroke: #000000; stroke-width: 0.8"/>
      </g>
     </g>
     <g id="text_23">
      <!-- 0.25 -->
      <g transform="translate(33.034375 278.960522) scale(0.1 -0.1)">
       <use xlink:href="#DejaVuSans-30"/>
       <use xlink:href="#DejaVuSans-2e" x="63.623047"/>
       <use xlink:href="#DejaVuSans-32" x="95.410156"/>
       <use xlink:href="#DejaVuSans-35" x="159.033203"/>
      </g>
     </g>
    </g>
    <g id="text_24">
     <!-- Resid -->
     <g transform="translate(18.575 301.70332) rotate(-90) scale(0.1 -0.1)">
      <defs>
       <path id="DejaVuSans-52" d="M 2841 2188 
Q 3044 2119 3236 1894 
Q 3428 1669 3622 1275 
L 4263 0 
L 3584 0 
L 2988 1197 
Q 2756 1666 2539 1819 
Q 2322 1972 1947 1972 
L 1259 1972 
L 1259 0 
L 628 0 
L 628 4666 
L 2053 4666 
Q 2853 4666 3247 4331 
Q 3641 3997 3641 3322 
Q 3641 2881 3436 2590 
Q 3231 2300 2841 2188 
z
M 1259 4147 
L 1259 2491 
L 2053 2491 
Q 2509 2491 2742 2702 
Q 2975 2913 2975 3322 
Q 2975 3731 2742 3939 
Q 2509 4147 2053 4147 
L 1259 4147 
z
" transform="scale(0.015625)"/>
       <path id="DejaVuSans-69" d="M 603 3500 
L 1178 3500 
L 1178 0 
L 603 0 
L 603 3500 
z
M 603 4863 
L 1178 4863 
L 1178 4134 
L 603 4134 
L 603 4863 
z
" transform="scale(0.015625)"/>
      </defs>
      <use xlink:href="#DejaVuSans-52"/>
      <use xlink:href="#DejaVuSans-65" x="64.982422"/>
      <use xlink:href="#DejaVuSans-73" x="126.505859"/>
      <use xlink:href="#DejaVuSans-69" x="178.605469"/>
      <use xlink:href="#DejaVuSans-64" x="206.388672"/>
     </g>
    </g>
   </g>
   <g id="line2d_55">
    <defs>
     <path id="mec4b63744c" d="M 0 3 
C 0.795609 3 1.55874 2.683901 2.12132 2.12132 
C 2.683901 1.55874 3 0.795609 3 0 
C 3 -0.795609 2.683901 -1.55874 2.12132 -2.12132 
C 1.55874 -2.683901 0.795609 -3 0 -3 
C -0.795609 -3 -1.55874 -2.683901 -2.12132 -2.12132 
C -2.683901 -1.55874 -3 -0.795609 -3 0 
C -3 0.795609 -2.683901 1.55874 -2.12132 2.12132 
C -1.55874 2.683901 -0.795609 3 0 3 
z
" style="stroke: #1f77b4"/>
    </defs>
    <g clip-path="url(#pf5b96db98a)">
     <use xlink:href="#mec4b63744c" x="101.111289" y="290.948668" style="fill: #1f77b4; stroke: #1f77b4"/>
     <use xlink:href="#mec4b63744c" x="103.175719" y="306.288317" style="fill: #1f77b4; stroke: #1f77b4"/>
     <use xlink:href="#mec4b63744c" x="106.891693" y="306.087638" style="fill: #1f77b4; stroke: #1f77b4"/>
     <use xlink:href="#mec4b63744c" x="108.956124" y="298.546318" style="fill: #1f77b4; stroke: #1f77b4"/>
     <use xlink:href="#mec4b63744c" x="111.43344" y="296.969049" style="fill: #1f77b4; stroke: #1f77b4"/>
     <use xlink:href="#mec4b63744c" x="114.323642" y="295.187579" style="fill: #1f77b4; stroke: #1f77b4"/>
     <use xlink:href="#mec4b63744c" x="117.213845" y="292.709013" style="fill: #1f77b4; stroke: #1f77b4"/>
     <use xlink:href="#mec4b63744c" x="120.516933" y="296.085355" style="fill: #1f77b4; stroke: #1f77b4"/>
     <use xlink:href="#mec4b63744c" x="123.407135" y="280.397157" style="fill: #1f77b4; stroke: #1f77b4"/>
     <use xlink:href="#mec4b63744c" x="126.710224" y="293.208951" style="fill: #1f77b4; stroke: #1f77b4"/>
     <use xlink:href="#mec4b63744c" x="129.18754" y="296.078314" style="fill: #1f77b4; stroke: #1f77b4"/>
     <use xlink:href="#mec4b63744c" x="132.490628" y="298.60617" style="fill: #1f77b4; stroke: #1f77b4"/>
     <use xlink:href="#mec4b63744c" x="134.967945" y="298.567442" style="fill: #1f77b4; stroke: #1f77b4"/>
     <use xlink:href="#mec4b63744c" x="138.271033" y="305.911603" style="fill: #1f77b4; stroke: #1f77b4"/>
     <use xlink:href="#mec4b63744c" x="140.748349" y="303.267564" style="fill: #1f77b4; stroke: #1f77b4"/>
     <use xlink:href="#mec4b63744c" x="144.464324" y="306.330565" style="fill: #1f77b4; stroke: #1f77b4"/>
     <use xlink:href="#mec4b63744c" x="149.831842" y="296.912718" style="fill: #1f77b4; stroke: #1f77b4"/>
     <use xlink:href="#mec4b63744c" x="151.483387" y="261.381907" style="fill: #1f77b4; stroke: #1f77b4"/>
     <use xlink:href="#mec4b63744c" x="155.199361" y="291.950891" style="fill: #1f77b4; stroke: #1f77b4"/>
     <use xlink:href="#mec4b63744c" x="157.263791" y="294.992768" style="fill: #1f77b4; stroke: #1f77b4"/>
     <use xlink:href="#mec4b63744c" x="160.56688" y="284.167817" style="fill: #1f77b4; stroke: #1f77b4"/>
     <use xlink:href="#mec4b63744c" x="161.805538" y="289.843171" style="fill: #1f77b4; stroke: #1f77b4"/>
     <use xlink:href="#mec4b63744c" x="163.869968" y="302.841561" style="fill: #1f77b4; stroke: #1f77b4"/>
     <use xlink:href="#mec4b63744c" x="167.585942" y="299.776213" style="fill: #1f77b4; stroke: #1f77b4"/>
     <use xlink:href="#mec4b63744c" x="170.476145" y="295.804874" style="fill: #1f77b4; stroke: #1f77b4"/>
     <use xlink:href="#mec4b63744c" x="172.540575" y="306.855148" style="fill: #1f77b4; stroke: #1f77b4"/>
     <use xlink:href="#mec4b63744c" x="175.843663" y="301.104687" style="fill: #1f77b4; stroke: #1f77b4"/>
     <use xlink:href="#mec4b63744c" x="178.733866" y="301.283068" style="fill: #1f77b4; stroke: #1f77b4"/>
     <use xlink:href="#mec4b63744c" x="182.036954" y="306.226118" style="fill: #1f77b4; stroke: #1f77b4"/>
     <use xlink:href="#mec4b63744c" x="184.927157" y="303.203018" style="fill: #1f77b4; stroke: #1f77b4"/>
     <use xlink:href="#mec4b63744c" x="187.817359" y="297.370408" style="fill: #1f77b4; stroke: #1f77b4"/>
     <use xlink:href="#mec4b63744c" x="190.294675" y="294.867196" style="fill: #1f77b4; stroke: #1f77b4"/>
     <use xlink:href="#mec4b63744c" x="192.771991" y="274.5" style="fill: #1f77b4; stroke: #1f77b4"/>
     <use xlink:href="#mec4b63744c" x="196.07508" y="301.644526" style="fill: #1f77b4; stroke: #1f77b4"/>
     <use xlink:href="#mec4b63744c" x="198.552396" y="293.631434" style="fill: #1f77b4; stroke: #1f77b4"/>
     <use xlink:href="#mec4b63744c" x="201.855485" y="299.482822" style="fill: #1f77b4; stroke: #1f77b4"/>
     <use xlink:href="#mec4b63744c" x="204.332801" y="296.82118" style="fill: #1f77b4; stroke: #1f77b4"/>
     <use xlink:href="#mec4b63744c" x="207.635889" y="300.957991" style="fill: #1f77b4; stroke: #1f77b4"/>
     <use xlink:href="#mec4b63744c" x="210.113206" y="308.337359" style="fill: #1f77b4; stroke: #1f77b4"/>
     <use xlink:href="#mec4b63744c" x="213.003408" y="300.546071" style="fill: #1f77b4; stroke: #1f77b4"/>
     <use xlink:href="#mec4b63744c" x="216.306496" y="294.177141" style="fill: #1f77b4; stroke: #1f77b4"/>
     <use xlink:href="#mec4b63744c" x="218.783813" y="299.042736" style="fill: #1f77b4; stroke: #1f77b4"/>
     <use xlink:href="#mec4b63744c" x="222.086901" y="295.877635" style="fill: #1f77b4; stroke: #1f77b4"/>
     <use xlink:href="#mec4b63744c" x="224.564217" y="288.20957" style="fill: #1f77b4; stroke: #1f77b4"/>
     <use xlink:href="#mec4b63744c" x="227.867306" y="287.607532" style="fill: #1f77b4; stroke: #1f77b4"/>
     <use xlink:href="#mec4b63744c" x="230.344622" y="271.954541" style="fill: #1f77b4; stroke: #1f77b4"/>
     <use xlink:href="#mec4b63744c" x="232.821938" y="286.139404" style="fill: #1f77b4; stroke: #1f77b4"/>
     <use xlink:href="#mec4b63744c" x="235.712141" y="311.234888" style="fill: #1f77b4; stroke: #1f77b4"/>
     <use xlink:href="#mec4b63744c" x="239.015229" y="301.93557" style="fill: #1f77b4; stroke: #1f77b4"/>
     <use xlink:href="#mec4b63744c" x="241.905431" y="288.8386" style="fill: #1f77b4; stroke: #1f77b4"/>
     <use xlink:href="#mec4b63744c" x="244.795634" y="292.040082" style="fill: #1f77b4; stroke: #1f77b4"/>
     <use xlink:href="#mec4b63744c" x="248.098722" y="289.110867" style="fill: #1f77b4; stroke: #1f77b4"/>
     <use xlink:href="#mec4b63744c" x="250.988924" y="286.88579" style="fill: #1f77b4; stroke: #1f77b4"/>
     <use xlink:href="#mec4b63744c" x="253.879127" y="292.044776" style="fill: #1f77b4; stroke: #1f77b4"/>
     <use xlink:href="#mec4b63744c" x="256.356443" y="302.902586" style="fill: #1f77b4; stroke: #1f77b4"/>
     <use xlink:href="#mec4b63744c" x="260.072417" y="292.476647" style="fill: #1f77b4; stroke: #1f77b4"/>
     <use xlink:href="#mec4b63744c" x="261.723962" y="295.570161" style="fill: #1f77b4; stroke: #1f77b4"/>
     <use xlink:href="#mec4b63744c" x="264.614164" y="300.42402" style="fill: #1f77b4; stroke: #1f77b4"/>
     <use xlink:href="#mec4b63744c" x="267.504366" y="303.536311" style="fill: #1f77b4; stroke: #1f77b4"/>
     <use xlink:href="#mec4b63744c" x="270.394569" y="294.880106" style="fill: #1f77b4; stroke: #1f77b4"/>
     <use xlink:href="#mec4b63744c" x="274.523429" y="307.256507" style="fill: #1f77b4; stroke: #1f77b4"/>
     <use xlink:href="#mec4b63744c" x="276.587859" y="306.922041" style="fill: #1f77b4; stroke: #1f77b4"/>
     <use xlink:href="#mec4b63744c" x="279.478062" y="302.566947" style="fill: #1f77b4; stroke: #1f77b4"/>
     <use xlink:href="#mec4b63744c" x="282.368264" y="278.98536" style="fill: #1f77b4; stroke: #1f77b4"/>
     <use xlink:href="#mec4b63744c" x="284.84558" y="298.560401" style="fill: #1f77b4; stroke: #1f77b4"/>
     <use xlink:href="#mec4b63744c" x="288.561555" y="293.483565" style="fill: #1f77b4; stroke: #1f77b4"/>
     <use xlink:href="#mec4b63744c" x="291.038871" y="298.511111" style="fill: #1f77b4; stroke: #1f77b4"/>
     <use xlink:href="#mec4b63744c" x="293.929073" y="286.42458" style="fill: #1f77b4; stroke: #1f77b4"/>
     <use xlink:href="#mec4b63744c" x="297.232162" y="293.761699" style="fill: #1f77b4; stroke: #1f77b4"/>
     <use xlink:href="#mec4b63744c" x="299.709478" y="296.842304" style="fill: #1f77b4; stroke: #1f77b4"/>
     <use xlink:href="#mec4b63744c" x="302.599681" y="298.838536" style="fill: #1f77b4; stroke: #1f77b4"/>
     <use xlink:href="#mec4b63744c" x="305.076997" y="293.142058" style="fill: #1f77b4; stroke: #1f77b4"/>
     <use xlink:href="#mec4b63744c" x="307.967199" y="295.046752" style="fill: #1f77b4; stroke: #1f77b4"/>
     <use xlink:href="#mec4b63744c" x="311.683174" y="299.644774" style="fill: #1f77b4; stroke: #1f77b4"/>
     <use xlink:href="#mec4b63744c" x="314.573376" y="299.26806" style="fill: #1f77b4; stroke: #1f77b4"/>
     <use xlink:href="#mec4b63744c" x="317.463578" y="306.851628" style="fill: #1f77b4; stroke: #1f77b4"/>
     <use xlink:href="#mec4b63744c" x="320.353781" y="304.601906" style="fill: #1f77b4; stroke: #1f77b4"/>
     <use xlink:href="#mec4b63744c" x="323.243983" y="315.037234" style="fill: #1f77b4; stroke: #1f77b4"/>
     <use xlink:href="#mec4b63744c" x="326.134185" y="293.767567" style="fill: #1f77b4; stroke: #1f77b4"/>
     <use xlink:href="#mec4b63744c" x="328.611502" y="303.82266" style="fill: #1f77b4; stroke: #1f77b4"/>
     <use xlink:href="#mec4b63744c" x="330.675932" y="311.446129" style="fill: #1f77b4; stroke: #1f77b4"/>
     <use xlink:href="#mec4b63744c" x="333.97902" y="308.69999" style="fill: #1f77b4; stroke: #1f77b4"/>
     <use xlink:href="#mec4b63744c" x="337.282109" y="297.926677" style="fill: #1f77b4; stroke: #1f77b4"/>
     <use xlink:href="#mec4b63744c" x="340.172311" y="295.833039" style="fill: #1f77b4; stroke: #1f77b4"/>
     <use xlink:href="#mec4b63744c" x="343.062513" y="288.946568" style="fill: #1f77b4; stroke: #1f77b4"/>
     <use xlink:href="#mec4b63744c" x="345.952716" y="288.322232" style="fill: #1f77b4; stroke: #1f77b4"/>
     <use xlink:href="#mec4b63744c" x="348.842918" y="290.97918" style="fill: #1f77b4; stroke: #1f77b4"/>
     <use xlink:href="#mec4b63744c" x="351.73312" y="285.94694" style="fill: #1f77b4; stroke: #1f77b4"/>
     <use xlink:href="#mec4b63744c" x="354.210437" y="277.891599" style="fill: #1f77b4; stroke: #1f77b4"/>
     <use xlink:href="#mec4b63744c" x="357.926411" y="289.570904" style="fill: #1f77b4; stroke: #1f77b4"/>
     <use xlink:href="#mec4b63744c" x="360.816613" y="287.963122" style="fill: #1f77b4; stroke: #1f77b4"/>
     <use xlink:href="#mec4b63744c" x="363.706816" y="275.461149" style="fill: #1f77b4; stroke: #1f77b4"/>
     <use xlink:href="#mec4b63744c" x="366.184132" y="300.384119" style="fill: #1f77b4; stroke: #1f77b4"/>
     <use xlink:href="#mec4b63744c" x="369.48722" y="304.362499" style="fill: #1f77b4; stroke: #1f77b4"/>
     <use xlink:href="#mec4b63744c" x="371.964537" y="294.37782" style="fill: #1f77b4; stroke: #1f77b4"/>
     <use xlink:href="#mec4b63744c" x="375.267625" y="295.384738" style="fill: #1f77b4; stroke: #1f77b4"/>
     <use xlink:href="#mec4b63744c" x="377.744941" y="295.4974" style="fill: #1f77b4; stroke: #1f77b4"/>
     <use xlink:href="#mec4b63744c" x="381.04803" y="300.070777" style="fill: #1f77b4; stroke: #1f77b4"/>
     <use xlink:href="#mec4b63744c" x="383.525346" y="301.042488" style="fill: #1f77b4; stroke: #1f77b4"/>
     <use xlink:href="#mec4b63744c" x="386.002662" y="292.941379" style="fill: #1f77b4; stroke: #1f77b4"/>
     <use xlink:href="#mec4b63744c" x="389.305751" y="294.444713" style="fill: #1f77b4; stroke: #1f77b4"/>
     <use xlink:href="#mec4b63744c" x="391.783067" y="292.747741" style="fill: #1f77b4; stroke: #1f77b4"/>
     <use xlink:href="#mec4b63744c" x="395.086155" y="294.046875" style="fill: #1f77b4; stroke: #1f77b4"/>
     <use xlink:href="#mec4b63744c" x="398.389244" y="289.772757" style="fill: #1f77b4; stroke: #1f77b4"/>
     <use xlink:href="#mec4b63744c" x="401.692332" y="293.395548" style="fill: #1f77b4; stroke: #1f77b4"/>
     <use xlink:href="#mec4b63744c" x="403.756763" y="298.40197" style="fill: #1f77b4; stroke: #1f77b4"/>
    </g>
   </g>
   <g id="patch_18">
    <path d="M 62.3 317.72 
L 62.3 258.69914 
" style="fill: none; stroke: #000000; stroke-width: 0.8; stroke-linejoin: miter; stroke-linecap: square"/>
   </g>
   <g id="patch_19">
    <path d="M 450 317.72 
L 450 258.69914 
" style="fill: none; stroke: #000000; stroke-width: 0.8; stroke-linejoin: miter; stroke-linecap: square"/>
   </g>
   <g id="patch_20">
    <path d="M 62.3 317.72 
L 450 317.72 
" style="fill: none; stroke: #000000; stroke-width: 0.8; stroke-linejoin: miter; stroke-linecap: square"/>
   </g>
   <g id="patch_21">
    <path d="M 62.3 258.69914 
L 450 258.69914 
" style="fill: none; stroke: #000000; stroke-width: 0.8; stroke-linejoin: miter; stroke-linecap: square"/>
   </g>
  </g>
  <g id="text_25">
   <!-- Descomposición de la serie temporal de Fosfatos -->
   <g transform="translate(33.6775 19.7095) scale(0.16 -0.16)">
    <defs>
     <path id="DejaVuSans-44" d="M 1259 4147 
L 1259 519 
L 2022 519 
Q 2988 519 3436 956 
Q 3884 1394 3884 2338 
Q 3884 3275 3436 3711 
Q 2988 4147 2022 4147 
L 1259 4147 
z
M 628 4666 
L 1925 4666 
Q 3281 4666 3915 4102 
Q 4550 3538 4550 2338 
Q 4550 1131 3912 565 
Q 3275 0 1925 0 
L 628 0 
L 628 4666 
z
" transform="scale(0.015625)"/>
     <path id="DejaVuSans-63" d="M 3122 3366 
L 3122 2828 
Q 2878 2963 2633 3030 
Q 2388 3097 2138 3097 
Q 1578 3097 1268 2742 
Q 959 2388 959 1747 
Q 959 1106 1268 751 
Q 1578 397 2138 397 
Q 2388 397 2633 464 
Q 2878 531 3122 666 
L 3122 134 
Q 2881 22 2623 -34 
Q 2366 -91 2075 -91 
Q 1284 -91 818 406 
Q 353 903 353 1747 
Q 353 2603 823 3093 
Q 1294 3584 2113 3584 
Q 2378 3584 2631 3529 
Q 2884 3475 3122 3366 
z
" transform="scale(0.015625)"/>
     <path id="DejaVuSans-6d" d="M 3328 2828 
Q 3544 3216 3844 3400 
Q 4144 3584 4550 3584 
Q 5097 3584 5394 3201 
Q 5691 2819 5691 2113 
L 5691 0 
L 5113 0 
L 5113 2094 
Q 5113 2597 4934 2840 
Q 4756 3084 4391 3084 
Q 3944 3084 3684 2787 
Q 3425 2491 3425 1978 
L 3425 0 
L 2847 0 
L 2847 2094 
Q 2847 2600 2669 2842 
Q 2491 3084 2119 3084 
Q 1678 3084 1418 2786 
Q 1159 2488 1159 1978 
L 1159 0 
L 581 0 
L 581 3500 
L 1159 3500 
L 1159 2956 
Q 1356 3278 1631 3431 
Q 1906 3584 2284 3584 
Q 2666 3584 2933 3390 
Q 3200 3197 3328 2828 
z
" transform="scale(0.015625)"/>
     <path id="DejaVuSans-70" d="M 1159 525 
L 1159 -1331 
L 581 -1331 
L 581 3500 
L 1159 3500 
L 1159 2969 
Q 1341 3281 1617 3432 
Q 1894 3584 2278 3584 
Q 2916 3584 3314 3078 
Q 3713 2572 3713 1747 
Q 3713 922 3314 415 
Q 2916 -91 2278 -91 
Q 1894 -91 1617 61 
Q 1341 213 1159 525 
z
M 3116 1747 
Q 3116 2381 2855 2742 
Q 2594 3103 2138 3103 
Q 1681 3103 1420 2742 
Q 1159 2381 1159 1747 
Q 1159 1113 1420 752 
Q 1681 391 2138 391 
Q 2594 391 2855 752 
Q 3116 1113 3116 1747 
z
" transform="scale(0.015625)"/>
     <path id="DejaVuSans-f3" d="M 1959 3097 
Q 1497 3097 1228 2736 
Q 959 2375 959 1747 
Q 959 1119 1226 758 
Q 1494 397 1959 397 
Q 2419 397 2687 759 
Q 2956 1122 2956 1747 
Q 2956 2369 2687 2733 
Q 2419 3097 1959 3097 
z
M 1959 3584 
Q 2709 3584 3137 3096 
Q 3566 2609 3566 1747 
Q 3566 888 3137 398 
Q 2709 -91 1959 -91 
Q 1206 -91 779 398 
Q 353 888 353 1747 
Q 353 2609 779 3096 
Q 1206 3584 1959 3584 
z
M 2394 5119 
L 3016 5119 
L 1998 3944 
L 1519 3944 
L 2394 5119 
z
" transform="scale(0.015625)"/>
     <path id="DejaVuSans-20" transform="scale(0.015625)"/>
    </defs>
    <use xlink:href="#DejaVuSans-44"/>
    <use xlink:href="#DejaVuSans-65" x="77.001953"/>
    <use xlink:href="#DejaVuSans-73" x="138.525391"/>
    <use xlink:href="#DejaVuSans-63" x="190.625"/>
    <use xlink:href="#DejaVuSans-6f" x="245.605469"/>
    <use xlink:href="#DejaVuSans-6d" x="306.787109"/>
    <use xlink:href="#DejaVuSans-70" x="404.199219"/>
    <use xlink:href="#DejaVuSans-6f" x="467.675781"/>
    <use xlink:href="#DejaVuSans-73" x="528.857422"/>
    <use xlink:href="#DejaVuSans-69" x="580.957031"/>
    <use xlink:href="#DejaVuSans-63" x="608.740234"/>
    <use xlink:href="#DejaVuSans-69" x="663.720703"/>
    <use xlink:href="#DejaVuSans-f3" x="691.503906"/>
    <use xlink:href="#DejaVuSans-6e" x="752.685547"/>
    <use xlink:href="#DejaVuSans-20" x="816.064453"/>
    <use xlink:href="#DejaVuSans-64" x="847.851562"/>
    <use xlink:href="#DejaVuSans-65" x="911.328125"/>
    <use xlink:href="#DejaVuSans-20" x="972.851562"/>
    <use xlink:href="#DejaVuSans-6c" x="1004.638672"/>
    <use xlink:href="#DejaVuSans-61" x="1032.421875"/>
    <use xlink:href="#DejaVuSans-20" x="1093.701172"/>
    <use xlink:href="#DejaVuSans-73" x="1125.488281"/>
    <use xlink:href="#DejaVuSans-65" x="1177.587891"/>
    <use xlink:href="#DejaVuSans-72" x="1239.111328"/>
    <use xlink:href="#DejaVuSans-69" x="1280.224609"/>
    <use xlink:href="#DejaVuSans-65" x="1308.007812"/>
    <use xlink:href="#DejaVuSans-20" x="1369.53125"/>
    <use xlink:href="#DejaVuSans-74" x="1401.318359"/>
    <use xlink:href="#DejaVuSans-65" x="1440.527344"/>
    <use xlink:href="#DejaVuSans-6d" x="1502.050781"/>
    <use xlink:href="#DejaVuSans-70" x="1599.462891"/>
    <use xlink:href="#DejaVuSans-6f" x="1662.939453"/>
    <use xlink:href="#DejaVuSans-72" x="1724.121094"/>
    <use xlink:href="#DejaVuSans-61" x="1765.234375"/>
    <use xlink:href="#DejaVuSans-6c" x="1826.513672"/>
    <use xlink:href="#DejaVuSans-20" x="1854.296875"/>
    <use xlink:href="#DejaVuSans-64" x="1886.083984"/>
    <use xlink:href="#DejaVuSans-65" x="1949.560547"/>
    <use xlink:href="#DejaVuSans-20" x="2011.083984"/>
    <use xlink:href="#DejaVuSans-46" x="2042.871094"/>
    <use xlink:href="#DejaVuSans-6f" x="2096.765625"/>
    <use xlink:href="#DejaVuSans-73" x="2157.947266"/>
    <use xlink:href="#DejaVuSans-66" x="2210.046875"/>
    <use xlink:href="#DejaVuSans-61" x="2245.251953"/>
    <use xlink:href="#DejaVuSans-74" x="2306.53125"/>
    <use xlink:href="#DejaVuSans-6f" x="2345.740234"/>
    <use xlink:href="#DejaVuSans-73" x="2406.921875"/>
   </g>
  </g>
 </g>
 <defs>
  <clipPath id="p11d8c64364">
   <rect x="62.3" y="26.88" width="387.7" height="59.02086"/>
  </clipPath>
  <clipPath id="p894b385ead">
   <rect x="62.3" y="104.153047" width="387.7" height="59.02086"/>
  </clipPath>
  <clipPath id="pdd0390655b">
   <rect x="62.3" y="181.426094" width="387.7" height="59.02086"/>
  </clipPath>
  <clipPath id="pf5b96db98a">
   <rect x="62.3" y="258.69914" width="387.7" height="59.02086"/>
  </clipPath>
 </defs>
</svg>
