<?xml version="1.0" encoding="utf-8" standalone="no"?>
<!DOCTYPE svg PUBLIC "-//W3C//DTD SVG 1.1//EN"
  "http://www.w3.org/Graphics/SVG/1.1/DTD/svg11.dtd">
<svg xmlns:xlink="http://www.w3.org/1999/xlink" width="460.8pt" height="345.6pt" viewBox="0 0 460.8 345.6" xmlns="http://www.w3.org/2000/svg" version="1.1">
 <metadata>
  <rdf:RDF xmlns:dc="http://purl.org/dc/elements/1.1/" xmlns:cc="http://creativecommons.org/ns#" xmlns:rdf="http://www.w3.org/1999/02/22-rdf-syntax-ns#">
   <cc:Work>
    <dc:type rdf:resource="http://purl.org/dc/dcmitype/StillImage"/>
    <dc:date>2025-02-24T14:37:01.151732</dc:date>
    <dc:format>image/svg+xml</dc:format>
    <dc:creator>
     <cc:Agent>
      <dc:title>Matplotlib v3.8.4, https://matplotlib.org/</dc:title>
     </cc:Agent>
    </dc:creator>
   </cc:Work>
  </rdf:RDF>
 </metadata>
 <defs>
  <style type="text/css">*{stroke-linejoin: round; stroke-linecap: butt}</style>
 </defs>
 <g id="figure_1">
  <g id="patch_1">
   <path d="M 0 345.6 
L 460.8 345.6 
L 460.8 0 
L 0 0 
z
" style="fill: #ffffff"/>
  </g>
  <g id="axes_1">
   <g id="patch_2">
    <path d="M 59.24 87.183484 
L 446.305714 87.183484 
L 446.305714 26.88 
L 59.24 26.88 
z
" style="fill: #ffffff"/>
   </g>
   <g id="matplotlib.axis_1">
    <g id="xtick_1">
     <g id="line2d_1">
      <defs>
       <path id="m1b81e3b6d0" d="M 0 0 
L 0 3.5 
" style="stroke: #000000; stroke-width: 0.8"/>
      </defs>
      <g>
       <use xlink:href="#m1b81e3b6d0" x="87.004207" y="87.183484" style="stroke: #000000; stroke-width: 0.8"/>
      </g>
     </g>
    </g>
    <g id="xtick_2">
     <g id="line2d_2">
      <g>
       <use xlink:href="#m1b81e3b6d0" x="129.467113" y="87.183484" style="stroke: #000000; stroke-width: 0.8"/>
      </g>
     </g>
    </g>
    <g id="xtick_3">
     <g id="line2d_3">
      <g>
       <use xlink:href="#m1b81e3b6d0" x="172.396643" y="87.183484" style="stroke: #000000; stroke-width: 0.8"/>
      </g>
     </g>
    </g>
    <g id="xtick_4">
     <g id="line2d_4">
      <g>
       <use xlink:href="#m1b81e3b6d0" x="214.626236" y="87.183484" style="stroke: #000000; stroke-width: 0.8"/>
      </g>
     </g>
    </g>
    <g id="xtick_5">
     <g id="line2d_5">
      <g>
       <use xlink:href="#m1b81e3b6d0" x="257.555767" y="87.183484" style="stroke: #000000; stroke-width: 0.8"/>
      </g>
     </g>
    </g>
    <g id="xtick_6">
     <g id="line2d_6">
      <g>
       <use xlink:href="#m1b81e3b6d0" x="299.78536" y="87.183484" style="stroke: #000000; stroke-width: 0.8"/>
      </g>
     </g>
    </g>
    <g id="xtick_7">
     <g id="line2d_7">
      <g>
       <use xlink:href="#m1b81e3b6d0" x="342.71489" y="87.183484" style="stroke: #000000; stroke-width: 0.8"/>
      </g>
     </g>
    </g>
    <g id="xtick_8">
     <g id="line2d_8">
      <g>
       <use xlink:href="#m1b81e3b6d0" x="384.944483" y="87.183484" style="stroke: #000000; stroke-width: 0.8"/>
      </g>
     </g>
    </g>
    <g id="xtick_9">
     <g id="line2d_9">
      <g>
       <use xlink:href="#m1b81e3b6d0" x="427.874014" y="87.183484" style="stroke: #000000; stroke-width: 0.8"/>
      </g>
     </g>
    </g>
   </g>
   <g id="matplotlib.axis_2">
    <g id="ytick_1">
     <g id="line2d_10">
      <defs>
       <path id="m4e10d80df9" d="M 0 0 
L -3.5 0 
" style="stroke: #000000; stroke-width: 0.8"/>
      </defs>
      <g>
       <use xlink:href="#m4e10d80df9" x="59.24" y="72.727795" style="stroke: #000000; stroke-width: 0.8"/>
      </g>
     </g>
     <g id="text_1">
      <!-- 100 -->
      <g transform="translate(33.1525 76.527013) scale(0.1 -0.1)">
       <defs>
        <path id="DejaVuSans-31" d="M 794 531 
L 1825 531 
L 1825 4091 
L 703 3866 
L 703 4441 
L 1819 4666 
L 2450 4666 
L 2450 531 
L 3481 531 
L 3481 0 
L 794 0 
L 794 531 
z
" transform="scale(0.015625)"/>
        <path id="DejaVuSans-30" d="M 2034 4250 
Q 1547 4250 1301 3770 
Q 1056 3291 1056 2328 
Q 1056 1369 1301 889 
Q 1547 409 2034 409 
Q 2525 409 2770 889 
Q 3016 1369 3016 2328 
Q 3016 3291 2770 3770 
Q 2525 4250 2034 4250 
z
M 2034 4750 
Q 2819 4750 3233 4129 
Q 3647 3509 3647 2328 
Q 3647 1150 3233 529 
Q 2819 -91 2034 -91 
Q 1250 -91 836 529 
Q 422 1150 422 2328 
Q 422 3509 836 4129 
Q 1250 4750 2034 4750 
z
" transform="scale(0.015625)"/>
       </defs>
       <use xlink:href="#DejaVuSans-31"/>
       <use xlink:href="#DejaVuSans-30" x="63.623047"/>
       <use xlink:href="#DejaVuSans-30" x="127.246094"/>
      </g>
     </g>
    </g>
    <g id="ytick_2">
     <g id="line2d_11">
      <g>
       <use xlink:href="#m4e10d80df9" x="59.24" y="41.899841" style="stroke: #000000; stroke-width: 0.8"/>
      </g>
     </g>
     <g id="text_2">
      <!-- 200 -->
      <g transform="translate(33.1525 45.69906) scale(0.1 -0.1)">
       <defs>
        <path id="DejaVuSans-32" d="M 1228 531 
L 3431 531 
L 3431 0 
L 469 0 
L 469 531 
Q 828 903 1448 1529 
Q 2069 2156 2228 2338 
Q 2531 2678 2651 2914 
Q 2772 3150 2772 3378 
Q 2772 3750 2511 3984 
Q 2250 4219 1831 4219 
Q 1534 4219 1204 4116 
Q 875 4013 500 3803 
L 500 4441 
Q 881 4594 1212 4672 
Q 1544 4750 1819 4750 
Q 2544 4750 2975 4387 
Q 3406 4025 3406 3419 
Q 3406 3131 3298 2873 
Q 3191 2616 2906 2266 
Q 2828 2175 2409 1742 
Q 1991 1309 1228 531 
z
" transform="scale(0.015625)"/>
       </defs>
       <use xlink:href="#DejaVuSans-32"/>
       <use xlink:href="#DejaVuSans-30" x="63.623047"/>
       <use xlink:href="#DejaVuSans-30" x="127.246094"/>
      </g>
     </g>
    </g>
   </g>
   <g id="line2d_12">
    <path d="M 59.24 58.546936 
L 60.639876 62.092151 
L 62.273065 56.543119 
L 62.73969 56.543119 
L 64.372879 59.040183 
L 64.839504 59.040183 
L 66.006067 62.307946 
L 68.572507 58.361968 
L 69.039132 58.361968 
L 71.138946 76.211353 
L 72.305509 51.456507 
L 73.472073 42.297522 
L 74.172011 42.297522 
L 75.805199 49.363289 
L 77.205075 57.363143 
L 77.438388 57.363143 
L 78.838264 57.619015 
L 80.004827 51.22838 
L 81.171391 51.22838 
L 82.104641 42.192707 
L 83.271205 44.742179 
L 85.604331 47.254657 
L 87.470833 49.60683 
L 90.73721 55.16511 
L 92.137086 64.635457 
L 93.536962 43.385749 
L 94.936838 43.989977 
L 96.570027 50.183312 
L 98.669841 52.538568 
L 99.836404 46.869307 
L 101.936218 51.672302 
L 103.336094 48.950194 
L 103.336094 48.950194 
L 104.73597 53.185955 
L 108.23566 48.333635 
L 109.635536 48.197992 
L 111.268725 56.84215 
L 112.901913 56.567781 
L 114.535102 55.16511 
L 116.168291 52.110059 
L 117.801479 55.337746 
L 118.034792 55.337746 
L 119.201355 47.023447 
L 119.667981 47.023447 
L 120.834544 54.123125 
L 122.467733 52.384428 
L 122.701045 52.384428 
L 124.800859 64.487483 
L 125.73411 52.566313 
L 127.600611 56.237922 
L 128.300549 57.135016 
L 129.700425 57.135016 
L 130.866989 54.234105 
L 133.200115 53.975151 
L 134.599991 59.857124 
L 134.599991 59.857124 
L 135.766555 54.042972 
L 137.399743 58.454452 
L 139.499557 54.0738 
L 140.899433 58.395879 
L 142.532622 54.391328 
L 144.399123 60.316461 
L 146.032312 56.703424 
L 147.432188 55.43023 
L 149.298689 50.383694 
L 150.698565 54.80134 
L 153.964943 45.038127 
L 155.831444 56.429056 
L 157.464633 56.839067 
L 158.864509 53.330846 
L 160.73101 45.084369 
L 162.130886 41.693294 
L 163.764075 36.865637 
L 165.630576 40.4201 
L 167.263765 42.578056 
L 168.430328 37.029025 
L 169.830204 41.406594 
L 171.696705 29.621067 
L 173.329894 40.050164 
L 175.196395 53.041064 
L 176.829584 40.975003 
L 178.462773 45.959883 
L 180.095961 41.221626 
L 182.195775 44.859325 
L 183.362339 42.763024 
L 184.995527 44.427733 
L 187.095341 40.512583 
L 188.261905 81.744971 
L 189.428468 48.796054 
L 191.528282 44.538714 
L 194.561347 37.944615 
L 196.194535 45.497463 
L 197.827724 43.749518 
L 199.460913 53.870336 
L 201.560727 57.175092 
L 203.193915 50.429936 
L 204.827104 51.209883 
L 205.993667 60.643237 
L 209.260045 42.164962 
L 210.659921 58.972362 
L 212.526422 54.961645 
L 214.626236 60.563084 
L 215.792799 60.763466 
L 217.659301 62.492914 
L 219.059177 67.696673 
L 220.692365 68.606097 
L 222.325554 61.808534 
L 223.72543 61.044 
L 224.658681 61.774623 
L 226.058557 61.774623 
L 227.22512 71.833784 
L 227.691745 71.186397 
L 229.324934 55.464141 
L 231.891373 56.903806 
L 233.524562 54.120042 
L 235.157751 79.278735 
L 235.857689 79.278735 
L 237.490877 63.744529 
L 238.424128 65.270513 
L 240.057317 62.699461 
L 242.390443 70.498934 
L 244.023632 63.112556 
L 245.656821 61.287541 
L 247.290009 62.761117 
L 249.156511 58.852133 
L 250.323074 52.862261 
L 252.422888 58.855216 
L 253.589451 51.881933 
L 254.989327 57.07336 
L 256.622516 53.975151 
L 258.255705 57.902632 
L 260.122206 58.217077 
L 261.755395 59.533431 
L 263.621896 56.188598 
L 265.021772 59.487189 
L 266.888273 49.764052 
L 268.288149 56.262585 
L 270.154651 56.592444 
L 271.554527 60.584664 
L 273.654341 62.906009 
L 276.687405 75.274184 
L 277.620656 66.98763 
L 279.72047 80.185077 
L 280.887033 60.353454 
L 282.753535 76.975887 
L 283.453473 76.975887 
L 284.620036 70.794882 
L 286.71985 73.165552 
L 288.353039 65.794588 
L 289.519602 62.492914 
L 291.386104 67.012292 
L 293.019292 72.25921 
L 294.885794 67.567195 
L 296.518982 55.100371 
L 298.152171 53.031815 
L 299.552047 55.168192 
L 300.951923 65.449315 
L 302.818424 72.940508 
L 304.2183 60.190066 
L 306.084802 62.884429 
L 307.484678 64.604629 
L 309.351179 75.400578 
L 310.751055 64.114464 
L 314.250745 71.288129 
L 315.650621 57.384722 
L 317.517122 64.734106 
L 318.916998 72.419515 
L 320.7835 61.114905 
L 322.183376 73.036074 
L 323.583252 54.061469 
L 325.21644 50.112408 
L 327.082942 57.797817 
L 328.71613 55.664522 
L 330.349319 57.094939 
L 332.21582 66.346408 
L 333.849009 62.733372 
L 335.482198 59.471775 
L 336.882074 58.738069 
L 338.981888 62.909091 
L 339.915138 58.98161 
L 341.548327 59.231317 
L 343.181516 55.346995 
L 344.814704 56.811322 
L 347.147831 60.828205 
L 348.314394 69.848464 
L 349.947583 59.015521 
L 351.580772 69.620337 
L 352.980648 57.711499 
L 355.080462 59.70915 
L 356.480338 53.821011 
L 358.113526 55.081874 
L 359.980028 55.602867 
L 361.379904 54.992473 
L 363.013092 50.405274 
L 364.412968 57.936543 
L 366.046157 59.434781 
L 368.145971 57.313818 
L 369.77916 65.945645 
L 371.412348 64.712527 
L 373.045537 62.86285 
L 374.678726 70.878117 
L 376.311914 73.282698 
L 377.71179 74.879586 
L 378.878354 60.905275 
L 380.744855 66.562204 
L 382.611356 52.501574 
L 385.877734 63.972656 
L 387.510922 73.760531 
L 389.144111 72.746291 
L 390.7773 72.249961 
L 392.177176 72.727795 
L 394.27699 67.339068 
L 395.910178 71.186397 
L 397.543367 84.442417 
L 398.943243 71.087748 
L 400.809744 75.81059 
L 402.20962 75.249521 
L 404.076122 75.50231 
L 405.475998 68.991447 
L 407.342499 68.828059 
L 408.742375 66.941388 
L 410.142251 70.569838 
L 412.008752 71.802956 
L 413.408628 69.33672 
L 415.27513 73.193297 
L 417.141631 69.826884 
L 419.008132 60.12841 
L 420.174696 61.774623 
L 423.441073 58.432873 
L 424.840949 63.479409 
L 426.70745 52.153219 
L 431.373704 52.153219 
L 433.006892 69.02844 
L 435.106706 59.351546 
L 436.27327 55.77242 
L 437.906458 60.627823 
L 439.539647 55.957388 
L 443.27265 59.496437 
L 444.672526 66.54679 
L 446.305714 78.255247 
L 446.305714 78.255247 
" clip-path="url(#p8ff56afb33)" style="fill: none; stroke: #1f77b4; stroke-width: 1.5; stroke-linecap: square"/>
   </g>
   <g id="patch_3">
    <path d="M 59.24 87.183484 
L 59.24 26.88 
" style="fill: none; stroke: #000000; stroke-width: 0.8; stroke-linejoin: miter; stroke-linecap: square"/>
   </g>
   <g id="patch_4">
    <path d="M 446.305714 87.183484 
L 446.305714 26.88 
" style="fill: none; stroke: #000000; stroke-width: 0.8; stroke-linejoin: miter; stroke-linecap: square"/>
   </g>
   <g id="patch_5">
    <path d="M 59.24 87.183484 
L 446.305714 87.183484 
" style="fill: none; stroke: #000000; stroke-width: 0.8; stroke-linejoin: miter; stroke-linecap: square"/>
   </g>
   <g id="patch_6">
    <path d="M 59.24 26.88 
L 446.305714 26.88 
" style="fill: none; stroke: #000000; stroke-width: 0.8; stroke-linejoin: miter; stroke-linecap: square"/>
   </g>
   <g id="text_3">
    <!-- Nitratos -->
    <g transform="translate(228.972545 20.88) scale(0.12 -0.12)">
     <defs>
      <path id="DejaVuSans-4e" d="M 628 4666 
L 1478 4666 
L 3547 763 
L 3547 4666 
L 4159 4666 
L 4159 0 
L 3309 0 
L 1241 3903 
L 1241 0 
L 628 0 
L 628 4666 
z
" transform="scale(0.015625)"/>
      <path id="DejaVuSans-69" d="M 603 3500 
L 1178 3500 
L 1178 0 
L 603 0 
L 603 3500 
z
M 603 4863 
L 1178 4863 
L 1178 4134 
L 603 4134 
L 603 4863 
z
" transform="scale(0.015625)"/>
      <path id="DejaVuSans-74" d="M 1172 4494 
L 1172 3500 
L 2356 3500 
L 2356 3053 
L 1172 3053 
L 1172 1153 
Q 1172 725 1289 603 
Q 1406 481 1766 481 
L 2356 481 
L 2356 0 
L 1766 0 
Q 1100 0 847 248 
Q 594 497 594 1153 
L 594 3053 
L 172 3053 
L 172 3500 
L 594 3500 
L 594 4494 
L 1172 4494 
z
" transform="scale(0.015625)"/>
      <path id="DejaVuSans-72" d="M 2631 2963 
Q 2534 3019 2420 3045 
Q 2306 3072 2169 3072 
Q 1681 3072 1420 2755 
Q 1159 2438 1159 1844 
L 1159 0 
L 581 0 
L 581 3500 
L 1159 3500 
L 1159 2956 
Q 1341 3275 1631 3429 
Q 1922 3584 2338 3584 
Q 2397 3584 2469 3576 
Q 2541 3569 2628 3553 
L 2631 2963 
z
" transform="scale(0.015625)"/>
      <path id="DejaVuSans-61" d="M 2194 1759 
Q 1497 1759 1228 1600 
Q 959 1441 959 1056 
Q 959 750 1161 570 
Q 1363 391 1709 391 
Q 2188 391 2477 730 
Q 2766 1069 2766 1631 
L 2766 1759 
L 2194 1759 
z
M 3341 1997 
L 3341 0 
L 2766 0 
L 2766 531 
Q 2569 213 2275 61 
Q 1981 -91 1556 -91 
Q 1019 -91 701 211 
Q 384 513 384 1019 
Q 384 1609 779 1909 
Q 1175 2209 1959 2209 
L 2766 2209 
L 2766 2266 
Q 2766 2663 2505 2880 
Q 2244 3097 1772 3097 
Q 1472 3097 1187 3025 
Q 903 2953 641 2809 
L 641 3341 
Q 956 3463 1253 3523 
Q 1550 3584 1831 3584 
Q 2591 3584 2966 3190 
Q 3341 2797 3341 1997 
z
" transform="scale(0.015625)"/>
      <path id="DejaVuSans-6f" d="M 1959 3097 
Q 1497 3097 1228 2736 
Q 959 2375 959 1747 
Q 959 1119 1226 758 
Q 1494 397 1959 397 
Q 2419 397 2687 759 
Q 2956 1122 2956 1747 
Q 2956 2369 2687 2733 
Q 2419 3097 1959 3097 
z
M 1959 3584 
Q 2709 3584 3137 3096 
Q 3566 2609 3566 1747 
Q 3566 888 3137 398 
Q 2709 -91 1959 -91 
Q 1206 -91 779 398 
Q 353 888 353 1747 
Q 353 2609 779 3096 
Q 1206 3584 1959 3584 
z
" transform="scale(0.015625)"/>
      <path id="DejaVuSans-73" d="M 2834 3397 
L 2834 2853 
Q 2591 2978 2328 3040 
Q 2066 3103 1784 3103 
Q 1356 3103 1142 2972 
Q 928 2841 928 2578 
Q 928 2378 1081 2264 
Q 1234 2150 1697 2047 
L 1894 2003 
Q 2506 1872 2764 1633 
Q 3022 1394 3022 966 
Q 3022 478 2636 193 
Q 2250 -91 1575 -91 
Q 1294 -91 989 -36 
Q 684 19 347 128 
L 347 722 
Q 666 556 975 473 
Q 1284 391 1588 391 
Q 1994 391 2212 530 
Q 2431 669 2431 922 
Q 2431 1156 2273 1281 
Q 2116 1406 1581 1522 
L 1381 1569 
Q 847 1681 609 1914 
Q 372 2147 372 2553 
Q 372 3047 722 3315 
Q 1072 3584 1716 3584 
Q 2034 3584 2315 3537 
Q 2597 3491 2834 3397 
z
" transform="scale(0.015625)"/>
     </defs>
     <use xlink:href="#DejaVuSans-4e"/>
     <use xlink:href="#DejaVuSans-69" x="74.804688"/>
     <use xlink:href="#DejaVuSans-74" x="102.587891"/>
     <use xlink:href="#DejaVuSans-72" x="141.796875"/>
     <use xlink:href="#DejaVuSans-61" x="182.910156"/>
     <use xlink:href="#DejaVuSans-74" x="244.189453"/>
     <use xlink:href="#DejaVuSans-6f" x="283.398438"/>
     <use xlink:href="#DejaVuSans-73" x="344.580078"/>
    </g>
   </g>
  </g>
  <g id="axes_2">
   <g id="patch_7">
    <path d="M 59.24 164.02899 
L 446.305714 164.02899 
L 446.305714 103.725505 
L 59.24 103.725505 
z
" style="fill: #ffffff"/>
   </g>
   <g id="matplotlib.axis_3">
    <g id="xtick_10">
     <g id="line2d_13">
      <g>
       <use xlink:href="#m1b81e3b6d0" x="87.004207" y="164.02899" style="stroke: #000000; stroke-width: 0.8"/>
      </g>
     </g>
    </g>
    <g id="xtick_11">
     <g id="line2d_14">
      <g>
       <use xlink:href="#m1b81e3b6d0" x="129.467113" y="164.02899" style="stroke: #000000; stroke-width: 0.8"/>
      </g>
     </g>
    </g>
    <g id="xtick_12">
     <g id="line2d_15">
      <g>
       <use xlink:href="#m1b81e3b6d0" x="172.396643" y="164.02899" style="stroke: #000000; stroke-width: 0.8"/>
      </g>
     </g>
    </g>
    <g id="xtick_13">
     <g id="line2d_16">
      <g>
       <use xlink:href="#m1b81e3b6d0" x="214.626236" y="164.02899" style="stroke: #000000; stroke-width: 0.8"/>
      </g>
     </g>
    </g>
    <g id="xtick_14">
     <g id="line2d_17">
      <g>
       <use xlink:href="#m1b81e3b6d0" x="257.555767" y="164.02899" style="stroke: #000000; stroke-width: 0.8"/>
      </g>
     </g>
    </g>
    <g id="xtick_15">
     <g id="line2d_18">
      <g>
       <use xlink:href="#m1b81e3b6d0" x="299.78536" y="164.02899" style="stroke: #000000; stroke-width: 0.8"/>
      </g>
     </g>
    </g>
    <g id="xtick_16">
     <g id="line2d_19">
      <g>
       <use xlink:href="#m1b81e3b6d0" x="342.71489" y="164.02899" style="stroke: #000000; stroke-width: 0.8"/>
      </g>
     </g>
    </g>
    <g id="xtick_17">
     <g id="line2d_20">
      <g>
       <use xlink:href="#m1b81e3b6d0" x="384.944483" y="164.02899" style="stroke: #000000; stroke-width: 0.8"/>
      </g>
     </g>
    </g>
    <g id="xtick_18">
     <g id="line2d_21">
      <g>
       <use xlink:href="#m1b81e3b6d0" x="427.874014" y="164.02899" style="stroke: #000000; stroke-width: 0.8"/>
      </g>
     </g>
    </g>
   </g>
   <g id="matplotlib.axis_4">
    <g id="ytick_3">
     <g id="line2d_22">
      <g>
       <use xlink:href="#m4e10d80df9" x="59.24" y="150.956612" style="stroke: #000000; stroke-width: 0.8"/>
      </g>
     </g>
     <g id="text_4">
      <!-- 125 -->
      <g transform="translate(33.1525 154.755831) scale(0.1 -0.1)">
       <defs>
        <path id="DejaVuSans-35" d="M 691 4666 
L 3169 4666 
L 3169 4134 
L 1269 4134 
L 1269 2991 
Q 1406 3038 1543 3061 
Q 1681 3084 1819 3084 
Q 2600 3084 3056 2656 
Q 3513 2228 3513 1497 
Q 3513 744 3044 326 
Q 2575 -91 1722 -91 
Q 1428 -91 1123 -41 
Q 819 9 494 109 
L 494 744 
Q 775 591 1075 516 
Q 1375 441 1709 441 
Q 2250 441 2565 725 
Q 2881 1009 2881 1497 
Q 2881 1984 2565 2268 
Q 2250 2553 1709 2553 
Q 1456 2553 1204 2497 
Q 953 2441 691 2322 
L 691 4666 
z
" transform="scale(0.015625)"/>
       </defs>
       <use xlink:href="#DejaVuSans-31"/>
       <use xlink:href="#DejaVuSans-32" x="63.623047"/>
       <use xlink:href="#DejaVuSans-35" x="127.246094"/>
      </g>
     </g>
    </g>
    <g id="ytick_4">
     <g id="line2d_23">
      <g>
       <use xlink:href="#m4e10d80df9" x="59.24" y="132.971392" style="stroke: #000000; stroke-width: 0.8"/>
      </g>
     </g>
     <g id="text_5">
      <!-- 150 -->
      <g transform="translate(33.1525 136.770611) scale(0.1 -0.1)">
       <use xlink:href="#DejaVuSans-31"/>
       <use xlink:href="#DejaVuSans-35" x="63.623047"/>
       <use xlink:href="#DejaVuSans-30" x="127.246094"/>
      </g>
     </g>
    </g>
    <g id="ytick_5">
     <g id="line2d_24">
      <g>
       <use xlink:href="#m4e10d80df9" x="59.24" y="114.986172" style="stroke: #000000; stroke-width: 0.8"/>
      </g>
     </g>
     <g id="text_6">
      <!-- 175 -->
      <g transform="translate(33.1525 118.78539) scale(0.1 -0.1)">
       <defs>
        <path id="DejaVuSans-37" d="M 525 4666 
L 3525 4666 
L 3525 4397 
L 1831 0 
L 1172 0 
L 2766 4134 
L 525 4134 
L 525 4666 
z
" transform="scale(0.015625)"/>
       </defs>
       <use xlink:href="#DejaVuSans-31"/>
       <use xlink:href="#DejaVuSans-37" x="63.623047"/>
       <use xlink:href="#DejaVuSans-35" x="127.246094"/>
      </g>
     </g>
    </g>
    <g id="text_7">
     <!-- Trend -->
     <g transform="translate(27.072813 147.556154) rotate(-90) scale(0.1 -0.1)">
      <defs>
       <path id="DejaVuSans-54" d="M -19 4666 
L 3928 4666 
L 3928 4134 
L 2272 4134 
L 2272 0 
L 1638 0 
L 1638 4134 
L -19 4134 
L -19 4666 
z
" transform="scale(0.015625)"/>
       <path id="DejaVuSans-65" d="M 3597 1894 
L 3597 1613 
L 953 1613 
Q 991 1019 1311 708 
Q 1631 397 2203 397 
Q 2534 397 2845 478 
Q 3156 559 3463 722 
L 3463 178 
Q 3153 47 2828 -22 
Q 2503 -91 2169 -91 
Q 1331 -91 842 396 
Q 353 884 353 1716 
Q 353 2575 817 3079 
Q 1281 3584 2069 3584 
Q 2775 3584 3186 3129 
Q 3597 2675 3597 1894 
z
M 3022 2063 
Q 3016 2534 2758 2815 
Q 2500 3097 2075 3097 
Q 1594 3097 1305 2825 
Q 1016 2553 972 2059 
L 3022 2063 
z
" transform="scale(0.015625)"/>
       <path id="DejaVuSans-6e" d="M 3513 2113 
L 3513 0 
L 2938 0 
L 2938 2094 
Q 2938 2591 2744 2837 
Q 2550 3084 2163 3084 
Q 1697 3084 1428 2787 
Q 1159 2491 1159 1978 
L 1159 0 
L 581 0 
L 581 3500 
L 1159 3500 
L 1159 2956 
Q 1366 3272 1645 3428 
Q 1925 3584 2291 3584 
Q 2894 3584 3203 3211 
Q 3513 2838 3513 2113 
z
" transform="scale(0.015625)"/>
       <path id="DejaVuSans-64" d="M 2906 2969 
L 2906 4863 
L 3481 4863 
L 3481 0 
L 2906 0 
L 2906 525 
Q 2725 213 2448 61 
Q 2172 -91 1784 -91 
Q 1150 -91 751 415 
Q 353 922 353 1747 
Q 353 2572 751 3078 
Q 1150 3584 1784 3584 
Q 2172 3584 2448 3432 
Q 2725 3281 2906 2969 
z
M 947 1747 
Q 947 1113 1208 752 
Q 1469 391 1925 391 
Q 2381 391 2643 752 
Q 2906 1113 2906 1747 
Q 2906 2381 2643 2742 
Q 2381 3103 1925 3103 
Q 1469 3103 1208 2742 
Q 947 2381 947 1747 
z
" transform="scale(0.015625)"/>
      </defs>
      <use xlink:href="#DejaVuSans-54"/>
      <use xlink:href="#DejaVuSans-72" x="46.333984"/>
      <use xlink:href="#DejaVuSans-65" x="85.197266"/>
      <use xlink:href="#DejaVuSans-6e" x="146.720703"/>
      <use xlink:href="#DejaVuSans-64" x="210.099609"/>
     </g>
    </g>
   </g>
   <g id="line2d_25">
    <path d="M 74.172011 126.434004 
L 75.805199 126.401391 
L 77.205075 125.98857 
L 77.438388 124.988592 
L 78.604951 124.252996 
L 78.838264 123.752767 
L 80.004827 123.026524 
L 80.704765 122.266589 
L 81.171391 121.460491 
L 82.104641 120.574899 
L 83.271205 119.842781 
L 85.604331 119.275407 
L 87.470833 117.989823 
L 88.637396 116.778818 
L 88.637396 117.217778 
L 92.137086 119.119175 
L 93.536962 119.140518 
L 94.936838 118.85743 
L 96.570027 118.689928 
L 98.669841 118.189099 
L 99.836404 117.613453 
L 101.936218 117.562494 
L 103.336094 117.720045 
L 103.336094 119.325765 
L 104.73597 120.300325 
L 108.23566 120.764823 
L 109.635536 121.237834 
L 111.268725 121.668041 
L 112.901913 121.846934 
L 114.535102 121.396104 
L 116.168291 121.622118 
L 117.801479 122.879885 
L 118.034792 123.647134 
L 119.201355 124.027342 
L 119.667981 124.537642 
L 120.834544 125.079357 
L 122.467733 125.552488 
L 122.701045 126.206191 
L 125.73411 127.338661 
L 127.600611 127.505683 
L 128.300549 127.842247 
L 129.700425 127.807116 
L 130.866989 127.066724 
L 133.200115 126.667452 
L 134.599991 127.006414 
L 137.399743 125.923464 
L 139.499557 125.321079 
L 140.899433 124.393041 
L 144.399123 122.500037 
L 146.032312 121.005105 
L 147.432188 119.214976 
L 149.298689 117.692947 
L 150.698565 116.904115 
L 152.565067 116.116363 
L 153.964943 115.166024 
L 155.831444 114.348176 
L 157.464633 113.268823 
L 158.864509 112.020649 
L 160.73101 110.981822 
L 162.130886 109.910023 
L 163.764075 110.288432 
L 165.630576 110.991294 
L 167.263765 110.234716 
L 168.430328 108.981386 
L 169.830204 107.675419 
L 171.696705 106.785271 
L 173.329894 106.466573 
L 178.462773 107.112002 
L 180.095961 107.51595 
L 182.195775 107.420269 
L 183.362339 106.726399 
L 184.995527 106.832272 
L 187.095341 107.888484 
L 188.261905 109.326223 
L 189.428468 111.039135 
L 191.528282 112.604928 
L 194.561347 114.572272 
L 199.460913 121.201144 
L 201.560727 122.357354 
L 203.193915 123.50601 
L 204.827104 124.93008 
L 205.993667 126.735796 
L 209.260045 130.715326 
L 210.659921 131.885564 
L 212.526422 132.952327 
L 214.626236 132.515407 
L 215.792799 132.626555 
L 217.659301 135.163311 
L 219.059177 137.517936 
L 220.692365 139.290439 
L 225.358619 143.711206 
L 226.058557 144.58277 
L 227.691745 144.997629 
L 228.624996 145.751689 
L 229.324934 146.125063 
L 233.524562 145.757325 
L 235.157751 145.389827 
L 235.857689 145.112255 
L 237.490877 144.628452 
L 238.424128 143.82799 
L 240.057317 143.254741 
L 242.390443 142.725736 
L 244.023632 142.072633 
L 245.656821 141.656694 
L 249.156511 141.015342 
L 250.323074 140.827096 
L 252.422888 141.18728 
L 253.589451 142.349965 
L 254.989327 143.445624 
L 256.622516 144.468744 
L 258.255705 145.268127 
L 260.122206 144.848591 
L 261.755395 144.885042 
L 263.621896 145.271844 
L 265.021772 145.284194 
L 266.888273 145.140552 
L 268.288149 145.360691 
L 270.154651 145.960678 
L 271.554527 145.906962 
L 273.654341 145.382633 
L 276.687405 145.245945 
L 277.620656 145.5921 
L 279.72047 146.667617 
L 280.887033 147.607884 
L 282.753535 148.07562 
L 284.620036 149.611797 
L 288.353039 151.071358 
L 289.519602 151.965223 
L 293.019292 153.346488 
L 294.885794 154.291552 
L 296.518982 154.927749 
L 298.152171 155.342368 
L 299.552047 154.911322 
L 300.951923 153.42994 
L 304.2183 150.84978 
L 306.084802 149.894165 
L 307.484678 148.7075 
L 309.351179 147.980538 
L 310.751055 147.134393 
L 312.384244 146.327336 
L 315.650621 145.772912 
L 317.517122 144.953865 
L 318.916998 143.971872 
L 320.7835 143.563128 
L 322.183376 143.932904 
L 323.583252 144.807106 
L 325.21644 145.127842 
L 328.71613 144.522939 
L 330.349319 144.30304 
L 332.21582 143.760126 
L 335.482198 141.429121 
L 338.981888 139.323052 
L 339.915138 138.532302 
L 341.548327 138.347654 
L 343.181516 137.554026 
L 344.814704 137.154394 
L 348.314394 137.037131 
L 349.947583 138.187106 
L 352.980648 140.946638 
L 355.080462 141.842182 
L 356.480338 141.998773 
L 359.980028 141.16378 
L 361.379904 141.319891 
L 363.013092 141.945537 
L 366.046157 143.944654 
L 368.145971 145.127003 
L 369.77916 146.212471 
L 371.412348 147.024803 
L 374.678726 149.032433 
L 376.311914 149.74273 
L 377.71179 150.665611 
L 378.878354 151.961986 
L 382.611356 154.290952 
L 385.877734 156.31345 
L 387.510922 157.751548 
L 389.144111 159.02718 
L 390.7773 160.005696 
L 392.177176 161.027496 
L 394.27699 161.287922 
L 397.543367 160.713714 
L 400.809744 159.244921 
L 402.20962 157.979721 
L 405.475998 155.854587 
L 407.342499 155.280619 
L 408.742375 155.686245 
L 410.142251 155.925689 
L 412.008752 155.046331 
L 413.408628 153.875374 
L 417.141631 151.622065 
L 419.008132 151.076633 
L 420.174696 151.320753 
L 420.174696 151.320753 
" clip-path="url(#p9cc484d0bf)" style="fill: none; stroke: #1f77b4; stroke-width: 1.5; stroke-linecap: square"/>
   </g>
   <g id="patch_8">
    <path d="M 59.24 164.02899 
L 59.24 103.725505 
" style="fill: none; stroke: #000000; stroke-width: 0.8; stroke-linejoin: miter; stroke-linecap: square"/>
   </g>
   <g id="patch_9">
    <path d="M 446.305714 164.02899 
L 446.305714 103.725505 
" style="fill: none; stroke: #000000; stroke-width: 0.8; stroke-linejoin: miter; stroke-linecap: square"/>
   </g>
   <g id="patch_10">
    <path d="M 59.24 164.02899 
L 446.305714 164.02899 
" style="fill: none; stroke: #000000; stroke-width: 0.8; stroke-linejoin: miter; stroke-linecap: square"/>
   </g>
   <g id="patch_11">
    <path d="M 59.24 103.725505 
L 446.305714 103.725505 
" style="fill: none; stroke: #000000; stroke-width: 0.8; stroke-linejoin: miter; stroke-linecap: square"/>
   </g>
  </g>
  <g id="axes_3">
   <g id="patch_12">
    <path d="M 59.24 240.874495 
L 446.305714 240.874495 
L 446.305714 180.57101 
L 59.24 180.57101 
z
" style="fill: #ffffff"/>
   </g>
   <g id="matplotlib.axis_5">
    <g id="xtick_19">
     <g id="line2d_26">
      <g>
       <use xlink:href="#m1b81e3b6d0" x="87.004207" y="240.874495" style="stroke: #000000; stroke-width: 0.8"/>
      </g>
     </g>
    </g>
    <g id="xtick_20">
     <g id="line2d_27">
      <g>
       <use xlink:href="#m1b81e3b6d0" x="129.467113" y="240.874495" style="stroke: #000000; stroke-width: 0.8"/>
      </g>
     </g>
    </g>
    <g id="xtick_21">
     <g id="line2d_28">
      <g>
       <use xlink:href="#m1b81e3b6d0" x="172.396643" y="240.874495" style="stroke: #000000; stroke-width: 0.8"/>
      </g>
     </g>
    </g>
    <g id="xtick_22">
     <g id="line2d_29">
      <g>
       <use xlink:href="#m1b81e3b6d0" x="214.626236" y="240.874495" style="stroke: #000000; stroke-width: 0.8"/>
      </g>
     </g>
    </g>
    <g id="xtick_23">
     <g id="line2d_30">
      <g>
       <use xlink:href="#m1b81e3b6d0" x="257.555767" y="240.874495" style="stroke: #000000; stroke-width: 0.8"/>
      </g>
     </g>
    </g>
    <g id="xtick_24">
     <g id="line2d_31">
      <g>
       <use xlink:href="#m1b81e3b6d0" x="299.78536" y="240.874495" style="stroke: #000000; stroke-width: 0.8"/>
      </g>
     </g>
    </g>
    <g id="xtick_25">
     <g id="line2d_32">
      <g>
       <use xlink:href="#m1b81e3b6d0" x="342.71489" y="240.874495" style="stroke: #000000; stroke-width: 0.8"/>
      </g>
     </g>
    </g>
    <g id="xtick_26">
     <g id="line2d_33">
      <g>
       <use xlink:href="#m1b81e3b6d0" x="384.944483" y="240.874495" style="stroke: #000000; stroke-width: 0.8"/>
      </g>
     </g>
    </g>
    <g id="xtick_27">
     <g id="line2d_34">
      <g>
       <use xlink:href="#m1b81e3b6d0" x="427.874014" y="240.874495" style="stroke: #000000; stroke-width: 0.8"/>
      </g>
     </g>
    </g>
   </g>
   <g id="matplotlib.axis_6">
    <g id="ytick_6">
     <g id="line2d_35">
      <g>
       <use xlink:href="#m4e10d80df9" x="59.24" y="240.480488" style="stroke: #000000; stroke-width: 0.8"/>
      </g>
     </g>
     <g id="text_8">
      <!-- −20 -->
      <g transform="translate(31.135313 244.279707) scale(0.1 -0.1)">
       <defs>
        <path id="DejaVuSans-2212" d="M 678 2272 
L 4684 2272 
L 4684 1741 
L 678 1741 
L 678 2272 
z
" transform="scale(0.015625)"/>
       </defs>
       <use xlink:href="#DejaVuSans-2212"/>
       <use xlink:href="#DejaVuSans-32" x="83.789062"/>
       <use xlink:href="#DejaVuSans-30" x="147.412109"/>
      </g>
     </g>
    </g>
    <g id="ytick_7">
     <g id="line2d_36">
      <g>
       <use xlink:href="#m4e10d80df9" x="59.24" y="205.249239" style="stroke: #000000; stroke-width: 0.8"/>
      </g>
     </g>
     <g id="text_9">
      <!-- 0 -->
      <g transform="translate(45.8775 209.048458) scale(0.1 -0.1)">
       <use xlink:href="#DejaVuSans-30"/>
      </g>
     </g>
    </g>
    <g id="text_10">
     <!-- Seasonal -->
     <g transform="translate(25.055625 233.323534) rotate(-90) scale(0.1 -0.1)">
      <defs>
       <path id="DejaVuSans-53" d="M 3425 4513 
L 3425 3897 
Q 3066 4069 2747 4153 
Q 2428 4238 2131 4238 
Q 1616 4238 1336 4038 
Q 1056 3838 1056 3469 
Q 1056 3159 1242 3001 
Q 1428 2844 1947 2747 
L 2328 2669 
Q 3034 2534 3370 2195 
Q 3706 1856 3706 1288 
Q 3706 609 3251 259 
Q 2797 -91 1919 -91 
Q 1588 -91 1214 -16 
Q 841 59 441 206 
L 441 856 
Q 825 641 1194 531 
Q 1563 422 1919 422 
Q 2459 422 2753 634 
Q 3047 847 3047 1241 
Q 3047 1584 2836 1778 
Q 2625 1972 2144 2069 
L 1759 2144 
Q 1053 2284 737 2584 
Q 422 2884 422 3419 
Q 422 4038 858 4394 
Q 1294 4750 2059 4750 
Q 2388 4750 2728 4690 
Q 3069 4631 3425 4513 
z
" transform="scale(0.015625)"/>
       <path id="DejaVuSans-6c" d="M 603 4863 
L 1178 4863 
L 1178 0 
L 603 0 
L 603 4863 
z
" transform="scale(0.015625)"/>
      </defs>
      <use xlink:href="#DejaVuSans-53"/>
      <use xlink:href="#DejaVuSans-65" x="63.476562"/>
      <use xlink:href="#DejaVuSans-61" x="125"/>
      <use xlink:href="#DejaVuSans-73" x="186.279297"/>
      <use xlink:href="#DejaVuSans-6f" x="238.378906"/>
      <use xlink:href="#DejaVuSans-6e" x="299.560547"/>
      <use xlink:href="#DejaVuSans-61" x="362.939453"/>
      <use xlink:href="#DejaVuSans-6c" x="424.21875"/>
     </g>
    </g>
   </g>
   <g id="line2d_37">
    <path d="M 59.24 202.940838 
L 60.639876 223.156309 
L 62.273065 210.923914 
L 62.506377 198.055449 
L 62.73969 213.115424 
L 64.372879 199.504418 
L 64.606191 225.445816 
L 64.839504 238.133427 
L 66.006067 209.213143 
L 68.572507 199.376201 
L 68.805819 201.204619 
L 69.039132 208.11158 
L 71.138946 213.712384 
L 72.305509 217.395601 
L 73.472073 205.841681 
L 74.172011 183.312078 
L 75.805199 203.563807 
L 77.205075 213.028132 
L 77.438388 201.400095 
L 78.604951 218.91065 
L 78.838264 193.378416 
L 80.004827 190.8494 
L 80.704765 193.944172 
L 81.171391 204.40154 
L 82.104641 189.598324 
L 83.271205 205.793652 
L 85.604331 188.578012 
L 87.470833 186.742134 
L 88.637396 212.45856 
L 88.637396 205.387391 
L 90.73721 202.940838 
L 92.137086 223.156309 
L 94.936838 198.055449 
L 96.570027 213.115424 
L 98.669841 199.504418 
L 99.836404 225.445816 
L 101.936218 238.133427 
L 103.336094 209.213143 
L 103.336094 199.376201 
L 103.336094 201.204619 
L 104.73597 208.11158 
L 108.23566 213.712384 
L 109.635536 217.395601 
L 111.268725 205.841681 
L 112.901913 183.312078 
L 114.535102 203.563807 
L 116.168291 213.028132 
L 117.801479 201.400095 
L 118.034792 218.91065 
L 119.201355 193.378416 
L 119.667981 190.8494 
L 120.834544 193.944172 
L 122.467733 204.40154 
L 122.701045 189.598324 
L 124.800859 205.793652 
L 125.73411 188.578012 
L 127.600611 186.742134 
L 128.300549 212.45856 
L 129.700425 205.387391 
L 130.866989 202.940838 
L 133.200115 223.156309 
L 134.599991 210.923914 
L 134.599991 198.055449 
L 135.766555 213.115424 
L 137.399743 199.504418 
L 139.499557 225.445816 
L 140.899433 238.133427 
L 142.532622 209.213143 
L 144.399123 199.376201 
L 146.032312 201.204619 
L 147.432188 208.11158 
L 149.298689 213.712384 
L 150.698565 217.395601 
L 152.565067 205.841681 
L 153.964943 183.312078 
L 155.831444 203.563807 
L 157.464633 213.028132 
L 158.864509 201.400095 
L 160.73101 218.91065 
L 162.130886 193.378416 
L 163.764075 190.8494 
L 165.630576 193.944172 
L 167.263765 204.40154 
L 168.430328 189.598324 
L 169.830204 205.793652 
L 171.696705 188.578012 
L 173.329894 186.742134 
L 175.196395 212.45856 
L 176.829584 205.387391 
L 178.462773 202.940838 
L 180.095961 223.156309 
L 182.195775 210.923914 
L 183.362339 198.055449 
L 184.995527 213.115424 
L 187.095341 199.504418 
L 188.261905 225.445816 
L 189.428468 238.133427 
L 191.528282 209.213143 
L 194.561347 199.376201 
L 196.194535 201.204619 
L 197.827724 208.11158 
L 199.460913 213.712384 
L 201.560727 217.395601 
L 203.193915 205.841681 
L 204.827104 183.312078 
L 205.993667 203.563807 
L 207.860169 213.028132 
L 209.260045 201.400095 
L 210.659921 218.91065 
L 212.526422 193.378416 
L 214.626236 190.8494 
L 215.792799 193.944172 
L 217.659301 204.40154 
L 219.059177 189.598324 
L 220.692365 205.793652 
L 222.325554 188.578012 
L 223.72543 186.742134 
L 224.658681 212.45856 
L 225.358619 205.387391 
L 226.058557 202.940838 
L 227.22512 223.156309 
L 227.691745 210.923914 
L 228.624996 198.055449 
L 229.324934 213.115424 
L 231.891373 199.504418 
L 233.524562 225.445816 
L 235.157751 238.133427 
L 235.857689 209.213143 
L 237.490877 199.376201 
L 238.424128 201.204619 
L 240.057317 208.11158 
L 244.023632 217.395601 
L 245.656821 205.841681 
L 247.290009 183.312078 
L 249.156511 203.563807 
L 250.323074 213.028132 
L 252.422888 201.400095 
L 253.589451 218.91065 
L 254.989327 193.378416 
L 256.622516 190.8494 
L 258.255705 193.944172 
L 260.122206 204.40154 
L 261.755395 189.598324 
L 263.621896 205.793652 
L 265.021772 188.578012 
L 266.888273 186.742134 
L 268.288149 212.45856 
L 270.154651 205.387391 
L 271.554527 202.940838 
L 273.654341 223.156309 
L 276.687405 210.923914 
L 277.620656 198.055449 
L 279.72047 213.115424 
L 280.887033 199.504418 
L 282.753535 225.445816 
L 283.453473 238.133427 
L 284.620036 209.213143 
L 286.71985 199.376201 
L 288.353039 201.204619 
L 289.519602 208.11158 
L 291.386104 213.712384 
L 293.019292 217.395601 
L 294.885794 205.841681 
L 296.518982 183.312078 
L 298.152171 203.563807 
L 299.552047 213.028132 
L 300.951923 201.400095 
L 302.818424 218.91065 
L 304.2183 193.378416 
L 306.084802 190.8494 
L 307.484678 193.944172 
L 309.351179 204.40154 
L 310.751055 189.598324 
L 312.384244 205.793652 
L 314.250745 188.578012 
L 315.650621 186.742134 
L 317.517122 212.45856 
L 318.916998 205.387391 
L 320.7835 202.940838 
L 322.183376 223.156309 
L 323.583252 210.923914 
L 325.21644 198.055449 
L 327.082942 213.115424 
L 328.71613 199.504418 
L 330.349319 225.445816 
L 332.21582 238.133427 
L 333.849009 209.213143 
L 335.482198 199.376201 
L 336.882074 201.204619 
L 338.981888 208.11158 
L 339.915138 213.712384 
L 341.548327 217.395601 
L 343.181516 205.841681 
L 344.814704 183.312078 
L 348.314394 213.028132 
L 349.947583 201.400095 
L 351.580772 218.91065 
L 352.980648 193.378416 
L 355.080462 190.8494 
L 356.480338 193.944172 
L 358.113526 204.40154 
L 359.980028 189.598324 
L 361.379904 205.793652 
L 363.013092 188.578012 
L 364.412968 186.742134 
L 366.046157 212.45856 
L 368.145971 205.387391 
L 369.77916 202.940838 
L 371.412348 223.156309 
L 374.678726 198.055449 
L 376.311914 213.115424 
L 377.71179 199.504418 
L 378.878354 225.445816 
L 380.744855 238.133427 
L 382.611356 209.213143 
L 384.244545 199.376201 
L 385.877734 201.204619 
L 387.510922 208.11158 
L 389.144111 213.712384 
L 390.7773 217.395601 
L 392.177176 205.841681 
L 394.27699 183.312078 
L 395.910178 203.563807 
L 397.543367 213.028132 
L 398.943243 201.400095 
L 400.809744 218.91065 
L 402.20962 193.378416 
L 404.076122 190.8494 
L 405.475998 193.944172 
L 407.342499 204.40154 
L 408.742375 189.598324 
L 410.142251 205.793652 
L 412.008752 188.578012 
L 413.408628 186.742134 
L 415.27513 212.45856 
L 417.141631 205.387391 
L 419.008132 202.940838 
L 420.174696 223.156309 
L 422.041197 210.923914 
L 423.441073 198.055449 
L 424.840949 213.115424 
L 426.70745 199.504418 
L 428.340639 225.445816 
L 429.740515 238.133427 
L 431.373704 209.213143 
L 433.006892 199.376201 
L 435.106706 201.204619 
L 436.27327 208.11158 
L 437.906458 213.712384 
L 439.539647 217.395601 
L 443.27265 205.841681 
L 444.672526 183.312078 
L 446.305714 203.563807 
L 446.305714 203.563807 
" clip-path="url(#pba02510a3e)" style="fill: none; stroke: #1f77b4; stroke-width: 1.5; stroke-linecap: square"/>
   </g>
   <g id="patch_13">
    <path d="M 59.24 240.874495 
L 59.24 180.57101 
" style="fill: none; stroke: #000000; stroke-width: 0.8; stroke-linejoin: miter; stroke-linecap: square"/>
   </g>
   <g id="patch_14">
    <path d="M 446.305714 240.874495 
L 446.305714 180.57101 
" style="fill: none; stroke: #000000; stroke-width: 0.8; stroke-linejoin: miter; stroke-linecap: square"/>
   </g>
   <g id="patch_15">
    <path d="M 59.24 240.874495 
L 446.305714 240.874495 
" style="fill: none; stroke: #000000; stroke-width: 0.8; stroke-linejoin: miter; stroke-linecap: square"/>
   </g>
   <g id="patch_16">
    <path d="M 59.24 180.57101 
L 446.305714 180.57101 
" style="fill: none; stroke: #000000; stroke-width: 0.8; stroke-linejoin: miter; stroke-linecap: square"/>
   </g>
  </g>
  <g id="axes_4">
   <g id="patch_17">
    <path d="M 59.24 317.72 
L 446.305714 317.72 
L 446.305714 257.416516 
L 59.24 257.416516 
z
" style="fill: #ffffff"/>
   </g>
   <g id="line2d_38">
    <path d="M 59.24 277.732936 
L 446.305714 277.732936 
" clip-path="url(#p4b70cf9df6)" style="fill: none; stroke: #000000; stroke-width: 1.5; stroke-linecap: square"/>
   </g>
   <g id="matplotlib.axis_7">
    <g id="xtick_28">
     <g id="line2d_39">
      <g>
       <use xlink:href="#m1b81e3b6d0" x="87.004207" y="317.72" style="stroke: #000000; stroke-width: 0.8"/>
      </g>
     </g>
     <g id="text_11">
      <!-- 2020-01 -->
      <g transform="translate(66.112801 332.318437) scale(0.1 -0.1)">
       <defs>
        <path id="DejaVuSans-2d" d="M 313 2009 
L 1997 2009 
L 1997 1497 
L 313 1497 
L 313 2009 
z
" transform="scale(0.015625)"/>
       </defs>
       <use xlink:href="#DejaVuSans-32"/>
       <use xlink:href="#DejaVuSans-30" x="63.623047"/>
       <use xlink:href="#DejaVuSans-32" x="127.246094"/>
       <use xlink:href="#DejaVuSans-30" x="190.869141"/>
       <use xlink:href="#DejaVuSans-2d" x="254.492188"/>
       <use xlink:href="#DejaVuSans-30" x="290.576172"/>
       <use xlink:href="#DejaVuSans-31" x="354.199219"/>
      </g>
     </g>
    </g>
    <g id="xtick_29">
     <g id="line2d_40">
      <g>
       <use xlink:href="#m1b81e3b6d0" x="129.467113" y="317.72" style="stroke: #000000; stroke-width: 0.8"/>
      </g>
     </g>
     <g id="text_12">
      <!-- 2020-07 -->
      <g transform="translate(108.575706 332.318437) scale(0.1 -0.1)">
       <use xlink:href="#DejaVuSans-32"/>
       <use xlink:href="#DejaVuSans-30" x="63.623047"/>
       <use xlink:href="#DejaVuSans-32" x="127.246094"/>
       <use xlink:href="#DejaVuSans-30" x="190.869141"/>
       <use xlink:href="#DejaVuSans-2d" x="254.492188"/>
       <use xlink:href="#DejaVuSans-30" x="290.576172"/>
       <use xlink:href="#DejaVuSans-37" x="354.199219"/>
      </g>
     </g>
    </g>
    <g id="xtick_30">
     <g id="line2d_41">
      <g>
       <use xlink:href="#m1b81e3b6d0" x="172.396643" y="317.72" style="stroke: #000000; stroke-width: 0.8"/>
      </g>
     </g>
     <g id="text_13">
      <!-- 2021-01 -->
      <g transform="translate(151.505237 332.318437) scale(0.1 -0.1)">
       <use xlink:href="#DejaVuSans-32"/>
       <use xlink:href="#DejaVuSans-30" x="63.623047"/>
       <use xlink:href="#DejaVuSans-32" x="127.246094"/>
       <use xlink:href="#DejaVuSans-31" x="190.869141"/>
       <use xlink:href="#DejaVuSans-2d" x="254.492188"/>
       <use xlink:href="#DejaVuSans-30" x="290.576172"/>
       <use xlink:href="#DejaVuSans-31" x="354.199219"/>
      </g>
     </g>
    </g>
    <g id="xtick_31">
     <g id="line2d_42">
      <g>
       <use xlink:href="#m1b81e3b6d0" x="214.626236" y="317.72" style="stroke: #000000; stroke-width: 0.8"/>
      </g>
     </g>
     <g id="text_14">
      <!-- 2021-07 -->
      <g transform="translate(193.73483 332.318437) scale(0.1 -0.1)">
       <use xlink:href="#DejaVuSans-32"/>
       <use xlink:href="#DejaVuSans-30" x="63.623047"/>
       <use xlink:href="#DejaVuSans-32" x="127.246094"/>
       <use xlink:href="#DejaVuSans-31" x="190.869141"/>
       <use xlink:href="#DejaVuSans-2d" x="254.492188"/>
       <use xlink:href="#DejaVuSans-30" x="290.576172"/>
       <use xlink:href="#DejaVuSans-37" x="354.199219"/>
      </g>
     </g>
    </g>
    <g id="xtick_32">
     <g id="line2d_43">
      <g>
       <use xlink:href="#m1b81e3b6d0" x="257.555767" y="317.72" style="stroke: #000000; stroke-width: 0.8"/>
      </g>
     </g>
     <g id="text_15">
      <!-- 2022-01 -->
      <g transform="translate(236.664361 332.318437) scale(0.1 -0.1)">
       <use xlink:href="#DejaVuSans-32"/>
       <use xlink:href="#DejaVuSans-30" x="63.623047"/>
       <use xlink:href="#DejaVuSans-32" x="127.246094"/>
       <use xlink:href="#DejaVuSans-32" x="190.869141"/>
       <use xlink:href="#DejaVuSans-2d" x="254.492188"/>
       <use xlink:href="#DejaVuSans-30" x="290.576172"/>
       <use xlink:href="#DejaVuSans-31" x="354.199219"/>
      </g>
     </g>
    </g>
    <g id="xtick_33">
     <g id="line2d_44">
      <g>
       <use xlink:href="#m1b81e3b6d0" x="299.78536" y="317.72" style="stroke: #000000; stroke-width: 0.8"/>
      </g>
     </g>
     <g id="text_16">
      <!-- 2022-07 -->
      <g transform="translate(278.893953 332.318437) scale(0.1 -0.1)">
       <use xlink:href="#DejaVuSans-32"/>
       <use xlink:href="#DejaVuSans-30" x="63.623047"/>
       <use xlink:href="#DejaVuSans-32" x="127.246094"/>
       <use xlink:href="#DejaVuSans-32" x="190.869141"/>
       <use xlink:href="#DejaVuSans-2d" x="254.492188"/>
       <use xlink:href="#DejaVuSans-30" x="290.576172"/>
       <use xlink:href="#DejaVuSans-37" x="354.199219"/>
      </g>
     </g>
    </g>
    <g id="xtick_34">
     <g id="line2d_45">
      <g>
       <use xlink:href="#m1b81e3b6d0" x="342.71489" y="317.72" style="stroke: #000000; stroke-width: 0.8"/>
      </g>
     </g>
     <g id="text_17">
      <!-- 2023-01 -->
      <g transform="translate(321.823484 332.318437) scale(0.1 -0.1)">
       <defs>
        <path id="DejaVuSans-33" d="M 2597 2516 
Q 3050 2419 3304 2112 
Q 3559 1806 3559 1356 
Q 3559 666 3084 287 
Q 2609 -91 1734 -91 
Q 1441 -91 1130 -33 
Q 819 25 488 141 
L 488 750 
Q 750 597 1062 519 
Q 1375 441 1716 441 
Q 2309 441 2620 675 
Q 2931 909 2931 1356 
Q 2931 1769 2642 2001 
Q 2353 2234 1838 2234 
L 1294 2234 
L 1294 2753 
L 1863 2753 
Q 2328 2753 2575 2939 
Q 2822 3125 2822 3475 
Q 2822 3834 2567 4026 
Q 2313 4219 1838 4219 
Q 1578 4219 1281 4162 
Q 984 4106 628 3988 
L 628 4550 
Q 988 4650 1302 4700 
Q 1616 4750 1894 4750 
Q 2613 4750 3031 4423 
Q 3450 4097 3450 3541 
Q 3450 3153 3228 2886 
Q 3006 2619 2597 2516 
z
" transform="scale(0.015625)"/>
       </defs>
       <use xlink:href="#DejaVuSans-32"/>
       <use xlink:href="#DejaVuSans-30" x="63.623047"/>
       <use xlink:href="#DejaVuSans-32" x="127.246094"/>
       <use xlink:href="#DejaVuSans-33" x="190.869141"/>
       <use xlink:href="#DejaVuSans-2d" x="254.492188"/>
       <use xlink:href="#DejaVuSans-30" x="290.576172"/>
       <use xlink:href="#DejaVuSans-31" x="354.199219"/>
      </g>
     </g>
    </g>
    <g id="xtick_35">
     <g id="line2d_46">
      <g>
       <use xlink:href="#m1b81e3b6d0" x="384.944483" y="317.72" style="stroke: #000000; stroke-width: 0.8"/>
      </g>
     </g>
     <g id="text_18">
      <!-- 2023-07 -->
      <g transform="translate(364.053077 332.318437) scale(0.1 -0.1)">
       <use xlink:href="#DejaVuSans-32"/>
       <use xlink:href="#DejaVuSans-30" x="63.623047"/>
       <use xlink:href="#DejaVuSans-32" x="127.246094"/>
       <use xlink:href="#DejaVuSans-33" x="190.869141"/>
       <use xlink:href="#DejaVuSans-2d" x="254.492188"/>
       <use xlink:href="#DejaVuSans-30" x="290.576172"/>
       <use xlink:href="#DejaVuSans-37" x="354.199219"/>
      </g>
     </g>
    </g>
    <g id="xtick_36">
     <g id="line2d_47">
      <g>
       <use xlink:href="#m1b81e3b6d0" x="427.874014" y="317.72" style="stroke: #000000; stroke-width: 0.8"/>
      </g>
     </g>
     <g id="text_19">
      <!-- 2024-01 -->
      <g transform="translate(406.982607 332.318437) scale(0.1 -0.1)">
       <defs>
        <path id="DejaVuSans-34" d="M 2419 4116 
L 825 1625 
L 2419 1625 
L 2419 4116 
z
M 2253 4666 
L 3047 4666 
L 3047 1625 
L 3713 1625 
L 3713 1100 
L 3047 1100 
L 3047 0 
L 2419 0 
L 2419 1100 
L 313 1100 
L 313 1709 
L 2253 4666 
z
" transform="scale(0.015625)"/>
       </defs>
       <use xlink:href="#DejaVuSans-32"/>
       <use xlink:href="#DejaVuSans-30" x="63.623047"/>
       <use xlink:href="#DejaVuSans-32" x="127.246094"/>
       <use xlink:href="#DejaVuSans-34" x="190.869141"/>
       <use xlink:href="#DejaVuSans-2d" x="254.492188"/>
       <use xlink:href="#DejaVuSans-30" x="290.576172"/>
       <use xlink:href="#DejaVuSans-31" x="354.199219"/>
      </g>
     </g>
    </g>
   </g>
   <g id="matplotlib.axis_8">
    <g id="ytick_8">
     <g id="line2d_48">
      <g>
       <use xlink:href="#m4e10d80df9" x="59.24" y="314.737533" style="stroke: #000000; stroke-width: 0.8"/>
      </g>
     </g>
     <g id="text_20">
      <!-- −100 -->
      <g transform="translate(24.772813 318.536752) scale(0.1 -0.1)">
       <use xlink:href="#DejaVuSans-2212"/>
       <use xlink:href="#DejaVuSans-31" x="83.789062"/>
       <use xlink:href="#DejaVuSans-30" x="147.412109"/>
       <use xlink:href="#DejaVuSans-30" x="211.035156"/>
      </g>
     </g>
    </g>
    <g id="ytick_9">
     <g id="line2d_49">
      <g>
       <use xlink:href="#m4e10d80df9" x="59.24" y="277.732936" style="stroke: #000000; stroke-width: 0.8"/>
      </g>
     </g>
     <g id="text_21">
      <!-- 0 -->
      <g transform="translate(45.8775 281.532155) scale(0.1 -0.1)">
       <use xlink:href="#DejaVuSans-30"/>
      </g>
     </g>
    </g>
    <g id="text_22">
     <!-- Resid -->
     <g transform="translate(18.693125 301.062008) rotate(-90) scale(0.1 -0.1)">
      <defs>
       <path id="DejaVuSans-52" d="M 2841 2188 
Q 3044 2119 3236 1894 
Q 3428 1669 3622 1275 
L 4263 0 
L 3584 0 
L 2988 1197 
Q 2756 1666 2539 1819 
Q 2322 1972 1947 1972 
L 1259 1972 
L 1259 0 
L 628 0 
L 628 4666 
L 2053 4666 
Q 2853 4666 3247 4331 
Q 3641 3997 3641 3322 
Q 3641 2881 3436 2590 
Q 3231 2300 2841 2188 
z
M 1259 4147 
L 1259 2491 
L 2053 2491 
Q 2509 2491 2742 2702 
Q 2975 2913 2975 3322 
Q 2975 3731 2742 3939 
Q 2509 4147 2053 4147 
L 1259 4147 
z
" transform="scale(0.015625)"/>
      </defs>
      <use xlink:href="#DejaVuSans-52"/>
      <use xlink:href="#DejaVuSans-65" x="64.982422"/>
      <use xlink:href="#DejaVuSans-73" x="126.505859"/>
      <use xlink:href="#DejaVuSans-69" x="178.605469"/>
      <use xlink:href="#DejaVuSans-64" x="206.388672"/>
     </g>
    </g>
   </g>
   <g id="line2d_50">
    <defs>
     <path id="m83b185b025" d="M 0 3 
C 0.795609 3 1.55874 2.683901 2.12132 2.12132 
C 2.683901 1.55874 3 0.795609 3 0 
C 3 -0.795609 2.683901 -1.55874 2.12132 -2.12132 
C 1.55874 -2.683901 0.795609 -3 0 -3 
C -0.795609 -3 -1.55874 -2.683901 -2.12132 -2.12132 
C -2.683901 -1.55874 -3 -0.795609 -3 0 
C -3 0.795609 -2.683901 1.55874 -2.12132 2.12132 
C -1.55874 2.683901 -0.795609 3 0 3 
z
" style="stroke: #1f77b4"/>
    </defs>
    <g clip-path="url(#p4b70cf9df6)">
     <use xlink:href="#m83b185b025" x="74.172011" y="267.678938" style="fill: #1f77b4; stroke: #1f77b4"/>
     <use xlink:href="#m83b185b025" x="75.805199" y="271.922949" style="fill: #1f77b4; stroke: #1f77b4"/>
     <use xlink:href="#m83b185b025" x="77.205075" y="279.749845" style="fill: #1f77b4; stroke: #1f77b4"/>
     <use xlink:href="#m83b185b025" x="77.438388" y="282.706875" style="fill: #1f77b4; stroke: #1f77b4"/>
     <use xlink:href="#m83b185b025" x="78.604951" y="279.713997" style="fill: #1f77b4; stroke: #1f77b4"/>
     <use xlink:href="#m83b185b025" x="78.838264" y="285.334779" style="fill: #1f77b4; stroke: #1f77b4"/>
     <use xlink:href="#m83b185b025" x="80.004827" y="278.568551" style="fill: #1f77b4; stroke: #1f77b4"/>
     <use xlink:href="#m83b185b025" x="80.704765" y="278.309333" style="fill: #1f77b4; stroke: #1f77b4"/>
     <use xlink:href="#m83b185b025" x="81.171391" y="276.527223" style="fill: #1f77b4; stroke: #1f77b4"/>
     <use xlink:href="#m83b185b025" x="82.104641" y="269.246368" style="fill: #1f77b4; stroke: #1f77b4"/>
     <use xlink:href="#m83b185b025" x="83.271205" y="269.281129" style="fill: #1f77b4; stroke: #1f77b4"/>
     <use xlink:href="#m83b185b025" x="85.604331" y="276.205283" style="fill: #1f77b4; stroke: #1f77b4"/>
     <use xlink:href="#m83b185b025" x="87.470833" y="280.075663" style="fill: #1f77b4; stroke: #1f77b4"/>
     <use xlink:href="#m83b185b025" x="88.637396" y="277.694301" style="fill: #1f77b4; stroke: #1f77b4"/>
     <use xlink:href="#m83b185b025" x="88.637396" y="278.95393" style="fill: #1f77b4; stroke: #1f77b4"/>
     <use xlink:href="#m83b185b025" x="90.73721" y="283.165431" style="fill: #1f77b4; stroke: #1f77b4"/>
     <use xlink:href="#m83b185b025" x="92.137086" y="289.88508" style="fill: #1f77b4; stroke: #1f77b4"/>
     <use xlink:href="#m83b185b025" x="93.536962" y="266.936455" style="fill: #1f77b4; stroke: #1f77b4"/>
     <use xlink:href="#m83b185b025" x="94.936838" y="270.510597" style="fill: #1f77b4; stroke: #1f77b4"/>
     <use xlink:href="#m83b185b025" x="96.570027" y="274.867377" style="fill: #1f77b4; stroke: #1f77b4"/>
     <use xlink:href="#m83b185b025" x="98.669841" y="280.811364" style="fill: #1f77b4; stroke: #1f77b4"/>
     <use xlink:href="#m83b185b025" x="99.836404" y="268.852888" style="fill: #1f77b4; stroke: #1f77b4"/>
     <use xlink:href="#m83b185b025" x="101.936218" y="271.979168" style="fill: #1f77b4; stroke: #1f77b4"/>
     <use xlink:href="#m83b185b025" x="103.336094" y="274.705817" style="fill: #1f77b4; stroke: #1f77b4"/>
     <use xlink:href="#m83b185b025" x="103.336094" y="276.54521" style="fill: #1f77b4; stroke: #1f77b4"/>
     <use xlink:href="#m83b185b025" x="103.336094" y="275.5622" style="fill: #1f77b4; stroke: #1f77b4"/>
     <use xlink:href="#m83b185b025" x="104.73597" y="278.694419" style="fill: #1f77b4; stroke: #1f77b4"/>
     <use xlink:href="#m83b185b025" x="108.23566" y="271.454426" style="fill: #1f77b4; stroke: #1f77b4"/>
     <use xlink:href="#m83b185b025" x="109.635536" y="270.274578" style="fill: #1f77b4; stroke: #1f77b4"/>
     <use xlink:href="#m83b185b025" x="111.268725" y="282.856476" style="fill: #1f77b4; stroke: #1f77b4"/>
     <use xlink:href="#m83b185b025" x="112.901913" y="287.167841" style="fill: #1f77b4; stroke: #1f77b4"/>
     <use xlink:href="#m83b185b025" x="114.535102" y="281.461809" style="fill: #1f77b4; stroke: #1f77b4"/>
     <use xlink:href="#m83b185b025" x="116.168291" y="275.690256" style="fill: #1f77b4; stroke: #1f77b4"/>
     <use xlink:href="#m83b185b025" x="117.801479" y="281.360339" style="fill: #1f77b4; stroke: #1f77b4"/>
     <use xlink:href="#m83b185b025" x="118.034792" y="277.287297" style="fill: #1f77b4; stroke: #1f77b4"/>
     <use xlink:href="#m83b185b025" x="119.201355" y="272.475065" style="fill: #1f77b4; stroke: #1f77b4"/>
     <use xlink:href="#m83b185b025" x="119.667981" y="272.743842" style="fill: #1f77b4; stroke: #1f77b4"/>
     <use xlink:href="#m83b185b025" x="120.834544" y="280.337247" style="fill: #1f77b4; stroke: #1f77b4"/>
     <use xlink:href="#m83b185b025" x="122.467733" y="275.810074" style="fill: #1f77b4; stroke: #1f77b4"/>
     <use xlink:href="#m83b185b025" x="122.701045" y="278.583491" style="fill: #1f77b4; stroke: #1f77b4"/>
     <use xlink:href="#m83b185b025" x="124.800859" y="289.326889" style="fill: #1f77b4; stroke: #1f77b4"/>
     <use xlink:href="#m83b185b025" x="125.73411" y="278.433638" style="fill: #1f77b4; stroke: #1f77b4"/>
     <use xlink:href="#m83b185b025" x="127.600611" y="283.14063" style="fill: #1f77b4; stroke: #1f77b4"/>
     <use xlink:href="#m83b185b025" x="128.300549" y="278.642174" style="fill: #1f77b4; stroke: #1f77b4"/>
     <use xlink:href="#m83b185b025" x="129.700425" y="280.145663" style="fill: #1f77b4; stroke: #1f77b4"/>
     <use xlink:href="#m83b185b025" x="130.866989" y="277.55831" style="fill: #1f77b4; stroke: #1f77b4"/>
     <use xlink:href="#m83b185b025" x="133.200115" y="273.206245" style="fill: #1f77b4; stroke: #1f77b4"/>
     <use xlink:href="#m83b185b025" x="134.599991" y="282.716449" style="fill: #1f77b4; stroke: #1f77b4"/>
     <use xlink:href="#m83b185b025" x="134.599991" y="285.365229" style="fill: #1f77b4; stroke: #1f77b4"/>
     <use xlink:href="#m83b185b025" x="135.766555" y="275.467838" style="fill: #1f77b4; stroke: #1f77b4"/>
     <use xlink:href="#m83b185b025" x="137.399743" y="283.934182" style="fill: #1f77b4; stroke: #1f77b4"/>
     <use xlink:href="#m83b185b025" x="139.499557" y="273.536251" style="fill: #1f77b4; stroke: #1f77b4"/>
     <use xlink:href="#m83b185b025" x="140.899433" y="276.536408" style="fill: #1f77b4; stroke: #1f77b4"/>
     <use xlink:href="#m83b185b025" x="142.532622" y="278.275034" style="fill: #1f77b4; stroke: #1f77b4"/>
     <use xlink:href="#m83b185b025" x="144.399123" y="287.957119" style="fill: #1f77b4; stroke: #1f77b4"/>
     <use xlink:href="#m83b185b025" x="146.032312" y="284.005046" style="fill: #1f77b4; stroke: #1f77b4"/>
     <use xlink:href="#m83b185b025" x="147.432188" y="281.94663" style="fill: #1f77b4; stroke: #1f77b4"/>
     <use xlink:href="#m83b185b025" x="149.298689" y="275.495328" style="fill: #1f77b4; stroke: #1f77b4"/>
     <use xlink:href="#m83b185b025" x="150.698565" y="280.43012" style="fill: #1f77b4; stroke: #1f77b4"/>
     <use xlink:href="#m83b185b025" x="152.565067" y="276.701501" style="fill: #1f77b4; stroke: #1f77b4"/>
     <use xlink:href="#m83b185b025" x="153.964943" y="276.764615" style="fill: #1f77b4; stroke: #1f77b4"/>
     <use xlink:href="#m83b185b025" x="155.831444" y="286.604276" style="fill: #1f77b4; stroke: #1f77b4"/>
     <use xlink:href="#m83b185b025" x="157.464633" y="285.663488" style="fill: #1f77b4; stroke: #1f77b4"/>
     <use xlink:href="#m83b185b025" x="158.864509" y="284.53706" style="fill: #1f77b4; stroke: #1f77b4"/>
     <use xlink:href="#m83b185b025" x="160.73101" y="271.494289" style="fill: #1f77b4; stroke: #1f77b4"/>
     <use xlink:href="#m83b185b025" x="162.130886" y="273.338568" style="fill: #1f77b4; stroke: #1f77b4"/>
     <use xlink:href="#m83b185b025" x="163.764075" y="267.880266" style="fill: #1f77b4; stroke: #1f77b4"/>
     <use xlink:href="#m83b185b025" x="165.630576" y="271.135252" style="fill: #1f77b4; stroke: #1f77b4"/>
     <use xlink:href="#m83b185b025" x="167.263765" y="271.917992" style="fill: #1f77b4; stroke: #1f77b4"/>
     <use xlink:href="#m83b185b025" x="168.430328" y="269.011512" style="fill: #1f77b4; stroke: #1f77b4"/>
     <use xlink:href="#m83b185b025" x="169.830204" y="271.535819" style="fill: #1f77b4; stroke: #1f77b4"/>
     <use xlink:href="#m83b185b025" x="171.696705" y="261.463268" style="fill: #1f77b4; stroke: #1f77b4"/>
     <use xlink:href="#m83b185b025" x="173.329894" y="274.531511" style="fill: #1f77b4; stroke: #1f77b4"/>
     <use xlink:href="#m83b185b025" x="175.196395" y="284.605835" style="fill: #1f77b4; stroke: #1f77b4"/>
     <use xlink:href="#m83b185b025" x="176.829584" y="271.538271" style="fill: #1f77b4; stroke: #1f77b4"/>
     <use xlink:href="#m83b185b025" x="178.462773" y="277.890488" style="fill: #1f77b4; stroke: #1f77b4"/>
     <use xlink:href="#m83b185b025" x="180.095961" y="267.748499" style="fill: #1f77b4; stroke: #1f77b4"/>
     <use xlink:href="#m83b185b025" x="182.195775" y="274.733879" style="fill: #1f77b4; stroke: #1f77b4"/>
     <use xlink:href="#m83b185b025" x="183.362339" y="275.277714" style="fill: #1f77b4; stroke: #1f77b4"/>
     <use xlink:href="#m83b185b025" x="184.995527" y="274.057902" style="fill: #1f77b4; stroke: #1f77b4"/>
     <use xlink:href="#m83b185b025" x="187.095341" y="271.674251" style="fill: #1f77b4; stroke: #1f77b4"/>
     <use xlink:href="#m83b185b025" x="188.261905" y="314.978933" style="fill: #1f77b4; stroke: #1f77b4"/>
     <use xlink:href="#m83b185b025" x="189.428468" y="271.882093" style="fill: #1f77b4; stroke: #1f77b4"/>
     <use xlink:href="#m83b185b025" x="191.528282" y="272.041548" style="fill: #1f77b4; stroke: #1f77b4"/>
     <use xlink:href="#m83b185b025" x="194.561347" y="265.180728" style="fill: #1f77b4; stroke: #1f77b4"/>
     <use xlink:href="#m83b185b025" x="196.194535" y="272.705075" style="fill: #1f77b4; stroke: #1f77b4"/>
     <use xlink:href="#m83b185b025" x="197.827724" y="267.967897" style="fill: #1f77b4; stroke: #1f77b4"/>
     <use xlink:href="#m83b185b025" x="199.460913" y="277.876018" style="fill: #1f77b4; stroke: #1f77b4"/>
     <use xlink:href="#m83b185b025" x="201.560727" y="280.474463" style="fill: #1f77b4; stroke: #1f77b4"/>
     <use xlink:href="#m83b185b025" x="203.193915" y="274.214114" style="fill: #1f77b4; stroke: #1f77b4"/>
     <use xlink:href="#m83b185b025" x="204.827104" y="279.150548" style="fill: #1f77b4; stroke: #1f77b4"/>
     <use xlink:href="#m83b185b025" x="205.993667" y="285.290921" style="fill: #1f77b4; stroke: #1f77b4"/>
     <use xlink:href="#m83b185b025" x="207.860169" y="269.585793" style="fill: #1f77b4; stroke: #1f77b4"/>
     <use xlink:href="#m83b185b025" x="209.260045" y="261.517919" style="fill: #1f77b4; stroke: #1f77b4"/>
     <use xlink:href="#m83b185b025" x="210.659921" y="277.412496" style="fill: #1f77b4; stroke: #1f77b4"/>
     <use xlink:href="#m83b185b025" x="212.526422" y="277.412959" style="fill: #1f77b4; stroke: #1f77b4"/>
     <use xlink:href="#m83b185b025" x="214.626236" y="284.892698" style="fill: #1f77b4; stroke: #1f77b4"/>
     <use xlink:href="#m83b185b025" x="215.792799" y="284.425946" style="fill: #1f77b4; stroke: #1f77b4"/>
     <use xlink:href="#m83b185b025" x="217.659301" y="283.000313" style="fill: #1f77b4; stroke: #1f77b4"/>
     <use xlink:href="#m83b185b025" x="219.059177" y="291.145195" style="fill: #1f77b4; stroke: #1f77b4"/>
     <use xlink:href="#m83b185b025" x="220.692365" y="287.922996" style="fill: #1f77b4; stroke: #1f77b4"/>
     <use xlink:href="#m83b185b025" x="222.325554" y="282.605228" style="fill: #1f77b4; stroke: #1f77b4"/>
     <use xlink:href="#m83b185b025" x="223.72543" y="281.361388" style="fill: #1f77b4; stroke: #1f77b4"/>
     <use xlink:href="#m83b185b025" x="224.658681" y="276.38477" style="fill: #1f77b4; stroke: #1f77b4"/>
     <use xlink:href="#m83b185b025" x="225.358619" y="277.534187" style="fill: #1f77b4; stroke: #1f77b4"/>
     <use xlink:href="#m83b185b025" x="226.058557" y="277.599816" style="fill: #1f77b4; stroke: #1f77b4"/>
     <use xlink:href="#m83b185b025" x="227.22512" y="285.232554" style="fill: #1f77b4; stroke: #1f77b4"/>
     <use xlink:href="#m83b185b025" x="227.691745" y="287.006947" style="fill: #1f77b4; stroke: #1f77b4"/>
     <use xlink:href="#m83b185b025" x="228.624996" y="278.072918" style="fill: #1f77b4; stroke: #1f77b4"/>
     <use xlink:href="#m83b185b025" x="229.324934" y="267.094315" style="fill: #1f77b4; stroke: #1f77b4"/>
     <use xlink:href="#m83b185b025" x="231.891373" y="271.781256" style="fill: #1f77b4; stroke: #1f77b4"/>
     <use xlink:href="#m83b185b025" x="233.524562" y="263.079863" style="fill: #1f77b4; stroke: #1f77b4"/>
     <use xlink:href="#m83b185b025" x="235.157751" y="290.803098" style="fill: #1f77b4; stroke: #1f77b4"/>
     <use xlink:href="#m83b185b025" x="235.857689" y="297.021069" style="fill: #1f77b4; stroke: #1f77b4"/>
     <use xlink:href="#m83b185b025" x="237.490877" y="280.689724" style="fill: #1f77b4; stroke: #1f77b4"/>
     <use xlink:href="#m83b185b025" x="238.424128" y="282.5491" style="fill: #1f77b4; stroke: #1f77b4"/>
     <use xlink:href="#m83b185b025" x="240.057317" y="278.306858" style="fill: #1f77b4; stroke: #1f77b4"/>
     <use xlink:href="#m83b185b025" x="242.390443" y="286.764584" style="fill: #1f77b4; stroke: #1f77b4"/>
     <use xlink:href="#m83b185b025" x="244.023632" y="277.460501" style="fill: #1f77b4; stroke: #1f77b4"/>
     <use xlink:href="#m83b185b025" x="245.656821" y="277.910873" style="fill: #1f77b4; stroke: #1f77b4"/>
     <use xlink:href="#m83b185b025" x="247.290009" y="284.539897" style="fill: #1f77b4; stroke: #1f77b4"/>
     <use xlink:href="#m83b185b025" x="249.156511" y="275.795912" style="fill: #1f77b4; stroke: #1f77b4"/>
     <use xlink:href="#m83b185b025" x="250.323074" y="266.714606" style="fill: #1f77b4; stroke: #1f77b4"/>
     <use xlink:href="#m83b185b025" x="252.422888" y="276.165696" style="fill: #1f77b4; stroke: #1f77b4"/>
     <use xlink:href="#m83b185b025" x="253.589451" y="263.518812" style="fill: #1f77b4; stroke: #1f77b4"/>
     <use xlink:href="#m83b185b025" x="254.989327" y="274.550283" style="fill: #1f77b4; stroke: #1f77b4"/>
     <use xlink:href="#m83b185b025" x="256.622516" y="270.836317" style="fill: #1f77b4; stroke: #1f77b4"/>
     <use xlink:href="#m83b185b025" x="258.255705" y="274.48941" style="fill: #1f77b4; stroke: #1f77b4"/>
     <use xlink:href="#m83b185b025" x="260.122206" y="272.885909" style="fill: #1f77b4; stroke: #1f77b4"/>
     <use xlink:href="#m83b185b025" x="261.755395" y="277.556922" style="fill: #1f77b4; stroke: #1f77b4"/>
     <use xlink:href="#m83b185b025" x="263.621896" y="269.940859" style="fill: #1f77b4; stroke: #1f77b4"/>
     <use xlink:href="#m83b185b025" x="265.021772" y="277.510435" style="fill: #1f77b4; stroke: #1f77b4"/>
     <use xlink:href="#m83b185b025" x="266.888273" y="266.298728" style="fill: #1f77b4; stroke: #1f77b4"/>
     <use xlink:href="#m83b185b025" x="268.288149" y="268.583893" style="fill: #1f77b4; stroke: #1f77b4"/>
     <use xlink:href="#m83b185b025" x="270.154651" y="270.156642" style="fill: #1f77b4; stroke: #1f77b4"/>
     <use xlink:href="#m83b185b025" x="271.554527" y="275.490308" style="fill: #1f77b4; stroke: #1f77b4"/>
     <use xlink:href="#m83b185b025" x="273.654341" y="274.299854" style="fill: #1f77b4; stroke: #1f77b4"/>
     <use xlink:href="#m83b185b025" x="276.687405" y="291.786029" style="fill: #1f77b4; stroke: #1f77b4"/>
     <use xlink:href="#m83b185b025" x="277.620656" y="284.364378" style="fill: #1f77b4; stroke: #1f77b4"/>
     <use xlink:href="#m83b185b025" x="279.72047" y="296.489225" style="fill: #1f77b4; stroke: #1f77b4"/>
     <use xlink:href="#m83b185b025" x="280.887033" y="275.059739" style="fill: #1f77b4; stroke: #1f77b4"/>
     <use xlink:href="#m83b185b025" x="282.753535" y="289.322597" style="fill: #1f77b4; stroke: #1f77b4"/>
     <use xlink:href="#m83b185b025" x="283.453473" y="286.345031" style="fill: #1f77b4; stroke: #1f77b4"/>
     <use xlink:href="#m83b185b025" x="284.620036" y="284.522951" style="fill: #1f77b4; stroke: #1f77b4"/>
     <use xlink:href="#m83b185b025" x="286.71985" y="288.9996" style="fill: #1f77b4; stroke: #1f77b4"/>
     <use xlink:href="#m83b185b025" x="288.353039" y="279.45237" style="fill: #1f77b4; stroke: #1f77b4"/>
     <use xlink:href="#m83b185b025" x="289.519602" y="273.578472" style="fill: #1f77b4; stroke: #1f77b4"/>
     <use xlink:href="#m83b185b025" x="291.386104" y="277.438254" style="fill: #1f77b4; stroke: #1f77b4"/>
     <use xlink:href="#m83b185b025" x="293.019292" y="282.640774" style="fill: #1f77b4; stroke: #1f77b4"/>
     <use xlink:href="#m83b185b025" x="294.885794" y="278.949654" style="fill: #1f77b4; stroke: #1f77b4"/>
     <use xlink:href="#m83b185b025" x="296.518982" y="268.390475" style="fill: #1f77b4; stroke: #1f77b4"/>
     <use xlink:href="#m83b185b025" x="298.152171" y="261.439978" style="fill: #1f77b4; stroke: #1f77b4"/>
     <use xlink:href="#m83b185b025" x="299.552047" y="262.237975" style="fill: #1f77b4; stroke: #1f77b4"/>
     <use xlink:href="#m83b185b025" x="300.951923" y="277.78366" style="fill: #1f77b4; stroke: #1f77b4"/>
     <use xlink:href="#m83b185b025" x="302.818424" y="283.882873" style="fill: #1f77b4; stroke: #1f77b4"/>
     <use xlink:href="#m83b185b025" x="304.2183" y="274.482935" style="fill: #1f77b4; stroke: #1f77b4"/>
     <use xlink:href="#m83b185b025" x="306.084802" y="278.739943" style="fill: #1f77b4; stroke: #1f77b4"/>
     <use xlink:href="#m83b185b025" x="307.484678" y="280.765082" style="fill: #1f77b4; stroke: #1f77b4"/>
     <use xlink:href="#m83b185b025" x="309.351179" y="291.901276" style="fill: #1f77b4; stroke: #1f77b4"/>
     <use xlink:href="#m83b185b025" x="310.751055" y="281.898795" style="fill: #1f77b4; stroke: #1f77b4"/>
     <use xlink:href="#m83b185b025" x="312.384244" y="282.819507" style="fill: #1f77b4; stroke: #1f77b4"/>
     <use xlink:href="#m83b185b025" x="314.250745" y="291.272074" style="fill: #1f77b4; stroke: #1f77b4"/>
     <use xlink:href="#m83b185b025" x="315.650621" y="275.120994" style="fill: #1f77b4; stroke: #1f77b4"/>
     <use xlink:href="#m83b185b025" x="317.517122" y="278.962017" style="fill: #1f77b4; stroke: #1f77b4"/>
     <use xlink:href="#m83b185b025" x="318.916998" y="290.177794" style="fill: #1f77b4; stroke: #1f77b4"/>
     <use xlink:href="#m83b185b025" x="320.7835" y="277.332397" style="fill: #1f77b4; stroke: #1f77b4"/>
     <use xlink:href="#m83b185b025" x="322.183376" y="287.205269" style="fill: #1f77b4; stroke: #1f77b4"/>
     <use xlink:href="#m83b185b025" x="323.583252" y="266.548894" style="fill: #1f77b4; stroke: #1f77b4"/>
     <use xlink:href="#m83b185b025" x="325.21644" y="264.346865" style="fill: #1f77b4; stroke: #1f77b4"/>
     <use xlink:href="#m83b185b025" x="327.082942" y="270.603646" style="fill: #1f77b4; stroke: #1f77b4"/>
     <use xlink:href="#m83b185b025" x="328.71613" y="271.018159" style="fill: #1f77b4; stroke: #1f77b4"/>
     <use xlink:href="#m83b185b025" x="330.349319" y="267.398854" style="fill: #1f77b4; stroke: #1f77b4"/>
     <use xlink:href="#m83b185b025" x="332.21582" y="276.117948" style="fill: #1f77b4; stroke: #1f77b4"/>
     <use xlink:href="#m83b185b025" x="333.849009" y="278.478435" style="fill: #1f77b4; stroke: #1f77b4"/>
     <use xlink:href="#m83b185b025" x="335.482198" y="277.206543" style="fill: #1f77b4; stroke: #1f77b4"/>
     <use xlink:href="#m83b185b025" x="336.882074" y="276.359649" style="fill: #1f77b4; stroke: #1f77b4"/>
     <use xlink:href="#m83b185b025" x="338.981888" y="280.580852" style="fill: #1f77b4; stroke: #1f77b4"/>
     <use xlink:href="#m83b185b025" x="339.915138" y="275.096665" style="fill: #1f77b4; stroke: #1f77b4"/>
     <use xlink:href="#m83b185b025" x="341.548327" y="274.717658" style="fill: #1f77b4; stroke: #1f77b4"/>
     <use xlink:href="#m83b185b025" x="343.181516" y="272.890398" style="fill: #1f77b4; stroke: #1f77b4"/>
     <use xlink:href="#m83b185b025" x="344.814704" y="279.5864" style="fill: #1f77b4; stroke: #1f77b4"/>
     <use xlink:href="#m83b185b025" x="347.147831" y="280.223758" style="fill: #1f77b4; stroke: #1f77b4"/>
     <use xlink:href="#m83b185b025" x="348.314394" y="289.053602" style="fill: #1f77b4; stroke: #1f77b4"/>
     <use xlink:href="#m83b185b025" x="349.947583" y="277.901334" style="fill: #1f77b4; stroke: #1f77b4"/>
     <use xlink:href="#m83b185b025" x="351.580772" y="286.227299" style="fill: #1f77b4; stroke: #1f77b4"/>
     <use xlink:href="#m83b185b025" x="352.980648" y="276.601695" style="fill: #1f77b4; stroke: #1f77b4"/>
     <use xlink:href="#m83b185b025" x="355.080462" y="279.070209" style="fill: #1f77b4; stroke: #1f77b4"/>
     <use xlink:href="#m83b185b025" x="356.480338" y="271.271676" style="fill: #1f77b4; stroke: #1f77b4"/>
     <use xlink:href="#m83b185b025" x="358.113526" y="270.788797" style="fill: #1f77b4; stroke: #1f77b4"/>
     <use xlink:href="#m83b185b025" x="359.980028" y="274.75296" style="fill: #1f77b4; stroke: #1f77b4"/>
     <use xlink:href="#m83b185b025" x="361.379904" y="270.537867" style="fill: #1f77b4; stroke: #1f77b4"/>
     <use xlink:href="#m83b185b025" x="363.013092" y="268.326202" style="fill: #1f77b4; stroke: #1f77b4"/>
     <use xlink:href="#m83b185b025" x="364.412968" y="277.259613" style="fill: #1f77b4; stroke: #1f77b4"/>
     <use xlink:href="#m83b185b025" x="366.046157" y="273.12004" style="fill: #1f77b4; stroke: #1f77b4"/>
     <use xlink:href="#m83b185b025" x="368.145971" y="271.451372" style="fill: #1f77b4; stroke: #1f77b4"/>
     <use xlink:href="#m83b185b025" x="369.77916" y="281.768261" style="fill: #1f77b4; stroke: #1f77b4"/>
     <use xlink:href="#m83b185b025" x="371.412348" y="275.623632" style="fill: #1f77b4; stroke: #1f77b4"/>
     <use xlink:href="#m83b185b025" x="373.045537" y="275.473786" style="fill: #1f77b4; stroke: #1f77b4"/>
     <use xlink:href="#m83b185b025" x="374.678726" y="287.264736" style="fill: #1f77b4; stroke: #1f77b4"/>
     <use xlink:href="#m83b185b025" x="376.311914" y="286.622134" style="fill: #1f77b4; stroke: #1f77b4"/>
     <use xlink:href="#m83b185b025" x="377.71179" y="290.923487" style="fill: #1f77b4; stroke: #1f77b4"/>
     <use xlink:href="#m83b185b025" x="378.878354" y="268.033051" style="fill: #1f77b4; stroke: #1f77b4"/>
     <use xlink:href="#m83b185b025" x="380.744855" y="271.53869" style="fill: #1f77b4; stroke: #1f77b4"/>
     <use xlink:href="#m83b185b025" x="382.611356" y="260.157583" style="fill: #1f77b4; stroke: #1f77b4"/>
     <use xlink:href="#m83b185b025" x="384.244545" y="268.623512" style="fill: #1f77b4; stroke: #1f77b4"/>
     <use xlink:href="#m83b185b025" x="385.877734" y="274.568997" style="fill: #1f77b4; stroke: #1f77b4"/>
     <use xlink:href="#m83b185b025" x="387.510922" y="284.127311" style="fill: #1f77b4; stroke: #1f77b4"/>
     <use xlink:href="#m83b185b025" x="389.144111" y="281.077163" style="fill: #1f77b4; stroke: #1f77b4"/>
     <use xlink:href="#m83b185b025" x="390.7773" y="279.204342" style="fill: #1f77b4; stroke: #1f77b4"/>
     <use xlink:href="#m83b185b025" x="392.177176" y="281.679421" style="fill: #1f77b4; stroke: #1f77b4"/>
     <use xlink:href="#m83b185b025" x="394.27699" y="279.809785" style="fill: #1f77b4; stroke: #1f77b4"/>
     <use xlink:href="#m83b185b025" x="395.910178" y="280.348896" style="fill: #1f77b4; stroke: #1f77b4"/>
     <use xlink:href="#m83b185b025" x="397.543367" y="294.392934" style="fill: #1f77b4; stroke: #1f77b4"/>
     <use xlink:href="#m83b185b025" x="398.943243" y="281.115615" style="fill: #1f77b4; stroke: #1f77b4"/>
     <use xlink:href="#m83b185b025" x="400.809744" y="283.551435" style="fill: #1f77b4; stroke: #1f77b4"/>
     <use xlink:href="#m83b185b025" x="402.20962" y="288.892216" style="fill: #1f77b4; stroke: #1f77b4"/>
     <use xlink:href="#m83b185b025" x="404.076122" y="290.356673" style="fill: #1f77b4; stroke: #1f77b4"/>
     <use xlink:href="#m83b185b025" x="405.475998" y="282.354552" style="fill: #1f77b4; stroke: #1f77b4"/>
     <use xlink:href="#m83b185b025" x="407.342499" y="280.256916" style="fill: #1f77b4; stroke: #1f77b4"/>
     <use xlink:href="#m83b185b025" x="408.742375" y="280.893256" style="fill: #1f77b4; stroke: #1f77b4"/>
     <use xlink:href="#m83b185b025" x="410.142251" y="281.723431" style="fill: #1f77b4; stroke: #1f77b4"/>
     <use xlink:href="#m83b185b025" x="412.008752" y="287.272371" style="fill: #1f77b4; stroke: #1f77b4"/>
     <use xlink:href="#m83b185b025" x="413.408628" y="285.299972" style="fill: #1f77b4; stroke: #1f77b4"/>
     <use xlink:href="#m83b185b025" x="415.27513" y="285.095467" style="fill: #1f77b4; stroke: #1f77b4"/>
     <use xlink:href="#m83b185b025" x="417.141631" y="283.130639" style="fill: #1f77b4; stroke: #1f77b4"/>
     <use xlink:href="#m83b185b025" x="419.008132" y="272.283489" style="fill: #1f77b4; stroke: #1f77b4"/>
     <use xlink:href="#m83b185b025" x="420.174696" y="269.887365" style="fill: #1f77b4; stroke: #1f77b4"/>
    </g>
   </g>
   <g id="patch_18">
    <path d="M 59.24 317.72 
L 59.24 257.416516 
" style="fill: none; stroke: #000000; stroke-width: 0.8; stroke-linejoin: miter; stroke-linecap: square"/>
   </g>
   <g id="patch_19">
    <path d="M 446.305714 317.72 
L 446.305714 257.416516 
" style="fill: none; stroke: #000000; stroke-width: 0.8; stroke-linejoin: miter; stroke-linecap: square"/>
   </g>
   <g id="patch_20">
    <path d="M 59.24 317.72 
L 446.305714 317.72 
" style="fill: none; stroke: #000000; stroke-width: 0.8; stroke-linejoin: miter; stroke-linecap: square"/>
   </g>
   <g id="patch_21">
    <path d="M 59.24 257.416516 
L 446.305714 257.416516 
" style="fill: none; stroke: #000000; stroke-width: 0.8; stroke-linejoin: miter; stroke-linecap: square"/>
   </g>
  </g>
  <g id="text_23">
   <!-- Descomposición de la serie temporal de Nitratos -->
   <g transform="translate(35.235 19.7095) scale(0.16 -0.16)">
    <defs>
     <path id="DejaVuSans-44" d="M 1259 4147 
L 1259 519 
L 2022 519 
Q 2988 519 3436 956 
Q 3884 1394 3884 2338 
Q 3884 3275 3436 3711 
Q 2988 4147 2022 4147 
L 1259 4147 
z
M 628 4666 
L 1925 4666 
Q 3281 4666 3915 4102 
Q 4550 3538 4550 2338 
Q 4550 1131 3912 565 
Q 3275 0 1925 0 
L 628 0 
L 628 4666 
z
" transform="scale(0.015625)"/>
     <path id="DejaVuSans-63" d="M 3122 3366 
L 3122 2828 
Q 2878 2963 2633 3030 
Q 2388 3097 2138 3097 
Q 1578 3097 1268 2742 
Q 959 2388 959 1747 
Q 959 1106 1268 751 
Q 1578 397 2138 397 
Q 2388 397 2633 464 
Q 2878 531 3122 666 
L 3122 134 
Q 2881 22 2623 -34 
Q 2366 -91 2075 -91 
Q 1284 -91 818 406 
Q 353 903 353 1747 
Q 353 2603 823 3093 
Q 1294 3584 2113 3584 
Q 2378 3584 2631 3529 
Q 2884 3475 3122 3366 
z
" transform="scale(0.015625)"/>
     <path id="DejaVuSans-6d" d="M 3328 2828 
Q 3544 3216 3844 3400 
Q 4144 3584 4550 3584 
Q 5097 3584 5394 3201 
Q 5691 2819 5691 2113 
L 5691 0 
L 5113 0 
L 5113 2094 
Q 5113 2597 4934 2840 
Q 4756 3084 4391 3084 
Q 3944 3084 3684 2787 
Q 3425 2491 3425 1978 
L 3425 0 
L 2847 0 
L 2847 2094 
Q 2847 2600 2669 2842 
Q 2491 3084 2119 3084 
Q 1678 3084 1418 2786 
Q 1159 2488 1159 1978 
L 1159 0 
L 581 0 
L 581 3500 
L 1159 3500 
L 1159 2956 
Q 1356 3278 1631 3431 
Q 1906 3584 2284 3584 
Q 2666 3584 2933 3390 
Q 3200 3197 3328 2828 
z
" transform="scale(0.015625)"/>
     <path id="DejaVuSans-70" d="M 1159 525 
L 1159 -1331 
L 581 -1331 
L 581 3500 
L 1159 3500 
L 1159 2969 
Q 1341 3281 1617 3432 
Q 1894 3584 2278 3584 
Q 2916 3584 3314 3078 
Q 3713 2572 3713 1747 
Q 3713 922 3314 415 
Q 2916 -91 2278 -91 
Q 1894 -91 1617 61 
Q 1341 213 1159 525 
z
M 3116 1747 
Q 3116 2381 2855 2742 
Q 2594 3103 2138 3103 
Q 1681 3103 1420 2742 
Q 1159 2381 1159 1747 
Q 1159 1113 1420 752 
Q 1681 391 2138 391 
Q 2594 391 2855 752 
Q 3116 1113 3116 1747 
z
" transform="scale(0.015625)"/>
     <path id="DejaVuSans-f3" d="M 1959 3097 
Q 1497 3097 1228 2736 
Q 959 2375 959 1747 
Q 959 1119 1226 758 
Q 1494 397 1959 397 
Q 2419 397 2687 759 
Q 2956 1122 2956 1747 
Q 2956 2369 2687 2733 
Q 2419 3097 1959 3097 
z
M 1959 3584 
Q 2709 3584 3137 3096 
Q 3566 2609 3566 1747 
Q 3566 888 3137 398 
Q 2709 -91 1959 -91 
Q 1206 -91 779 398 
Q 353 888 353 1747 
Q 353 2609 779 3096 
Q 1206 3584 1959 3584 
z
M 2394 5119 
L 3016 5119 
L 1998 3944 
L 1519 3944 
L 2394 5119 
z
" transform="scale(0.015625)"/>
     <path id="DejaVuSans-20" transform="scale(0.015625)"/>
    </defs>
    <use xlink:href="#DejaVuSans-44"/>
    <use xlink:href="#DejaVuSans-65" x="77.001953"/>
    <use xlink:href="#DejaVuSans-73" x="138.525391"/>
    <use xlink:href="#DejaVuSans-63" x="190.625"/>
    <use xlink:href="#DejaVuSans-6f" x="245.605469"/>
    <use xlink:href="#DejaVuSans-6d" x="306.787109"/>
    <use xlink:href="#DejaVuSans-70" x="404.199219"/>
    <use xlink:href="#DejaVuSans-6f" x="467.675781"/>
    <use xlink:href="#DejaVuSans-73" x="528.857422"/>
    <use xlink:href="#DejaVuSans-69" x="580.957031"/>
    <use xlink:href="#DejaVuSans-63" x="608.740234"/>
    <use xlink:href="#DejaVuSans-69" x="663.720703"/>
    <use xlink:href="#DejaVuSans-f3" x="691.503906"/>
    <use xlink:href="#DejaVuSans-6e" x="752.685547"/>
    <use xlink:href="#DejaVuSans-20" x="816.064453"/>
    <use xlink:href="#DejaVuSans-64" x="847.851562"/>
    <use xlink:href="#DejaVuSans-65" x="911.328125"/>
    <use xlink:href="#DejaVuSans-20" x="972.851562"/>
    <use xlink:href="#DejaVuSans-6c" x="1004.638672"/>
    <use xlink:href="#DejaVuSans-61" x="1032.421875"/>
    <use xlink:href="#DejaVuSans-20" x="1093.701172"/>
    <use xlink:href="#DejaVuSans-73" x="1125.488281"/>
    <use xlink:href="#DejaVuSans-65" x="1177.587891"/>
    <use xlink:href="#DejaVuSans-72" x="1239.111328"/>
    <use xlink:href="#DejaVuSans-69" x="1280.224609"/>
    <use xlink:href="#DejaVuSans-65" x="1308.007812"/>
    <use xlink:href="#DejaVuSans-20" x="1369.53125"/>
    <use xlink:href="#DejaVuSans-74" x="1401.318359"/>
    <use xlink:href="#DejaVuSans-65" x="1440.527344"/>
    <use xlink:href="#DejaVuSans-6d" x="1502.050781"/>
    <use xlink:href="#DejaVuSans-70" x="1599.462891"/>
    <use xlink:href="#DejaVuSans-6f" x="1662.939453"/>
    <use xlink:href="#DejaVuSans-72" x="1724.121094"/>
    <use xlink:href="#DejaVuSans-61" x="1765.234375"/>
    <use xlink:href="#DejaVuSans-6c" x="1826.513672"/>
    <use xlink:href="#DejaVuSans-20" x="1854.296875"/>
    <use xlink:href="#DejaVuSans-64" x="1886.083984"/>
    <use xlink:href="#DejaVuSans-65" x="1949.560547"/>
    <use xlink:href="#DejaVuSans-20" x="2011.083984"/>
    <use xlink:href="#DejaVuSans-4e" x="2042.871094"/>
    <use xlink:href="#DejaVuSans-69" x="2117.675781"/>
    <use xlink:href="#DejaVuSans-74" x="2145.458984"/>
    <use xlink:href="#DejaVuSans-72" x="2184.667969"/>
    <use xlink:href="#DejaVuSans-61" x="2225.78125"/>
    <use xlink:href="#DejaVuSans-74" x="2287.060547"/>
    <use xlink:href="#DejaVuSans-6f" x="2326.269531"/>
    <use xlink:href="#DejaVuSans-73" x="2387.451172"/>
   </g>
  </g>
 </g>
 <defs>
  <clipPath id="p8ff56afb33">
   <rect x="59.24" y="26.88" width="387.065714" height="60.303484"/>
  </clipPath>
  <clipPath id="p9cc484d0bf">
   <rect x="59.24" y="103.725505" width="387.065714" height="60.303484"/>
  </clipPath>
  <clipPath id="pba02510a3e">
   <rect x="59.24" y="180.57101" width="387.065714" height="60.303484"/>
  </clipPath>
  <clipPath id="p4b70cf9df6">
   <rect x="59.24" y="257.416516" width="387.065714" height="60.303484"/>
  </clipPath>
 </defs>
</svg>
