<?xml version="1.0" encoding="utf-8" standalone="no"?>
<!DOCTYPE svg PUBLIC "-//W3C//DTD SVG 1.1//EN"
  "http://www.w3.org/Graphics/SVG/1.1/DTD/svg11.dtd">
<svg xmlns:xlink="http://www.w3.org/1999/xlink" width="1008pt" height="504pt" viewBox="0 0 1008 504" xmlns="http://www.w3.org/2000/svg" version="1.1">
 <metadata>
  <rdf:RDF xmlns:dc="http://purl.org/dc/elements/1.1/" xmlns:cc="http://creativecommons.org/ns#" xmlns:rdf="http://www.w3.org/1999/02/22-rdf-syntax-ns#">
   <cc:Work>
    <dc:type rdf:resource="http://purl.org/dc/dcmitype/StillImage"/>
    <dc:date>2024-11-16T14:24:33.473296</dc:date>
    <dc:format>image/svg+xml</dc:format>
    <dc:creator>
     <cc:Agent>
      <dc:title>Matplotlib v3.8.4, https://matplotlib.org/</dc:title>
     </cc:Agent>
    </dc:creator>
   </cc:Work>
  </rdf:RDF>
 </metadata>
 <defs>
  <style type="text/css">*{stroke-linejoin: round; stroke-linecap: butt}</style>
 </defs>
 <g id="figure_1">
  <g id="patch_1">
   <path d="M 0 504 
L 1008 504 
L 1008 0 
L 0 0 
z
" style="fill: #ffffff"/>
  </g>
  <g id="axes_1">
   <g id="patch_2">
    <path d="M 126 448.56 
L 907.2 448.56 
L 907.2 60.48 
L 126 60.48 
z
" style="fill: #ffffff"/>
   </g>
   <g id="matplotlib.axis_1">
    <g id="xtick_1">
     <g id="line2d_1">
      <path d="M 178.592502 448.56 
L 178.592502 60.48 
" clip-path="url(#p165d03c297)" style="fill: none; stroke: #b0b0b0; stroke-width: 0.8; stroke-linecap: square"/>
     </g>
     <g id="line2d_2">
      <defs>
       <path id="m1dd1d8422b" d="M 0 0 
L 0 3.5 
" style="stroke: #000000; stroke-width: 0.8"/>
      </defs>
      <g>
       <use xlink:href="#m1dd1d8422b" x="178.592502" y="448.56" style="stroke: #000000; stroke-width: 0.8"/>
      </g>
     </g>
     <g id="text_1">
      <!-- 2020 -->
      <g transform="translate(165.867502 463.158437) scale(0.1 -0.1)">
       <defs>
        <path id="DejaVuSans-32" d="M 1228 531 
L 3431 531 
L 3431 0 
L 469 0 
L 469 531 
Q 828 903 1448 1529 
Q 2069 2156 2228 2338 
Q 2531 2678 2651 2914 
Q 2772 3150 2772 3378 
Q 2772 3750 2511 3984 
Q 2250 4219 1831 4219 
Q 1534 4219 1204 4116 
Q 875 4013 500 3803 
L 500 4441 
Q 881 4594 1212 4672 
Q 1544 4750 1819 4750 
Q 2544 4750 2975 4387 
Q 3406 4025 3406 3419 
Q 3406 3131 3298 2873 
Q 3191 2616 2906 2266 
Q 2828 2175 2409 1742 
Q 1991 1309 1228 531 
z
" transform="scale(0.015625)"/>
        <path id="DejaVuSans-30" d="M 2034 4250 
Q 1547 4250 1301 3770 
Q 1056 3291 1056 2328 
Q 1056 1369 1301 889 
Q 1547 409 2034 409 
Q 2525 409 2770 889 
Q 3016 1369 3016 2328 
Q 3016 3291 2770 3770 
Q 2525 4250 2034 4250 
z
M 2034 4750 
Q 2819 4750 3233 4129 
Q 3647 3509 3647 2328 
Q 3647 1150 3233 529 
Q 2819 -91 2034 -91 
Q 1250 -91 836 529 
Q 422 1150 422 2328 
Q 422 3509 836 4129 
Q 1250 4750 2034 4750 
z
" transform="scale(0.015625)"/>
       </defs>
       <use xlink:href="#DejaVuSans-32"/>
       <use xlink:href="#DejaVuSans-30" x="63.623047"/>
       <use xlink:href="#DejaVuSans-32" x="127.246094"/>
       <use xlink:href="#DejaVuSans-30" x="190.869141"/>
      </g>
     </g>
    </g>
    <g id="xtick_2">
     <g id="line2d_3">
      <path d="M 277.838988 448.56 
L 277.838988 60.48 
" clip-path="url(#p165d03c297)" style="fill: none; stroke: #b0b0b0; stroke-width: 0.8; stroke-linecap: square"/>
     </g>
     <g id="line2d_4">
      <g>
       <use xlink:href="#m1dd1d8422b" x="277.838988" y="448.56" style="stroke: #000000; stroke-width: 0.8"/>
      </g>
     </g>
     <g id="text_2">
      <!-- 2021 -->
      <g transform="translate(265.113988 463.158437) scale(0.1 -0.1)">
       <defs>
        <path id="DejaVuSans-31" d="M 794 531 
L 1825 531 
L 1825 4091 
L 703 3866 
L 703 4441 
L 1819 4666 
L 2450 4666 
L 2450 531 
L 3481 531 
L 3481 0 
L 794 0 
L 794 531 
z
" transform="scale(0.015625)"/>
       </defs>
       <use xlink:href="#DejaVuSans-32"/>
       <use xlink:href="#DejaVuSans-30" x="63.623047"/>
       <use xlink:href="#DejaVuSans-32" x="127.246094"/>
       <use xlink:href="#DejaVuSans-31" x="190.869141"/>
      </g>
     </g>
    </g>
    <g id="xtick_3">
     <g id="line2d_5">
      <path d="M 376.814308 448.56 
L 376.814308 60.48 
" clip-path="url(#p165d03c297)" style="fill: none; stroke: #b0b0b0; stroke-width: 0.8; stroke-linecap: square"/>
     </g>
     <g id="line2d_6">
      <g>
       <use xlink:href="#m1dd1d8422b" x="376.814308" y="448.56" style="stroke: #000000; stroke-width: 0.8"/>
      </g>
     </g>
     <g id="text_3">
      <!-- 2022 -->
      <g transform="translate(364.089308 463.158437) scale(0.1 -0.1)">
       <use xlink:href="#DejaVuSans-32"/>
       <use xlink:href="#DejaVuSans-30" x="63.623047"/>
       <use xlink:href="#DejaVuSans-32" x="127.246094"/>
       <use xlink:href="#DejaVuSans-32" x="190.869141"/>
      </g>
     </g>
    </g>
    <g id="xtick_4">
     <g id="line2d_7">
      <path d="M 475.789628 448.56 
L 475.789628 60.48 
" clip-path="url(#p165d03c297)" style="fill: none; stroke: #b0b0b0; stroke-width: 0.8; stroke-linecap: square"/>
     </g>
     <g id="line2d_8">
      <g>
       <use xlink:href="#m1dd1d8422b" x="475.789628" y="448.56" style="stroke: #000000; stroke-width: 0.8"/>
      </g>
     </g>
     <g id="text_4">
      <!-- 2023 -->
      <g transform="translate(463.064628 463.158437) scale(0.1 -0.1)">
       <defs>
        <path id="DejaVuSans-33" d="M 2597 2516 
Q 3050 2419 3304 2112 
Q 3559 1806 3559 1356 
Q 3559 666 3084 287 
Q 2609 -91 1734 -91 
Q 1441 -91 1130 -33 
Q 819 25 488 141 
L 488 750 
Q 750 597 1062 519 
Q 1375 441 1716 441 
Q 2309 441 2620 675 
Q 2931 909 2931 1356 
Q 2931 1769 2642 2001 
Q 2353 2234 1838 2234 
L 1294 2234 
L 1294 2753 
L 1863 2753 
Q 2328 2753 2575 2939 
Q 2822 3125 2822 3475 
Q 2822 3834 2567 4026 
Q 2313 4219 1838 4219 
Q 1578 4219 1281 4162 
Q 984 4106 628 3988 
L 628 4550 
Q 988 4650 1302 4700 
Q 1616 4750 1894 4750 
Q 2613 4750 3031 4423 
Q 3450 4097 3450 3541 
Q 3450 3153 3228 2886 
Q 3006 2619 2597 2516 
z
" transform="scale(0.015625)"/>
       </defs>
       <use xlink:href="#DejaVuSans-32"/>
       <use xlink:href="#DejaVuSans-30" x="63.623047"/>
       <use xlink:href="#DejaVuSans-32" x="127.246094"/>
       <use xlink:href="#DejaVuSans-33" x="190.869141"/>
      </g>
     </g>
    </g>
    <g id="xtick_5">
     <g id="line2d_9">
      <path d="M 574.764948 448.56 
L 574.764948 60.48 
" clip-path="url(#p165d03c297)" style="fill: none; stroke: #b0b0b0; stroke-width: 0.8; stroke-linecap: square"/>
     </g>
     <g id="line2d_10">
      <g>
       <use xlink:href="#m1dd1d8422b" x="574.764948" y="448.56" style="stroke: #000000; stroke-width: 0.8"/>
      </g>
     </g>
     <g id="text_5">
      <!-- 2024 -->
      <g transform="translate(562.039948 463.158437) scale(0.1 -0.1)">
       <defs>
        <path id="DejaVuSans-34" d="M 2419 4116 
L 825 1625 
L 2419 1625 
L 2419 4116 
z
M 2253 4666 
L 3047 4666 
L 3047 1625 
L 3713 1625 
L 3713 1100 
L 3047 1100 
L 3047 0 
L 2419 0 
L 2419 1100 
L 313 1100 
L 313 1709 
L 2253 4666 
z
" transform="scale(0.015625)"/>
       </defs>
       <use xlink:href="#DejaVuSans-32"/>
       <use xlink:href="#DejaVuSans-30" x="63.623047"/>
       <use xlink:href="#DejaVuSans-32" x="127.246094"/>
       <use xlink:href="#DejaVuSans-34" x="190.869141"/>
      </g>
     </g>
    </g>
    <g id="xtick_6">
     <g id="line2d_11">
      <path d="M 674.011434 448.56 
L 674.011434 60.48 
" clip-path="url(#p165d03c297)" style="fill: none; stroke: #b0b0b0; stroke-width: 0.8; stroke-linecap: square"/>
     </g>
     <g id="line2d_12">
      <g>
       <use xlink:href="#m1dd1d8422b" x="674.011434" y="448.56" style="stroke: #000000; stroke-width: 0.8"/>
      </g>
     </g>
     <g id="text_6">
      <!-- 2025 -->
      <g transform="translate(661.286434 463.158437) scale(0.1 -0.1)">
       <defs>
        <path id="DejaVuSans-35" d="M 691 4666 
L 3169 4666 
L 3169 4134 
L 1269 4134 
L 1269 2991 
Q 1406 3038 1543 3061 
Q 1681 3084 1819 3084 
Q 2600 3084 3056 2656 
Q 3513 2228 3513 1497 
Q 3513 744 3044 326 
Q 2575 -91 1722 -91 
Q 1428 -91 1123 -41 
Q 819 9 494 109 
L 494 744 
Q 775 591 1075 516 
Q 1375 441 1709 441 
Q 2250 441 2565 725 
Q 2881 1009 2881 1497 
Q 2881 1984 2565 2268 
Q 2250 2553 1709 2553 
Q 1456 2553 1204 2497 
Q 953 2441 691 2322 
L 691 4666 
z
" transform="scale(0.015625)"/>
       </defs>
       <use xlink:href="#DejaVuSans-32"/>
       <use xlink:href="#DejaVuSans-30" x="63.623047"/>
       <use xlink:href="#DejaVuSans-32" x="127.246094"/>
       <use xlink:href="#DejaVuSans-35" x="190.869141"/>
      </g>
     </g>
    </g>
    <g id="xtick_7">
     <g id="line2d_13">
      <path d="M 772.986754 448.56 
L 772.986754 60.48 
" clip-path="url(#p165d03c297)" style="fill: none; stroke: #b0b0b0; stroke-width: 0.8; stroke-linecap: square"/>
     </g>
     <g id="line2d_14">
      <g>
       <use xlink:href="#m1dd1d8422b" x="772.986754" y="448.56" style="stroke: #000000; stroke-width: 0.8"/>
      </g>
     </g>
     <g id="text_7">
      <!-- 2026 -->
      <g transform="translate(760.261754 463.158437) scale(0.1 -0.1)">
       <defs>
        <path id="DejaVuSans-36" d="M 2113 2584 
Q 1688 2584 1439 2293 
Q 1191 2003 1191 1497 
Q 1191 994 1439 701 
Q 1688 409 2113 409 
Q 2538 409 2786 701 
Q 3034 994 3034 1497 
Q 3034 2003 2786 2293 
Q 2538 2584 2113 2584 
z
M 3366 4563 
L 3366 3988 
Q 3128 4100 2886 4159 
Q 2644 4219 2406 4219 
Q 1781 4219 1451 3797 
Q 1122 3375 1075 2522 
Q 1259 2794 1537 2939 
Q 1816 3084 2150 3084 
Q 2853 3084 3261 2657 
Q 3669 2231 3669 1497 
Q 3669 778 3244 343 
Q 2819 -91 2113 -91 
Q 1303 -91 875 529 
Q 447 1150 447 2328 
Q 447 3434 972 4092 
Q 1497 4750 2381 4750 
Q 2619 4750 2861 4703 
Q 3103 4656 3366 4563 
z
" transform="scale(0.015625)"/>
       </defs>
       <use xlink:href="#DejaVuSans-32"/>
       <use xlink:href="#DejaVuSans-30" x="63.623047"/>
       <use xlink:href="#DejaVuSans-32" x="127.246094"/>
       <use xlink:href="#DejaVuSans-36" x="190.869141"/>
      </g>
     </g>
    </g>
    <g id="xtick_8">
     <g id="line2d_15">
      <path d="M 871.962074 448.56 
L 871.962074 60.48 
" clip-path="url(#p165d03c297)" style="fill: none; stroke: #b0b0b0; stroke-width: 0.8; stroke-linecap: square"/>
     </g>
     <g id="line2d_16">
      <g>
       <use xlink:href="#m1dd1d8422b" x="871.962074" y="448.56" style="stroke: #000000; stroke-width: 0.8"/>
      </g>
     </g>
     <g id="text_8">
      <!-- 2027 -->
      <g transform="translate(859.237074 463.158437) scale(0.1 -0.1)">
       <defs>
        <path id="DejaVuSans-37" d="M 525 4666 
L 3525 4666 
L 3525 4397 
L 1831 0 
L 1172 0 
L 2766 4134 
L 525 4134 
L 525 4666 
z
" transform="scale(0.015625)"/>
       </defs>
       <use xlink:href="#DejaVuSans-32"/>
       <use xlink:href="#DejaVuSans-30" x="63.623047"/>
       <use xlink:href="#DejaVuSans-32" x="127.246094"/>
       <use xlink:href="#DejaVuSans-37" x="190.869141"/>
      </g>
     </g>
    </g>
    <g id="text_9">
     <!-- Fecha -->
     <g transform="translate(501.940625 476.836563) scale(0.1 -0.1)">
      <defs>
       <path id="DejaVuSans-46" d="M 628 4666 
L 3309 4666 
L 3309 4134 
L 1259 4134 
L 1259 2759 
L 3109 2759 
L 3109 2228 
L 1259 2228 
L 1259 0 
L 628 0 
L 628 4666 
z
" transform="scale(0.015625)"/>
       <path id="DejaVuSans-65" d="M 3597 1894 
L 3597 1613 
L 953 1613 
Q 991 1019 1311 708 
Q 1631 397 2203 397 
Q 2534 397 2845 478 
Q 3156 559 3463 722 
L 3463 178 
Q 3153 47 2828 -22 
Q 2503 -91 2169 -91 
Q 1331 -91 842 396 
Q 353 884 353 1716 
Q 353 2575 817 3079 
Q 1281 3584 2069 3584 
Q 2775 3584 3186 3129 
Q 3597 2675 3597 1894 
z
M 3022 2063 
Q 3016 2534 2758 2815 
Q 2500 3097 2075 3097 
Q 1594 3097 1305 2825 
Q 1016 2553 972 2059 
L 3022 2063 
z
" transform="scale(0.015625)"/>
       <path id="DejaVuSans-63" d="M 3122 3366 
L 3122 2828 
Q 2878 2963 2633 3030 
Q 2388 3097 2138 3097 
Q 1578 3097 1268 2742 
Q 959 2388 959 1747 
Q 959 1106 1268 751 
Q 1578 397 2138 397 
Q 2388 397 2633 464 
Q 2878 531 3122 666 
L 3122 134 
Q 2881 22 2623 -34 
Q 2366 -91 2075 -91 
Q 1284 -91 818 406 
Q 353 903 353 1747 
Q 353 2603 823 3093 
Q 1294 3584 2113 3584 
Q 2378 3584 2631 3529 
Q 2884 3475 3122 3366 
z
" transform="scale(0.015625)"/>
       <path id="DejaVuSans-68" d="M 3513 2113 
L 3513 0 
L 2938 0 
L 2938 2094 
Q 2938 2591 2744 2837 
Q 2550 3084 2163 3084 
Q 1697 3084 1428 2787 
Q 1159 2491 1159 1978 
L 1159 0 
L 581 0 
L 581 4863 
L 1159 4863 
L 1159 2956 
Q 1366 3272 1645 3428 
Q 1925 3584 2291 3584 
Q 2894 3584 3203 3211 
Q 3513 2838 3513 2113 
z
" transform="scale(0.015625)"/>
       <path id="DejaVuSans-61" d="M 2194 1759 
Q 1497 1759 1228 1600 
Q 959 1441 959 1056 
Q 959 750 1161 570 
Q 1363 391 1709 391 
Q 2188 391 2477 730 
Q 2766 1069 2766 1631 
L 2766 1759 
L 2194 1759 
z
M 3341 1997 
L 3341 0 
L 2766 0 
L 2766 531 
Q 2569 213 2275 61 
Q 1981 -91 1556 -91 
Q 1019 -91 701 211 
Q 384 513 384 1019 
Q 384 1609 779 1909 
Q 1175 2209 1959 2209 
L 2766 2209 
L 2766 2266 
Q 2766 2663 2505 2880 
Q 2244 3097 1772 3097 
Q 1472 3097 1187 3025 
Q 903 2953 641 2809 
L 641 3341 
Q 956 3463 1253 3523 
Q 1550 3584 1831 3584 
Q 2591 3584 2966 3190 
Q 3341 2797 3341 1997 
z
" transform="scale(0.015625)"/>
      </defs>
      <use xlink:href="#DejaVuSans-46"/>
      <use xlink:href="#DejaVuSans-65" x="52.019531"/>
      <use xlink:href="#DejaVuSans-63" x="113.542969"/>
      <use xlink:href="#DejaVuSans-68" x="168.523438"/>
      <use xlink:href="#DejaVuSans-61" x="231.902344"/>
     </g>
    </g>
   </g>
   <g id="matplotlib.axis_2">
    <g id="ytick_1">
     <g id="line2d_17">
      <path d="M 126 435.30233 
L 907.2 435.30233 
" clip-path="url(#p165d03c297)" style="fill: none; stroke: #b0b0b0; stroke-width: 0.8; stroke-linecap: square"/>
     </g>
     <g id="line2d_18">
      <defs>
       <path id="m33df092c47" d="M 0 0 
L -3.5 0 
" style="stroke: #000000; stroke-width: 0.8"/>
      </defs>
      <g>
       <use xlink:href="#m33df092c47" x="126" y="435.30233" style="stroke: #000000; stroke-width: 0.8"/>
      </g>
     </g>
     <g id="text_10">
      <!-- 0.0 -->
      <g transform="translate(103.096875 439.101548) scale(0.1 -0.1)">
       <defs>
        <path id="DejaVuSans-2e" d="M 684 794 
L 1344 794 
L 1344 0 
L 684 0 
L 684 794 
z
" transform="scale(0.015625)"/>
       </defs>
       <use xlink:href="#DejaVuSans-30"/>
       <use xlink:href="#DejaVuSans-2e" x="63.623047"/>
       <use xlink:href="#DejaVuSans-30" x="95.410156"/>
      </g>
     </g>
    </g>
    <g id="ytick_2">
     <g id="line2d_19">
      <path d="M 126 386.256323 
L 907.2 386.256323 
" clip-path="url(#p165d03c297)" style="fill: none; stroke: #b0b0b0; stroke-width: 0.8; stroke-linecap: square"/>
     </g>
     <g id="line2d_20">
      <g>
       <use xlink:href="#m33df092c47" x="126" y="386.256323" style="stroke: #000000; stroke-width: 0.8"/>
      </g>
     </g>
     <g id="text_11">
      <!-- 2.5 -->
      <g transform="translate(103.096875 390.055542) scale(0.1 -0.1)">
       <use xlink:href="#DejaVuSans-32"/>
       <use xlink:href="#DejaVuSans-2e" x="63.623047"/>
       <use xlink:href="#DejaVuSans-35" x="95.410156"/>
      </g>
     </g>
    </g>
    <g id="ytick_3">
     <g id="line2d_21">
      <path d="M 126 337.210317 
L 907.2 337.210317 
" clip-path="url(#p165d03c297)" style="fill: none; stroke: #b0b0b0; stroke-width: 0.8; stroke-linecap: square"/>
     </g>
     <g id="line2d_22">
      <g>
       <use xlink:href="#m33df092c47" x="126" y="337.210317" style="stroke: #000000; stroke-width: 0.8"/>
      </g>
     </g>
     <g id="text_12">
      <!-- 5.0 -->
      <g transform="translate(103.096875 341.009536) scale(0.1 -0.1)">
       <use xlink:href="#DejaVuSans-35"/>
       <use xlink:href="#DejaVuSans-2e" x="63.623047"/>
       <use xlink:href="#DejaVuSans-30" x="95.410156"/>
      </g>
     </g>
    </g>
    <g id="ytick_4">
     <g id="line2d_23">
      <path d="M 126 288.164311 
L 907.2 288.164311 
" clip-path="url(#p165d03c297)" style="fill: none; stroke: #b0b0b0; stroke-width: 0.8; stroke-linecap: square"/>
     </g>
     <g id="line2d_24">
      <g>
       <use xlink:href="#m33df092c47" x="126" y="288.164311" style="stroke: #000000; stroke-width: 0.8"/>
      </g>
     </g>
     <g id="text_13">
      <!-- 7.5 -->
      <g transform="translate(103.096875 291.96353) scale(0.1 -0.1)">
       <use xlink:href="#DejaVuSans-37"/>
       <use xlink:href="#DejaVuSans-2e" x="63.623047"/>
       <use xlink:href="#DejaVuSans-35" x="95.410156"/>
      </g>
     </g>
    </g>
    <g id="ytick_5">
     <g id="line2d_25">
      <path d="M 126 239.118305 
L 907.2 239.118305 
" clip-path="url(#p165d03c297)" style="fill: none; stroke: #b0b0b0; stroke-width: 0.8; stroke-linecap: square"/>
     </g>
     <g id="line2d_26">
      <g>
       <use xlink:href="#m33df092c47" x="126" y="239.118305" style="stroke: #000000; stroke-width: 0.8"/>
      </g>
     </g>
     <g id="text_14">
      <!-- 10.0 -->
      <g transform="translate(96.734375 242.917523) scale(0.1 -0.1)">
       <use xlink:href="#DejaVuSans-31"/>
       <use xlink:href="#DejaVuSans-30" x="63.623047"/>
       <use xlink:href="#DejaVuSans-2e" x="127.246094"/>
       <use xlink:href="#DejaVuSans-30" x="159.033203"/>
      </g>
     </g>
    </g>
    <g id="ytick_6">
     <g id="line2d_27">
      <path d="M 126 190.072298 
L 907.2 190.072298 
" clip-path="url(#p165d03c297)" style="fill: none; stroke: #b0b0b0; stroke-width: 0.8; stroke-linecap: square"/>
     </g>
     <g id="line2d_28">
      <g>
       <use xlink:href="#m33df092c47" x="126" y="190.072298" style="stroke: #000000; stroke-width: 0.8"/>
      </g>
     </g>
     <g id="text_15">
      <!-- 12.5 -->
      <g transform="translate(96.734375 193.871517) scale(0.1 -0.1)">
       <use xlink:href="#DejaVuSans-31"/>
       <use xlink:href="#DejaVuSans-32" x="63.623047"/>
       <use xlink:href="#DejaVuSans-2e" x="127.246094"/>
       <use xlink:href="#DejaVuSans-35" x="159.033203"/>
      </g>
     </g>
    </g>
    <g id="ytick_7">
     <g id="line2d_29">
      <path d="M 126 141.026292 
L 907.2 141.026292 
" clip-path="url(#p165d03c297)" style="fill: none; stroke: #b0b0b0; stroke-width: 0.8; stroke-linecap: square"/>
     </g>
     <g id="line2d_30">
      <g>
       <use xlink:href="#m33df092c47" x="126" y="141.026292" style="stroke: #000000; stroke-width: 0.8"/>
      </g>
     </g>
     <g id="text_16">
      <!-- 15.0 -->
      <g transform="translate(96.734375 144.825511) scale(0.1 -0.1)">
       <use xlink:href="#DejaVuSans-31"/>
       <use xlink:href="#DejaVuSans-35" x="63.623047"/>
       <use xlink:href="#DejaVuSans-2e" x="127.246094"/>
       <use xlink:href="#DejaVuSans-30" x="159.033203"/>
      </g>
     </g>
    </g>
    <g id="ytick_8">
     <g id="line2d_31">
      <path d="M 126 91.980286 
L 907.2 91.980286 
" clip-path="url(#p165d03c297)" style="fill: none; stroke: #b0b0b0; stroke-width: 0.8; stroke-linecap: square"/>
     </g>
     <g id="line2d_32">
      <g>
       <use xlink:href="#m33df092c47" x="126" y="91.980286" style="stroke: #000000; stroke-width: 0.8"/>
      </g>
     </g>
     <g id="text_17">
      <!-- 17.5 -->
      <g transform="translate(96.734375 95.779505) scale(0.1 -0.1)">
       <use xlink:href="#DejaVuSans-31"/>
       <use xlink:href="#DejaVuSans-37" x="63.623047"/>
       <use xlink:href="#DejaVuSans-2e" x="127.246094"/>
       <use xlink:href="#DejaVuSans-35" x="159.033203"/>
      </g>
     </g>
    </g>
    <g id="text_18">
     <!-- Concentración de Clorofila -->
     <g transform="translate(90.654687 320.653594) rotate(-90) scale(0.1 -0.1)">
      <defs>
       <path id="DejaVuSans-43" d="M 4122 4306 
L 4122 3641 
Q 3803 3938 3442 4084 
Q 3081 4231 2675 4231 
Q 1875 4231 1450 3742 
Q 1025 3253 1025 2328 
Q 1025 1406 1450 917 
Q 1875 428 2675 428 
Q 3081 428 3442 575 
Q 3803 722 4122 1019 
L 4122 359 
Q 3791 134 3420 21 
Q 3050 -91 2638 -91 
Q 1578 -91 968 557 
Q 359 1206 359 2328 
Q 359 3453 968 4101 
Q 1578 4750 2638 4750 
Q 3056 4750 3426 4639 
Q 3797 4528 4122 4306 
z
" transform="scale(0.015625)"/>
       <path id="DejaVuSans-6f" d="M 1959 3097 
Q 1497 3097 1228 2736 
Q 959 2375 959 1747 
Q 959 1119 1226 758 
Q 1494 397 1959 397 
Q 2419 397 2687 759 
Q 2956 1122 2956 1747 
Q 2956 2369 2687 2733 
Q 2419 3097 1959 3097 
z
M 1959 3584 
Q 2709 3584 3137 3096 
Q 3566 2609 3566 1747 
Q 3566 888 3137 398 
Q 2709 -91 1959 -91 
Q 1206 -91 779 398 
Q 353 888 353 1747 
Q 353 2609 779 3096 
Q 1206 3584 1959 3584 
z
" transform="scale(0.015625)"/>
       <path id="DejaVuSans-6e" d="M 3513 2113 
L 3513 0 
L 2938 0 
L 2938 2094 
Q 2938 2591 2744 2837 
Q 2550 3084 2163 3084 
Q 1697 3084 1428 2787 
Q 1159 2491 1159 1978 
L 1159 0 
L 581 0 
L 581 3500 
L 1159 3500 
L 1159 2956 
Q 1366 3272 1645 3428 
Q 1925 3584 2291 3584 
Q 2894 3584 3203 3211 
Q 3513 2838 3513 2113 
z
" transform="scale(0.015625)"/>
       <path id="DejaVuSans-74" d="M 1172 4494 
L 1172 3500 
L 2356 3500 
L 2356 3053 
L 1172 3053 
L 1172 1153 
Q 1172 725 1289 603 
Q 1406 481 1766 481 
L 2356 481 
L 2356 0 
L 1766 0 
Q 1100 0 847 248 
Q 594 497 594 1153 
L 594 3053 
L 172 3053 
L 172 3500 
L 594 3500 
L 594 4494 
L 1172 4494 
z
" transform="scale(0.015625)"/>
       <path id="DejaVuSans-72" d="M 2631 2963 
Q 2534 3019 2420 3045 
Q 2306 3072 2169 3072 
Q 1681 3072 1420 2755 
Q 1159 2438 1159 1844 
L 1159 0 
L 581 0 
L 581 3500 
L 1159 3500 
L 1159 2956 
Q 1341 3275 1631 3429 
Q 1922 3584 2338 3584 
Q 2397 3584 2469 3576 
Q 2541 3569 2628 3553 
L 2631 2963 
z
" transform="scale(0.015625)"/>
       <path id="DejaVuSans-69" d="M 603 3500 
L 1178 3500 
L 1178 0 
L 603 0 
L 603 3500 
z
M 603 4863 
L 1178 4863 
L 1178 4134 
L 603 4134 
L 603 4863 
z
" transform="scale(0.015625)"/>
       <path id="DejaVuSans-f3" d="M 1959 3097 
Q 1497 3097 1228 2736 
Q 959 2375 959 1747 
Q 959 1119 1226 758 
Q 1494 397 1959 397 
Q 2419 397 2687 759 
Q 2956 1122 2956 1747 
Q 2956 2369 2687 2733 
Q 2419 3097 1959 3097 
z
M 1959 3584 
Q 2709 3584 3137 3096 
Q 3566 2609 3566 1747 
Q 3566 888 3137 398 
Q 2709 -91 1959 -91 
Q 1206 -91 779 398 
Q 353 888 353 1747 
Q 353 2609 779 3096 
Q 1206 3584 1959 3584 
z
M 2394 5119 
L 3016 5119 
L 1998 3944 
L 1519 3944 
L 2394 5119 
z
" transform="scale(0.015625)"/>
       <path id="DejaVuSans-20" transform="scale(0.015625)"/>
       <path id="DejaVuSans-64" d="M 2906 2969 
L 2906 4863 
L 3481 4863 
L 3481 0 
L 2906 0 
L 2906 525 
Q 2725 213 2448 61 
Q 2172 -91 1784 -91 
Q 1150 -91 751 415 
Q 353 922 353 1747 
Q 353 2572 751 3078 
Q 1150 3584 1784 3584 
Q 2172 3584 2448 3432 
Q 2725 3281 2906 2969 
z
M 947 1747 
Q 947 1113 1208 752 
Q 1469 391 1925 391 
Q 2381 391 2643 752 
Q 2906 1113 2906 1747 
Q 2906 2381 2643 2742 
Q 2381 3103 1925 3103 
Q 1469 3103 1208 2742 
Q 947 2381 947 1747 
z
" transform="scale(0.015625)"/>
       <path id="DejaVuSans-6c" d="M 603 4863 
L 1178 4863 
L 1178 0 
L 603 0 
L 603 4863 
z
" transform="scale(0.015625)"/>
       <path id="DejaVuSans-66" d="M 2375 4863 
L 2375 4384 
L 1825 4384 
Q 1516 4384 1395 4259 
Q 1275 4134 1275 3809 
L 1275 3500 
L 2222 3500 
L 2222 3053 
L 1275 3053 
L 1275 0 
L 697 0 
L 697 3053 
L 147 3053 
L 147 3500 
L 697 3500 
L 697 3744 
Q 697 4328 969 4595 
Q 1241 4863 1831 4863 
L 2375 4863 
z
" transform="scale(0.015625)"/>
      </defs>
      <use xlink:href="#DejaVuSans-43"/>
      <use xlink:href="#DejaVuSans-6f" x="69.824219"/>
      <use xlink:href="#DejaVuSans-6e" x="131.005859"/>
      <use xlink:href="#DejaVuSans-63" x="194.384766"/>
      <use xlink:href="#DejaVuSans-65" x="249.365234"/>
      <use xlink:href="#DejaVuSans-6e" x="310.888672"/>
      <use xlink:href="#DejaVuSans-74" x="374.267578"/>
      <use xlink:href="#DejaVuSans-72" x="413.476562"/>
      <use xlink:href="#DejaVuSans-61" x="454.589844"/>
      <use xlink:href="#DejaVuSans-63" x="515.869141"/>
      <use xlink:href="#DejaVuSans-69" x="570.849609"/>
      <use xlink:href="#DejaVuSans-f3" x="598.632812"/>
      <use xlink:href="#DejaVuSans-6e" x="659.814453"/>
      <use xlink:href="#DejaVuSans-20" x="723.193359"/>
      <use xlink:href="#DejaVuSans-64" x="754.980469"/>
      <use xlink:href="#DejaVuSans-65" x="818.457031"/>
      <use xlink:href="#DejaVuSans-20" x="879.980469"/>
      <use xlink:href="#DejaVuSans-43" x="911.767578"/>
      <use xlink:href="#DejaVuSans-6c" x="981.591797"/>
      <use xlink:href="#DejaVuSans-6f" x="1009.375"/>
      <use xlink:href="#DejaVuSans-72" x="1070.556641"/>
      <use xlink:href="#DejaVuSans-6f" x="1109.419922"/>
      <use xlink:href="#DejaVuSans-66" x="1170.601562"/>
      <use xlink:href="#DejaVuSans-69" x="1205.806641"/>
      <use xlink:href="#DejaVuSans-6c" x="1233.589844"/>
      <use xlink:href="#DejaVuSans-61" x="1261.373047"/>
     </g>
    </g>
   </g>
   <g id="line2d_33">
    <path d="M 161.509091 88.004126 
L 162.864917 78.12 
L 163.678413 91.992743 
L 165.57657 233.270212 
L 167.203561 301.392433 
L 167.474727 262.227286 
L 168.830553 322.778382 
L 169.101718 250.379912 
L 170.457545 298.749126 
L 171.27104 283.841542 
L 171.813371 264.295846 
L 172.898032 290.346927 
L 174.253858 349.281311 
L 176.965511 335.256283 
L 179.134833 381.681441 
L 180.490659 394.852596 
L 182.931147 406.119522 
L 184.558138 286.462323 
L 186.18513 302.497139 
L 187.812121 396.505644 
L 189.710278 389.059462 
L 192.150765 369.769849 
L 193.506592 357.460037 
L 195.947079 229.259571 
L 197.574071 307.802357 
L 197.574071 307.802357 
L 199.201062 343.741049 
L 203.268541 354.470607 
L 204.895533 358.31734 
L 206.793689 364.174675 
L 208.691846 387.689428 
L 210.590003 389.515523 
L 212.48816 411.391754 
L 214.386317 415.497408 
L 214.657482 408.221535 
L 216.013308 421.446814 
L 216.555639 381.132312 
L 217.911465 421.312627 
L 219.809622 389.766952 
L 220.080787 430.001054 
L 222.521275 430.92 
L 223.605936 406.450644 
L 225.775258 421.362281 
L 226.588754 415.45894 
L 228.215745 414.449571 
L 229.571571 413.79636 
L 232.283224 420.750176 
L 233.910216 392.706383 
L 235.266042 393.809903 
L 237.164199 406.886744 
L 239.604686 416.842093 
L 241.231678 414.381978 
L 243.129834 414.847023 
L 245.299157 400.263868 
L 247.197313 418.068374 
L 248.824305 406.762918 
L 250.993627 417.271541 
L 252.620619 411.110475 
L 254.789941 418.588369 
L 256.416932 417.789516 
L 258.586254 397.108997 
L 260.484411 413.082723 
L 262.111403 384.199972 
L 264.280725 405.181836 
L 265.907716 406.127834 
L 267.805873 401.780121 
L 269.975195 417.675454 
L 271.873352 404.07636 
L 273.229178 406.075017 
L 274.85617 413.68662 
L 277.025492 414.632246 
L 278.923649 423.5354 
L 281.092971 410.355871 
L 282.991128 405.848371 
L 284.889285 386.832385 
L 286.787441 378.363796 
L 289.227929 410.80132 
L 290.583755 423.946384 
L 292.481912 425.016991 
L 294.922399 423.865938 
L 296.278226 417.060019 
L 297.634052 424.194728 
L 300.074539 421.791743 
L 303.599688 424.340012 
L 305.497844 424.186941 
L 307.396001 421.157825 
L 309.294158 423.528119 
L 311.734645 422.990446 
L 313.632802 420.749948 
L 315.530959 424.008788 
L 316.886785 421.940533 
L 319.056107 417.454005 
L 322.310091 423.735202 
L 324.479413 425.51747 
L 326.9199 420.282703 
L 328.275726 423.602262 
L 330.445048 419.721696 
L 332.07204 414.201079 
L 333.970197 404.282669 
L 335.868354 371.524458 
L 337.495345 374.333422 
L 338.580006 358.669275 
L 339.393502 373.906946 
L 340.206998 368.196979 
L 341.562824 338.498814 
L 342.105155 318.891623 
L 343.189816 368.276901 
L 344.003311 367.709343 
L 346.986129 356.696512 
L 348.884286 296.54147 
L 350.782443 337.438413 
L 351.595939 304.425381 
L 353.494096 333.135097 
L 354.578757 355.948473 
L 356.476913 399.045742 
L 359.188566 389.231209 
L 361.086723 387.45542 
L 362.98488 407.72276 
L 364.883037 396.021179 
L 367.052359 400.570878 
L 368.408185 413.386119 
L 370.848672 415.675744 
L 372.204499 415.989312 
L 373.83149 408.629436 
L 375.729647 419.677863 
L 377.627804 417.469615 
L 379.797126 423.665762 
L 381.695283 422.202111 
L 383.864605 420.129612 
L 385.491596 423.415366 
L 387.660918 405.051697 
L 389.28791 421.467969 
L 393.084224 427.321142 
L 395.524711 423.098736 
L 399.049859 414.065306 
L 400.13452 415.790973 
L 402.575008 400.085307 
L 403.930834 399.804256 
L 406.100156 408.396894 
L 406.913652 392.526757 
L 408.269478 410.202037 
L 410.709966 414.427929 
L 413.963949 402.409328 
L 416.133271 422.121663 
L 418.031428 421.515792 
L 420.20075 424.018407 
L 422.098907 422.919405 
L 423.997063 426.874458 
L 425.624055 425.212307 
L 427.251047 422.563429 
L 429.420369 424.634433 
L 431.04736 424.325932 
L 433.216682 421.153436 
L 434.843674 423.323756 
L 437.012996 425.004501 
L 438.639988 421.879665 
L 440.538144 424.633106 
L 442.707466 421.135101 
L 444.334458 421.426874 
L 446.50378 424.023998 
L 448.130772 422.00467 
L 450.300094 399.252212 
L 451.927085 408.311334 
L 453.554077 398.56115 
L 455.452234 412.933063 
L 457.621556 411.818259 
L 459.519713 417.207011 
L 461.417869 385.883472 
L 463.587192 419.49523 
L 465.485348 415.246856 
L 467.383505 408.319968 
L 469.010497 406.004889 
L 471.450984 407.894955 
L 472.535645 403.726698 
L 474.433802 414.757309 
L 476.331959 419.366809 
L 478.230116 413.008158 
L 480.941768 419.467377 
L 482.297595 418.815815 
L 484.195751 426.633513 
L 486.093908 423.98392 
L 487.7209 422.889939 
L 490.161387 423.266224 
L 491.788379 429.404583 
L 493.686535 428.374095 
L 495.855858 428.653573 
L 497.482849 426.38079 
L 499.381006 429.020206 
L 501.007998 426.524125 
L 502.906154 428.321621 
L 505.346642 427.310755 
L 507.244799 428.665781 
L 509.142955 426.16317 
L 511.041112 429.368051 
L 512.939269 428.894301 
L 514.837426 427.178145 
L 516.464417 428.566692 
L 517.820244 427.191507 
L 519.989566 421.969397 
L 522.158888 424.450414 
L 524.057045 427.041524 
L 525.955201 428.394111 
L 527.853358 426.131891 
L 529.751515 425.886519 
L 531.649672 428.079846 
L 533.276664 426.499493 
L 535.717151 423.064117 
L 537.615308 426.059789 
L 539.513465 425.633589 
L 541.140456 426.079763 
L 543.309778 421.702833 
L 544.93677 419.571636 
L 547.106092 418.057089 
L 548.733083 424.503369 
L 550.902405 421.568291 
L 552.529397 419.765069 
L 554.156389 419.428779 
L 556.325711 406.323865 
L 557.952702 412.10882 
L 560.122024 416.071332 
L 562.291346 423.030741 
L 564.460669 423.944727 
L 565.816495 423.096673 
L 567.985817 419.665409 
L 569.612808 418.755182 
L 571.2398 423.252006 
L 573.409122 423.76521 
L 575.307279 419.736193 
L 576.934271 421.583419 
L 578.832427 427.191051 
L 580.730584 421.652056 
L 583.171072 424.989726 
L 584.526898 423.057225 
L 586.425055 426.316527 
L 588.323211 428.211088 
L 592.661856 424.745 
L 594.288847 430.245757 
L 596.187004 426.913992 
L 597.813996 425.302613 
L 597.813996 425.302613 
" clip-path="url(#p165d03c297)" style="fill: none; stroke: #0000ff; stroke-width: 1.5; stroke-linecap: square"/>
   </g>
   <g id="line2d_34">
    <path d="M 161.509091 164.104323 
L 162.864917 123.390718 
L 163.678413 109.493012 
L 165.57657 107.139671 
L 167.203561 147.32052 
L 167.474727 194.821353 
L 168.830553 217.494151 
L 169.101718 235.455086 
L 170.457545 226.485201 
L 171.27104 241.653186 
L 171.813371 209.566542 
L 172.898032 230.174818 
L 174.253858 241.632386 
L 176.965511 273.417619 
L 179.134833 300.285121 
L 180.490659 294.347072 
L 180.490659 288.255992 
L 182.931147 297.70647 
L 184.558138 326.848238 
L 186.18513 245.739231 
L 187.812121 255.261695 
L 189.710278 265.694676 
L 192.150765 261.258465 
L 193.506592 279.912225 
L 195.947079 296.467104 
L 197.574071 261.936703 
L 197.574071 291.179947 
L 197.574071 289.801205 
L 199.201062 283.492029 
L 203.268541 297.226587 
L 204.895533 317.299129 
L 206.793689 337.336761 
L 208.691846 323.918761 
L 210.590003 339.123277 
L 212.48816 338.45803 
L 214.386317 340.299243 
L 214.657482 358.836742 
L 216.013308 371.764322 
L 216.555639 380.299624 
L 217.911465 366.38831 
L 219.809622 360.322124 
L 220.080787 370.835551 
L 222.521275 360.339907 
L 223.605936 387.329009 
L 225.775258 391.069773 
L 226.588754 399.071095 
L 228.215745 410.873487 
L 229.571571 408.567831 
L 232.283224 412.031362 
L 233.910216 416.882362 
L 233.910216 410.960348 
L 235.266042 405.87078 
L 237.164199 403.183637 
L 239.604686 406.216449 
L 241.231678 406.004736 
L 243.129834 413.122888 
L 245.299157 410.690126 
L 247.197313 410.411883 
L 248.824305 404.761976 
L 250.993627 408.610152 
L 252.620619 410.343447 
L 254.789941 411.826955 
L 256.416932 412.205079 
L 258.586254 414.314137 
L 260.484411 411.944631 
L 262.111403 410.464282 
L 264.280725 410.018538 
L 265.907716 405.350877 
L 267.805873 411.103957 
L 269.975195 408.289064 
L 271.873352 396.250327 
L 273.229178 412.143057 
L 274.85617 406.810535 
L 277.025492 408.042614 
L 278.923649 410.264599 
L 281.092971 407.786043 
L 282.991128 411.686523 
L 284.889285 406.634091 
L 286.787441 407.122096 
L 289.227929 399.605327 
L 290.583755 407.576987 
L 292.481912 410.820701 
L 294.922399 411.470419 
L 296.278226 401.832104 
L 297.634052 402.592964 
L 300.074539 412.778615 
L 303.599688 411.740927 
L 305.497844 417.212047 
L 309.294158 412.300218 
L 311.734645 416.945756 
L 313.632802 418.595514 
L 315.530959 414.821547 
L 316.886785 419.279457 
L 319.056107 418.438222 
L 320.683099 419.390328 
L 322.310091 418.538977 
L 324.479413 418.990404 
L 326.9199 418.967207 
L 328.275726 419.137195 
L 330.445048 420.71841 
L 332.07204 419.658473 
L 333.970197 420.310603 
L 335.868354 414.421202 
L 337.495345 400.74696 
L 338.580006 384.914078 
L 339.393502 367.326085 
L 340.206998 371.835821 
L 341.562824 369.309741 
L 342.105155 336.143186 
L 343.189816 327.869636 
L 344.003311 346.888147 
L 346.986129 344.07073 
L 348.884286 339.911579 
L 350.782443 321.74812 
L 351.595939 327.620197 
L 353.494096 312.525686 
L 354.578757 321.490678 
L 356.476913 329.860743 
L 359.188566 367.012118 
L 361.086723 381.195718 
L 362.98488 376.975716 
L 364.883037 390.839621 
L 367.052359 389.715269 
L 368.408185 399.341279 
L 370.848672 397.314608 
L 372.204499 408.157225 
L 373.83149 409.165913 
L 375.729647 411.962614 
L 377.627804 405.265458 
L 379.797126 411.997476 
L 381.695283 417.052755 
L 383.864605 418.33499 
L 385.491596 417.786667 
L 387.660918 418.314852 
L 389.28791 412.924272 
L 391.457232 409.239647 
L 393.084224 417.812767 
L 395.524711 419.089386 
L 399.049859 418.857134 
L 400.13452 418.337731 
L 402.575008 409.888812 
L 403.930834 407.707295 
L 406.100156 396.386764 
L 406.913652 403.795691 
L 408.269478 401.916478 
L 410.709966 406.679337 
L 412.608122 408.959642 
L 413.963949 411.767495 
L 416.133271 404.37572 
L 418.031428 411.143596 
L 420.20075 415.56848 
L 422.098907 419.696285 
L 423.997063 418.442773 
L 425.624055 419.143392 
L 427.251047 418.36053 
L 429.420369 420.711907 
L 431.04736 421.684437 
L 434.843674 419.676742 
L 437.012996 417.790826 
L 438.639988 413.985887 
L 440.538144 418.591483 
L 442.707466 421.117772 
L 444.334458 419.408409 
L 448.130772 421.158834 
L 450.300094 420.374311 
L 451.927085 411.301867 
L 453.554077 405.510596 
L 455.452234 402.274841 
L 457.621556 405.833786 
L 459.519713 406.91473 
L 461.417869 407.182802 
L 463.587192 402.525706 
L 465.485348 408.253628 
L 467.383505 411.067095 
L 469.010497 413.812789 
L 471.450984 406.369809 
L 472.535645 411.829581 
L 474.433802 408.96844 
L 476.331959 407.810713 
L 478.230116 414.213903 
L 480.941768 413.282603 
L 482.297595 409.08559 
L 484.195751 413.208306 
L 486.093908 419.058434 
L 487.7209 420.406835 
L 490.161387 422.098072 
L 491.788379 420.640055 
L 493.686535 421.326744 
L 495.855858 421.356104 
L 497.482849 420.808861 
L 499.381006 421.458581 
L 501.007998 423.201965 
L 502.906154 423.37182 
L 507.244799 422.861168 
L 511.041112 424.635086 
L 514.837426 427.245022 
L 516.464417 427.325088 
L 517.820244 427.752822 
L 519.989566 427.753822 
L 522.158888 425.533794 
L 524.057045 425.661174 
L 525.955201 423.703037 
L 527.853358 425.662231 
L 529.751515 425.779525 
L 531.649672 424.846741 
L 533.276664 425.784025 
L 535.717151 425.92321 
L 537.615308 424.273764 
L 539.513465 425.994537 
L 541.140456 424.311776 
L 543.309778 425.531356 
L 544.93677 423.742841 
L 547.106092 420.01662 
L 548.733083 416.102659 
L 550.902405 418.884699 
L 552.529397 417.16772 
L 554.156389 416.069795 
L 556.325711 415.061364 
L 557.952702 409.328046 
L 560.122024 407.704372 
L 562.291346 404.463098 
L 564.460669 412.318019 
L 565.816495 418.22909 
L 567.985817 420.353697 
L 569.612808 416.642308 
L 571.2398 416.580291 
L 573.409122 420.797095 
L 575.307279 422.701666 
L 576.934271 419.584387 
L 578.832427 419.985727 
L 580.730584 422.024151 
L 583.171072 418.699278 
L 584.526898 420.814537 
L 586.425055 420.751738 
L 588.323211 422.173996 
L 592.661856 424.310726 
L 594.288847 422.940185 
L 596.187004 425.393658 
L 597.813996 425.041278 
L 597.813996 425.041278 
" clip-path="url(#p165d03c297)" style="fill: none; stroke: #ff0000; stroke-width: 1.5; stroke-linecap: square"/>
   </g>
   <g id="line2d_35">
    <path d="M 599.169822 420.695758 
L 607.30478 422.259632 
L 615.710903 421.613267 
L 623.845861 417.182556 
L 632.251984 419.499206 
L 640.658107 419.467907 
L 648.793065 420.220563 
L 657.199188 411.208538 
L 665.334146 408.143843 
L 673.740269 413.949243 
L 682.146392 419.672798 
L 689.739019 420.406222 
L 698.145142 420.548023 
L 706.2801 421.519444 
L 714.686223 418.744666 
L 722.821181 416.457604 
L 731.227304 416.038211 
L 739.633427 417.037681 
L 747.768385 413.646066 
L 756.174508 407.578516 
L 764.309466 408.107323 
L 772.715589 416.02249 
L 781.121712 418.792273 
L 788.714339 420.304357 
L 797.120462 418.927827 
L 805.25542 420.464652 
L 813.661543 415.405008 
L 821.796501 413.746736 
L 830.202624 412.252626 
L 838.608747 411.290539 
L 846.743705 410.236318 
L 855.149828 408.646688 
L 863.284786 412.11597 
L 871.690909 416.358895 
" clip-path="url(#p165d03c297)" style="fill: none; stroke: #ffa500; stroke-width: 1.5; stroke-linecap: square"/>
   </g>
   <g id="line2d_36">
    <path d="M 126 417.645767 
L 907.2 417.645767 
" clip-path="url(#p165d03c297)" style="fill: none; stroke-dasharray: 5.55,2.4; stroke-dashoffset: 0; stroke: #008000; stroke-width: 1.5"/>
   </g>
   <g id="line2d_37">
    <path d="M 598.898657 448.56 
L 598.898657 60.48 
" clip-path="url(#p165d03c297)" style="fill: none; stroke-dasharray: 7.4,3.2; stroke-dashoffset: 0; stroke: #800080; stroke-width: 2"/>
   </g>
   <g id="patch_3">
    <path d="M 126 448.56 
L 126 60.48 
" style="fill: none; stroke: #000000; stroke-width: 0.8; stroke-linejoin: miter; stroke-linecap: square"/>
   </g>
   <g id="patch_4">
    <path d="M 907.2 448.56 
L 907.2 60.48 
" style="fill: none; stroke: #000000; stroke-width: 0.8; stroke-linejoin: miter; stroke-linecap: square"/>
   </g>
   <g id="patch_5">
    <path d="M 126 448.56 
L 907.2 448.56 
" style="fill: none; stroke: #000000; stroke-width: 0.8; stroke-linejoin: miter; stroke-linecap: square"/>
   </g>
   <g id="patch_6">
    <path d="M 126 60.48 
L 907.2 60.48 
" style="fill: none; stroke: #000000; stroke-width: 0.8; stroke-linejoin: miter; stroke-linecap: square"/>
   </g>
   <g id="text_19">
    <!-- Predicciones de Clorofila: Históricas y Futuras hasta mediados de 2025 -->
    <g transform="translate(303.5325 54.48) scale(0.12 -0.12)">
     <defs>
      <path id="DejaVuSans-50" d="M 1259 4147 
L 1259 2394 
L 2053 2394 
Q 2494 2394 2734 2622 
Q 2975 2850 2975 3272 
Q 2975 3691 2734 3919 
Q 2494 4147 2053 4147 
L 1259 4147 
z
M 628 4666 
L 2053 4666 
Q 2838 4666 3239 4311 
Q 3641 3956 3641 3272 
Q 3641 2581 3239 2228 
Q 2838 1875 2053 1875 
L 1259 1875 
L 1259 0 
L 628 0 
L 628 4666 
z
" transform="scale(0.015625)"/>
      <path id="DejaVuSans-73" d="M 2834 3397 
L 2834 2853 
Q 2591 2978 2328 3040 
Q 2066 3103 1784 3103 
Q 1356 3103 1142 2972 
Q 928 2841 928 2578 
Q 928 2378 1081 2264 
Q 1234 2150 1697 2047 
L 1894 2003 
Q 2506 1872 2764 1633 
Q 3022 1394 3022 966 
Q 3022 478 2636 193 
Q 2250 -91 1575 -91 
Q 1294 -91 989 -36 
Q 684 19 347 128 
L 347 722 
Q 666 556 975 473 
Q 1284 391 1588 391 
Q 1994 391 2212 530 
Q 2431 669 2431 922 
Q 2431 1156 2273 1281 
Q 2116 1406 1581 1522 
L 1381 1569 
Q 847 1681 609 1914 
Q 372 2147 372 2553 
Q 372 3047 722 3315 
Q 1072 3584 1716 3584 
Q 2034 3584 2315 3537 
Q 2597 3491 2834 3397 
z
" transform="scale(0.015625)"/>
      <path id="DejaVuSans-3a" d="M 750 794 
L 1409 794 
L 1409 0 
L 750 0 
L 750 794 
z
M 750 3309 
L 1409 3309 
L 1409 2516 
L 750 2516 
L 750 3309 
z
" transform="scale(0.015625)"/>
      <path id="DejaVuSans-48" d="M 628 4666 
L 1259 4666 
L 1259 2753 
L 3553 2753 
L 3553 4666 
L 4184 4666 
L 4184 0 
L 3553 0 
L 3553 2222 
L 1259 2222 
L 1259 0 
L 628 0 
L 628 4666 
z
" transform="scale(0.015625)"/>
      <path id="DejaVuSans-79" d="M 2059 -325 
Q 1816 -950 1584 -1140 
Q 1353 -1331 966 -1331 
L 506 -1331 
L 506 -850 
L 844 -850 
Q 1081 -850 1212 -737 
Q 1344 -625 1503 -206 
L 1606 56 
L 191 3500 
L 800 3500 
L 1894 763 
L 2988 3500 
L 3597 3500 
L 2059 -325 
z
" transform="scale(0.015625)"/>
      <path id="DejaVuSans-75" d="M 544 1381 
L 544 3500 
L 1119 3500 
L 1119 1403 
Q 1119 906 1312 657 
Q 1506 409 1894 409 
Q 2359 409 2629 706 
Q 2900 1003 2900 1516 
L 2900 3500 
L 3475 3500 
L 3475 0 
L 2900 0 
L 2900 538 
Q 2691 219 2414 64 
Q 2138 -91 1772 -91 
Q 1169 -91 856 284 
Q 544 659 544 1381 
z
M 1991 3584 
L 1991 3584 
z
" transform="scale(0.015625)"/>
      <path id="DejaVuSans-6d" d="M 3328 2828 
Q 3544 3216 3844 3400 
Q 4144 3584 4550 3584 
Q 5097 3584 5394 3201 
Q 5691 2819 5691 2113 
L 5691 0 
L 5113 0 
L 5113 2094 
Q 5113 2597 4934 2840 
Q 4756 3084 4391 3084 
Q 3944 3084 3684 2787 
Q 3425 2491 3425 1978 
L 3425 0 
L 2847 0 
L 2847 2094 
Q 2847 2600 2669 2842 
Q 2491 3084 2119 3084 
Q 1678 3084 1418 2786 
Q 1159 2488 1159 1978 
L 1159 0 
L 581 0 
L 581 3500 
L 1159 3500 
L 1159 2956 
Q 1356 3278 1631 3431 
Q 1906 3584 2284 3584 
Q 2666 3584 2933 3390 
Q 3200 3197 3328 2828 
z
" transform="scale(0.015625)"/>
     </defs>
     <use xlink:href="#DejaVuSans-50"/>
     <use xlink:href="#DejaVuSans-72" x="58.552734"/>
     <use xlink:href="#DejaVuSans-65" x="97.416016"/>
     <use xlink:href="#DejaVuSans-64" x="158.939453"/>
     <use xlink:href="#DejaVuSans-69" x="222.416016"/>
     <use xlink:href="#DejaVuSans-63" x="250.199219"/>
     <use xlink:href="#DejaVuSans-63" x="305.179688"/>
     <use xlink:href="#DejaVuSans-69" x="360.160156"/>
     <use xlink:href="#DejaVuSans-6f" x="387.943359"/>
     <use xlink:href="#DejaVuSans-6e" x="449.125"/>
     <use xlink:href="#DejaVuSans-65" x="512.503906"/>
     <use xlink:href="#DejaVuSans-73" x="574.027344"/>
     <use xlink:href="#DejaVuSans-20" x="626.126953"/>
     <use xlink:href="#DejaVuSans-64" x="657.914062"/>
     <use xlink:href="#DejaVuSans-65" x="721.390625"/>
     <use xlink:href="#DejaVuSans-20" x="782.914062"/>
     <use xlink:href="#DejaVuSans-43" x="814.701172"/>
     <use xlink:href="#DejaVuSans-6c" x="884.525391"/>
     <use xlink:href="#DejaVuSans-6f" x="912.308594"/>
     <use xlink:href="#DejaVuSans-72" x="973.490234"/>
     <use xlink:href="#DejaVuSans-6f" x="1012.353516"/>
     <use xlink:href="#DejaVuSans-66" x="1073.535156"/>
     <use xlink:href="#DejaVuSans-69" x="1108.740234"/>
     <use xlink:href="#DejaVuSans-6c" x="1136.523438"/>
     <use xlink:href="#DejaVuSans-61" x="1164.306641"/>
     <use xlink:href="#DejaVuSans-3a" x="1225.585938"/>
     <use xlink:href="#DejaVuSans-20" x="1259.277344"/>
     <use xlink:href="#DejaVuSans-48" x="1291.064453"/>
     <use xlink:href="#DejaVuSans-69" x="1366.259766"/>
     <use xlink:href="#DejaVuSans-73" x="1394.042969"/>
     <use xlink:href="#DejaVuSans-74" x="1446.142578"/>
     <use xlink:href="#DejaVuSans-f3" x="1485.351562"/>
     <use xlink:href="#DejaVuSans-72" x="1546.533203"/>
     <use xlink:href="#DejaVuSans-69" x="1587.646484"/>
     <use xlink:href="#DejaVuSans-63" x="1615.429688"/>
     <use xlink:href="#DejaVuSans-61" x="1670.410156"/>
     <use xlink:href="#DejaVuSans-73" x="1731.689453"/>
     <use xlink:href="#DejaVuSans-20" x="1783.789062"/>
     <use xlink:href="#DejaVuSans-79" x="1815.576172"/>
     <use xlink:href="#DejaVuSans-20" x="1874.755859"/>
     <use xlink:href="#DejaVuSans-46" x="1906.542969"/>
     <use xlink:href="#DejaVuSans-75" x="1958.5625"/>
     <use xlink:href="#DejaVuSans-74" x="2021.941406"/>
     <use xlink:href="#DejaVuSans-75" x="2061.150391"/>
     <use xlink:href="#DejaVuSans-72" x="2124.529297"/>
     <use xlink:href="#DejaVuSans-61" x="2165.642578"/>
     <use xlink:href="#DejaVuSans-73" x="2226.921875"/>
     <use xlink:href="#DejaVuSans-20" x="2279.021484"/>
     <use xlink:href="#DejaVuSans-68" x="2310.808594"/>
     <use xlink:href="#DejaVuSans-61" x="2374.1875"/>
     <use xlink:href="#DejaVuSans-73" x="2435.466797"/>
     <use xlink:href="#DejaVuSans-74" x="2487.566406"/>
     <use xlink:href="#DejaVuSans-61" x="2526.775391"/>
     <use xlink:href="#DejaVuSans-20" x="2588.054688"/>
     <use xlink:href="#DejaVuSans-6d" x="2619.841797"/>
     <use xlink:href="#DejaVuSans-65" x="2717.253906"/>
     <use xlink:href="#DejaVuSans-64" x="2778.777344"/>
     <use xlink:href="#DejaVuSans-69" x="2842.253906"/>
     <use xlink:href="#DejaVuSans-61" x="2870.037109"/>
     <use xlink:href="#DejaVuSans-64" x="2931.316406"/>
     <use xlink:href="#DejaVuSans-6f" x="2994.792969"/>
     <use xlink:href="#DejaVuSans-73" x="3055.974609"/>
     <use xlink:href="#DejaVuSans-20" x="3108.074219"/>
     <use xlink:href="#DejaVuSans-64" x="3139.861328"/>
     <use xlink:href="#DejaVuSans-65" x="3203.337891"/>
     <use xlink:href="#DejaVuSans-20" x="3264.861328"/>
     <use xlink:href="#DejaVuSans-32" x="3296.648438"/>
     <use xlink:href="#DejaVuSans-30" x="3360.271484"/>
     <use xlink:href="#DejaVuSans-32" x="3423.894531"/>
     <use xlink:href="#DejaVuSans-35" x="3487.517578"/>
    </g>
   </g>
   <g id="legend_1">
    <g id="patch_7">
     <path d="M 570.2 141.870625 
L 900.2 141.870625 
Q 902.2 141.870625 902.2 139.870625 
L 902.2 67.48 
Q 902.2 65.48 900.2 65.48 
L 570.2 65.48 
Q 568.2 65.48 568.2 67.48 
L 568.2 139.870625 
Q 568.2 141.870625 570.2 141.870625 
z
" style="fill: #ffffff; opacity: 0.8; stroke: #cccccc; stroke-linejoin: miter"/>
    </g>
    <g id="line2d_38">
     <path d="M 572.2 73.578438 
L 582.2 73.578438 
L 592.2 73.578438 
" style="fill: none; stroke: #0000ff; stroke-width: 1.5; stroke-linecap: square"/>
    </g>
    <g id="text_20">
     <!-- Valores Reales de Clorofila -->
     <g transform="translate(600.2 77.078438) scale(0.1 -0.1)">
      <defs>
       <path id="DejaVuSans-56" d="M 1831 0 
L 50 4666 
L 709 4666 
L 2188 738 
L 3669 4666 
L 4325 4666 
L 2547 0 
L 1831 0 
z
" transform="scale(0.015625)"/>
       <path id="DejaVuSans-52" d="M 2841 2188 
Q 3044 2119 3236 1894 
Q 3428 1669 3622 1275 
L 4263 0 
L 3584 0 
L 2988 1197 
Q 2756 1666 2539 1819 
Q 2322 1972 1947 1972 
L 1259 1972 
L 1259 0 
L 628 0 
L 628 4666 
L 2053 4666 
Q 2853 4666 3247 4331 
Q 3641 3997 3641 3322 
Q 3641 2881 3436 2590 
Q 3231 2300 2841 2188 
z
M 1259 4147 
L 1259 2491 
L 2053 2491 
Q 2509 2491 2742 2702 
Q 2975 2913 2975 3322 
Q 2975 3731 2742 3939 
Q 2509 4147 2053 4147 
L 1259 4147 
z
" transform="scale(0.015625)"/>
      </defs>
      <use xlink:href="#DejaVuSans-56"/>
      <use xlink:href="#DejaVuSans-61" x="60.658203"/>
      <use xlink:href="#DejaVuSans-6c" x="121.9375"/>
      <use xlink:href="#DejaVuSans-6f" x="149.720703"/>
      <use xlink:href="#DejaVuSans-72" x="210.902344"/>
      <use xlink:href="#DejaVuSans-65" x="249.765625"/>
      <use xlink:href="#DejaVuSans-73" x="311.289062"/>
      <use xlink:href="#DejaVuSans-20" x="363.388672"/>
      <use xlink:href="#DejaVuSans-52" x="395.175781"/>
      <use xlink:href="#DejaVuSans-65" x="460.158203"/>
      <use xlink:href="#DejaVuSans-61" x="521.681641"/>
      <use xlink:href="#DejaVuSans-6c" x="582.960938"/>
      <use xlink:href="#DejaVuSans-65" x="610.744141"/>
      <use xlink:href="#DejaVuSans-73" x="672.267578"/>
      <use xlink:href="#DejaVuSans-20" x="724.367188"/>
      <use xlink:href="#DejaVuSans-64" x="756.154297"/>
      <use xlink:href="#DejaVuSans-65" x="819.630859"/>
      <use xlink:href="#DejaVuSans-20" x="881.154297"/>
      <use xlink:href="#DejaVuSans-43" x="912.941406"/>
      <use xlink:href="#DejaVuSans-6c" x="982.765625"/>
      <use xlink:href="#DejaVuSans-6f" x="1010.548828"/>
      <use xlink:href="#DejaVuSans-72" x="1071.730469"/>
      <use xlink:href="#DejaVuSans-6f" x="1110.59375"/>
      <use xlink:href="#DejaVuSans-66" x="1171.775391"/>
      <use xlink:href="#DejaVuSans-69" x="1206.980469"/>
      <use xlink:href="#DejaVuSans-6c" x="1234.763672"/>
      <use xlink:href="#DejaVuSans-61" x="1262.546875"/>
     </g>
    </g>
    <g id="line2d_39">
     <path d="M 572.2 88.256563 
L 582.2 88.256563 
L 592.2 88.256563 
" style="fill: none; stroke: #ff0000; stroke-width: 1.5; stroke-linecap: square"/>
    </g>
    <g id="text_21">
     <!-- Predicciones del Modelo (historicas) -->
     <g transform="translate(600.2 91.756563) scale(0.1 -0.1)">
      <defs>
       <path id="DejaVuSans-4d" d="M 628 4666 
L 1569 4666 
L 2759 1491 
L 3956 4666 
L 4897 4666 
L 4897 0 
L 4281 0 
L 4281 4097 
L 3078 897 
L 2444 897 
L 1241 4097 
L 1241 0 
L 628 0 
L 628 4666 
z
" transform="scale(0.015625)"/>
       <path id="DejaVuSans-28" d="M 1984 4856 
Q 1566 4138 1362 3434 
Q 1159 2731 1159 2009 
Q 1159 1288 1364 580 
Q 1569 -128 1984 -844 
L 1484 -844 
Q 1016 -109 783 600 
Q 550 1309 550 2009 
Q 550 2706 781 3412 
Q 1013 4119 1484 4856 
L 1984 4856 
z
" transform="scale(0.015625)"/>
       <path id="DejaVuSans-29" d="M 513 4856 
L 1013 4856 
Q 1481 4119 1714 3412 
Q 1947 2706 1947 2009 
Q 1947 1309 1714 600 
Q 1481 -109 1013 -844 
L 513 -844 
Q 928 -128 1133 580 
Q 1338 1288 1338 2009 
Q 1338 2731 1133 3434 
Q 928 4138 513 4856 
z
" transform="scale(0.015625)"/>
      </defs>
      <use xlink:href="#DejaVuSans-50"/>
      <use xlink:href="#DejaVuSans-72" x="58.552734"/>
      <use xlink:href="#DejaVuSans-65" x="97.416016"/>
      <use xlink:href="#DejaVuSans-64" x="158.939453"/>
      <use xlink:href="#DejaVuSans-69" x="222.416016"/>
      <use xlink:href="#DejaVuSans-63" x="250.199219"/>
      <use xlink:href="#DejaVuSans-63" x="305.179688"/>
      <use xlink:href="#DejaVuSans-69" x="360.160156"/>
      <use xlink:href="#DejaVuSans-6f" x="387.943359"/>
      <use xlink:href="#DejaVuSans-6e" x="449.125"/>
      <use xlink:href="#DejaVuSans-65" x="512.503906"/>
      <use xlink:href="#DejaVuSans-73" x="574.027344"/>
      <use xlink:href="#DejaVuSans-20" x="626.126953"/>
      <use xlink:href="#DejaVuSans-64" x="657.914062"/>
      <use xlink:href="#DejaVuSans-65" x="721.390625"/>
      <use xlink:href="#DejaVuSans-6c" x="782.914062"/>
      <use xlink:href="#DejaVuSans-20" x="810.697266"/>
      <use xlink:href="#DejaVuSans-4d" x="842.484375"/>
      <use xlink:href="#DejaVuSans-6f" x="928.763672"/>
      <use xlink:href="#DejaVuSans-64" x="989.945312"/>
      <use xlink:href="#DejaVuSans-65" x="1053.421875"/>
      <use xlink:href="#DejaVuSans-6c" x="1114.945312"/>
      <use xlink:href="#DejaVuSans-6f" x="1142.728516"/>
      <use xlink:href="#DejaVuSans-20" x="1203.910156"/>
      <use xlink:href="#DejaVuSans-28" x="1235.697266"/>
      <use xlink:href="#DejaVuSans-68" x="1274.710938"/>
      <use xlink:href="#DejaVuSans-69" x="1338.089844"/>
      <use xlink:href="#DejaVuSans-73" x="1365.873047"/>
      <use xlink:href="#DejaVuSans-74" x="1417.972656"/>
      <use xlink:href="#DejaVuSans-6f" x="1457.181641"/>
      <use xlink:href="#DejaVuSans-72" x="1518.363281"/>
      <use xlink:href="#DejaVuSans-69" x="1559.476562"/>
      <use xlink:href="#DejaVuSans-63" x="1587.259766"/>
      <use xlink:href="#DejaVuSans-61" x="1642.240234"/>
      <use xlink:href="#DejaVuSans-73" x="1703.519531"/>
      <use xlink:href="#DejaVuSans-29" x="1755.619141"/>
     </g>
    </g>
    <g id="line2d_40">
     <path d="M 572.2 102.934687 
L 582.2 102.934687 
L 592.2 102.934687 
" style="fill: none; stroke: #ffa500; stroke-width: 1.5; stroke-linecap: square"/>
    </g>
    <g id="text_22">
     <!-- Predicciones Futuras de Clorofila (hasta mediados de 2025) -->
     <g transform="translate(600.2 106.434687) scale(0.1 -0.1)">
      <use xlink:href="#DejaVuSans-50"/>
      <use xlink:href="#DejaVuSans-72" x="58.552734"/>
      <use xlink:href="#DejaVuSans-65" x="97.416016"/>
      <use xlink:href="#DejaVuSans-64" x="158.939453"/>
      <use xlink:href="#DejaVuSans-69" x="222.416016"/>
      <use xlink:href="#DejaVuSans-63" x="250.199219"/>
      <use xlink:href="#DejaVuSans-63" x="305.179688"/>
      <use xlink:href="#DejaVuSans-69" x="360.160156"/>
      <use xlink:href="#DejaVuSans-6f" x="387.943359"/>
      <use xlink:href="#DejaVuSans-6e" x="449.125"/>
      <use xlink:href="#DejaVuSans-65" x="512.503906"/>
      <use xlink:href="#DejaVuSans-73" x="574.027344"/>
      <use xlink:href="#DejaVuSans-20" x="626.126953"/>
      <use xlink:href="#DejaVuSans-46" x="657.914062"/>
      <use xlink:href="#DejaVuSans-75" x="709.933594"/>
      <use xlink:href="#DejaVuSans-74" x="773.3125"/>
      <use xlink:href="#DejaVuSans-75" x="812.521484"/>
      <use xlink:href="#DejaVuSans-72" x="875.900391"/>
      <use xlink:href="#DejaVuSans-61" x="917.013672"/>
      <use xlink:href="#DejaVuSans-73" x="978.292969"/>
      <use xlink:href="#DejaVuSans-20" x="1030.392578"/>
      <use xlink:href="#DejaVuSans-64" x="1062.179688"/>
      <use xlink:href="#DejaVuSans-65" x="1125.65625"/>
      <use xlink:href="#DejaVuSans-20" x="1187.179688"/>
      <use xlink:href="#DejaVuSans-43" x="1218.966797"/>
      <use xlink:href="#DejaVuSans-6c" x="1288.791016"/>
      <use xlink:href="#DejaVuSans-6f" x="1316.574219"/>
      <use xlink:href="#DejaVuSans-72" x="1377.755859"/>
      <use xlink:href="#DejaVuSans-6f" x="1416.619141"/>
      <use xlink:href="#DejaVuSans-66" x="1477.800781"/>
      <use xlink:href="#DejaVuSans-69" x="1513.005859"/>
      <use xlink:href="#DejaVuSans-6c" x="1540.789062"/>
      <use xlink:href="#DejaVuSans-61" x="1568.572266"/>
      <use xlink:href="#DejaVuSans-20" x="1629.851562"/>
      <use xlink:href="#DejaVuSans-28" x="1661.638672"/>
      <use xlink:href="#DejaVuSans-68" x="1700.652344"/>
      <use xlink:href="#DejaVuSans-61" x="1764.03125"/>
      <use xlink:href="#DejaVuSans-73" x="1825.310547"/>
      <use xlink:href="#DejaVuSans-74" x="1877.410156"/>
      <use xlink:href="#DejaVuSans-61" x="1916.619141"/>
      <use xlink:href="#DejaVuSans-20" x="1977.898438"/>
      <use xlink:href="#DejaVuSans-6d" x="2009.685547"/>
      <use xlink:href="#DejaVuSans-65" x="2107.097656"/>
      <use xlink:href="#DejaVuSans-64" x="2168.621094"/>
      <use xlink:href="#DejaVuSans-69" x="2232.097656"/>
      <use xlink:href="#DejaVuSans-61" x="2259.880859"/>
      <use xlink:href="#DejaVuSans-64" x="2321.160156"/>
      <use xlink:href="#DejaVuSans-6f" x="2384.636719"/>
      <use xlink:href="#DejaVuSans-73" x="2445.818359"/>
      <use xlink:href="#DejaVuSans-20" x="2497.917969"/>
      <use xlink:href="#DejaVuSans-64" x="2529.705078"/>
      <use xlink:href="#DejaVuSans-65" x="2593.181641"/>
      <use xlink:href="#DejaVuSans-20" x="2654.705078"/>
      <use xlink:href="#DejaVuSans-32" x="2686.492188"/>
      <use xlink:href="#DejaVuSans-30" x="2750.115234"/>
      <use xlink:href="#DejaVuSans-32" x="2813.738281"/>
      <use xlink:href="#DejaVuSans-35" x="2877.361328"/>
      <use xlink:href="#DejaVuSans-29" x="2940.984375"/>
     </g>
    </g>
    <g id="line2d_41">
     <path d="M 572.2 117.612813 
L 582.2 117.612813 
L 592.2 117.612813 
" style="fill: none; stroke-dasharray: 5.55,2.4; stroke-dashoffset: 0; stroke: #008000; stroke-width: 1.5"/>
    </g>
    <g id="text_23">
     <!-- Umbral de Clorofila = 0.9 -->
     <g transform="translate(600.2 121.112813) scale(0.1 -0.1)">
      <defs>
       <path id="DejaVuSans-55" d="M 556 4666 
L 1191 4666 
L 1191 1831 
Q 1191 1081 1462 751 
Q 1734 422 2344 422 
Q 2950 422 3222 751 
Q 3494 1081 3494 1831 
L 3494 4666 
L 4128 4666 
L 4128 1753 
Q 4128 841 3676 375 
Q 3225 -91 2344 -91 
Q 1459 -91 1007 375 
Q 556 841 556 1753 
L 556 4666 
z
" transform="scale(0.015625)"/>
       <path id="DejaVuSans-62" d="M 3116 1747 
Q 3116 2381 2855 2742 
Q 2594 3103 2138 3103 
Q 1681 3103 1420 2742 
Q 1159 2381 1159 1747 
Q 1159 1113 1420 752 
Q 1681 391 2138 391 
Q 2594 391 2855 752 
Q 3116 1113 3116 1747 
z
M 1159 2969 
Q 1341 3281 1617 3432 
Q 1894 3584 2278 3584 
Q 2916 3584 3314 3078 
Q 3713 2572 3713 1747 
Q 3713 922 3314 415 
Q 2916 -91 2278 -91 
Q 1894 -91 1617 61 
Q 1341 213 1159 525 
L 1159 0 
L 581 0 
L 581 4863 
L 1159 4863 
L 1159 2969 
z
" transform="scale(0.015625)"/>
       <path id="DejaVuSans-3d" d="M 678 2906 
L 4684 2906 
L 4684 2381 
L 678 2381 
L 678 2906 
z
M 678 1631 
L 4684 1631 
L 4684 1100 
L 678 1100 
L 678 1631 
z
" transform="scale(0.015625)"/>
       <path id="DejaVuSans-39" d="M 703 97 
L 703 672 
Q 941 559 1184 500 
Q 1428 441 1663 441 
Q 2288 441 2617 861 
Q 2947 1281 2994 2138 
Q 2813 1869 2534 1725 
Q 2256 1581 1919 1581 
Q 1219 1581 811 2004 
Q 403 2428 403 3163 
Q 403 3881 828 4315 
Q 1253 4750 1959 4750 
Q 2769 4750 3195 4129 
Q 3622 3509 3622 2328 
Q 3622 1225 3098 567 
Q 2575 -91 1691 -91 
Q 1453 -91 1209 -44 
Q 966 3 703 97 
z
M 1959 2075 
Q 2384 2075 2632 2365 
Q 2881 2656 2881 3163 
Q 2881 3666 2632 3958 
Q 2384 4250 1959 4250 
Q 1534 4250 1286 3958 
Q 1038 3666 1038 3163 
Q 1038 2656 1286 2365 
Q 1534 2075 1959 2075 
z
" transform="scale(0.015625)"/>
      </defs>
      <use xlink:href="#DejaVuSans-55"/>
      <use xlink:href="#DejaVuSans-6d" x="73.193359"/>
      <use xlink:href="#DejaVuSans-62" x="170.605469"/>
      <use xlink:href="#DejaVuSans-72" x="234.082031"/>
      <use xlink:href="#DejaVuSans-61" x="275.195312"/>
      <use xlink:href="#DejaVuSans-6c" x="336.474609"/>
      <use xlink:href="#DejaVuSans-20" x="364.257812"/>
      <use xlink:href="#DejaVuSans-64" x="396.044922"/>
      <use xlink:href="#DejaVuSans-65" x="459.521484"/>
      <use xlink:href="#DejaVuSans-20" x="521.044922"/>
      <use xlink:href="#DejaVuSans-43" x="552.832031"/>
      <use xlink:href="#DejaVuSans-6c" x="622.65625"/>
      <use xlink:href="#DejaVuSans-6f" x="650.439453"/>
      <use xlink:href="#DejaVuSans-72" x="711.621094"/>
      <use xlink:href="#DejaVuSans-6f" x="750.484375"/>
      <use xlink:href="#DejaVuSans-66" x="811.666016"/>
      <use xlink:href="#DejaVuSans-69" x="846.871094"/>
      <use xlink:href="#DejaVuSans-6c" x="874.654297"/>
      <use xlink:href="#DejaVuSans-61" x="902.4375"/>
      <use xlink:href="#DejaVuSans-20" x="963.716797"/>
      <use xlink:href="#DejaVuSans-3d" x="995.503906"/>
      <use xlink:href="#DejaVuSans-20" x="1079.292969"/>
      <use xlink:href="#DejaVuSans-30" x="1111.080078"/>
      <use xlink:href="#DejaVuSans-2e" x="1174.703125"/>
      <use xlink:href="#DejaVuSans-39" x="1206.490234"/>
     </g>
    </g>
    <g id="line2d_42">
     <path d="M 572.2 132.290938 
L 582.2 132.290938 
L 592.2 132.290938 
" style="fill: none; stroke-dasharray: 7.4,3.2; stroke-dashoffset: 0; stroke: #800080; stroke-width: 2"/>
    </g>
    <g id="text_24">
     <!-- Inicio Predicciones -->
     <g transform="translate(600.2 135.790938) scale(0.1 -0.1)">
      <defs>
       <path id="DejaVuSans-49" d="M 628 4666 
L 1259 4666 
L 1259 0 
L 628 0 
L 628 4666 
z
" transform="scale(0.015625)"/>
      </defs>
      <use xlink:href="#DejaVuSans-49"/>
      <use xlink:href="#DejaVuSans-6e" x="29.492188"/>
      <use xlink:href="#DejaVuSans-69" x="92.871094"/>
      <use xlink:href="#DejaVuSans-63" x="120.654297"/>
      <use xlink:href="#DejaVuSans-69" x="175.634766"/>
      <use xlink:href="#DejaVuSans-6f" x="203.417969"/>
      <use xlink:href="#DejaVuSans-20" x="264.599609"/>
      <use xlink:href="#DejaVuSans-50" x="296.386719"/>
      <use xlink:href="#DejaVuSans-72" x="354.939453"/>
      <use xlink:href="#DejaVuSans-65" x="393.802734"/>
      <use xlink:href="#DejaVuSans-64" x="455.326172"/>
      <use xlink:href="#DejaVuSans-69" x="518.802734"/>
      <use xlink:href="#DejaVuSans-63" x="546.585938"/>
      <use xlink:href="#DejaVuSans-63" x="601.566406"/>
      <use xlink:href="#DejaVuSans-69" x="656.546875"/>
      <use xlink:href="#DejaVuSans-6f" x="684.330078"/>
      <use xlink:href="#DejaVuSans-6e" x="745.511719"/>
      <use xlink:href="#DejaVuSans-65" x="808.890625"/>
      <use xlink:href="#DejaVuSans-73" x="870.414062"/>
     </g>
    </g>
   </g>
  </g>
 </g>
 <defs>
  <clipPath id="p165d03c297">
   <rect x="126" y="60.48" width="781.2" height="388.08"/>
  </clipPath>
 </defs>
</svg>
