<?xml version="1.0" encoding="utf-8" standalone="no"?>
<!DOCTYPE svg PUBLIC "-//W3C//DTD SVG 1.1//EN"
  "http://www.w3.org/Graphics/SVG/1.1/DTD/svg11.dtd">
<svg xmlns:xlink="http://www.w3.org/1999/xlink" width="1008pt" height="504pt" viewBox="0 0 1008 504" xmlns="http://www.w3.org/2000/svg" version="1.1">
 <metadata>
  <rdf:RDF xmlns:dc="http://purl.org/dc/elements/1.1/" xmlns:cc="http://creativecommons.org/ns#" xmlns:rdf="http://www.w3.org/1999/02/22-rdf-syntax-ns#">
   <cc:Work>
    <dc:type rdf:resource="http://purl.org/dc/dcmitype/StillImage"/>
    <dc:date>2024-11-16T14:20:30.517957</dc:date>
    <dc:format>image/svg+xml</dc:format>
    <dc:creator>
     <cc:Agent>
      <dc:title>Matplotlib v3.8.4, https://matplotlib.org/</dc:title>
     </cc:Agent>
    </dc:creator>
   </cc:Work>
  </rdf:RDF>
 </metadata>
 <defs>
  <style type="text/css">*{stroke-linejoin: round; stroke-linecap: butt}</style>
 </defs>
 <g id="figure_1">
  <g id="patch_1">
   <path d="M 0 504 
L 1008 504 
L 1008 0 
L 0 0 
z
" style="fill: #ffffff"/>
  </g>
  <g id="axes_1">
   <g id="patch_2">
    <path d="M 126 448.56 
L 907.2 448.56 
L 907.2 60.48 
L 126 60.48 
z
" style="fill: #ffffff"/>
   </g>
   <g id="matplotlib.axis_1">
    <g id="xtick_1">
     <g id="line2d_1">
      <path d="M 178.592502 448.56 
L 178.592502 60.48 
" clip-path="url(#p81fe445648)" style="fill: none; stroke: #b0b0b0; stroke-width: 0.8; stroke-linecap: square"/>
     </g>
     <g id="line2d_2">
      <defs>
       <path id="m212bd3108a" d="M 0 0 
L 0 3.5 
" style="stroke: #000000; stroke-width: 0.8"/>
      </defs>
      <g>
       <use xlink:href="#m212bd3108a" x="178.592502" y="448.56" style="stroke: #000000; stroke-width: 0.8"/>
      </g>
     </g>
     <g id="text_1">
      <!-- 2020 -->
      <g transform="translate(165.867502 463.158437) scale(0.1 -0.1)">
       <defs>
        <path id="DejaVuSans-32" d="M 1228 531 
L 3431 531 
L 3431 0 
L 469 0 
L 469 531 
Q 828 903 1448 1529 
Q 2069 2156 2228 2338 
Q 2531 2678 2651 2914 
Q 2772 3150 2772 3378 
Q 2772 3750 2511 3984 
Q 2250 4219 1831 4219 
Q 1534 4219 1204 4116 
Q 875 4013 500 3803 
L 500 4441 
Q 881 4594 1212 4672 
Q 1544 4750 1819 4750 
Q 2544 4750 2975 4387 
Q 3406 4025 3406 3419 
Q 3406 3131 3298 2873 
Q 3191 2616 2906 2266 
Q 2828 2175 2409 1742 
Q 1991 1309 1228 531 
z
" transform="scale(0.015625)"/>
        <path id="DejaVuSans-30" d="M 2034 4250 
Q 1547 4250 1301 3770 
Q 1056 3291 1056 2328 
Q 1056 1369 1301 889 
Q 1547 409 2034 409 
Q 2525 409 2770 889 
Q 3016 1369 3016 2328 
Q 3016 3291 2770 3770 
Q 2525 4250 2034 4250 
z
M 2034 4750 
Q 2819 4750 3233 4129 
Q 3647 3509 3647 2328 
Q 3647 1150 3233 529 
Q 2819 -91 2034 -91 
Q 1250 -91 836 529 
Q 422 1150 422 2328 
Q 422 3509 836 4129 
Q 1250 4750 2034 4750 
z
" transform="scale(0.015625)"/>
       </defs>
       <use xlink:href="#DejaVuSans-32"/>
       <use xlink:href="#DejaVuSans-30" x="63.623047"/>
       <use xlink:href="#DejaVuSans-32" x="127.246094"/>
       <use xlink:href="#DejaVuSans-30" x="190.869141"/>
      </g>
     </g>
    </g>
    <g id="xtick_2">
     <g id="line2d_3">
      <path d="M 277.838988 448.56 
L 277.838988 60.48 
" clip-path="url(#p81fe445648)" style="fill: none; stroke: #b0b0b0; stroke-width: 0.8; stroke-linecap: square"/>
     </g>
     <g id="line2d_4">
      <g>
       <use xlink:href="#m212bd3108a" x="277.838988" y="448.56" style="stroke: #000000; stroke-width: 0.8"/>
      </g>
     </g>
     <g id="text_2">
      <!-- 2021 -->
      <g transform="translate(265.113988 463.158437) scale(0.1 -0.1)">
       <defs>
        <path id="DejaVuSans-31" d="M 794 531 
L 1825 531 
L 1825 4091 
L 703 3866 
L 703 4441 
L 1819 4666 
L 2450 4666 
L 2450 531 
L 3481 531 
L 3481 0 
L 794 0 
L 794 531 
z
" transform="scale(0.015625)"/>
       </defs>
       <use xlink:href="#DejaVuSans-32"/>
       <use xlink:href="#DejaVuSans-30" x="63.623047"/>
       <use xlink:href="#DejaVuSans-32" x="127.246094"/>
       <use xlink:href="#DejaVuSans-31" x="190.869141"/>
      </g>
     </g>
    </g>
    <g id="xtick_3">
     <g id="line2d_5">
      <path d="M 376.814308 448.56 
L 376.814308 60.48 
" clip-path="url(#p81fe445648)" style="fill: none; stroke: #b0b0b0; stroke-width: 0.8; stroke-linecap: square"/>
     </g>
     <g id="line2d_6">
      <g>
       <use xlink:href="#m212bd3108a" x="376.814308" y="448.56" style="stroke: #000000; stroke-width: 0.8"/>
      </g>
     </g>
     <g id="text_3">
      <!-- 2022 -->
      <g transform="translate(364.089308 463.158437) scale(0.1 -0.1)">
       <use xlink:href="#DejaVuSans-32"/>
       <use xlink:href="#DejaVuSans-30" x="63.623047"/>
       <use xlink:href="#DejaVuSans-32" x="127.246094"/>
       <use xlink:href="#DejaVuSans-32" x="190.869141"/>
      </g>
     </g>
    </g>
    <g id="xtick_4">
     <g id="line2d_7">
      <path d="M 475.789628 448.56 
L 475.789628 60.48 
" clip-path="url(#p81fe445648)" style="fill: none; stroke: #b0b0b0; stroke-width: 0.8; stroke-linecap: square"/>
     </g>
     <g id="line2d_8">
      <g>
       <use xlink:href="#m212bd3108a" x="475.789628" y="448.56" style="stroke: #000000; stroke-width: 0.8"/>
      </g>
     </g>
     <g id="text_4">
      <!-- 2023 -->
      <g transform="translate(463.064628 463.158437) scale(0.1 -0.1)">
       <defs>
        <path id="DejaVuSans-33" d="M 2597 2516 
Q 3050 2419 3304 2112 
Q 3559 1806 3559 1356 
Q 3559 666 3084 287 
Q 2609 -91 1734 -91 
Q 1441 -91 1130 -33 
Q 819 25 488 141 
L 488 750 
Q 750 597 1062 519 
Q 1375 441 1716 441 
Q 2309 441 2620 675 
Q 2931 909 2931 1356 
Q 2931 1769 2642 2001 
Q 2353 2234 1838 2234 
L 1294 2234 
L 1294 2753 
L 1863 2753 
Q 2328 2753 2575 2939 
Q 2822 3125 2822 3475 
Q 2822 3834 2567 4026 
Q 2313 4219 1838 4219 
Q 1578 4219 1281 4162 
Q 984 4106 628 3988 
L 628 4550 
Q 988 4650 1302 4700 
Q 1616 4750 1894 4750 
Q 2613 4750 3031 4423 
Q 3450 4097 3450 3541 
Q 3450 3153 3228 2886 
Q 3006 2619 2597 2516 
z
" transform="scale(0.015625)"/>
       </defs>
       <use xlink:href="#DejaVuSans-32"/>
       <use xlink:href="#DejaVuSans-30" x="63.623047"/>
       <use xlink:href="#DejaVuSans-32" x="127.246094"/>
       <use xlink:href="#DejaVuSans-33" x="190.869141"/>
      </g>
     </g>
    </g>
    <g id="xtick_5">
     <g id="line2d_9">
      <path d="M 574.764948 448.56 
L 574.764948 60.48 
" clip-path="url(#p81fe445648)" style="fill: none; stroke: #b0b0b0; stroke-width: 0.8; stroke-linecap: square"/>
     </g>
     <g id="line2d_10">
      <g>
       <use xlink:href="#m212bd3108a" x="574.764948" y="448.56" style="stroke: #000000; stroke-width: 0.8"/>
      </g>
     </g>
     <g id="text_5">
      <!-- 2024 -->
      <g transform="translate(562.039948 463.158437) scale(0.1 -0.1)">
       <defs>
        <path id="DejaVuSans-34" d="M 2419 4116 
L 825 1625 
L 2419 1625 
L 2419 4116 
z
M 2253 4666 
L 3047 4666 
L 3047 1625 
L 3713 1625 
L 3713 1100 
L 3047 1100 
L 3047 0 
L 2419 0 
L 2419 1100 
L 313 1100 
L 313 1709 
L 2253 4666 
z
" transform="scale(0.015625)"/>
       </defs>
       <use xlink:href="#DejaVuSans-32"/>
       <use xlink:href="#DejaVuSans-30" x="63.623047"/>
       <use xlink:href="#DejaVuSans-32" x="127.246094"/>
       <use xlink:href="#DejaVuSans-34" x="190.869141"/>
      </g>
     </g>
    </g>
    <g id="xtick_6">
     <g id="line2d_11">
      <path d="M 674.011434 448.56 
L 674.011434 60.48 
" clip-path="url(#p81fe445648)" style="fill: none; stroke: #b0b0b0; stroke-width: 0.8; stroke-linecap: square"/>
     </g>
     <g id="line2d_12">
      <g>
       <use xlink:href="#m212bd3108a" x="674.011434" y="448.56" style="stroke: #000000; stroke-width: 0.8"/>
      </g>
     </g>
     <g id="text_6">
      <!-- 2025 -->
      <g transform="translate(661.286434 463.158437) scale(0.1 -0.1)">
       <defs>
        <path id="DejaVuSans-35" d="M 691 4666 
L 3169 4666 
L 3169 4134 
L 1269 4134 
L 1269 2991 
Q 1406 3038 1543 3061 
Q 1681 3084 1819 3084 
Q 2600 3084 3056 2656 
Q 3513 2228 3513 1497 
Q 3513 744 3044 326 
Q 2575 -91 1722 -91 
Q 1428 -91 1123 -41 
Q 819 9 494 109 
L 494 744 
Q 775 591 1075 516 
Q 1375 441 1709 441 
Q 2250 441 2565 725 
Q 2881 1009 2881 1497 
Q 2881 1984 2565 2268 
Q 2250 2553 1709 2553 
Q 1456 2553 1204 2497 
Q 953 2441 691 2322 
L 691 4666 
z
" transform="scale(0.015625)"/>
       </defs>
       <use xlink:href="#DejaVuSans-32"/>
       <use xlink:href="#DejaVuSans-30" x="63.623047"/>
       <use xlink:href="#DejaVuSans-32" x="127.246094"/>
       <use xlink:href="#DejaVuSans-35" x="190.869141"/>
      </g>
     </g>
    </g>
    <g id="xtick_7">
     <g id="line2d_13">
      <path d="M 772.986754 448.56 
L 772.986754 60.48 
" clip-path="url(#p81fe445648)" style="fill: none; stroke: #b0b0b0; stroke-width: 0.8; stroke-linecap: square"/>
     </g>
     <g id="line2d_14">
      <g>
       <use xlink:href="#m212bd3108a" x="772.986754" y="448.56" style="stroke: #000000; stroke-width: 0.8"/>
      </g>
     </g>
     <g id="text_7">
      <!-- 2026 -->
      <g transform="translate(760.261754 463.158437) scale(0.1 -0.1)">
       <defs>
        <path id="DejaVuSans-36" d="M 2113 2584 
Q 1688 2584 1439 2293 
Q 1191 2003 1191 1497 
Q 1191 994 1439 701 
Q 1688 409 2113 409 
Q 2538 409 2786 701 
Q 3034 994 3034 1497 
Q 3034 2003 2786 2293 
Q 2538 2584 2113 2584 
z
M 3366 4563 
L 3366 3988 
Q 3128 4100 2886 4159 
Q 2644 4219 2406 4219 
Q 1781 4219 1451 3797 
Q 1122 3375 1075 2522 
Q 1259 2794 1537 2939 
Q 1816 3084 2150 3084 
Q 2853 3084 3261 2657 
Q 3669 2231 3669 1497 
Q 3669 778 3244 343 
Q 2819 -91 2113 -91 
Q 1303 -91 875 529 
Q 447 1150 447 2328 
Q 447 3434 972 4092 
Q 1497 4750 2381 4750 
Q 2619 4750 2861 4703 
Q 3103 4656 3366 4563 
z
" transform="scale(0.015625)"/>
       </defs>
       <use xlink:href="#DejaVuSans-32"/>
       <use xlink:href="#DejaVuSans-30" x="63.623047"/>
       <use xlink:href="#DejaVuSans-32" x="127.246094"/>
       <use xlink:href="#DejaVuSans-36" x="190.869141"/>
      </g>
     </g>
    </g>
    <g id="xtick_8">
     <g id="line2d_15">
      <path d="M 871.962074 448.56 
L 871.962074 60.48 
" clip-path="url(#p81fe445648)" style="fill: none; stroke: #b0b0b0; stroke-width: 0.8; stroke-linecap: square"/>
     </g>
     <g id="line2d_16">
      <g>
       <use xlink:href="#m212bd3108a" x="871.962074" y="448.56" style="stroke: #000000; stroke-width: 0.8"/>
      </g>
     </g>
     <g id="text_8">
      <!-- 2027 -->
      <g transform="translate(859.237074 463.158437) scale(0.1 -0.1)">
       <defs>
        <path id="DejaVuSans-37" d="M 525 4666 
L 3525 4666 
L 3525 4397 
L 1831 0 
L 1172 0 
L 2766 4134 
L 525 4134 
L 525 4666 
z
" transform="scale(0.015625)"/>
       </defs>
       <use xlink:href="#DejaVuSans-32"/>
       <use xlink:href="#DejaVuSans-30" x="63.623047"/>
       <use xlink:href="#DejaVuSans-32" x="127.246094"/>
       <use xlink:href="#DejaVuSans-37" x="190.869141"/>
      </g>
     </g>
    </g>
    <g id="text_9">
     <!-- Fecha -->
     <g transform="translate(501.940625 476.836563) scale(0.1 -0.1)">
      <defs>
       <path id="DejaVuSans-46" d="M 628 4666 
L 3309 4666 
L 3309 4134 
L 1259 4134 
L 1259 2759 
L 3109 2759 
L 3109 2228 
L 1259 2228 
L 1259 0 
L 628 0 
L 628 4666 
z
" transform="scale(0.015625)"/>
       <path id="DejaVuSans-65" d="M 3597 1894 
L 3597 1613 
L 953 1613 
Q 991 1019 1311 708 
Q 1631 397 2203 397 
Q 2534 397 2845 478 
Q 3156 559 3463 722 
L 3463 178 
Q 3153 47 2828 -22 
Q 2503 -91 2169 -91 
Q 1331 -91 842 396 
Q 353 884 353 1716 
Q 353 2575 817 3079 
Q 1281 3584 2069 3584 
Q 2775 3584 3186 3129 
Q 3597 2675 3597 1894 
z
M 3022 2063 
Q 3016 2534 2758 2815 
Q 2500 3097 2075 3097 
Q 1594 3097 1305 2825 
Q 1016 2553 972 2059 
L 3022 2063 
z
" transform="scale(0.015625)"/>
       <path id="DejaVuSans-63" d="M 3122 3366 
L 3122 2828 
Q 2878 2963 2633 3030 
Q 2388 3097 2138 3097 
Q 1578 3097 1268 2742 
Q 959 2388 959 1747 
Q 959 1106 1268 751 
Q 1578 397 2138 397 
Q 2388 397 2633 464 
Q 2878 531 3122 666 
L 3122 134 
Q 2881 22 2623 -34 
Q 2366 -91 2075 -91 
Q 1284 -91 818 406 
Q 353 903 353 1747 
Q 353 2603 823 3093 
Q 1294 3584 2113 3584 
Q 2378 3584 2631 3529 
Q 2884 3475 3122 3366 
z
" transform="scale(0.015625)"/>
       <path id="DejaVuSans-68" d="M 3513 2113 
L 3513 0 
L 2938 0 
L 2938 2094 
Q 2938 2591 2744 2837 
Q 2550 3084 2163 3084 
Q 1697 3084 1428 2787 
Q 1159 2491 1159 1978 
L 1159 0 
L 581 0 
L 581 4863 
L 1159 4863 
L 1159 2956 
Q 1366 3272 1645 3428 
Q 1925 3584 2291 3584 
Q 2894 3584 3203 3211 
Q 3513 2838 3513 2113 
z
" transform="scale(0.015625)"/>
       <path id="DejaVuSans-61" d="M 2194 1759 
Q 1497 1759 1228 1600 
Q 959 1441 959 1056 
Q 959 750 1161 570 
Q 1363 391 1709 391 
Q 2188 391 2477 730 
Q 2766 1069 2766 1631 
L 2766 1759 
L 2194 1759 
z
M 3341 1997 
L 3341 0 
L 2766 0 
L 2766 531 
Q 2569 213 2275 61 
Q 1981 -91 1556 -91 
Q 1019 -91 701 211 
Q 384 513 384 1019 
Q 384 1609 779 1909 
Q 1175 2209 1959 2209 
L 2766 2209 
L 2766 2266 
Q 2766 2663 2505 2880 
Q 2244 3097 1772 3097 
Q 1472 3097 1187 3025 
Q 903 2953 641 2809 
L 641 3341 
Q 956 3463 1253 3523 
Q 1550 3584 1831 3584 
Q 2591 3584 2966 3190 
Q 3341 2797 3341 1997 
z
" transform="scale(0.015625)"/>
      </defs>
      <use xlink:href="#DejaVuSans-46"/>
      <use xlink:href="#DejaVuSans-65" x="52.019531"/>
      <use xlink:href="#DejaVuSans-63" x="113.542969"/>
      <use xlink:href="#DejaVuSans-68" x="168.523438"/>
      <use xlink:href="#DejaVuSans-61" x="231.902344"/>
     </g>
    </g>
   </g>
   <g id="matplotlib.axis_2">
    <g id="ytick_1">
     <g id="line2d_17">
      <path d="M 126 431.037723 
L 907.2 431.037723 
" clip-path="url(#p81fe445648)" style="fill: none; stroke: #b0b0b0; stroke-width: 0.8; stroke-linecap: square"/>
     </g>
     <g id="line2d_18">
      <defs>
       <path id="mec51d42d22" d="M 0 0 
L -3.5 0 
" style="stroke: #000000; stroke-width: 0.8"/>
      </defs>
      <g>
       <use xlink:href="#mec51d42d22" x="126" y="431.037723" style="stroke: #000000; stroke-width: 0.8"/>
      </g>
     </g>
     <g id="text_10">
      <!-- 0 -->
      <g transform="translate(112.6375 434.836941) scale(0.1 -0.1)">
       <use xlink:href="#DejaVuSans-30"/>
      </g>
     </g>
    </g>
    <g id="ytick_2">
     <g id="line2d_19">
      <path d="M 126 357.46108 
L 907.2 357.46108 
" clip-path="url(#p81fe445648)" style="fill: none; stroke: #b0b0b0; stroke-width: 0.8; stroke-linecap: square"/>
     </g>
     <g id="line2d_20">
      <g>
       <use xlink:href="#mec51d42d22" x="126" y="357.46108" style="stroke: #000000; stroke-width: 0.8"/>
      </g>
     </g>
     <g id="text_11">
      <!-- 50 -->
      <g transform="translate(106.275 361.260299) scale(0.1 -0.1)">
       <use xlink:href="#DejaVuSans-35"/>
       <use xlink:href="#DejaVuSans-30" x="63.623047"/>
      </g>
     </g>
    </g>
    <g id="ytick_3">
     <g id="line2d_21">
      <path d="M 126 283.884438 
L 907.2 283.884438 
" clip-path="url(#p81fe445648)" style="fill: none; stroke: #b0b0b0; stroke-width: 0.8; stroke-linecap: square"/>
     </g>
     <g id="line2d_22">
      <g>
       <use xlink:href="#mec51d42d22" x="126" y="283.884438" style="stroke: #000000; stroke-width: 0.8"/>
      </g>
     </g>
     <g id="text_12">
      <!-- 100 -->
      <g transform="translate(99.9125 287.683657) scale(0.1 -0.1)">
       <use xlink:href="#DejaVuSans-31"/>
       <use xlink:href="#DejaVuSans-30" x="63.623047"/>
       <use xlink:href="#DejaVuSans-30" x="127.246094"/>
      </g>
     </g>
    </g>
    <g id="ytick_4">
     <g id="line2d_23">
      <path d="M 126 210.307796 
L 907.2 210.307796 
" clip-path="url(#p81fe445648)" style="fill: none; stroke: #b0b0b0; stroke-width: 0.8; stroke-linecap: square"/>
     </g>
     <g id="line2d_24">
      <g>
       <use xlink:href="#mec51d42d22" x="126" y="210.307796" style="stroke: #000000; stroke-width: 0.8"/>
      </g>
     </g>
     <g id="text_13">
      <!-- 150 -->
      <g transform="translate(99.9125 214.107014) scale(0.1 -0.1)">
       <use xlink:href="#DejaVuSans-31"/>
       <use xlink:href="#DejaVuSans-35" x="63.623047"/>
       <use xlink:href="#DejaVuSans-30" x="127.246094"/>
      </g>
     </g>
    </g>
    <g id="ytick_5">
     <g id="line2d_25">
      <path d="M 126 136.731153 
L 907.2 136.731153 
" clip-path="url(#p81fe445648)" style="fill: none; stroke: #b0b0b0; stroke-width: 0.8; stroke-linecap: square"/>
     </g>
     <g id="line2d_26">
      <g>
       <use xlink:href="#mec51d42d22" x="126" y="136.731153" style="stroke: #000000; stroke-width: 0.8"/>
      </g>
     </g>
     <g id="text_14">
      <!-- 200 -->
      <g transform="translate(99.9125 140.530372) scale(0.1 -0.1)">
       <use xlink:href="#DejaVuSans-32"/>
       <use xlink:href="#DejaVuSans-30" x="63.623047"/>
       <use xlink:href="#DejaVuSans-30" x="127.246094"/>
      </g>
     </g>
    </g>
    <g id="ytick_6">
     <g id="line2d_27">
      <path d="M 126 63.154511 
L 907.2 63.154511 
" clip-path="url(#p81fe445648)" style="fill: none; stroke: #b0b0b0; stroke-width: 0.8; stroke-linecap: square"/>
     </g>
     <g id="line2d_28">
      <g>
       <use xlink:href="#mec51d42d22" x="126" y="63.154511" style="stroke: #000000; stroke-width: 0.8"/>
      </g>
     </g>
     <g id="text_15">
      <!-- 250 -->
      <g transform="translate(99.9125 66.95373) scale(0.1 -0.1)">
       <use xlink:href="#DejaVuSans-32"/>
       <use xlink:href="#DejaVuSans-35" x="63.623047"/>
       <use xlink:href="#DejaVuSans-30" x="127.246094"/>
      </g>
     </g>
    </g>
    <g id="text_16">
     <!-- Concentración de Nitratos -->
     <g transform="translate(93.832812 319.942656) rotate(-90) scale(0.1 -0.1)">
      <defs>
       <path id="DejaVuSans-43" d="M 4122 4306 
L 4122 3641 
Q 3803 3938 3442 4084 
Q 3081 4231 2675 4231 
Q 1875 4231 1450 3742 
Q 1025 3253 1025 2328 
Q 1025 1406 1450 917 
Q 1875 428 2675 428 
Q 3081 428 3442 575 
Q 3803 722 4122 1019 
L 4122 359 
Q 3791 134 3420 21 
Q 3050 -91 2638 -91 
Q 1578 -91 968 557 
Q 359 1206 359 2328 
Q 359 3453 968 4101 
Q 1578 4750 2638 4750 
Q 3056 4750 3426 4639 
Q 3797 4528 4122 4306 
z
" transform="scale(0.015625)"/>
       <path id="DejaVuSans-6f" d="M 1959 3097 
Q 1497 3097 1228 2736 
Q 959 2375 959 1747 
Q 959 1119 1226 758 
Q 1494 397 1959 397 
Q 2419 397 2687 759 
Q 2956 1122 2956 1747 
Q 2956 2369 2687 2733 
Q 2419 3097 1959 3097 
z
M 1959 3584 
Q 2709 3584 3137 3096 
Q 3566 2609 3566 1747 
Q 3566 888 3137 398 
Q 2709 -91 1959 -91 
Q 1206 -91 779 398 
Q 353 888 353 1747 
Q 353 2609 779 3096 
Q 1206 3584 1959 3584 
z
" transform="scale(0.015625)"/>
       <path id="DejaVuSans-6e" d="M 3513 2113 
L 3513 0 
L 2938 0 
L 2938 2094 
Q 2938 2591 2744 2837 
Q 2550 3084 2163 3084 
Q 1697 3084 1428 2787 
Q 1159 2491 1159 1978 
L 1159 0 
L 581 0 
L 581 3500 
L 1159 3500 
L 1159 2956 
Q 1366 3272 1645 3428 
Q 1925 3584 2291 3584 
Q 2894 3584 3203 3211 
Q 3513 2838 3513 2113 
z
" transform="scale(0.015625)"/>
       <path id="DejaVuSans-74" d="M 1172 4494 
L 1172 3500 
L 2356 3500 
L 2356 3053 
L 1172 3053 
L 1172 1153 
Q 1172 725 1289 603 
Q 1406 481 1766 481 
L 2356 481 
L 2356 0 
L 1766 0 
Q 1100 0 847 248 
Q 594 497 594 1153 
L 594 3053 
L 172 3053 
L 172 3500 
L 594 3500 
L 594 4494 
L 1172 4494 
z
" transform="scale(0.015625)"/>
       <path id="DejaVuSans-72" d="M 2631 2963 
Q 2534 3019 2420 3045 
Q 2306 3072 2169 3072 
Q 1681 3072 1420 2755 
Q 1159 2438 1159 1844 
L 1159 0 
L 581 0 
L 581 3500 
L 1159 3500 
L 1159 2956 
Q 1341 3275 1631 3429 
Q 1922 3584 2338 3584 
Q 2397 3584 2469 3576 
Q 2541 3569 2628 3553 
L 2631 2963 
z
" transform="scale(0.015625)"/>
       <path id="DejaVuSans-69" d="M 603 3500 
L 1178 3500 
L 1178 0 
L 603 0 
L 603 3500 
z
M 603 4863 
L 1178 4863 
L 1178 4134 
L 603 4134 
L 603 4863 
z
" transform="scale(0.015625)"/>
       <path id="DejaVuSans-f3" d="M 1959 3097 
Q 1497 3097 1228 2736 
Q 959 2375 959 1747 
Q 959 1119 1226 758 
Q 1494 397 1959 397 
Q 2419 397 2687 759 
Q 2956 1122 2956 1747 
Q 2956 2369 2687 2733 
Q 2419 3097 1959 3097 
z
M 1959 3584 
Q 2709 3584 3137 3096 
Q 3566 2609 3566 1747 
Q 3566 888 3137 398 
Q 2709 -91 1959 -91 
Q 1206 -91 779 398 
Q 353 888 353 1747 
Q 353 2609 779 3096 
Q 1206 3584 1959 3584 
z
M 2394 5119 
L 3016 5119 
L 1998 3944 
L 1519 3944 
L 2394 5119 
z
" transform="scale(0.015625)"/>
       <path id="DejaVuSans-20" transform="scale(0.015625)"/>
       <path id="DejaVuSans-64" d="M 2906 2969 
L 2906 4863 
L 3481 4863 
L 3481 0 
L 2906 0 
L 2906 525 
Q 2725 213 2448 61 
Q 2172 -91 1784 -91 
Q 1150 -91 751 415 
Q 353 922 353 1747 
Q 353 2572 751 3078 
Q 1150 3584 1784 3584 
Q 2172 3584 2448 3432 
Q 2725 3281 2906 2969 
z
M 947 1747 
Q 947 1113 1208 752 
Q 1469 391 1925 391 
Q 2381 391 2643 752 
Q 2906 1113 2906 1747 
Q 2906 2381 2643 2742 
Q 2381 3103 1925 3103 
Q 1469 3103 1208 2742 
Q 947 2381 947 1747 
z
" transform="scale(0.015625)"/>
       <path id="DejaVuSans-4e" d="M 628 4666 
L 1478 4666 
L 3547 763 
L 3547 4666 
L 4159 4666 
L 4159 0 
L 3309 0 
L 1241 3903 
L 1241 0 
L 628 0 
L 628 4666 
z
" transform="scale(0.015625)"/>
       <path id="DejaVuSans-73" d="M 2834 3397 
L 2834 2853 
Q 2591 2978 2328 3040 
Q 2066 3103 1784 3103 
Q 1356 3103 1142 2972 
Q 928 2841 928 2578 
Q 928 2378 1081 2264 
Q 1234 2150 1697 2047 
L 1894 2003 
Q 2506 1872 2764 1633 
Q 3022 1394 3022 966 
Q 3022 478 2636 193 
Q 2250 -91 1575 -91 
Q 1294 -91 989 -36 
Q 684 19 347 128 
L 347 722 
Q 666 556 975 473 
Q 1284 391 1588 391 
Q 1994 391 2212 530 
Q 2431 669 2431 922 
Q 2431 1156 2273 1281 
Q 2116 1406 1581 1522 
L 1381 1569 
Q 847 1681 609 1914 
Q 372 2147 372 2553 
Q 372 3047 722 3315 
Q 1072 3584 1716 3584 
Q 2034 3584 2315 3537 
Q 2597 3491 2834 3397 
z
" transform="scale(0.015625)"/>
      </defs>
      <use xlink:href="#DejaVuSans-43"/>
      <use xlink:href="#DejaVuSans-6f" x="69.824219"/>
      <use xlink:href="#DejaVuSans-6e" x="131.005859"/>
      <use xlink:href="#DejaVuSans-63" x="194.384766"/>
      <use xlink:href="#DejaVuSans-65" x="249.365234"/>
      <use xlink:href="#DejaVuSans-6e" x="310.888672"/>
      <use xlink:href="#DejaVuSans-74" x="374.267578"/>
      <use xlink:href="#DejaVuSans-72" x="413.476562"/>
      <use xlink:href="#DejaVuSans-61" x="454.589844"/>
      <use xlink:href="#DejaVuSans-63" x="515.869141"/>
      <use xlink:href="#DejaVuSans-69" x="570.849609"/>
      <use xlink:href="#DejaVuSans-f3" x="598.632812"/>
      <use xlink:href="#DejaVuSans-6e" x="659.814453"/>
      <use xlink:href="#DejaVuSans-20" x="723.193359"/>
      <use xlink:href="#DejaVuSans-64" x="754.980469"/>
      <use xlink:href="#DejaVuSans-65" x="818.457031"/>
      <use xlink:href="#DejaVuSans-20" x="879.980469"/>
      <use xlink:href="#DejaVuSans-4e" x="911.767578"/>
      <use xlink:href="#DejaVuSans-69" x="986.572266"/>
      <use xlink:href="#DejaVuSans-74" x="1014.355469"/>
      <use xlink:href="#DejaVuSans-72" x="1053.564453"/>
      <use xlink:href="#DejaVuSans-61" x="1094.677734"/>
      <use xlink:href="#DejaVuSans-74" x="1155.957031"/>
      <use xlink:href="#DejaVuSans-6f" x="1195.166016"/>
      <use xlink:href="#DejaVuSans-73" x="1256.347656"/>
     </g>
    </g>
   </g>
   <g id="line2d_29">
    <path d="M 161.509091 182.348672 
L 162.864917 138.629431 
L 163.678413 138.629431 
L 165.57657 172.356964 
L 167.203561 210.543241 
L 167.474727 210.543241 
L 168.830553 211.764613 
L 169.101718 211.764613 
L 170.457545 181.259737 
L 171.813371 181.259737 
L 172.898032 138.129109 
L 174.253858 150.298686 
L 176.965511 162.291679 
L 179.134833 173.519474 
L 182.931147 200.051212 
L 184.558138 245.256701 
L 186.18513 143.823942 
L 187.812121 146.708146 
L 189.710278 176.271241 
L 192.150765 187.513752 
L 193.506592 160.452263 
L 195.947079 183.378745 
L 197.574071 170.385109 
L 197.574071 170.385109 
L 199.201062 190.603971 
L 203.268541 167.442044 
L 204.895533 166.794569 
L 206.793689 208.05635 
L 208.691846 206.746686 
L 210.590003 200.051212 
L 212.48816 185.468321 
L 214.386317 200.87527 
L 214.657482 200.87527 
L 216.013308 161.188029 
L 216.555639 161.188029 
L 217.911465 195.077431 
L 219.809622 186.777985 
L 220.080787 186.777985 
L 222.521275 244.550365 
L 223.605936 187.64619 
L 225.775258 205.172146 
L 226.588754 209.454307 
L 228.215745 209.454307 
L 229.571571 195.607182 
L 232.283224 194.371095 
L 233.910216 222.447942 
L 233.910216 222.447942 
L 235.266042 194.694832 
L 237.164199 215.752467 
L 239.604686 194.841985 
L 241.231678 215.472876 
L 243.129834 196.357664 
L 245.299157 224.640526 
L 247.197313 207.394161 
L 248.824305 201.31673 
L 250.993627 177.227737 
L 252.620619 198.314803 
L 256.416932 151.711358 
L 258.586254 206.084496 
L 260.484411 208.041635 
L 262.111403 191.295591 
L 264.280725 151.932088 
L 265.907716 135.745226 
L 267.805873 112.701022 
L 269.975195 129.667796 
L 271.873352 139.968526 
L 273.229178 113.480934 
L 274.85617 134.376701 
L 277.025492 78.12 
L 278.923649 127.901956 
L 281.092971 189.91235 
L 282.991128 132.316555 
L 284.889285 156.111241 
L 286.787441 133.493781 
L 289.227929 150.857869 
L 290.583755 140.851445 
L 292.481912 148.797723 
L 294.922399 130.109255 
L 296.278226 326.926774 
L 297.634052 169.649343 
L 300.074539 149.327474 
L 303.599688 117.851387 
L 305.497844 153.903942 
L 307.396001 145.56035 
L 309.294158 193.870774 
L 311.734645 209.645606 
L 313.632802 177.448467 
L 315.530959 181.171445 
L 316.886785 226.20035 
L 320.683099 137.996672 
L 322.310091 218.224642 
L 324.479413 199.08 
L 326.9199 225.817752 
L 328.275726 226.774248 
L 330.445048 235.029547 
L 332.07204 259.869022 
L 333.970197 264.210044 
L 335.868354 231.762745 
L 337.495345 228.113343 
L 338.580006 231.600876 
L 340.206998 231.600876 
L 341.562824 279.616993 
L 342.105155 276.526774 
L 344.003311 201.478599 
L 346.986129 208.350657 
L 348.884286 195.062715 
L 350.782443 315.154511 
L 351.595939 315.154511 
L 353.494096 241.003971 
L 354.578757 248.288058 
L 356.476913 236.015474 
L 359.188566 273.245255 
L 361.086723 237.987328 
L 362.98488 229.275854 
L 364.883037 236.309781 
L 367.052359 217.650745 
L 368.408185 189.058861 
L 370.848672 217.66546 
L 372.204499 184.379387 
L 373.83149 209.16 
L 375.729647 194.371095 
L 377.627804 213.118423 
L 379.797126 214.619387 
L 381.695283 220.902832 
L 383.864605 204.936701 
L 385.491596 220.682102 
L 387.660918 174.269956 
L 389.28791 205.289869 
L 391.457232 206.864409 
L 393.084224 225.920759 
L 395.524711 237.001401 
L 399.049859 296.039299 
L 400.13452 256.484496 
L 402.575008 319.480818 
L 403.930834 224.817109 
L 406.100156 304.162161 
L 406.913652 304.162161 
L 408.269478 274.657927 
L 410.709966 285.974015 
L 412.608122 250.789664 
L 413.963949 235.029547 
L 416.133271 256.602219 
L 418.031428 281.647708 
L 420.20075 259.250978 
L 422.098907 199.74219 
L 423.997063 189.868204 
L 425.624055 200.065927 
L 427.251047 249.141547 
L 429.420369 284.899796 
L 431.04736 224.037197 
L 433.216682 236.898394 
L 434.843674 245.109547 
L 437.012996 296.642628 
L 438.639988 242.76981 
L 440.538144 258.309197 
L 442.707466 277.01238 
L 444.334458 210.646248 
L 446.50378 245.727591 
L 448.130772 282.412905 
L 450.300094 228.451796 
L 451.927085 285.355971 
L 453.554077 194.783124 
L 455.452234 175.932788 
L 457.621556 212.618102 
L 459.519713 202.435095 
L 461.417869 209.263007 
L 463.587192 253.423708 
L 465.485348 236.177343 
L 467.383505 220.608526 
L 469.010497 217.106277 
L 471.450984 237.016117 
L 472.535645 218.268788 
L 474.433802 219.46073 
L 476.331959 200.919416 
L 478.230116 207.909197 
L 480.941768 227.08327 
L 482.297595 270.140321 
L 484.195751 218.430657 
L 486.093908 269.051387 
L 487.7209 212.206073 
L 490.161387 221.741606 
L 491.788379 193.635328 
L 493.686535 199.653898 
L 495.855858 202.140788 
L 497.482849 199.227153 
L 499.381006 177.330745 
L 501.007998 213.280292 
L 502.906154 220.431942 
L 505.346642 210.307796 
L 507.244799 251.510715 
L 509.142955 245.624584 
L 511.041112 236.795387 
L 512.939269 275.055241 
L 514.837426 286.533197 
L 516.464417 294.155737 
L 517.820244 227.451153 
L 519.989566 254.453781 
L 522.158888 187.337168 
L 525.955201 242.092905 
L 527.853358 288.814073 
L 529.751515 283.97273 
L 531.649672 281.603562 
L 533.276664 283.884438 
L 535.717151 258.162044 
L 537.615308 276.526774 
L 539.513465 339.802686 
L 541.140456 276.055883 
L 543.309778 298.599766 
L 544.93677 295.921577 
L 547.106092 297.128234 
L 548.733083 266.04946 
L 550.902405 265.269547 
L 552.529397 256.263766 
L 554.156389 273.583708 
L 556.325711 279.469839 
L 557.952702 267.697577 
L 560.122024 286.106453 
L 562.291346 270.037314 
L 564.460669 223.742891 
L 565.816495 231.600876 
L 567.985817 222.13892 
L 569.612808 215.64946 
L 571.2398 239.738453 
L 573.409122 185.674336 
L 578.832427 185.674336 
L 580.730584 266.226044 
L 583.171072 220.034628 
L 584.526898 202.950131 
L 586.425055 226.126774 
L 588.323211 203.833051 
L 592.661856 220.726248 
L 594.288847 254.380204 
L 596.187004 310.269022 
L 597.813996 291.389255 
L 597.813996 291.389255 
" clip-path="url(#p81fe445648)" style="fill: none; stroke: #008000; stroke-width: 1.5; stroke-linecap: square"/>
   </g>
   <g id="line2d_30">
    <path d="M 161.509091 300.512759 
L 163.678413 207.16362 
L 167.203561 175.543813 
L 167.474727 191.463738 
L 168.830553 224.557568 
L 169.101718 201.4824 
L 170.457545 238.791975 
L 171.27104 192.869248 
L 171.813371 208.733721 
L 172.898032 188.685521 
L 174.253858 159.400276 
L 176.965511 158.277215 
L 179.134833 160.571028 
L 180.490659 171.378222 
L 180.490659 185.065906 
L 182.931147 182.952159 
L 184.558138 192.178854 
L 186.18513 194.452532 
L 187.812121 156.223715 
L 189.710278 153.812425 
L 192.150765 170.077571 
L 193.506592 198.807558 
L 195.947079 171.888427 
L 197.574071 172.347116 
L 197.574071 166.808071 
L 199.201062 174.583429 
L 203.268541 192.180534 
L 204.895533 173.277309 
L 206.793689 169.290824 
L 208.691846 187.611413 
L 210.590003 179.45077 
L 212.48816 193.237475 
L 214.386317 184.66419 
L 214.657482 184.725283 
L 216.013308 188.886851 
L 216.555639 171.169326 
L 217.911465 165.36706 
L 219.809622 181.754501 
L 220.080787 176.987631 
L 222.521275 188.418403 
L 223.605936 204.961396 
L 225.775258 170.562789 
L 226.588754 179.161466 
L 228.215745 208.686994 
L 229.571571 194.326377 
L 232.283224 184.779194 
L 233.910216 187.289544 
L 233.910216 193.631743 
L 235.266042 196.915856 
L 237.164199 204.27278 
L 239.604686 218.619209 
L 241.231678 199.936936 
L 243.129834 205.178789 
L 245.299157 212.732741 
L 248.824305 196.77512 
L 250.993627 198.820641 
L 252.620619 192.971373 
L 254.789941 204.058823 
L 258.586254 179.349115 
L 260.484411 202.221445 
L 262.111403 196.748128 
L 264.280725 204.624848 
L 265.907716 197.886422 
L 269.975195 160.884025 
L 271.873352 155.898317 
L 273.229178 153.349247 
L 274.85617 142.560649 
L 277.025492 141.978014 
L 278.923649 120.940085 
L 281.092971 126.321738 
L 282.991128 141.158873 
L 284.889285 135.814251 
L 286.787441 132.867305 
L 289.227929 142.998375 
L 290.583755 150.931384 
L 292.481912 152.097807 
L 294.922399 149.146304 
L 296.278226 143.879676 
L 297.634052 152.931483 
L 300.074539 179.975808 
L 303.599688 149.506023 
L 305.497844 162.349056 
L 307.396001 156.572739 
L 309.294158 159.994874 
L 311.734645 158.663185 
L 313.632802 184.023278 
L 315.530959 167.571778 
L 316.886785 178.449772 
L 319.056107 181.745984 
L 320.683099 161.209157 
L 322.310091 161.551872 
L 324.479413 177.542363 
L 326.9199 189.365091 
L 328.275726 194.78657 
L 330.445048 206.262437 
L 332.07204 203.946052 
L 333.970197 194.253675 
L 335.868354 221.184373 
L 337.495345 251.633601 
L 338.580006 236.799716 
L 339.393502 232.389004 
L 340.206998 239.719605 
L 341.562824 234.489703 
L 342.105155 262.615528 
L 343.189816 269.037567 
L 344.003311 263.456803 
L 346.986129 217.633491 
L 348.884286 212.872042 
L 350.782443 212.921782 
L 351.595939 206.772869 
L 353.494096 239.061131 
L 354.578757 221.61772 
L 356.476913 231.993662 
L 359.188566 224.471176 
L 361.086723 269.095459 
L 364.883037 244.13554 
L 367.052359 243.237154 
L 368.408185 240.294664 
L 370.848672 219.229936 
L 372.204499 222.081405 
L 373.83149 204.733335 
L 375.729647 205.953868 
L 377.627804 208.815913 
L 379.797126 200.043347 
L 381.695283 211.826658 
L 383.864605 219.869214 
L 385.491596 209.55623 
L 387.660918 190.918234 
L 389.28791 173.338784 
L 391.457232 190.312348 
L 393.084224 200.39551 
L 395.524711 212.746584 
L 399.049859 223.188109 
L 400.13452 238.493633 
L 402.575008 242.892827 
L 403.930834 243.341937 
L 406.100156 235.119839 
L 406.913652 230.441386 
L 408.269478 268.628449 
L 410.709966 268.173286 
L 412.608122 260.483431 
L 413.963949 241.624719 
L 416.133271 227.715347 
L 418.031428 225.356393 
L 420.20075 244.973096 
L 422.098907 246.333394 
L 423.997063 210.861856 
L 425.624055 200.447864 
L 427.251047 225.300227 
L 429.420369 247.7556 
L 431.04736 259.620449 
L 433.216682 228.254902 
L 434.843674 227.019571 
L 437.012996 243.771389 
L 438.639988 251.599249 
L 440.538144 255.384965 
L 442.707466 238.933209 
L 444.334458 250.086482 
L 446.50378 221.637184 
L 448.130772 259.820581 
L 450.300094 256.38873 
L 451.927085 242.466725 
L 453.554077 238.591986 
L 455.452234 224.394661 
L 457.621556 206.969251 
L 459.519713 232.936534 
L 461.417869 232.989141 
L 463.587192 222.984621 
L 465.485348 229.237625 
L 467.383505 241.130674 
L 469.010497 223.768799 
L 471.450984 221.337446 
L 472.535645 244.649987 
L 474.433802 226.276771 
L 476.331959 225.219241 
L 478.230116 226.873603 
L 480.941768 207.185786 
L 482.297595 235.675429 
L 484.195751 250.362636 
L 486.093908 222.247049 
L 487.7209 239.663022 
L 490.161387 227.722696 
L 491.788379 227.347467 
L 493.686535 242.43161 
L 495.855858 207.097439 
L 497.482849 225.388445 
L 501.007998 204.765088 
L 502.906154 202.517582 
L 505.346642 216.472358 
L 507.244799 210.639059 
L 509.142955 218.065598 
L 511.041112 226.693097 
L 512.939269 245.754714 
L 514.837426 243.923189 
L 516.464417 240.489643 
L 517.820244 266.122017 
L 519.989566 260.589569 
L 522.158888 259.584616 
L 524.057045 213.807872 
L 525.955201 228.022741 
L 527.853358 241.3812 
L 529.751515 232.950457 
L 531.649672 237.615531 
L 533.276664 237.089572 
L 535.717151 261.461955 
L 537.615308 242.240955 
L 539.513465 254.264869 
L 541.140456 254.786758 
L 543.309778 258.246816 
L 544.93677 249.449623 
L 547.106092 271.98902 
L 548.733083 280.479801 
L 550.902405 271.561914 
L 552.529397 267.981982 
L 554.156389 262.683461 
L 556.325711 266.956067 
L 557.952702 254.510134 
L 560.122024 247.367475 
L 562.291346 266.295781 
L 564.460669 270.942568 
L 565.816495 260.486418 
L 567.985817 260.294973 
L 569.612808 230.067278 
L 571.2398 236.116518 
L 573.409122 254.608082 
L 575.307279 221.981222 
L 578.832427 200.376971 
L 580.730584 201.032452 
L 583.171072 237.116679 
L 584.526898 223.855003 
L 586.425055 220.709092 
L 588.323211 214.854193 
L 592.661856 219.929173 
L 594.288847 215.799032 
L 596.187004 233.367914 
L 597.813996 244.76974 
L 597.813996 244.76974 
" clip-path="url(#p81fe445648)" style="fill: none; stroke: #ffa500; stroke-width: 1.5; stroke-linecap: square"/>
   </g>
   <g id="line2d_31">
    <path d="M 599.169822 189.377382 
L 607.30478 205.211612 
L 615.710903 232.165907 
L 623.845861 217.423533 
L 632.251984 237.755644 
L 640.658107 250.666151 
L 648.793065 255.593115 
L 657.199188 254.793513 
L 665.334146 251.125427 
L 673.740269 242.553786 
L 682.146392 237.595953 
L 689.739019 232.831604 
L 698.145142 210.544633 
L 706.2801 219.18662 
L 714.686223 234.201429 
L 722.821181 215.927931 
L 731.227304 234.935008 
L 739.633427 252.959644 
L 747.768385 239.406863 
L 756.174508 244.400417 
L 764.309466 245.262695 
L 772.715589 246.130209 
L 781.121712 239.482288 
L 788.714339 222.410596 
L 797.120462 217.659984 
L 805.25542 212.179129 
L 813.661543 231.06903 
L 821.796501 212.745655 
L 830.202624 234.162699 
L 838.608747 245.051877 
L 846.743705 245.41114 
L 855.149828 240.332576 
L 863.284786 246.666984 
L 871.690909 239.857906 
" clip-path="url(#p81fe445648)" style="fill: none; stroke: #ffd700; stroke-width: 1.5; stroke-linecap: square"/>
   </g>
   <g id="line2d_32">
    <path d="M 126 430.92 
L 907.2 430.92 
" clip-path="url(#p81fe445648)" style="fill: none; stroke-dasharray: 5.55,2.4; stroke-dashoffset: 0; stroke: #008000; stroke-width: 1.5"/>
   </g>
   <g id="line2d_33">
    <path d="M 598.898657 448.56 
L 598.898657 60.48 
" clip-path="url(#p81fe445648)" style="fill: none; stroke-dasharray: 7.4,3.2; stroke-dashoffset: 0; stroke: #800080; stroke-width: 2"/>
   </g>
   <g id="patch_3">
    <path d="M 126 448.56 
L 126 60.48 
" style="fill: none; stroke: #000000; stroke-width: 0.8; stroke-linejoin: miter; stroke-linecap: square"/>
   </g>
   <g id="patch_4">
    <path d="M 907.2 448.56 
L 907.2 60.48 
" style="fill: none; stroke: #000000; stroke-width: 0.8; stroke-linejoin: miter; stroke-linecap: square"/>
   </g>
   <g id="patch_5">
    <path d="M 126 448.56 
L 907.2 448.56 
" style="fill: none; stroke: #000000; stroke-width: 0.8; stroke-linejoin: miter; stroke-linecap: square"/>
   </g>
   <g id="patch_6">
    <path d="M 126 60.48 
L 907.2 60.48 
" style="fill: none; stroke: #000000; stroke-width: 0.8; stroke-linejoin: miter; stroke-linecap: square"/>
   </g>
   <g id="text_17">
    <!-- Predicciones de Nitratos: Históricas y Futuras hasta finales de 2026 -->
    <g transform="translate(313.937813 54.48) scale(0.12 -0.12)">
     <defs>
      <path id="DejaVuSans-50" d="M 1259 4147 
L 1259 2394 
L 2053 2394 
Q 2494 2394 2734 2622 
Q 2975 2850 2975 3272 
Q 2975 3691 2734 3919 
Q 2494 4147 2053 4147 
L 1259 4147 
z
M 628 4666 
L 2053 4666 
Q 2838 4666 3239 4311 
Q 3641 3956 3641 3272 
Q 3641 2581 3239 2228 
Q 2838 1875 2053 1875 
L 1259 1875 
L 1259 0 
L 628 0 
L 628 4666 
z
" transform="scale(0.015625)"/>
      <path id="DejaVuSans-3a" d="M 750 794 
L 1409 794 
L 1409 0 
L 750 0 
L 750 794 
z
M 750 3309 
L 1409 3309 
L 1409 2516 
L 750 2516 
L 750 3309 
z
" transform="scale(0.015625)"/>
      <path id="DejaVuSans-48" d="M 628 4666 
L 1259 4666 
L 1259 2753 
L 3553 2753 
L 3553 4666 
L 4184 4666 
L 4184 0 
L 3553 0 
L 3553 2222 
L 1259 2222 
L 1259 0 
L 628 0 
L 628 4666 
z
" transform="scale(0.015625)"/>
      <path id="DejaVuSans-79" d="M 2059 -325 
Q 1816 -950 1584 -1140 
Q 1353 -1331 966 -1331 
L 506 -1331 
L 506 -850 
L 844 -850 
Q 1081 -850 1212 -737 
Q 1344 -625 1503 -206 
L 1606 56 
L 191 3500 
L 800 3500 
L 1894 763 
L 2988 3500 
L 3597 3500 
L 2059 -325 
z
" transform="scale(0.015625)"/>
      <path id="DejaVuSans-75" d="M 544 1381 
L 544 3500 
L 1119 3500 
L 1119 1403 
Q 1119 906 1312 657 
Q 1506 409 1894 409 
Q 2359 409 2629 706 
Q 2900 1003 2900 1516 
L 2900 3500 
L 3475 3500 
L 3475 0 
L 2900 0 
L 2900 538 
Q 2691 219 2414 64 
Q 2138 -91 1772 -91 
Q 1169 -91 856 284 
Q 544 659 544 1381 
z
M 1991 3584 
L 1991 3584 
z
" transform="scale(0.015625)"/>
      <path id="DejaVuSans-66" d="M 2375 4863 
L 2375 4384 
L 1825 4384 
Q 1516 4384 1395 4259 
Q 1275 4134 1275 3809 
L 1275 3500 
L 2222 3500 
L 2222 3053 
L 1275 3053 
L 1275 0 
L 697 0 
L 697 3053 
L 147 3053 
L 147 3500 
L 697 3500 
L 697 3744 
Q 697 4328 969 4595 
Q 1241 4863 1831 4863 
L 2375 4863 
z
" transform="scale(0.015625)"/>
      <path id="DejaVuSans-6c" d="M 603 4863 
L 1178 4863 
L 1178 0 
L 603 0 
L 603 4863 
z
" transform="scale(0.015625)"/>
     </defs>
     <use xlink:href="#DejaVuSans-50"/>
     <use xlink:href="#DejaVuSans-72" x="58.552734"/>
     <use xlink:href="#DejaVuSans-65" x="97.416016"/>
     <use xlink:href="#DejaVuSans-64" x="158.939453"/>
     <use xlink:href="#DejaVuSans-69" x="222.416016"/>
     <use xlink:href="#DejaVuSans-63" x="250.199219"/>
     <use xlink:href="#DejaVuSans-63" x="305.179688"/>
     <use xlink:href="#DejaVuSans-69" x="360.160156"/>
     <use xlink:href="#DejaVuSans-6f" x="387.943359"/>
     <use xlink:href="#DejaVuSans-6e" x="449.125"/>
     <use xlink:href="#DejaVuSans-65" x="512.503906"/>
     <use xlink:href="#DejaVuSans-73" x="574.027344"/>
     <use xlink:href="#DejaVuSans-20" x="626.126953"/>
     <use xlink:href="#DejaVuSans-64" x="657.914062"/>
     <use xlink:href="#DejaVuSans-65" x="721.390625"/>
     <use xlink:href="#DejaVuSans-20" x="782.914062"/>
     <use xlink:href="#DejaVuSans-4e" x="814.701172"/>
     <use xlink:href="#DejaVuSans-69" x="889.505859"/>
     <use xlink:href="#DejaVuSans-74" x="917.289062"/>
     <use xlink:href="#DejaVuSans-72" x="956.498047"/>
     <use xlink:href="#DejaVuSans-61" x="997.611328"/>
     <use xlink:href="#DejaVuSans-74" x="1058.890625"/>
     <use xlink:href="#DejaVuSans-6f" x="1098.099609"/>
     <use xlink:href="#DejaVuSans-73" x="1159.28125"/>
     <use xlink:href="#DejaVuSans-3a" x="1211.380859"/>
     <use xlink:href="#DejaVuSans-20" x="1245.072266"/>
     <use xlink:href="#DejaVuSans-48" x="1276.859375"/>
     <use xlink:href="#DejaVuSans-69" x="1352.054688"/>
     <use xlink:href="#DejaVuSans-73" x="1379.837891"/>
     <use xlink:href="#DejaVuSans-74" x="1431.9375"/>
     <use xlink:href="#DejaVuSans-f3" x="1471.146484"/>
     <use xlink:href="#DejaVuSans-72" x="1532.328125"/>
     <use xlink:href="#DejaVuSans-69" x="1573.441406"/>
     <use xlink:href="#DejaVuSans-63" x="1601.224609"/>
     <use xlink:href="#DejaVuSans-61" x="1656.205078"/>
     <use xlink:href="#DejaVuSans-73" x="1717.484375"/>
     <use xlink:href="#DejaVuSans-20" x="1769.583984"/>
     <use xlink:href="#DejaVuSans-79" x="1801.371094"/>
     <use xlink:href="#DejaVuSans-20" x="1860.550781"/>
     <use xlink:href="#DejaVuSans-46" x="1892.337891"/>
     <use xlink:href="#DejaVuSans-75" x="1944.357422"/>
     <use xlink:href="#DejaVuSans-74" x="2007.736328"/>
     <use xlink:href="#DejaVuSans-75" x="2046.945312"/>
     <use xlink:href="#DejaVuSans-72" x="2110.324219"/>
     <use xlink:href="#DejaVuSans-61" x="2151.4375"/>
     <use xlink:href="#DejaVuSans-73" x="2212.716797"/>
     <use xlink:href="#DejaVuSans-20" x="2264.816406"/>
     <use xlink:href="#DejaVuSans-68" x="2296.603516"/>
     <use xlink:href="#DejaVuSans-61" x="2359.982422"/>
     <use xlink:href="#DejaVuSans-73" x="2421.261719"/>
     <use xlink:href="#DejaVuSans-74" x="2473.361328"/>
     <use xlink:href="#DejaVuSans-61" x="2512.570312"/>
     <use xlink:href="#DejaVuSans-20" x="2573.849609"/>
     <use xlink:href="#DejaVuSans-66" x="2605.636719"/>
     <use xlink:href="#DejaVuSans-69" x="2640.841797"/>
     <use xlink:href="#DejaVuSans-6e" x="2668.625"/>
     <use xlink:href="#DejaVuSans-61" x="2732.003906"/>
     <use xlink:href="#DejaVuSans-6c" x="2793.283203"/>
     <use xlink:href="#DejaVuSans-65" x="2821.066406"/>
     <use xlink:href="#DejaVuSans-73" x="2882.589844"/>
     <use xlink:href="#DejaVuSans-20" x="2934.689453"/>
     <use xlink:href="#DejaVuSans-64" x="2966.476562"/>
     <use xlink:href="#DejaVuSans-65" x="3029.953125"/>
     <use xlink:href="#DejaVuSans-20" x="3091.476562"/>
     <use xlink:href="#DejaVuSans-32" x="3123.263672"/>
     <use xlink:href="#DejaVuSans-30" x="3186.886719"/>
     <use xlink:href="#DejaVuSans-32" x="3250.509766"/>
     <use xlink:href="#DejaVuSans-36" x="3314.132812"/>
    </g>
   </g>
   <g id="legend_1">
    <g id="patch_7">
     <path d="M 587.542187 141.870625 
L 900.2 141.870625 
Q 902.2 141.870625 902.2 139.870625 
L 902.2 67.48 
Q 902.2 65.48 900.2 65.48 
L 587.542187 65.48 
Q 585.542187 65.48 585.542187 67.48 
L 585.542187 139.870625 
Q 585.542187 141.870625 587.542187 141.870625 
z
" style="fill: #ffffff; opacity: 0.8; stroke: #cccccc; stroke-linejoin: miter"/>
    </g>
    <g id="line2d_34">
     <path d="M 589.542187 73.578438 
L 599.542187 73.578438 
L 609.542187 73.578438 
" style="fill: none; stroke: #008000; stroke-width: 1.5; stroke-linecap: square"/>
    </g>
    <g id="text_18">
     <!-- Valores Reales de Nitratos -->
     <g transform="translate(617.542187 77.078438) scale(0.1 -0.1)">
      <defs>
       <path id="DejaVuSans-56" d="M 1831 0 
L 50 4666 
L 709 4666 
L 2188 738 
L 3669 4666 
L 4325 4666 
L 2547 0 
L 1831 0 
z
" transform="scale(0.015625)"/>
       <path id="DejaVuSans-52" d="M 2841 2188 
Q 3044 2119 3236 1894 
Q 3428 1669 3622 1275 
L 4263 0 
L 3584 0 
L 2988 1197 
Q 2756 1666 2539 1819 
Q 2322 1972 1947 1972 
L 1259 1972 
L 1259 0 
L 628 0 
L 628 4666 
L 2053 4666 
Q 2853 4666 3247 4331 
Q 3641 3997 3641 3322 
Q 3641 2881 3436 2590 
Q 3231 2300 2841 2188 
z
M 1259 4147 
L 1259 2491 
L 2053 2491 
Q 2509 2491 2742 2702 
Q 2975 2913 2975 3322 
Q 2975 3731 2742 3939 
Q 2509 4147 2053 4147 
L 1259 4147 
z
" transform="scale(0.015625)"/>
      </defs>
      <use xlink:href="#DejaVuSans-56"/>
      <use xlink:href="#DejaVuSans-61" x="60.658203"/>
      <use xlink:href="#DejaVuSans-6c" x="121.9375"/>
      <use xlink:href="#DejaVuSans-6f" x="149.720703"/>
      <use xlink:href="#DejaVuSans-72" x="210.902344"/>
      <use xlink:href="#DejaVuSans-65" x="249.765625"/>
      <use xlink:href="#DejaVuSans-73" x="311.289062"/>
      <use xlink:href="#DejaVuSans-20" x="363.388672"/>
      <use xlink:href="#DejaVuSans-52" x="395.175781"/>
      <use xlink:href="#DejaVuSans-65" x="460.158203"/>
      <use xlink:href="#DejaVuSans-61" x="521.681641"/>
      <use xlink:href="#DejaVuSans-6c" x="582.960938"/>
      <use xlink:href="#DejaVuSans-65" x="610.744141"/>
      <use xlink:href="#DejaVuSans-73" x="672.267578"/>
      <use xlink:href="#DejaVuSans-20" x="724.367188"/>
      <use xlink:href="#DejaVuSans-64" x="756.154297"/>
      <use xlink:href="#DejaVuSans-65" x="819.630859"/>
      <use xlink:href="#DejaVuSans-20" x="881.154297"/>
      <use xlink:href="#DejaVuSans-4e" x="912.941406"/>
      <use xlink:href="#DejaVuSans-69" x="987.746094"/>
      <use xlink:href="#DejaVuSans-74" x="1015.529297"/>
      <use xlink:href="#DejaVuSans-72" x="1054.738281"/>
      <use xlink:href="#DejaVuSans-61" x="1095.851562"/>
      <use xlink:href="#DejaVuSans-74" x="1157.130859"/>
      <use xlink:href="#DejaVuSans-6f" x="1196.339844"/>
      <use xlink:href="#DejaVuSans-73" x="1257.521484"/>
     </g>
    </g>
    <g id="line2d_35">
     <path d="M 589.542187 88.256563 
L 599.542187 88.256563 
L 609.542187 88.256563 
" style="fill: none; stroke: #ffa500; stroke-width: 1.5; stroke-linecap: square"/>
    </g>
    <g id="text_19">
     <!-- Predicciones del Modelo (historicas) -->
     <g transform="translate(617.542187 91.756563) scale(0.1 -0.1)">
      <defs>
       <path id="DejaVuSans-4d" d="M 628 4666 
L 1569 4666 
L 2759 1491 
L 3956 4666 
L 4897 4666 
L 4897 0 
L 4281 0 
L 4281 4097 
L 3078 897 
L 2444 897 
L 1241 4097 
L 1241 0 
L 628 0 
L 628 4666 
z
" transform="scale(0.015625)"/>
       <path id="DejaVuSans-28" d="M 1984 4856 
Q 1566 4138 1362 3434 
Q 1159 2731 1159 2009 
Q 1159 1288 1364 580 
Q 1569 -128 1984 -844 
L 1484 -844 
Q 1016 -109 783 600 
Q 550 1309 550 2009 
Q 550 2706 781 3412 
Q 1013 4119 1484 4856 
L 1984 4856 
z
" transform="scale(0.015625)"/>
       <path id="DejaVuSans-29" d="M 513 4856 
L 1013 4856 
Q 1481 4119 1714 3412 
Q 1947 2706 1947 2009 
Q 1947 1309 1714 600 
Q 1481 -109 1013 -844 
L 513 -844 
Q 928 -128 1133 580 
Q 1338 1288 1338 2009 
Q 1338 2731 1133 3434 
Q 928 4138 513 4856 
z
" transform="scale(0.015625)"/>
      </defs>
      <use xlink:href="#DejaVuSans-50"/>
      <use xlink:href="#DejaVuSans-72" x="58.552734"/>
      <use xlink:href="#DejaVuSans-65" x="97.416016"/>
      <use xlink:href="#DejaVuSans-64" x="158.939453"/>
      <use xlink:href="#DejaVuSans-69" x="222.416016"/>
      <use xlink:href="#DejaVuSans-63" x="250.199219"/>
      <use xlink:href="#DejaVuSans-63" x="305.179688"/>
      <use xlink:href="#DejaVuSans-69" x="360.160156"/>
      <use xlink:href="#DejaVuSans-6f" x="387.943359"/>
      <use xlink:href="#DejaVuSans-6e" x="449.125"/>
      <use xlink:href="#DejaVuSans-65" x="512.503906"/>
      <use xlink:href="#DejaVuSans-73" x="574.027344"/>
      <use xlink:href="#DejaVuSans-20" x="626.126953"/>
      <use xlink:href="#DejaVuSans-64" x="657.914062"/>
      <use xlink:href="#DejaVuSans-65" x="721.390625"/>
      <use xlink:href="#DejaVuSans-6c" x="782.914062"/>
      <use xlink:href="#DejaVuSans-20" x="810.697266"/>
      <use xlink:href="#DejaVuSans-4d" x="842.484375"/>
      <use xlink:href="#DejaVuSans-6f" x="928.763672"/>
      <use xlink:href="#DejaVuSans-64" x="989.945312"/>
      <use xlink:href="#DejaVuSans-65" x="1053.421875"/>
      <use xlink:href="#DejaVuSans-6c" x="1114.945312"/>
      <use xlink:href="#DejaVuSans-6f" x="1142.728516"/>
      <use xlink:href="#DejaVuSans-20" x="1203.910156"/>
      <use xlink:href="#DejaVuSans-28" x="1235.697266"/>
      <use xlink:href="#DejaVuSans-68" x="1274.710938"/>
      <use xlink:href="#DejaVuSans-69" x="1338.089844"/>
      <use xlink:href="#DejaVuSans-73" x="1365.873047"/>
      <use xlink:href="#DejaVuSans-74" x="1417.972656"/>
      <use xlink:href="#DejaVuSans-6f" x="1457.181641"/>
      <use xlink:href="#DejaVuSans-72" x="1518.363281"/>
      <use xlink:href="#DejaVuSans-69" x="1559.476562"/>
      <use xlink:href="#DejaVuSans-63" x="1587.259766"/>
      <use xlink:href="#DejaVuSans-61" x="1642.240234"/>
      <use xlink:href="#DejaVuSans-73" x="1703.519531"/>
      <use xlink:href="#DejaVuSans-29" x="1755.619141"/>
     </g>
    </g>
    <g id="line2d_36">
     <path d="M 589.542187 102.934687 
L 599.542187 102.934687 
L 609.542187 102.934687 
" style="fill: none; stroke: #ffd700; stroke-width: 1.5; stroke-linecap: square"/>
    </g>
    <g id="text_20">
     <!-- Predicciones Futuras de Nitratos (hasta finales de 2026) -->
     <g transform="translate(617.542187 106.434687) scale(0.1 -0.1)">
      <use xlink:href="#DejaVuSans-50"/>
      <use xlink:href="#DejaVuSans-72" x="58.552734"/>
      <use xlink:href="#DejaVuSans-65" x="97.416016"/>
      <use xlink:href="#DejaVuSans-64" x="158.939453"/>
      <use xlink:href="#DejaVuSans-69" x="222.416016"/>
      <use xlink:href="#DejaVuSans-63" x="250.199219"/>
      <use xlink:href="#DejaVuSans-63" x="305.179688"/>
      <use xlink:href="#DejaVuSans-69" x="360.160156"/>
      <use xlink:href="#DejaVuSans-6f" x="387.943359"/>
      <use xlink:href="#DejaVuSans-6e" x="449.125"/>
      <use xlink:href="#DejaVuSans-65" x="512.503906"/>
      <use xlink:href="#DejaVuSans-73" x="574.027344"/>
      <use xlink:href="#DejaVuSans-20" x="626.126953"/>
      <use xlink:href="#DejaVuSans-46" x="657.914062"/>
      <use xlink:href="#DejaVuSans-75" x="709.933594"/>
      <use xlink:href="#DejaVuSans-74" x="773.3125"/>
      <use xlink:href="#DejaVuSans-75" x="812.521484"/>
      <use xlink:href="#DejaVuSans-72" x="875.900391"/>
      <use xlink:href="#DejaVuSans-61" x="917.013672"/>
      <use xlink:href="#DejaVuSans-73" x="978.292969"/>
      <use xlink:href="#DejaVuSans-20" x="1030.392578"/>
      <use xlink:href="#DejaVuSans-64" x="1062.179688"/>
      <use xlink:href="#DejaVuSans-65" x="1125.65625"/>
      <use xlink:href="#DejaVuSans-20" x="1187.179688"/>
      <use xlink:href="#DejaVuSans-4e" x="1218.966797"/>
      <use xlink:href="#DejaVuSans-69" x="1293.771484"/>
      <use xlink:href="#DejaVuSans-74" x="1321.554688"/>
      <use xlink:href="#DejaVuSans-72" x="1360.763672"/>
      <use xlink:href="#DejaVuSans-61" x="1401.876953"/>
      <use xlink:href="#DejaVuSans-74" x="1463.15625"/>
      <use xlink:href="#DejaVuSans-6f" x="1502.365234"/>
      <use xlink:href="#DejaVuSans-73" x="1563.546875"/>
      <use xlink:href="#DejaVuSans-20" x="1615.646484"/>
      <use xlink:href="#DejaVuSans-28" x="1647.433594"/>
      <use xlink:href="#DejaVuSans-68" x="1686.447266"/>
      <use xlink:href="#DejaVuSans-61" x="1749.826172"/>
      <use xlink:href="#DejaVuSans-73" x="1811.105469"/>
      <use xlink:href="#DejaVuSans-74" x="1863.205078"/>
      <use xlink:href="#DejaVuSans-61" x="1902.414062"/>
      <use xlink:href="#DejaVuSans-20" x="1963.693359"/>
      <use xlink:href="#DejaVuSans-66" x="1995.480469"/>
      <use xlink:href="#DejaVuSans-69" x="2030.685547"/>
      <use xlink:href="#DejaVuSans-6e" x="2058.46875"/>
      <use xlink:href="#DejaVuSans-61" x="2121.847656"/>
      <use xlink:href="#DejaVuSans-6c" x="2183.126953"/>
      <use xlink:href="#DejaVuSans-65" x="2210.910156"/>
      <use xlink:href="#DejaVuSans-73" x="2272.433594"/>
      <use xlink:href="#DejaVuSans-20" x="2324.533203"/>
      <use xlink:href="#DejaVuSans-64" x="2356.320312"/>
      <use xlink:href="#DejaVuSans-65" x="2419.796875"/>
      <use xlink:href="#DejaVuSans-20" x="2481.320312"/>
      <use xlink:href="#DejaVuSans-32" x="2513.107422"/>
      <use xlink:href="#DejaVuSans-30" x="2576.730469"/>
      <use xlink:href="#DejaVuSans-32" x="2640.353516"/>
      <use xlink:href="#DejaVuSans-36" x="2703.976562"/>
      <use xlink:href="#DejaVuSans-29" x="2767.599609"/>
     </g>
    </g>
    <g id="line2d_37">
     <path d="M 589.542187 117.612813 
L 599.542187 117.612813 
L 609.542187 117.612813 
" style="fill: none; stroke-dasharray: 5.55,2.4; stroke-dashoffset: 0; stroke: #008000; stroke-width: 1.5"/>
    </g>
    <g id="text_21">
     <!-- Umbral de Nitratos = 0.08 mg/L -->
     <g transform="translate(617.542187 121.112813) scale(0.1 -0.1)">
      <defs>
       <path id="DejaVuSans-55" d="M 556 4666 
L 1191 4666 
L 1191 1831 
Q 1191 1081 1462 751 
Q 1734 422 2344 422 
Q 2950 422 3222 751 
Q 3494 1081 3494 1831 
L 3494 4666 
L 4128 4666 
L 4128 1753 
Q 4128 841 3676 375 
Q 3225 -91 2344 -91 
Q 1459 -91 1007 375 
Q 556 841 556 1753 
L 556 4666 
z
" transform="scale(0.015625)"/>
       <path id="DejaVuSans-6d" d="M 3328 2828 
Q 3544 3216 3844 3400 
Q 4144 3584 4550 3584 
Q 5097 3584 5394 3201 
Q 5691 2819 5691 2113 
L 5691 0 
L 5113 0 
L 5113 2094 
Q 5113 2597 4934 2840 
Q 4756 3084 4391 3084 
Q 3944 3084 3684 2787 
Q 3425 2491 3425 1978 
L 3425 0 
L 2847 0 
L 2847 2094 
Q 2847 2600 2669 2842 
Q 2491 3084 2119 3084 
Q 1678 3084 1418 2786 
Q 1159 2488 1159 1978 
L 1159 0 
L 581 0 
L 581 3500 
L 1159 3500 
L 1159 2956 
Q 1356 3278 1631 3431 
Q 1906 3584 2284 3584 
Q 2666 3584 2933 3390 
Q 3200 3197 3328 2828 
z
" transform="scale(0.015625)"/>
       <path id="DejaVuSans-62" d="M 3116 1747 
Q 3116 2381 2855 2742 
Q 2594 3103 2138 3103 
Q 1681 3103 1420 2742 
Q 1159 2381 1159 1747 
Q 1159 1113 1420 752 
Q 1681 391 2138 391 
Q 2594 391 2855 752 
Q 3116 1113 3116 1747 
z
M 1159 2969 
Q 1341 3281 1617 3432 
Q 1894 3584 2278 3584 
Q 2916 3584 3314 3078 
Q 3713 2572 3713 1747 
Q 3713 922 3314 415 
Q 2916 -91 2278 -91 
Q 1894 -91 1617 61 
Q 1341 213 1159 525 
L 1159 0 
L 581 0 
L 581 4863 
L 1159 4863 
L 1159 2969 
z
" transform="scale(0.015625)"/>
       <path id="DejaVuSans-3d" d="M 678 2906 
L 4684 2906 
L 4684 2381 
L 678 2381 
L 678 2906 
z
M 678 1631 
L 4684 1631 
L 4684 1100 
L 678 1100 
L 678 1631 
z
" transform="scale(0.015625)"/>
       <path id="DejaVuSans-2e" d="M 684 794 
L 1344 794 
L 1344 0 
L 684 0 
L 684 794 
z
" transform="scale(0.015625)"/>
       <path id="DejaVuSans-38" d="M 2034 2216 
Q 1584 2216 1326 1975 
Q 1069 1734 1069 1313 
Q 1069 891 1326 650 
Q 1584 409 2034 409 
Q 2484 409 2743 651 
Q 3003 894 3003 1313 
Q 3003 1734 2745 1975 
Q 2488 2216 2034 2216 
z
M 1403 2484 
Q 997 2584 770 2862 
Q 544 3141 544 3541 
Q 544 4100 942 4425 
Q 1341 4750 2034 4750 
Q 2731 4750 3128 4425 
Q 3525 4100 3525 3541 
Q 3525 3141 3298 2862 
Q 3072 2584 2669 2484 
Q 3125 2378 3379 2068 
Q 3634 1759 3634 1313 
Q 3634 634 3220 271 
Q 2806 -91 2034 -91 
Q 1263 -91 848 271 
Q 434 634 434 1313 
Q 434 1759 690 2068 
Q 947 2378 1403 2484 
z
M 1172 3481 
Q 1172 3119 1398 2916 
Q 1625 2713 2034 2713 
Q 2441 2713 2670 2916 
Q 2900 3119 2900 3481 
Q 2900 3844 2670 4047 
Q 2441 4250 2034 4250 
Q 1625 4250 1398 4047 
Q 1172 3844 1172 3481 
z
" transform="scale(0.015625)"/>
       <path id="DejaVuSans-67" d="M 2906 1791 
Q 2906 2416 2648 2759 
Q 2391 3103 1925 3103 
Q 1463 3103 1205 2759 
Q 947 2416 947 1791 
Q 947 1169 1205 825 
Q 1463 481 1925 481 
Q 2391 481 2648 825 
Q 2906 1169 2906 1791 
z
M 3481 434 
Q 3481 -459 3084 -895 
Q 2688 -1331 1869 -1331 
Q 1566 -1331 1297 -1286 
Q 1028 -1241 775 -1147 
L 775 -588 
Q 1028 -725 1275 -790 
Q 1522 -856 1778 -856 
Q 2344 -856 2625 -561 
Q 2906 -266 2906 331 
L 2906 616 
Q 2728 306 2450 153 
Q 2172 0 1784 0 
Q 1141 0 747 490 
Q 353 981 353 1791 
Q 353 2603 747 3093 
Q 1141 3584 1784 3584 
Q 2172 3584 2450 3431 
Q 2728 3278 2906 2969 
L 2906 3500 
L 3481 3500 
L 3481 434 
z
" transform="scale(0.015625)"/>
       <path id="DejaVuSans-2f" d="M 1625 4666 
L 2156 4666 
L 531 -594 
L 0 -594 
L 1625 4666 
z
" transform="scale(0.015625)"/>
       <path id="DejaVuSans-4c" d="M 628 4666 
L 1259 4666 
L 1259 531 
L 3531 531 
L 3531 0 
L 628 0 
L 628 4666 
z
" transform="scale(0.015625)"/>
      </defs>
      <use xlink:href="#DejaVuSans-55"/>
      <use xlink:href="#DejaVuSans-6d" x="73.193359"/>
      <use xlink:href="#DejaVuSans-62" x="170.605469"/>
      <use xlink:href="#DejaVuSans-72" x="234.082031"/>
      <use xlink:href="#DejaVuSans-61" x="275.195312"/>
      <use xlink:href="#DejaVuSans-6c" x="336.474609"/>
      <use xlink:href="#DejaVuSans-20" x="364.257812"/>
      <use xlink:href="#DejaVuSans-64" x="396.044922"/>
      <use xlink:href="#DejaVuSans-65" x="459.521484"/>
      <use xlink:href="#DejaVuSans-20" x="521.044922"/>
      <use xlink:href="#DejaVuSans-4e" x="552.832031"/>
      <use xlink:href="#DejaVuSans-69" x="627.636719"/>
      <use xlink:href="#DejaVuSans-74" x="655.419922"/>
      <use xlink:href="#DejaVuSans-72" x="694.628906"/>
      <use xlink:href="#DejaVuSans-61" x="735.742188"/>
      <use xlink:href="#DejaVuSans-74" x="797.021484"/>
      <use xlink:href="#DejaVuSans-6f" x="836.230469"/>
      <use xlink:href="#DejaVuSans-73" x="897.412109"/>
      <use xlink:href="#DejaVuSans-20" x="949.511719"/>
      <use xlink:href="#DejaVuSans-3d" x="981.298828"/>
      <use xlink:href="#DejaVuSans-20" x="1065.087891"/>
      <use xlink:href="#DejaVuSans-30" x="1096.875"/>
      <use xlink:href="#DejaVuSans-2e" x="1160.498047"/>
      <use xlink:href="#DejaVuSans-30" x="1192.285156"/>
      <use xlink:href="#DejaVuSans-38" x="1255.908203"/>
      <use xlink:href="#DejaVuSans-20" x="1319.53125"/>
      <use xlink:href="#DejaVuSans-6d" x="1351.318359"/>
      <use xlink:href="#DejaVuSans-67" x="1448.730469"/>
      <use xlink:href="#DejaVuSans-2f" x="1512.207031"/>
      <use xlink:href="#DejaVuSans-4c" x="1545.898438"/>
     </g>
    </g>
    <g id="line2d_38">
     <path d="M 589.542187 132.290938 
L 599.542187 132.290938 
L 609.542187 132.290938 
" style="fill: none; stroke-dasharray: 7.4,3.2; stroke-dashoffset: 0; stroke: #800080; stroke-width: 2"/>
    </g>
    <g id="text_22">
     <!-- Inicio Predicciones -->
     <g transform="translate(617.542187 135.790938) scale(0.1 -0.1)">
      <defs>
       <path id="DejaVuSans-49" d="M 628 4666 
L 1259 4666 
L 1259 0 
L 628 0 
L 628 4666 
z
" transform="scale(0.015625)"/>
      </defs>
      <use xlink:href="#DejaVuSans-49"/>
      <use xlink:href="#DejaVuSans-6e" x="29.492188"/>
      <use xlink:href="#DejaVuSans-69" x="92.871094"/>
      <use xlink:href="#DejaVuSans-63" x="120.654297"/>
      <use xlink:href="#DejaVuSans-69" x="175.634766"/>
      <use xlink:href="#DejaVuSans-6f" x="203.417969"/>
      <use xlink:href="#DejaVuSans-20" x="264.599609"/>
      <use xlink:href="#DejaVuSans-50" x="296.386719"/>
      <use xlink:href="#DejaVuSans-72" x="354.939453"/>
      <use xlink:href="#DejaVuSans-65" x="393.802734"/>
      <use xlink:href="#DejaVuSans-64" x="455.326172"/>
      <use xlink:href="#DejaVuSans-69" x="518.802734"/>
      <use xlink:href="#DejaVuSans-63" x="546.585938"/>
      <use xlink:href="#DejaVuSans-63" x="601.566406"/>
      <use xlink:href="#DejaVuSans-69" x="656.546875"/>
      <use xlink:href="#DejaVuSans-6f" x="684.330078"/>
      <use xlink:href="#DejaVuSans-6e" x="745.511719"/>
      <use xlink:href="#DejaVuSans-65" x="808.890625"/>
      <use xlink:href="#DejaVuSans-73" x="870.414062"/>
     </g>
    </g>
   </g>
  </g>
 </g>
 <defs>
  <clipPath id="p81fe445648">
   <rect x="126" y="60.48" width="781.2" height="388.08"/>
  </clipPath>
 </defs>
</svg>
