<?xml version="1.0" encoding="utf-8" standalone="no"?>
<!DOCTYPE svg PUBLIC "-//W3C//DTD SVG 1.1//EN"
  "http://www.w3.org/Graphics/SVG/1.1/DTD/svg11.dtd">
<svg xmlns:xlink="http://www.w3.org/1999/xlink" width="864pt" height="432pt" viewBox="0 0 864 432" xmlns="http://www.w3.org/2000/svg" version="1.1">
 <metadata>
  <rdf:RDF xmlns:dc="http://purl.org/dc/elements/1.1/" xmlns:cc="http://creativecommons.org/ns#" xmlns:rdf="http://www.w3.org/1999/02/22-rdf-syntax-ns#">
   <cc:Work>
    <dc:type rdf:resource="http://purl.org/dc/dcmitype/StillImage"/>
    <dc:date>2024-10-20T15:49:11.033099</dc:date>
    <dc:format>image/svg+xml</dc:format>
    <dc:creator>
     <cc:Agent>
      <dc:title>Matplotlib v3.8.4, https://matplotlib.org/</dc:title>
     </cc:Agent>
    </dc:creator>
   </cc:Work>
  </rdf:RDF>
 </metadata>
 <defs>
  <style type="text/css">*{stroke-linejoin: round; stroke-linecap: butt}</style>
 </defs>
 <g id="figure_1">
  <g id="patch_1">
   <path d="M 0 432 
L 864 432 
L 864 0 
L 0 0 
z
" style="fill: #ffffff"/>
  </g>
  <g id="axes_1">
   <g id="patch_2">
    <path d="M 108 384.48 
L 777.6 384.48 
L 777.6 51.84 
L 108 51.84 
z
" style="fill: #ffffff"/>
   </g>
   <g id="matplotlib.axis_1">
    <g id="xtick_1">
     <g id="line2d_1">
      <path d="M 135.377433 384.48 
L 135.377433 51.84 
" clip-path="url(#p59067f8201)" style="fill: none; stroke: #b0b0b0; stroke-width: 0.8; stroke-linecap: square"/>
     </g>
     <g id="line2d_2">
      <defs>
       <path id="m0271882252" d="M 0 0 
L 0 3.5 
" style="stroke: #000000; stroke-width: 0.8"/>
      </defs>
      <g>
       <use xlink:href="#m0271882252" x="135.377433" y="384.48" style="stroke: #000000; stroke-width: 0.8"/>
      </g>
     </g>
     <g id="text_1">
      <!-- 0 -->
      <g transform="translate(132.196183 399.078438) scale(0.1 -0.1)">
       <defs>
        <path id="DejaVuSans-30" d="M 2034 4250 
Q 1547 4250 1301 3770 
Q 1056 3291 1056 2328 
Q 1056 1369 1301 889 
Q 1547 409 2034 409 
Q 2525 409 2770 889 
Q 3016 1369 3016 2328 
Q 3016 3291 2770 3770 
Q 2525 4250 2034 4250 
z
M 2034 4750 
Q 2819 4750 3233 4129 
Q 3647 3509 3647 2328 
Q 3647 1150 3233 529 
Q 2819 -91 2034 -91 
Q 1250 -91 836 529 
Q 422 1150 422 2328 
Q 422 3509 836 4129 
Q 1250 4750 2034 4750 
z
" transform="scale(0.015625)"/>
       </defs>
       <use xlink:href="#DejaVuSans-30"/>
      </g>
     </g>
    </g>
    <g id="xtick_2">
     <g id="line2d_3">
      <path d="M 211.850708 384.48 
L 211.850708 51.84 
" clip-path="url(#p59067f8201)" style="fill: none; stroke: #b0b0b0; stroke-width: 0.8; stroke-linecap: square"/>
     </g>
     <g id="line2d_4">
      <g>
       <use xlink:href="#m0271882252" x="211.850708" y="384.48" style="stroke: #000000; stroke-width: 0.8"/>
      </g>
     </g>
     <g id="text_2">
      <!-- 25 -->
      <g transform="translate(205.488208 399.078438) scale(0.1 -0.1)">
       <defs>
        <path id="DejaVuSans-32" d="M 1228 531 
L 3431 531 
L 3431 0 
L 469 0 
L 469 531 
Q 828 903 1448 1529 
Q 2069 2156 2228 2338 
Q 2531 2678 2651 2914 
Q 2772 3150 2772 3378 
Q 2772 3750 2511 3984 
Q 2250 4219 1831 4219 
Q 1534 4219 1204 4116 
Q 875 4013 500 3803 
L 500 4441 
Q 881 4594 1212 4672 
Q 1544 4750 1819 4750 
Q 2544 4750 2975 4387 
Q 3406 4025 3406 3419 
Q 3406 3131 3298 2873 
Q 3191 2616 2906 2266 
Q 2828 2175 2409 1742 
Q 1991 1309 1228 531 
z
" transform="scale(0.015625)"/>
        <path id="DejaVuSans-35" d="M 691 4666 
L 3169 4666 
L 3169 4134 
L 1269 4134 
L 1269 2991 
Q 1406 3038 1543 3061 
Q 1681 3084 1819 3084 
Q 2600 3084 3056 2656 
Q 3513 2228 3513 1497 
Q 3513 744 3044 326 
Q 2575 -91 1722 -91 
Q 1428 -91 1123 -41 
Q 819 9 494 109 
L 494 744 
Q 775 591 1075 516 
Q 1375 441 1709 441 
Q 2250 441 2565 725 
Q 2881 1009 2881 1497 
Q 2881 1984 2565 2268 
Q 2250 2553 1709 2553 
Q 1456 2553 1204 2497 
Q 953 2441 691 2322 
L 691 4666 
z
" transform="scale(0.015625)"/>
       </defs>
       <use xlink:href="#DejaVuSans-32"/>
       <use xlink:href="#DejaVuSans-35" x="63.623047"/>
      </g>
     </g>
    </g>
    <g id="xtick_3">
     <g id="line2d_5">
      <path d="M 288.323984 384.48 
L 288.323984 51.84 
" clip-path="url(#p59067f8201)" style="fill: none; stroke: #b0b0b0; stroke-width: 0.8; stroke-linecap: square"/>
     </g>
     <g id="line2d_6">
      <g>
       <use xlink:href="#m0271882252" x="288.323984" y="384.48" style="stroke: #000000; stroke-width: 0.8"/>
      </g>
     </g>
     <g id="text_3">
      <!-- 50 -->
      <g transform="translate(281.961484 399.078438) scale(0.1 -0.1)">
       <use xlink:href="#DejaVuSans-35"/>
       <use xlink:href="#DejaVuSans-30" x="63.623047"/>
      </g>
     </g>
    </g>
    <g id="xtick_4">
     <g id="line2d_7">
      <path d="M 364.797259 384.48 
L 364.797259 51.84 
" clip-path="url(#p59067f8201)" style="fill: none; stroke: #b0b0b0; stroke-width: 0.8; stroke-linecap: square"/>
     </g>
     <g id="line2d_8">
      <g>
       <use xlink:href="#m0271882252" x="364.797259" y="384.48" style="stroke: #000000; stroke-width: 0.8"/>
      </g>
     </g>
     <g id="text_4">
      <!-- 75 -->
      <g transform="translate(358.434759 399.078438) scale(0.1 -0.1)">
       <defs>
        <path id="DejaVuSans-37" d="M 525 4666 
L 3525 4666 
L 3525 4397 
L 1831 0 
L 1172 0 
L 2766 4134 
L 525 4134 
L 525 4666 
z
" transform="scale(0.015625)"/>
       </defs>
       <use xlink:href="#DejaVuSans-37"/>
       <use xlink:href="#DejaVuSans-35" x="63.623047"/>
      </g>
     </g>
    </g>
    <g id="xtick_5">
     <g id="line2d_9">
      <path d="M 441.270534 384.48 
L 441.270534 51.84 
" clip-path="url(#p59067f8201)" style="fill: none; stroke: #b0b0b0; stroke-width: 0.8; stroke-linecap: square"/>
     </g>
     <g id="line2d_10">
      <g>
       <use xlink:href="#m0271882252" x="441.270534" y="384.48" style="stroke: #000000; stroke-width: 0.8"/>
      </g>
     </g>
     <g id="text_5">
      <!-- 100 -->
      <g transform="translate(431.726784 399.078438) scale(0.1 -0.1)">
       <defs>
        <path id="DejaVuSans-31" d="M 794 531 
L 1825 531 
L 1825 4091 
L 703 3866 
L 703 4441 
L 1819 4666 
L 2450 4666 
L 2450 531 
L 3481 531 
L 3481 0 
L 794 0 
L 794 531 
z
" transform="scale(0.015625)"/>
       </defs>
       <use xlink:href="#DejaVuSans-31"/>
       <use xlink:href="#DejaVuSans-30" x="63.623047"/>
       <use xlink:href="#DejaVuSans-30" x="127.246094"/>
      </g>
     </g>
    </g>
    <g id="xtick_6">
     <g id="line2d_11">
      <path d="M 517.74381 384.48 
L 517.74381 51.84 
" clip-path="url(#p59067f8201)" style="fill: none; stroke: #b0b0b0; stroke-width: 0.8; stroke-linecap: square"/>
     </g>
     <g id="line2d_12">
      <g>
       <use xlink:href="#m0271882252" x="517.74381" y="384.48" style="stroke: #000000; stroke-width: 0.8"/>
      </g>
     </g>
     <g id="text_6">
      <!-- 125 -->
      <g transform="translate(508.20006 399.078438) scale(0.1 -0.1)">
       <use xlink:href="#DejaVuSans-31"/>
       <use xlink:href="#DejaVuSans-32" x="63.623047"/>
       <use xlink:href="#DejaVuSans-35" x="127.246094"/>
      </g>
     </g>
    </g>
    <g id="xtick_7">
     <g id="line2d_13">
      <path d="M 594.217085 384.48 
L 594.217085 51.84 
" clip-path="url(#p59067f8201)" style="fill: none; stroke: #b0b0b0; stroke-width: 0.8; stroke-linecap: square"/>
     </g>
     <g id="line2d_14">
      <g>
       <use xlink:href="#m0271882252" x="594.217085" y="384.48" style="stroke: #000000; stroke-width: 0.8"/>
      </g>
     </g>
     <g id="text_7">
      <!-- 150 -->
      <g transform="translate(584.673335 399.078438) scale(0.1 -0.1)">
       <use xlink:href="#DejaVuSans-31"/>
       <use xlink:href="#DejaVuSans-35" x="63.623047"/>
       <use xlink:href="#DejaVuSans-30" x="127.246094"/>
      </g>
     </g>
    </g>
    <g id="xtick_8">
     <g id="line2d_15">
      <path d="M 670.690361 384.48 
L 670.690361 51.84 
" clip-path="url(#p59067f8201)" style="fill: none; stroke: #b0b0b0; stroke-width: 0.8; stroke-linecap: square"/>
     </g>
     <g id="line2d_16">
      <g>
       <use xlink:href="#m0271882252" x="670.690361" y="384.48" style="stroke: #000000; stroke-width: 0.8"/>
      </g>
     </g>
     <g id="text_8">
      <!-- 175 -->
      <g transform="translate(661.146611 399.078438) scale(0.1 -0.1)">
       <use xlink:href="#DejaVuSans-31"/>
       <use xlink:href="#DejaVuSans-37" x="63.623047"/>
       <use xlink:href="#DejaVuSans-35" x="127.246094"/>
      </g>
     </g>
    </g>
    <g id="xtick_9">
     <g id="line2d_17">
      <path d="M 747.163636 384.48 
L 747.163636 51.84 
" clip-path="url(#p59067f8201)" style="fill: none; stroke: #b0b0b0; stroke-width: 0.8; stroke-linecap: square"/>
     </g>
     <g id="line2d_18">
      <g>
       <use xlink:href="#m0271882252" x="747.163636" y="384.48" style="stroke: #000000; stroke-width: 0.8"/>
      </g>
     </g>
     <g id="text_9">
      <!-- 200 -->
      <g transform="translate(737.619886 399.078438) scale(0.1 -0.1)">
       <use xlink:href="#DejaVuSans-32"/>
       <use xlink:href="#DejaVuSans-30" x="63.623047"/>
       <use xlink:href="#DejaVuSans-30" x="127.246094"/>
      </g>
     </g>
    </g>
    <g id="text_10">
     <!-- Número de Splits -->
     <g transform="translate(399.821094 413.156563) scale(0.1 -0.1)">
      <defs>
       <path id="DejaVuSans-4e" d="M 628 4666 
L 1478 4666 
L 3547 763 
L 3547 4666 
L 4159 4666 
L 4159 0 
L 3309 0 
L 1241 3903 
L 1241 0 
L 628 0 
L 628 4666 
z
" transform="scale(0.015625)"/>
       <path id="DejaVuSans-fa" d="M 544 1381 
L 544 3500 
L 1119 3500 
L 1119 1403 
Q 1119 906 1312 657 
Q 1506 409 1894 409 
Q 2359 409 2629 706 
Q 2900 1003 2900 1516 
L 2900 3500 
L 3475 3500 
L 3475 0 
L 2900 0 
L 2900 538 
Q 2691 219 2414 64 
Q 2138 -91 1772 -91 
Q 1169 -91 856 284 
Q 544 659 544 1381 
z
M 1991 3584 
L 1991 3584 
z
M 2418 5119 
L 3040 5119 
L 2022 3944 
L 1543 3944 
L 2418 5119 
z
" transform="scale(0.015625)"/>
       <path id="DejaVuSans-6d" d="M 3328 2828 
Q 3544 3216 3844 3400 
Q 4144 3584 4550 3584 
Q 5097 3584 5394 3201 
Q 5691 2819 5691 2113 
L 5691 0 
L 5113 0 
L 5113 2094 
Q 5113 2597 4934 2840 
Q 4756 3084 4391 3084 
Q 3944 3084 3684 2787 
Q 3425 2491 3425 1978 
L 3425 0 
L 2847 0 
L 2847 2094 
Q 2847 2600 2669 2842 
Q 2491 3084 2119 3084 
Q 1678 3084 1418 2786 
Q 1159 2488 1159 1978 
L 1159 0 
L 581 0 
L 581 3500 
L 1159 3500 
L 1159 2956 
Q 1356 3278 1631 3431 
Q 1906 3584 2284 3584 
Q 2666 3584 2933 3390 
Q 3200 3197 3328 2828 
z
" transform="scale(0.015625)"/>
       <path id="DejaVuSans-65" d="M 3597 1894 
L 3597 1613 
L 953 1613 
Q 991 1019 1311 708 
Q 1631 397 2203 397 
Q 2534 397 2845 478 
Q 3156 559 3463 722 
L 3463 178 
Q 3153 47 2828 -22 
Q 2503 -91 2169 -91 
Q 1331 -91 842 396 
Q 353 884 353 1716 
Q 353 2575 817 3079 
Q 1281 3584 2069 3584 
Q 2775 3584 3186 3129 
Q 3597 2675 3597 1894 
z
M 3022 2063 
Q 3016 2534 2758 2815 
Q 2500 3097 2075 3097 
Q 1594 3097 1305 2825 
Q 1016 2553 972 2059 
L 3022 2063 
z
" transform="scale(0.015625)"/>
       <path id="DejaVuSans-72" d="M 2631 2963 
Q 2534 3019 2420 3045 
Q 2306 3072 2169 3072 
Q 1681 3072 1420 2755 
Q 1159 2438 1159 1844 
L 1159 0 
L 581 0 
L 581 3500 
L 1159 3500 
L 1159 2956 
Q 1341 3275 1631 3429 
Q 1922 3584 2338 3584 
Q 2397 3584 2469 3576 
Q 2541 3569 2628 3553 
L 2631 2963 
z
" transform="scale(0.015625)"/>
       <path id="DejaVuSans-6f" d="M 1959 3097 
Q 1497 3097 1228 2736 
Q 959 2375 959 1747 
Q 959 1119 1226 758 
Q 1494 397 1959 397 
Q 2419 397 2687 759 
Q 2956 1122 2956 1747 
Q 2956 2369 2687 2733 
Q 2419 3097 1959 3097 
z
M 1959 3584 
Q 2709 3584 3137 3096 
Q 3566 2609 3566 1747 
Q 3566 888 3137 398 
Q 2709 -91 1959 -91 
Q 1206 -91 779 398 
Q 353 888 353 1747 
Q 353 2609 779 3096 
Q 1206 3584 1959 3584 
z
" transform="scale(0.015625)"/>
       <path id="DejaVuSans-20" transform="scale(0.015625)"/>
       <path id="DejaVuSans-64" d="M 2906 2969 
L 2906 4863 
L 3481 4863 
L 3481 0 
L 2906 0 
L 2906 525 
Q 2725 213 2448 61 
Q 2172 -91 1784 -91 
Q 1150 -91 751 415 
Q 353 922 353 1747 
Q 353 2572 751 3078 
Q 1150 3584 1784 3584 
Q 2172 3584 2448 3432 
Q 2725 3281 2906 2969 
z
M 947 1747 
Q 947 1113 1208 752 
Q 1469 391 1925 391 
Q 2381 391 2643 752 
Q 2906 1113 2906 1747 
Q 2906 2381 2643 2742 
Q 2381 3103 1925 3103 
Q 1469 3103 1208 2742 
Q 947 2381 947 1747 
z
" transform="scale(0.015625)"/>
       <path id="DejaVuSans-53" d="M 3425 4513 
L 3425 3897 
Q 3066 4069 2747 4153 
Q 2428 4238 2131 4238 
Q 1616 4238 1336 4038 
Q 1056 3838 1056 3469 
Q 1056 3159 1242 3001 
Q 1428 2844 1947 2747 
L 2328 2669 
Q 3034 2534 3370 2195 
Q 3706 1856 3706 1288 
Q 3706 609 3251 259 
Q 2797 -91 1919 -91 
Q 1588 -91 1214 -16 
Q 841 59 441 206 
L 441 856 
Q 825 641 1194 531 
Q 1563 422 1919 422 
Q 2459 422 2753 634 
Q 3047 847 3047 1241 
Q 3047 1584 2836 1778 
Q 2625 1972 2144 2069 
L 1759 2144 
Q 1053 2284 737 2584 
Q 422 2884 422 3419 
Q 422 4038 858 4394 
Q 1294 4750 2059 4750 
Q 2388 4750 2728 4690 
Q 3069 4631 3425 4513 
z
" transform="scale(0.015625)"/>
       <path id="DejaVuSans-70" d="M 1159 525 
L 1159 -1331 
L 581 -1331 
L 581 3500 
L 1159 3500 
L 1159 2969 
Q 1341 3281 1617 3432 
Q 1894 3584 2278 3584 
Q 2916 3584 3314 3078 
Q 3713 2572 3713 1747 
Q 3713 922 3314 415 
Q 2916 -91 2278 -91 
Q 1894 -91 1617 61 
Q 1341 213 1159 525 
z
M 3116 1747 
Q 3116 2381 2855 2742 
Q 2594 3103 2138 3103 
Q 1681 3103 1420 2742 
Q 1159 2381 1159 1747 
Q 1159 1113 1420 752 
Q 1681 391 2138 391 
Q 2594 391 2855 752 
Q 3116 1113 3116 1747 
z
" transform="scale(0.015625)"/>
       <path id="DejaVuSans-6c" d="M 603 4863 
L 1178 4863 
L 1178 0 
L 603 0 
L 603 4863 
z
" transform="scale(0.015625)"/>
       <path id="DejaVuSans-69" d="M 603 3500 
L 1178 3500 
L 1178 0 
L 603 0 
L 603 3500 
z
M 603 4863 
L 1178 4863 
L 1178 4134 
L 603 4134 
L 603 4863 
z
" transform="scale(0.015625)"/>
       <path id="DejaVuSans-74" d="M 1172 4494 
L 1172 3500 
L 2356 3500 
L 2356 3053 
L 1172 3053 
L 1172 1153 
Q 1172 725 1289 603 
Q 1406 481 1766 481 
L 2356 481 
L 2356 0 
L 1766 0 
Q 1100 0 847 248 
Q 594 497 594 1153 
L 594 3053 
L 172 3053 
L 172 3500 
L 594 3500 
L 594 4494 
L 1172 4494 
z
" transform="scale(0.015625)"/>
       <path id="DejaVuSans-73" d="M 2834 3397 
L 2834 2853 
Q 2591 2978 2328 3040 
Q 2066 3103 1784 3103 
Q 1356 3103 1142 2972 
Q 928 2841 928 2578 
Q 928 2378 1081 2264 
Q 1234 2150 1697 2047 
L 1894 2003 
Q 2506 1872 2764 1633 
Q 3022 1394 3022 966 
Q 3022 478 2636 193 
Q 2250 -91 1575 -91 
Q 1294 -91 989 -36 
Q 684 19 347 128 
L 347 722 
Q 666 556 975 473 
Q 1284 391 1588 391 
Q 1994 391 2212 530 
Q 2431 669 2431 922 
Q 2431 1156 2273 1281 
Q 2116 1406 1581 1522 
L 1381 1569 
Q 847 1681 609 1914 
Q 372 2147 372 2553 
Q 372 3047 722 3315 
Q 1072 3584 1716 3584 
Q 2034 3584 2315 3537 
Q 2597 3491 2834 3397 
z
" transform="scale(0.015625)"/>
      </defs>
      <use xlink:href="#DejaVuSans-4e"/>
      <use xlink:href="#DejaVuSans-fa" x="74.804688"/>
      <use xlink:href="#DejaVuSans-6d" x="138.183594"/>
      <use xlink:href="#DejaVuSans-65" x="235.595703"/>
      <use xlink:href="#DejaVuSans-72" x="297.119141"/>
      <use xlink:href="#DejaVuSans-6f" x="335.982422"/>
      <use xlink:href="#DejaVuSans-20" x="397.164062"/>
      <use xlink:href="#DejaVuSans-64" x="428.951172"/>
      <use xlink:href="#DejaVuSans-65" x="492.427734"/>
      <use xlink:href="#DejaVuSans-20" x="553.951172"/>
      <use xlink:href="#DejaVuSans-53" x="585.738281"/>
      <use xlink:href="#DejaVuSans-70" x="649.214844"/>
      <use xlink:href="#DejaVuSans-6c" x="712.691406"/>
      <use xlink:href="#DejaVuSans-69" x="740.474609"/>
      <use xlink:href="#DejaVuSans-74" x="768.257812"/>
      <use xlink:href="#DejaVuSans-73" x="807.466797"/>
     </g>
    </g>
   </g>
   <g id="matplotlib.axis_2">
    <g id="ytick_1">
     <g id="line2d_19">
      <path d="M 108 369.407489 
L 777.6 369.407489 
" clip-path="url(#p59067f8201)" style="fill: none; stroke: #b0b0b0; stroke-width: 0.8; stroke-linecap: square"/>
     </g>
     <g id="line2d_20">
      <defs>
       <path id="m5a5fb860a3" d="M 0 0 
L -3.5 0 
" style="stroke: #000000; stroke-width: 0.8"/>
      </defs>
      <g>
       <use xlink:href="#m5a5fb860a3" x="108" y="369.407489" style="stroke: #000000; stroke-width: 0.8"/>
      </g>
     </g>
     <g id="text_11">
      <!-- 0 -->
      <g transform="translate(94.6375 373.206708) scale(0.1 -0.1)">
       <use xlink:href="#DejaVuSans-30"/>
      </g>
     </g>
    </g>
    <g id="ytick_2">
     <g id="line2d_21">
      <path d="M 108 302.479171 
L 777.6 302.479171 
" clip-path="url(#p59067f8201)" style="fill: none; stroke: #b0b0b0; stroke-width: 0.8; stroke-linecap: square"/>
     </g>
     <g id="line2d_22">
      <g>
       <use xlink:href="#m5a5fb860a3" x="108" y="302.479171" style="stroke: #000000; stroke-width: 0.8"/>
      </g>
     </g>
     <g id="text_12">
      <!-- 2 -->
      <g transform="translate(94.6375 306.278389) scale(0.1 -0.1)">
       <use xlink:href="#DejaVuSans-32"/>
      </g>
     </g>
    </g>
    <g id="ytick_3">
     <g id="line2d_23">
      <path d="M 108 235.550852 
L 777.6 235.550852 
" clip-path="url(#p59067f8201)" style="fill: none; stroke: #b0b0b0; stroke-width: 0.8; stroke-linecap: square"/>
     </g>
     <g id="line2d_24">
      <g>
       <use xlink:href="#m5a5fb860a3" x="108" y="235.550852" style="stroke: #000000; stroke-width: 0.8"/>
      </g>
     </g>
     <g id="text_13">
      <!-- 4 -->
      <g transform="translate(94.6375 239.350071) scale(0.1 -0.1)">
       <defs>
        <path id="DejaVuSans-34" d="M 2419 4116 
L 825 1625 
L 2419 1625 
L 2419 4116 
z
M 2253 4666 
L 3047 4666 
L 3047 1625 
L 3713 1625 
L 3713 1100 
L 3047 1100 
L 3047 0 
L 2419 0 
L 2419 1100 
L 313 1100 
L 313 1709 
L 2253 4666 
z
" transform="scale(0.015625)"/>
       </defs>
       <use xlink:href="#DejaVuSans-34"/>
      </g>
     </g>
    </g>
    <g id="ytick_4">
     <g id="line2d_25">
      <path d="M 108 168.622534 
L 777.6 168.622534 
" clip-path="url(#p59067f8201)" style="fill: none; stroke: #b0b0b0; stroke-width: 0.8; stroke-linecap: square"/>
     </g>
     <g id="line2d_26">
      <g>
       <use xlink:href="#m5a5fb860a3" x="108" y="168.622534" style="stroke: #000000; stroke-width: 0.8"/>
      </g>
     </g>
     <g id="text_14">
      <!-- 6 -->
      <g transform="translate(94.6375 172.421753) scale(0.1 -0.1)">
       <defs>
        <path id="DejaVuSans-36" d="M 2113 2584 
Q 1688 2584 1439 2293 
Q 1191 2003 1191 1497 
Q 1191 994 1439 701 
Q 1688 409 2113 409 
Q 2538 409 2786 701 
Q 3034 994 3034 1497 
Q 3034 2003 2786 2293 
Q 2538 2584 2113 2584 
z
M 3366 4563 
L 3366 3988 
Q 3128 4100 2886 4159 
Q 2644 4219 2406 4219 
Q 1781 4219 1451 3797 
Q 1122 3375 1075 2522 
Q 1259 2794 1537 2939 
Q 1816 3084 2150 3084 
Q 2853 3084 3261 2657 
Q 3669 2231 3669 1497 
Q 3669 778 3244 343 
Q 2819 -91 2113 -91 
Q 1303 -91 875 529 
Q 447 1150 447 2328 
Q 447 3434 972 4092 
Q 1497 4750 2381 4750 
Q 2619 4750 2861 4703 
Q 3103 4656 3366 4563 
z
" transform="scale(0.015625)"/>
       </defs>
       <use xlink:href="#DejaVuSans-36"/>
      </g>
     </g>
    </g>
    <g id="ytick_5">
     <g id="line2d_27">
      <path d="M 108 101.694216 
L 777.6 101.694216 
" clip-path="url(#p59067f8201)" style="fill: none; stroke: #b0b0b0; stroke-width: 0.8; stroke-linecap: square"/>
     </g>
     <g id="line2d_28">
      <g>
       <use xlink:href="#m5a5fb860a3" x="108" y="101.694216" style="stroke: #000000; stroke-width: 0.8"/>
      </g>
     </g>
     <g id="text_15">
      <!-- 8 -->
      <g transform="translate(94.6375 105.493434) scale(0.1 -0.1)">
       <defs>
        <path id="DejaVuSans-38" d="M 2034 2216 
Q 1584 2216 1326 1975 
Q 1069 1734 1069 1313 
Q 1069 891 1326 650 
Q 1584 409 2034 409 
Q 2484 409 2743 651 
Q 3003 894 3003 1313 
Q 3003 1734 2745 1975 
Q 2488 2216 2034 2216 
z
M 1403 2484 
Q 997 2584 770 2862 
Q 544 3141 544 3541 
Q 544 4100 942 4425 
Q 1341 4750 2034 4750 
Q 2731 4750 3128 4425 
Q 3525 4100 3525 3541 
Q 3525 3141 3298 2862 
Q 3072 2584 2669 2484 
Q 3125 2378 3379 2068 
Q 3634 1759 3634 1313 
Q 3634 634 3220 271 
Q 2806 -91 2034 -91 
Q 1263 -91 848 271 
Q 434 634 434 1313 
Q 434 1759 690 2068 
Q 947 2378 1403 2484 
z
M 1172 3481 
Q 1172 3119 1398 2916 
Q 1625 2713 2034 2713 
Q 2441 2713 2670 2916 
Q 2900 3119 2900 3481 
Q 2900 3844 2670 4047 
Q 2441 4250 2034 4250 
Q 1625 4250 1398 4047 
Q 1172 3844 1172 3481 
z
" transform="scale(0.015625)"/>
       </defs>
       <use xlink:href="#DejaVuSans-38"/>
      </g>
     </g>
    </g>
    <g id="text_16">
     <!-- Mean Absolute Error -->
     <g transform="translate(88.557812 268.999844) rotate(-90) scale(0.1 -0.1)">
      <defs>
       <path id="DejaVuSans-4d" d="M 628 4666 
L 1569 4666 
L 2759 1491 
L 3956 4666 
L 4897 4666 
L 4897 0 
L 4281 0 
L 4281 4097 
L 3078 897 
L 2444 897 
L 1241 4097 
L 1241 0 
L 628 0 
L 628 4666 
z
" transform="scale(0.015625)"/>
       <path id="DejaVuSans-61" d="M 2194 1759 
Q 1497 1759 1228 1600 
Q 959 1441 959 1056 
Q 959 750 1161 570 
Q 1363 391 1709 391 
Q 2188 391 2477 730 
Q 2766 1069 2766 1631 
L 2766 1759 
L 2194 1759 
z
M 3341 1997 
L 3341 0 
L 2766 0 
L 2766 531 
Q 2569 213 2275 61 
Q 1981 -91 1556 -91 
Q 1019 -91 701 211 
Q 384 513 384 1019 
Q 384 1609 779 1909 
Q 1175 2209 1959 2209 
L 2766 2209 
L 2766 2266 
Q 2766 2663 2505 2880 
Q 2244 3097 1772 3097 
Q 1472 3097 1187 3025 
Q 903 2953 641 2809 
L 641 3341 
Q 956 3463 1253 3523 
Q 1550 3584 1831 3584 
Q 2591 3584 2966 3190 
Q 3341 2797 3341 1997 
z
" transform="scale(0.015625)"/>
       <path id="DejaVuSans-6e" d="M 3513 2113 
L 3513 0 
L 2938 0 
L 2938 2094 
Q 2938 2591 2744 2837 
Q 2550 3084 2163 3084 
Q 1697 3084 1428 2787 
Q 1159 2491 1159 1978 
L 1159 0 
L 581 0 
L 581 3500 
L 1159 3500 
L 1159 2956 
Q 1366 3272 1645 3428 
Q 1925 3584 2291 3584 
Q 2894 3584 3203 3211 
Q 3513 2838 3513 2113 
z
" transform="scale(0.015625)"/>
       <path id="DejaVuSans-41" d="M 2188 4044 
L 1331 1722 
L 3047 1722 
L 2188 4044 
z
M 1831 4666 
L 2547 4666 
L 4325 0 
L 3669 0 
L 3244 1197 
L 1141 1197 
L 716 0 
L 50 0 
L 1831 4666 
z
" transform="scale(0.015625)"/>
       <path id="DejaVuSans-62" d="M 3116 1747 
Q 3116 2381 2855 2742 
Q 2594 3103 2138 3103 
Q 1681 3103 1420 2742 
Q 1159 2381 1159 1747 
Q 1159 1113 1420 752 
Q 1681 391 2138 391 
Q 2594 391 2855 752 
Q 3116 1113 3116 1747 
z
M 1159 2969 
Q 1341 3281 1617 3432 
Q 1894 3584 2278 3584 
Q 2916 3584 3314 3078 
Q 3713 2572 3713 1747 
Q 3713 922 3314 415 
Q 2916 -91 2278 -91 
Q 1894 -91 1617 61 
Q 1341 213 1159 525 
L 1159 0 
L 581 0 
L 581 4863 
L 1159 4863 
L 1159 2969 
z
" transform="scale(0.015625)"/>
       <path id="DejaVuSans-75" d="M 544 1381 
L 544 3500 
L 1119 3500 
L 1119 1403 
Q 1119 906 1312 657 
Q 1506 409 1894 409 
Q 2359 409 2629 706 
Q 2900 1003 2900 1516 
L 2900 3500 
L 3475 3500 
L 3475 0 
L 2900 0 
L 2900 538 
Q 2691 219 2414 64 
Q 2138 -91 1772 -91 
Q 1169 -91 856 284 
Q 544 659 544 1381 
z
M 1991 3584 
L 1991 3584 
z
" transform="scale(0.015625)"/>
       <path id="DejaVuSans-45" d="M 628 4666 
L 3578 4666 
L 3578 4134 
L 1259 4134 
L 1259 2753 
L 3481 2753 
L 3481 2222 
L 1259 2222 
L 1259 531 
L 3634 531 
L 3634 0 
L 628 0 
L 628 4666 
z
" transform="scale(0.015625)"/>
      </defs>
      <use xlink:href="#DejaVuSans-4d"/>
      <use xlink:href="#DejaVuSans-65" x="86.279297"/>
      <use xlink:href="#DejaVuSans-61" x="147.802734"/>
      <use xlink:href="#DejaVuSans-6e" x="209.082031"/>
      <use xlink:href="#DejaVuSans-20" x="272.460938"/>
      <use xlink:href="#DejaVuSans-41" x="304.248047"/>
      <use xlink:href="#DejaVuSans-62" x="372.65625"/>
      <use xlink:href="#DejaVuSans-73" x="436.132812"/>
      <use xlink:href="#DejaVuSans-6f" x="488.232422"/>
      <use xlink:href="#DejaVuSans-6c" x="549.414062"/>
      <use xlink:href="#DejaVuSans-75" x="577.197266"/>
      <use xlink:href="#DejaVuSans-74" x="640.576172"/>
      <use xlink:href="#DejaVuSans-65" x="679.785156"/>
      <use xlink:href="#DejaVuSans-20" x="741.308594"/>
      <use xlink:href="#DejaVuSans-45" x="773.095703"/>
      <use xlink:href="#DejaVuSans-72" x="836.279297"/>
      <use xlink:href="#DejaVuSans-72" x="875.642578"/>
      <use xlink:href="#DejaVuSans-6f" x="914.505859"/>
      <use xlink:href="#DejaVuSans-72" x="975.6875"/>
     </g>
    </g>
   </g>
   <g id="line2d_29">
    <path d="M 138.436364 339.535426 
L 141.495295 340.128842 
L 144.554226 339.16954 
L 147.613157 338.440413 
L 150.672088 338.866983 
L 153.731019 338.733819 
L 156.78995 341.240124 
L 159.848881 340.036452 
L 162.907812 342.082125 
L 165.966743 341.660283 
L 169.025674 340.604342 
L 172.084605 340.887427 
L 175.143536 342.392657 
L 178.202467 343.441737 
L 181.261398 342.679751 
L 184.320329 343.454438 
L 187.37926 344.354469 
L 190.438191 344.309812 
L 193.497122 344.027055 
L 196.556053 345.439659 
L 199.614984 344.974089 
L 202.673915 345.157654 
L 205.732846 344.61327 
L 208.791777 345.489376 
L 211.850708 346.576413 
L 214.909639 344.710151 
L 217.96857 345.701001 
L 221.027501 345.753289 
L 224.086432 345.416494 
L 227.145363 345.575795 
L 230.204294 346.470807 
L 233.263225 346.714799 
L 236.322156 346.400062 
L 239.381087 347.584386 
L 242.440018 347.46387 
L 245.498949 346.86044 
L 248.55788 348.071285 
L 251.616811 347.03993 
L 254.675742 347.61612 
L 257.734673 347.364564 
L 260.793604 347.683882 
L 263.852535 348.169597 
L 266.911466 347.264822 
L 269.970397 348.948302 
L 273.029328 347.812722 
L 276.088259 347.812992 
L 279.14719 348.258608 
L 282.206122 347.833291 
L 285.265053 348.609155 
L 288.323984 348.757415 
L 291.382915 348.158284 
L 297.500777 348.318885 
L 300.559708 348.889016 
L 303.618639 348.956636 
L 306.67757 348.800632 
L 309.736501 349.083504 
L 312.795432 350.224712 
L 315.854363 349.282137 
L 318.913294 349.538351 
L 321.972225 350.174423 
L 325.031156 349.560779 
L 328.090087 349.914537 
L 334.207949 351.109791 
L 337.26688 350.163573 
L 340.325811 350.543006 
L 343.384742 351.041796 
L 346.443673 350.65562 
L 349.502604 350.405766 
L 352.561535 349.021426 
L 355.620466 349.61503 
L 358.679397 349.614622 
L 364.797259 349.99079 
L 367.85619 349.641355 
L 370.915121 350.203882 
L 373.974052 348.930297 
L 377.032983 349.914591 
L 380.091914 350.133247 
L 383.150845 349.95283 
L 386.209776 349.584034 
L 389.268707 351.040304 
L 392.327638 349.689753 
L 395.386569 350.807552 
L 398.4455 351.570486 
L 401.504431 350.56973 
L 404.563362 350.940836 
L 407.622293 350.880094 
L 410.681224 351.34008 
L 413.740155 350.507563 
L 416.799086 351.334895 
L 419.858017 350.846886 
L 422.916948 351.640878 
L 425.975879 351.933304 
L 429.03481 351.848759 
L 432.093741 350.378525 
L 435.152672 350.625118 
L 441.270534 349.51672 
L 444.329466 349.961782 
L 447.388397 349.912978 
L 450.447328 349.660627 
L 453.506259 349.642509 
L 456.56519 350.201714 
L 459.624121 350.547838 
L 462.683052 350.412886 
L 465.741983 350.112149 
L 468.800914 351.026556 
L 471.859845 350.549235 
L 474.918776 351.159858 
L 477.977707 350.119228 
L 481.036638 350.998967 
L 484.095569 350.342287 
L 487.1545 351.29471 
L 490.213431 351.56795 
L 493.272362 351.453347 
L 496.331293 351.722391 
L 499.390224 351.401065 
L 502.449155 351.613417 
L 505.508086 351.637067 
L 508.567017 351.506815 
L 511.625948 351.872159 
L 514.684879 351.312634 
L 520.802741 352.546639 
L 523.861672 351.958108 
L 526.920603 351.241051 
L 529.979534 351.984161 
L 536.097396 351.488989 
L 539.156327 351.73692 
L 542.215258 351.620148 
L 545.274189 352.458384 
L 548.33312 351.397193 
L 551.392051 352.025582 
L 554.450982 351.938785 
L 557.509913 352.28292 
L 560.568844 351.963707 
L 563.627775 351.945596 
L 566.686706 352.946438 
L 569.745637 352.259159 
L 572.804568 352.305442 
L 575.863499 351.837531 
L 578.92243 352.486313 
L 585.040292 352.368795 
L 588.099223 352.289219 
L 591.158154 352.497076 
L 594.217085 352.91918 
L 600.334947 352.859588 
L 603.393878 352.930859 
L 606.45281 353.61177 
L 609.511741 352.942942 
L 612.570672 353.226704 
L 615.629603 352.864174 
L 618.688534 353.839584 
L 621.747465 353.530225 
L 624.806396 353.466054 
L 627.865327 354.103232 
L 633.983189 353.621442 
L 637.04212 354.208564 
L 640.101051 354.223358 
L 643.159982 354.432896 
L 646.218913 353.998391 
L 649.277844 354.235245 
L 652.336775 353.850006 
L 655.395706 353.691556 
L 658.454637 353.769503 
L 661.513568 354.614286 
L 664.572499 354.601208 
L 673.749292 353.697673 
L 676.808223 354.21965 
L 679.867154 354.509899 
L 682.926085 353.825959 
L 685.985016 353.997167 
L 689.043947 353.595582 
L 692.102878 353.931538 
L 695.161809 354.681673 
L 698.22074 354.477862 
L 701.279671 353.735924 
L 704.338602 354.318382 
L 707.397533 354.177701 
L 710.456464 354.529715 
L 716.574326 354.076807 
L 722.692188 354.442415 
L 725.751119 354.495786 
L 728.81005 354.365081 
L 731.868981 354.546782 
L 737.986843 354.604704 
L 741.045774 354.386989 
L 744.104705 355.098677 
L 747.163636 354.844966 
L 747.163636 354.844966 
" clip-path="url(#p59067f8201)" style="fill: none; stroke: #0000ff; stroke-width: 1.5; stroke-linecap: square"/>
   </g>
   <g id="line2d_30">
    <path d="M 138.436364 331.76908 
L 141.495295 267.732168 
L 144.554226 334.188468 
L 147.613157 297.567438 
L 150.672088 319.660957 
L 153.731019 367.259019 
L 156.78995 366.328785 
L 159.848881 355.820608 
L 162.907812 353.308437 
L 165.966743 349.008138 
L 169.025674 352.991769 
L 172.084605 346.479086 
L 175.143536 362.343766 
L 178.202467 356.820791 
L 181.261398 366.770303 
L 184.320329 358.598087 
L 187.37926 340.850072 
L 190.438191 309.379292 
L 196.556053 360.876781 
L 199.614984 321.997363 
L 202.673915 362.928445 
L 205.732846 321.082252 
L 208.791777 294.474406 
L 211.850708 283.033435 
L 214.909639 300.639412 
L 217.96857 325.417721 
L 221.027501 337.920164 
L 224.086432 317.697187 
L 227.145363 328.262431 
L 230.204294 331.114471 
L 233.263225 326.746926 
L 236.322156 368.76956 
L 239.381087 335.708594 
L 242.440018 354.757779 
L 245.498949 347.087328 
L 248.55788 335.929671 
L 251.616811 324.128135 
L 254.675742 347.702445 
L 257.734673 325.423057 
L 260.793604 285.055482 
L 266.911466 347.903774 
L 269.970397 352.06587 
L 273.029328 365.723287 
L 276.088259 316.582492 
L 279.14719 353.583217 
L 282.206122 363.503033 
L 285.265053 356.666166 
L 288.323984 315.979752 
L 291.382915 368.935368 
L 294.441846 360.030917 
L 297.500777 348.396196 
L 300.559708 356.882741 
L 303.618639 359.899127 
L 306.67757 356.184395 
L 309.736501 361.706449 
L 312.795432 366.100923 
L 315.854363 361.331172 
L 318.913294 312.338944 
L 321.972225 331.553024 
L 325.031156 322.421336 
L 328.090087 358.68605 
L 331.149018 365.720029 
L 334.207949 308.542863 
L 337.26688 278.54033 
L 340.325811 361.025516 
L 343.384742 353.970635 
L 346.443673 348.661035 
L 349.502604 232.075977 
L 352.561535 348.400289 
L 355.620466 292.003679 
L 358.679397 346.702603 
L 361.738328 334.171682 
L 364.797259 277.579114 
L 370.915121 350.07998 
L 373.974052 335.57423 
L 377.032983 365.050628 
L 380.091914 322.330584 
L 383.150845 334.923054 
L 386.209776 340.64568 
L 389.268707 358.243229 
L 392.327638 350.204593 
L 395.386569 353.617353 
L 398.4455 362.382816 
L 401.504431 350.211206 
L 404.563362 348.006577 
L 407.622293 347.748967 
L 410.681224 364.461725 
L 413.740155 346.312478 
L 416.799086 358.138074 
L 419.858017 358.536368 
L 422.916948 346.975896 
L 425.975879 356.710133 
L 429.03481 92.584524 
L 432.093741 218.799886 
L 435.152672 66.96 
L 438.211603 263.026451 
L 441.270534 327.981498 
L 444.329466 366.174969 
L 447.388397 354.384419 
L 450.447328 328.190823 
L 453.506259 336.985334 
L 456.56519 335.173495 
L 459.624121 355.253375 
L 462.683052 347.987458 
L 465.741983 347.773514 
L 468.800914 360.364822 
L 471.859845 354.758084 
L 474.918776 360.107239 
L 477.977707 355.525628 
L 481.036638 358.188888 
L 484.095569 356.432411 
L 487.1545 350.192237 
L 490.213431 352.802968 
L 493.272362 346.888553 
L 496.331293 347.54469 
L 499.390224 346.890193 
L 502.449155 308.110821 
L 505.508086 300.886615 
L 508.567017 313.363662 
L 511.625948 334.045327 
L 514.684879 271.096341 
L 517.74381 348.374256 
L 520.802741 338.799036 
L 523.861672 368.994881 
L 526.920603 364.822246 
L 529.979534 362.862044 
L 533.038465 321.895529 
L 536.097396 361.586592 
L 539.156327 365.846319 
L 542.215258 356.485692 
L 545.274189 358.082143 
L 548.33312 362.147768 
L 551.392051 350.477897 
L 554.450982 351.269527 
L 557.509913 332.126842 
L 560.568844 362.164567 
L 563.627775 361.963512 
L 566.686706 369.091676 
L 569.745637 343.631693 
L 572.804568 324.0006 
L 575.863499 348.699838 
L 578.92243 357.684013 
L 581.981361 346.61141 
L 585.040292 355.001906 
L 588.099223 342.65571 
L 591.158154 357.802784 
L 594.217085 358.831542 
L 600.334947 359.973337 
L 606.45281 358.064021 
L 609.511741 365.419994 
L 612.570672 331.653385 
L 615.629603 347.201268 
L 618.688534 361.901967 
L 621.747465 354.574883 
L 624.806396 364.413826 
L 627.865327 365.108979 
L 630.924258 356.981004 
L 633.983189 280.820912 
L 637.04212 270.452965 
L 640.101051 320.781677 
L 643.159982 343.133146 
L 646.218913 345.18039 
L 649.277844 357.50301 
L 652.336775 313.431052 
L 655.395706 313.083297 
L 658.454637 336.650253 
L 661.513568 312.199569 
L 664.572499 335.057859 
L 667.63143 296.598489 
L 670.690361 264.699637 
L 673.749292 348.944522 
L 676.808223 331.150646 
L 679.867154 283.518295 
L 682.926085 369.001192 
L 685.985016 348.497493 
L 689.043947 347.101258 
L 692.102878 309.801848 
L 695.161809 360.406265 
L 698.22074 344.933427 
L 701.279671 355.278979 
L 704.338602 364.825061 
L 707.397533 369.36 
L 710.456464 361.783074 
L 713.515395 353.176156 
L 716.574326 362.566326 
L 719.633257 366.798766 
L 722.692188 356.777686 
L 725.751119 361.224964 
L 728.81005 361.88237 
L 731.868981 364.83958 
L 734.927912 358.91014 
L 737.986843 359.995962 
L 741.045774 356.333367 
L 744.104705 353.362966 
L 747.163636 355.424236 
L 747.163636 355.424236 
" clip-path="url(#p59067f8201)" style="fill: none; stroke: #ff0000; stroke-width: 1.5; stroke-linecap: square"/>
   </g>
   <g id="patch_3">
    <path d="M 108 384.48 
L 108 51.84 
" style="fill: none; stroke: #000000; stroke-width: 0.8; stroke-linejoin: miter; stroke-linecap: square"/>
   </g>
   <g id="patch_4">
    <path d="M 777.6 384.48 
L 777.6 51.84 
" style="fill: none; stroke: #000000; stroke-width: 0.8; stroke-linejoin: miter; stroke-linecap: square"/>
   </g>
   <g id="patch_5">
    <path d="M 108 384.48 
L 777.6 384.48 
" style="fill: none; stroke: #000000; stroke-width: 0.8; stroke-linejoin: miter; stroke-linecap: square"/>
   </g>
   <g id="patch_6">
    <path d="M 108 51.84 
L 777.6 51.84 
" style="fill: none; stroke: #000000; stroke-width: 0.8; stroke-linejoin: miter; stroke-linecap: square"/>
   </g>
   <g id="text_17">
    <!-- MAE en Entrenamiento y Validación -->
    <g transform="translate(336.000938 45.84) scale(0.12 -0.12)">
     <defs>
      <path id="DejaVuSans-79" d="M 2059 -325 
Q 1816 -950 1584 -1140 
Q 1353 -1331 966 -1331 
L 506 -1331 
L 506 -850 
L 844 -850 
Q 1081 -850 1212 -737 
Q 1344 -625 1503 -206 
L 1606 56 
L 191 3500 
L 800 3500 
L 1894 763 
L 2988 3500 
L 3597 3500 
L 2059 -325 
z
" transform="scale(0.015625)"/>
      <path id="DejaVuSans-56" d="M 1831 0 
L 50 4666 
L 709 4666 
L 2188 738 
L 3669 4666 
L 4325 4666 
L 2547 0 
L 1831 0 
z
" transform="scale(0.015625)"/>
      <path id="DejaVuSans-63" d="M 3122 3366 
L 3122 2828 
Q 2878 2963 2633 3030 
Q 2388 3097 2138 3097 
Q 1578 3097 1268 2742 
Q 959 2388 959 1747 
Q 959 1106 1268 751 
Q 1578 397 2138 397 
Q 2388 397 2633 464 
Q 2878 531 3122 666 
L 3122 134 
Q 2881 22 2623 -34 
Q 2366 -91 2075 -91 
Q 1284 -91 818 406 
Q 353 903 353 1747 
Q 353 2603 823 3093 
Q 1294 3584 2113 3584 
Q 2378 3584 2631 3529 
Q 2884 3475 3122 3366 
z
" transform="scale(0.015625)"/>
      <path id="DejaVuSans-f3" d="M 1959 3097 
Q 1497 3097 1228 2736 
Q 959 2375 959 1747 
Q 959 1119 1226 758 
Q 1494 397 1959 397 
Q 2419 397 2687 759 
Q 2956 1122 2956 1747 
Q 2956 2369 2687 2733 
Q 2419 3097 1959 3097 
z
M 1959 3584 
Q 2709 3584 3137 3096 
Q 3566 2609 3566 1747 
Q 3566 888 3137 398 
Q 2709 -91 1959 -91 
Q 1206 -91 779 398 
Q 353 888 353 1747 
Q 353 2609 779 3096 
Q 1206 3584 1959 3584 
z
M 2394 5119 
L 3016 5119 
L 1998 3944 
L 1519 3944 
L 2394 5119 
z
" transform="scale(0.015625)"/>
     </defs>
     <use xlink:href="#DejaVuSans-4d"/>
     <use xlink:href="#DejaVuSans-41" x="86.279297"/>
     <use xlink:href="#DejaVuSans-45" x="154.6875"/>
     <use xlink:href="#DejaVuSans-20" x="217.871094"/>
     <use xlink:href="#DejaVuSans-65" x="249.658203"/>
     <use xlink:href="#DejaVuSans-6e" x="311.181641"/>
     <use xlink:href="#DejaVuSans-20" x="374.560547"/>
     <use xlink:href="#DejaVuSans-45" x="406.347656"/>
     <use xlink:href="#DejaVuSans-6e" x="469.53125"/>
     <use xlink:href="#DejaVuSans-74" x="532.910156"/>
     <use xlink:href="#DejaVuSans-72" x="572.119141"/>
     <use xlink:href="#DejaVuSans-65" x="610.982422"/>
     <use xlink:href="#DejaVuSans-6e" x="672.505859"/>
     <use xlink:href="#DejaVuSans-61" x="735.884766"/>
     <use xlink:href="#DejaVuSans-6d" x="797.164062"/>
     <use xlink:href="#DejaVuSans-69" x="894.576172"/>
     <use xlink:href="#DejaVuSans-65" x="922.359375"/>
     <use xlink:href="#DejaVuSans-6e" x="983.882812"/>
     <use xlink:href="#DejaVuSans-74" x="1047.261719"/>
     <use xlink:href="#DejaVuSans-6f" x="1086.470703"/>
     <use xlink:href="#DejaVuSans-20" x="1147.652344"/>
     <use xlink:href="#DejaVuSans-79" x="1179.439453"/>
     <use xlink:href="#DejaVuSans-20" x="1238.619141"/>
     <use xlink:href="#DejaVuSans-56" x="1270.40625"/>
     <use xlink:href="#DejaVuSans-61" x="1331.064453"/>
     <use xlink:href="#DejaVuSans-6c" x="1392.34375"/>
     <use xlink:href="#DejaVuSans-69" x="1420.126953"/>
     <use xlink:href="#DejaVuSans-64" x="1447.910156"/>
     <use xlink:href="#DejaVuSans-61" x="1511.386719"/>
     <use xlink:href="#DejaVuSans-63" x="1572.666016"/>
     <use xlink:href="#DejaVuSans-69" x="1627.646484"/>
     <use xlink:href="#DejaVuSans-f3" x="1655.429688"/>
     <use xlink:href="#DejaVuSans-6e" x="1716.611328"/>
    </g>
   </g>
   <g id="legend_1">
    <g id="patch_7">
     <path d="M 639.504688 89.19625 
L 770.6 89.19625 
Q 772.6 89.19625 772.6 87.19625 
L 772.6 58.84 
Q 772.6 56.84 770.6 56.84 
L 639.504688 56.84 
Q 637.504688 56.84 637.504688 58.84 
L 637.504688 87.19625 
Q 637.504688 89.19625 639.504688 89.19625 
z
" style="fill: #ffffff; opacity: 0.8; stroke: #cccccc; stroke-linejoin: miter"/>
    </g>
    <g id="line2d_31">
     <path d="M 641.504688 64.938437 
L 651.504688 64.938437 
L 661.504688 64.938437 
" style="fill: none; stroke: #0000ff; stroke-width: 1.5; stroke-linecap: square"/>
    </g>
    <g id="text_18">
     <!-- MAE Entrenamiento -->
     <g transform="translate(669.504688 68.438437) scale(0.1 -0.1)">
      <use xlink:href="#DejaVuSans-4d"/>
      <use xlink:href="#DejaVuSans-41" x="86.279297"/>
      <use xlink:href="#DejaVuSans-45" x="154.6875"/>
      <use xlink:href="#DejaVuSans-20" x="217.871094"/>
      <use xlink:href="#DejaVuSans-45" x="249.658203"/>
      <use xlink:href="#DejaVuSans-6e" x="312.841797"/>
      <use xlink:href="#DejaVuSans-74" x="376.220703"/>
      <use xlink:href="#DejaVuSans-72" x="415.429688"/>
      <use xlink:href="#DejaVuSans-65" x="454.292969"/>
      <use xlink:href="#DejaVuSans-6e" x="515.816406"/>
      <use xlink:href="#DejaVuSans-61" x="579.195312"/>
      <use xlink:href="#DejaVuSans-6d" x="640.474609"/>
      <use xlink:href="#DejaVuSans-69" x="737.886719"/>
      <use xlink:href="#DejaVuSans-65" x="765.669922"/>
      <use xlink:href="#DejaVuSans-6e" x="827.193359"/>
      <use xlink:href="#DejaVuSans-74" x="890.572266"/>
      <use xlink:href="#DejaVuSans-6f" x="929.78125"/>
     </g>
    </g>
    <g id="line2d_32">
     <path d="M 641.504688 79.616562 
L 651.504688 79.616562 
L 661.504688 79.616562 
" style="fill: none; stroke: #ff0000; stroke-width: 1.5; stroke-linecap: square"/>
    </g>
    <g id="text_19">
     <!-- MAE Validación -->
     <g transform="translate(669.504688 83.116562) scale(0.1 -0.1)">
      <use xlink:href="#DejaVuSans-4d"/>
      <use xlink:href="#DejaVuSans-41" x="86.279297"/>
      <use xlink:href="#DejaVuSans-45" x="154.6875"/>
      <use xlink:href="#DejaVuSans-20" x="217.871094"/>
      <use xlink:href="#DejaVuSans-56" x="249.658203"/>
      <use xlink:href="#DejaVuSans-61" x="310.316406"/>
      <use xlink:href="#DejaVuSans-6c" x="371.595703"/>
      <use xlink:href="#DejaVuSans-69" x="399.378906"/>
      <use xlink:href="#DejaVuSans-64" x="427.162109"/>
      <use xlink:href="#DejaVuSans-61" x="490.638672"/>
      <use xlink:href="#DejaVuSans-63" x="551.917969"/>
      <use xlink:href="#DejaVuSans-69" x="606.898438"/>
      <use xlink:href="#DejaVuSans-f3" x="634.681641"/>
      <use xlink:href="#DejaVuSans-6e" x="695.863281"/>
     </g>
    </g>
   </g>
  </g>
 </g>
 <defs>
  <clipPath id="p59067f8201">
   <rect x="108" y="51.84" width="669.6" height="332.64"/>
  </clipPath>
 </defs>
</svg>
