<?xml version="1.0" encoding="utf-8" standalone="no"?>
<!DOCTYPE svg PUBLIC "-//W3C//DTD SVG 1.1//EN"
  "http://www.w3.org/Graphics/SVG/1.1/DTD/svg11.dtd">
<svg xmlns:xlink="http://www.w3.org/1999/xlink" width="864pt" height="432pt" viewBox="0 0 864 432" xmlns="http://www.w3.org/2000/svg" version="1.1">
 <metadata>
  <rdf:RDF xmlns:dc="http://purl.org/dc/elements/1.1/" xmlns:cc="http://creativecommons.org/ns#" xmlns:rdf="http://www.w3.org/1999/02/22-rdf-syntax-ns#">
   <cc:Work>
    <dc:type rdf:resource="http://purl.org/dc/dcmitype/StillImage"/>
    <dc:date>2024-11-06T17:15:50.359002</dc:date>
    <dc:format>image/svg+xml</dc:format>
    <dc:creator>
     <cc:Agent>
      <dc:title>Matplotlib v3.8.4, https://matplotlib.org/</dc:title>
     </cc:Agent>
    </dc:creator>
   </cc:Work>
  </rdf:RDF>
 </metadata>
 <defs>
  <style type="text/css">*{stroke-linejoin: round; stroke-linecap: butt}</style>
 </defs>
 <g id="figure_1">
  <g id="patch_1">
   <path d="M 0 432 
L 864 432 
L 864 0 
L 0 0 
z
" style="fill: #ffffff"/>
  </g>
  <g id="axes_1">
   <g id="patch_2">
    <path d="M 108 384.48 
L 777.6 384.48 
L 777.6 51.84 
L 108 51.84 
z
" style="fill: #ffffff"/>
   </g>
   <g id="matplotlib.axis_1">
    <g id="xtick_1">
     <g id="line2d_1">
      <path d="M 136.049198 384.48 
L 136.049198 51.84 
" clip-path="url(#p0ae4cc4d00)" style="fill: none; stroke: #b0b0b0; stroke-width: 0.8; stroke-linecap: square"/>
     </g>
     <g id="line2d_2">
      <defs>
       <path id="m4a21a93351" d="M 0 0 
L 0 3.5 
" style="stroke: #000000; stroke-width: 0.8"/>
      </defs>
      <g>
       <use xlink:href="#m4a21a93351" x="136.049198" y="384.48" style="stroke: #000000; stroke-width: 0.8"/>
      </g>
     </g>
     <g id="text_1">
      <!-- 0 -->
      <g transform="translate(132.867948 399.078438) scale(0.1 -0.1)">
       <defs>
        <path id="DejaVuSans-30" d="M 2034 4250 
Q 1547 4250 1301 3770 
Q 1056 3291 1056 2328 
Q 1056 1369 1301 889 
Q 1547 409 2034 409 
Q 2525 409 2770 889 
Q 3016 1369 3016 2328 
Q 3016 3291 2770 3770 
Q 2525 4250 2034 4250 
z
M 2034 4750 
Q 2819 4750 3233 4129 
Q 3647 3509 3647 2328 
Q 3647 1150 3233 529 
Q 2819 -91 2034 -91 
Q 1250 -91 836 529 
Q 422 1150 422 2328 
Q 422 3509 836 4129 
Q 1250 4750 2034 4750 
z
" transform="scale(0.015625)"/>
       </defs>
       <use xlink:href="#DejaVuSans-30"/>
      </g>
     </g>
    </g>
    <g id="xtick_2">
     <g id="line2d_3">
      <path d="M 255.407487 384.48 
L 255.407487 51.84 
" clip-path="url(#p0ae4cc4d00)" style="fill: none; stroke: #b0b0b0; stroke-width: 0.8; stroke-linecap: square"/>
     </g>
     <g id="line2d_4">
      <g>
       <use xlink:href="#m4a21a93351" x="255.407487" y="384.48" style="stroke: #000000; stroke-width: 0.8"/>
      </g>
     </g>
     <g id="text_2">
      <!-- 50 -->
      <g transform="translate(249.044987 399.078438) scale(0.1 -0.1)">
       <defs>
        <path id="DejaVuSans-35" d="M 691 4666 
L 3169 4666 
L 3169 4134 
L 1269 4134 
L 1269 2991 
Q 1406 3038 1543 3061 
Q 1681 3084 1819 3084 
Q 2600 3084 3056 2656 
Q 3513 2228 3513 1497 
Q 3513 744 3044 326 
Q 2575 -91 1722 -91 
Q 1428 -91 1123 -41 
Q 819 9 494 109 
L 494 744 
Q 775 591 1075 516 
Q 1375 441 1709 441 
Q 2250 441 2565 725 
Q 2881 1009 2881 1497 
Q 2881 1984 2565 2268 
Q 2250 2553 1709 2553 
Q 1456 2553 1204 2497 
Q 953 2441 691 2322 
L 691 4666 
z
" transform="scale(0.015625)"/>
       </defs>
       <use xlink:href="#DejaVuSans-35"/>
       <use xlink:href="#DejaVuSans-30" x="63.623047"/>
      </g>
     </g>
    </g>
    <g id="xtick_3">
     <g id="line2d_5">
      <path d="M 374.765775 384.48 
L 374.765775 51.84 
" clip-path="url(#p0ae4cc4d00)" style="fill: none; stroke: #b0b0b0; stroke-width: 0.8; stroke-linecap: square"/>
     </g>
     <g id="line2d_6">
      <g>
       <use xlink:href="#m4a21a93351" x="374.765775" y="384.48" style="stroke: #000000; stroke-width: 0.8"/>
      </g>
     </g>
     <g id="text_3">
      <!-- 100 -->
      <g transform="translate(365.222025 399.078438) scale(0.1 -0.1)">
       <defs>
        <path id="DejaVuSans-31" d="M 794 531 
L 1825 531 
L 1825 4091 
L 703 3866 
L 703 4441 
L 1819 4666 
L 2450 4666 
L 2450 531 
L 3481 531 
L 3481 0 
L 794 0 
L 794 531 
z
" transform="scale(0.015625)"/>
       </defs>
       <use xlink:href="#DejaVuSans-31"/>
       <use xlink:href="#DejaVuSans-30" x="63.623047"/>
       <use xlink:href="#DejaVuSans-30" x="127.246094"/>
      </g>
     </g>
    </g>
    <g id="xtick_4">
     <g id="line2d_7">
      <path d="M 494.124064 384.48 
L 494.124064 51.84 
" clip-path="url(#p0ae4cc4d00)" style="fill: none; stroke: #b0b0b0; stroke-width: 0.8; stroke-linecap: square"/>
     </g>
     <g id="line2d_8">
      <g>
       <use xlink:href="#m4a21a93351" x="494.124064" y="384.48" style="stroke: #000000; stroke-width: 0.8"/>
      </g>
     </g>
     <g id="text_4">
      <!-- 150 -->
      <g transform="translate(484.580314 399.078438) scale(0.1 -0.1)">
       <use xlink:href="#DejaVuSans-31"/>
       <use xlink:href="#DejaVuSans-35" x="63.623047"/>
       <use xlink:href="#DejaVuSans-30" x="127.246094"/>
      </g>
     </g>
    </g>
    <g id="xtick_5">
     <g id="line2d_9">
      <path d="M 613.482353 384.48 
L 613.482353 51.84 
" clip-path="url(#p0ae4cc4d00)" style="fill: none; stroke: #b0b0b0; stroke-width: 0.8; stroke-linecap: square"/>
     </g>
     <g id="line2d_10">
      <g>
       <use xlink:href="#m4a21a93351" x="613.482353" y="384.48" style="stroke: #000000; stroke-width: 0.8"/>
      </g>
     </g>
     <g id="text_5">
      <!-- 200 -->
      <g transform="translate(603.938603 399.078438) scale(0.1 -0.1)">
       <defs>
        <path id="DejaVuSans-32" d="M 1228 531 
L 3431 531 
L 3431 0 
L 469 0 
L 469 531 
Q 828 903 1448 1529 
Q 2069 2156 2228 2338 
Q 2531 2678 2651 2914 
Q 2772 3150 2772 3378 
Q 2772 3750 2511 3984 
Q 2250 4219 1831 4219 
Q 1534 4219 1204 4116 
Q 875 4013 500 3803 
L 500 4441 
Q 881 4594 1212 4672 
Q 1544 4750 1819 4750 
Q 2544 4750 2975 4387 
Q 3406 4025 3406 3419 
Q 3406 3131 3298 2873 
Q 3191 2616 2906 2266 
Q 2828 2175 2409 1742 
Q 1991 1309 1228 531 
z
" transform="scale(0.015625)"/>
       </defs>
       <use xlink:href="#DejaVuSans-32"/>
       <use xlink:href="#DejaVuSans-30" x="63.623047"/>
       <use xlink:href="#DejaVuSans-30" x="127.246094"/>
      </g>
     </g>
    </g>
    <g id="xtick_6">
     <g id="line2d_11">
      <path d="M 732.840642 384.48 
L 732.840642 51.84 
" clip-path="url(#p0ae4cc4d00)" style="fill: none; stroke: #b0b0b0; stroke-width: 0.8; stroke-linecap: square"/>
     </g>
     <g id="line2d_12">
      <g>
       <use xlink:href="#m4a21a93351" x="732.840642" y="384.48" style="stroke: #000000; stroke-width: 0.8"/>
      </g>
     </g>
     <g id="text_6">
      <!-- 250 -->
      <g transform="translate(723.296892 399.078438) scale(0.1 -0.1)">
       <use xlink:href="#DejaVuSans-32"/>
       <use xlink:href="#DejaVuSans-35" x="63.623047"/>
       <use xlink:href="#DejaVuSans-30" x="127.246094"/>
      </g>
     </g>
    </g>
    <g id="text_7">
     <!-- Número de Splits -->
     <g transform="translate(399.821094 413.156563) scale(0.1 -0.1)">
      <defs>
       <path id="DejaVuSans-4e" d="M 628 4666 
L 1478 4666 
L 3547 763 
L 3547 4666 
L 4159 4666 
L 4159 0 
L 3309 0 
L 1241 3903 
L 1241 0 
L 628 0 
L 628 4666 
z
" transform="scale(0.015625)"/>
       <path id="DejaVuSans-fa" d="M 544 1381 
L 544 3500 
L 1119 3500 
L 1119 1403 
Q 1119 906 1312 657 
Q 1506 409 1894 409 
Q 2359 409 2629 706 
Q 2900 1003 2900 1516 
L 2900 3500 
L 3475 3500 
L 3475 0 
L 2900 0 
L 2900 538 
Q 2691 219 2414 64 
Q 2138 -91 1772 -91 
Q 1169 -91 856 284 
Q 544 659 544 1381 
z
M 1991 3584 
L 1991 3584 
z
M 2418 5119 
L 3040 5119 
L 2022 3944 
L 1543 3944 
L 2418 5119 
z
" transform="scale(0.015625)"/>
       <path id="DejaVuSans-6d" d="M 3328 2828 
Q 3544 3216 3844 3400 
Q 4144 3584 4550 3584 
Q 5097 3584 5394 3201 
Q 5691 2819 5691 2113 
L 5691 0 
L 5113 0 
L 5113 2094 
Q 5113 2597 4934 2840 
Q 4756 3084 4391 3084 
Q 3944 3084 3684 2787 
Q 3425 2491 3425 1978 
L 3425 0 
L 2847 0 
L 2847 2094 
Q 2847 2600 2669 2842 
Q 2491 3084 2119 3084 
Q 1678 3084 1418 2786 
Q 1159 2488 1159 1978 
L 1159 0 
L 581 0 
L 581 3500 
L 1159 3500 
L 1159 2956 
Q 1356 3278 1631 3431 
Q 1906 3584 2284 3584 
Q 2666 3584 2933 3390 
Q 3200 3197 3328 2828 
z
" transform="scale(0.015625)"/>
       <path id="DejaVuSans-65" d="M 3597 1894 
L 3597 1613 
L 953 1613 
Q 991 1019 1311 708 
Q 1631 397 2203 397 
Q 2534 397 2845 478 
Q 3156 559 3463 722 
L 3463 178 
Q 3153 47 2828 -22 
Q 2503 -91 2169 -91 
Q 1331 -91 842 396 
Q 353 884 353 1716 
Q 353 2575 817 3079 
Q 1281 3584 2069 3584 
Q 2775 3584 3186 3129 
Q 3597 2675 3597 1894 
z
M 3022 2063 
Q 3016 2534 2758 2815 
Q 2500 3097 2075 3097 
Q 1594 3097 1305 2825 
Q 1016 2553 972 2059 
L 3022 2063 
z
" transform="scale(0.015625)"/>
       <path id="DejaVuSans-72" d="M 2631 2963 
Q 2534 3019 2420 3045 
Q 2306 3072 2169 3072 
Q 1681 3072 1420 2755 
Q 1159 2438 1159 1844 
L 1159 0 
L 581 0 
L 581 3500 
L 1159 3500 
L 1159 2956 
Q 1341 3275 1631 3429 
Q 1922 3584 2338 3584 
Q 2397 3584 2469 3576 
Q 2541 3569 2628 3553 
L 2631 2963 
z
" transform="scale(0.015625)"/>
       <path id="DejaVuSans-6f" d="M 1959 3097 
Q 1497 3097 1228 2736 
Q 959 2375 959 1747 
Q 959 1119 1226 758 
Q 1494 397 1959 397 
Q 2419 397 2687 759 
Q 2956 1122 2956 1747 
Q 2956 2369 2687 2733 
Q 2419 3097 1959 3097 
z
M 1959 3584 
Q 2709 3584 3137 3096 
Q 3566 2609 3566 1747 
Q 3566 888 3137 398 
Q 2709 -91 1959 -91 
Q 1206 -91 779 398 
Q 353 888 353 1747 
Q 353 2609 779 3096 
Q 1206 3584 1959 3584 
z
" transform="scale(0.015625)"/>
       <path id="DejaVuSans-20" transform="scale(0.015625)"/>
       <path id="DejaVuSans-64" d="M 2906 2969 
L 2906 4863 
L 3481 4863 
L 3481 0 
L 2906 0 
L 2906 525 
Q 2725 213 2448 61 
Q 2172 -91 1784 -91 
Q 1150 -91 751 415 
Q 353 922 353 1747 
Q 353 2572 751 3078 
Q 1150 3584 1784 3584 
Q 2172 3584 2448 3432 
Q 2725 3281 2906 2969 
z
M 947 1747 
Q 947 1113 1208 752 
Q 1469 391 1925 391 
Q 2381 391 2643 752 
Q 2906 1113 2906 1747 
Q 2906 2381 2643 2742 
Q 2381 3103 1925 3103 
Q 1469 3103 1208 2742 
Q 947 2381 947 1747 
z
" transform="scale(0.015625)"/>
       <path id="DejaVuSans-53" d="M 3425 4513 
L 3425 3897 
Q 3066 4069 2747 4153 
Q 2428 4238 2131 4238 
Q 1616 4238 1336 4038 
Q 1056 3838 1056 3469 
Q 1056 3159 1242 3001 
Q 1428 2844 1947 2747 
L 2328 2669 
Q 3034 2534 3370 2195 
Q 3706 1856 3706 1288 
Q 3706 609 3251 259 
Q 2797 -91 1919 -91 
Q 1588 -91 1214 -16 
Q 841 59 441 206 
L 441 856 
Q 825 641 1194 531 
Q 1563 422 1919 422 
Q 2459 422 2753 634 
Q 3047 847 3047 1241 
Q 3047 1584 2836 1778 
Q 2625 1972 2144 2069 
L 1759 2144 
Q 1053 2284 737 2584 
Q 422 2884 422 3419 
Q 422 4038 858 4394 
Q 1294 4750 2059 4750 
Q 2388 4750 2728 4690 
Q 3069 4631 3425 4513 
z
" transform="scale(0.015625)"/>
       <path id="DejaVuSans-70" d="M 1159 525 
L 1159 -1331 
L 581 -1331 
L 581 3500 
L 1159 3500 
L 1159 2969 
Q 1341 3281 1617 3432 
Q 1894 3584 2278 3584 
Q 2916 3584 3314 3078 
Q 3713 2572 3713 1747 
Q 3713 922 3314 415 
Q 2916 -91 2278 -91 
Q 1894 -91 1617 61 
Q 1341 213 1159 525 
z
M 3116 1747 
Q 3116 2381 2855 2742 
Q 2594 3103 2138 3103 
Q 1681 3103 1420 2742 
Q 1159 2381 1159 1747 
Q 1159 1113 1420 752 
Q 1681 391 2138 391 
Q 2594 391 2855 752 
Q 3116 1113 3116 1747 
z
" transform="scale(0.015625)"/>
       <path id="DejaVuSans-6c" d="M 603 4863 
L 1178 4863 
L 1178 0 
L 603 0 
L 603 4863 
z
" transform="scale(0.015625)"/>
       <path id="DejaVuSans-69" d="M 603 3500 
L 1178 3500 
L 1178 0 
L 603 0 
L 603 3500 
z
M 603 4863 
L 1178 4863 
L 1178 4134 
L 603 4134 
L 603 4863 
z
" transform="scale(0.015625)"/>
       <path id="DejaVuSans-74" d="M 1172 4494 
L 1172 3500 
L 2356 3500 
L 2356 3053 
L 1172 3053 
L 1172 1153 
Q 1172 725 1289 603 
Q 1406 481 1766 481 
L 2356 481 
L 2356 0 
L 1766 0 
Q 1100 0 847 248 
Q 594 497 594 1153 
L 594 3053 
L 172 3053 
L 172 3500 
L 594 3500 
L 594 4494 
L 1172 4494 
z
" transform="scale(0.015625)"/>
       <path id="DejaVuSans-73" d="M 2834 3397 
L 2834 2853 
Q 2591 2978 2328 3040 
Q 2066 3103 1784 3103 
Q 1356 3103 1142 2972 
Q 928 2841 928 2578 
Q 928 2378 1081 2264 
Q 1234 2150 1697 2047 
L 1894 2003 
Q 2506 1872 2764 1633 
Q 3022 1394 3022 966 
Q 3022 478 2636 193 
Q 2250 -91 1575 -91 
Q 1294 -91 989 -36 
Q 684 19 347 128 
L 347 722 
Q 666 556 975 473 
Q 1284 391 1588 391 
Q 1994 391 2212 530 
Q 2431 669 2431 922 
Q 2431 1156 2273 1281 
Q 2116 1406 1581 1522 
L 1381 1569 
Q 847 1681 609 1914 
Q 372 2147 372 2553 
Q 372 3047 722 3315 
Q 1072 3584 1716 3584 
Q 2034 3584 2315 3537 
Q 2597 3491 2834 3397 
z
" transform="scale(0.015625)"/>
      </defs>
      <use xlink:href="#DejaVuSans-4e"/>
      <use xlink:href="#DejaVuSans-fa" x="74.804688"/>
      <use xlink:href="#DejaVuSans-6d" x="138.183594"/>
      <use xlink:href="#DejaVuSans-65" x="235.595703"/>
      <use xlink:href="#DejaVuSans-72" x="297.119141"/>
      <use xlink:href="#DejaVuSans-6f" x="335.982422"/>
      <use xlink:href="#DejaVuSans-20" x="397.164062"/>
      <use xlink:href="#DejaVuSans-64" x="428.951172"/>
      <use xlink:href="#DejaVuSans-65" x="492.427734"/>
      <use xlink:href="#DejaVuSans-20" x="553.951172"/>
      <use xlink:href="#DejaVuSans-53" x="585.738281"/>
      <use xlink:href="#DejaVuSans-70" x="649.214844"/>
      <use xlink:href="#DejaVuSans-6c" x="712.691406"/>
      <use xlink:href="#DejaVuSans-69" x="740.474609"/>
      <use xlink:href="#DejaVuSans-74" x="768.257812"/>
      <use xlink:href="#DejaVuSans-73" x="807.466797"/>
     </g>
    </g>
   </g>
   <g id="matplotlib.axis_2">
    <g id="ytick_1">
     <g id="line2d_13">
      <path d="M 108 369.36 
L 777.6 369.36 
" clip-path="url(#p0ae4cc4d00)" style="fill: none; stroke: #b0b0b0; stroke-width: 0.8; stroke-linecap: square"/>
     </g>
     <g id="line2d_14">
      <defs>
       <path id="m1b9e397d04" d="M 0 0 
L -3.5 0 
" style="stroke: #000000; stroke-width: 0.8"/>
      </defs>
      <g>
       <use xlink:href="#m1b9e397d04" x="108" y="369.36" style="stroke: #000000; stroke-width: 0.8"/>
      </g>
     </g>
     <g id="text_8">
      <!-- 0 -->
      <g transform="translate(94.6375 373.159219) scale(0.1 -0.1)">
       <use xlink:href="#DejaVuSans-30"/>
      </g>
     </g>
    </g>
    <g id="ytick_2">
     <g id="line2d_15">
      <path d="M 108 315.65859 
L 777.6 315.65859 
" clip-path="url(#p0ae4cc4d00)" style="fill: none; stroke: #b0b0b0; stroke-width: 0.8; stroke-linecap: square"/>
     </g>
     <g id="line2d_16">
      <g>
       <use xlink:href="#m1b9e397d04" x="108" y="315.65859" style="stroke: #000000; stroke-width: 0.8"/>
      </g>
     </g>
     <g id="text_9">
      <!-- 20 -->
      <g transform="translate(88.275 319.457808) scale(0.1 -0.1)">
       <use xlink:href="#DejaVuSans-32"/>
       <use xlink:href="#DejaVuSans-30" x="63.623047"/>
      </g>
     </g>
    </g>
    <g id="ytick_3">
     <g id="line2d_17">
      <path d="M 108 261.957179 
L 777.6 261.957179 
" clip-path="url(#p0ae4cc4d00)" style="fill: none; stroke: #b0b0b0; stroke-width: 0.8; stroke-linecap: square"/>
     </g>
     <g id="line2d_18">
      <g>
       <use xlink:href="#m1b9e397d04" x="108" y="261.957179" style="stroke: #000000; stroke-width: 0.8"/>
      </g>
     </g>
     <g id="text_10">
      <!-- 40 -->
      <g transform="translate(88.275 265.756398) scale(0.1 -0.1)">
       <defs>
        <path id="DejaVuSans-34" d="M 2419 4116 
L 825 1625 
L 2419 1625 
L 2419 4116 
z
M 2253 4666 
L 3047 4666 
L 3047 1625 
L 3713 1625 
L 3713 1100 
L 3047 1100 
L 3047 0 
L 2419 0 
L 2419 1100 
L 313 1100 
L 313 1709 
L 2253 4666 
z
" transform="scale(0.015625)"/>
       </defs>
       <use xlink:href="#DejaVuSans-34"/>
       <use xlink:href="#DejaVuSans-30" x="63.623047"/>
      </g>
     </g>
    </g>
    <g id="ytick_4">
     <g id="line2d_19">
      <path d="M 108 208.255769 
L 777.6 208.255769 
" clip-path="url(#p0ae4cc4d00)" style="fill: none; stroke: #b0b0b0; stroke-width: 0.8; stroke-linecap: square"/>
     </g>
     <g id="line2d_20">
      <g>
       <use xlink:href="#m1b9e397d04" x="108" y="208.255769" style="stroke: #000000; stroke-width: 0.8"/>
      </g>
     </g>
     <g id="text_11">
      <!-- 60 -->
      <g transform="translate(88.275 212.054987) scale(0.1 -0.1)">
       <defs>
        <path id="DejaVuSans-36" d="M 2113 2584 
Q 1688 2584 1439 2293 
Q 1191 2003 1191 1497 
Q 1191 994 1439 701 
Q 1688 409 2113 409 
Q 2538 409 2786 701 
Q 3034 994 3034 1497 
Q 3034 2003 2786 2293 
Q 2538 2584 2113 2584 
z
M 3366 4563 
L 3366 3988 
Q 3128 4100 2886 4159 
Q 2644 4219 2406 4219 
Q 1781 4219 1451 3797 
Q 1122 3375 1075 2522 
Q 1259 2794 1537 2939 
Q 1816 3084 2150 3084 
Q 2853 3084 3261 2657 
Q 3669 2231 3669 1497 
Q 3669 778 3244 343 
Q 2819 -91 2113 -91 
Q 1303 -91 875 529 
Q 447 1150 447 2328 
Q 447 3434 972 4092 
Q 1497 4750 2381 4750 
Q 2619 4750 2861 4703 
Q 3103 4656 3366 4563 
z
" transform="scale(0.015625)"/>
       </defs>
       <use xlink:href="#DejaVuSans-36"/>
       <use xlink:href="#DejaVuSans-30" x="63.623047"/>
      </g>
     </g>
    </g>
    <g id="ytick_5">
     <g id="line2d_21">
      <path d="M 108 154.554358 
L 777.6 154.554358 
" clip-path="url(#p0ae4cc4d00)" style="fill: none; stroke: #b0b0b0; stroke-width: 0.8; stroke-linecap: square"/>
     </g>
     <g id="line2d_22">
      <g>
       <use xlink:href="#m1b9e397d04" x="108" y="154.554358" style="stroke: #000000; stroke-width: 0.8"/>
      </g>
     </g>
     <g id="text_12">
      <!-- 80 -->
      <g transform="translate(88.275 158.353577) scale(0.1 -0.1)">
       <defs>
        <path id="DejaVuSans-38" d="M 2034 2216 
Q 1584 2216 1326 1975 
Q 1069 1734 1069 1313 
Q 1069 891 1326 650 
Q 1584 409 2034 409 
Q 2484 409 2743 651 
Q 3003 894 3003 1313 
Q 3003 1734 2745 1975 
Q 2488 2216 2034 2216 
z
M 1403 2484 
Q 997 2584 770 2862 
Q 544 3141 544 3541 
Q 544 4100 942 4425 
Q 1341 4750 2034 4750 
Q 2731 4750 3128 4425 
Q 3525 4100 3525 3541 
Q 3525 3141 3298 2862 
Q 3072 2584 2669 2484 
Q 3125 2378 3379 2068 
Q 3634 1759 3634 1313 
Q 3634 634 3220 271 
Q 2806 -91 2034 -91 
Q 1263 -91 848 271 
Q 434 634 434 1313 
Q 434 1759 690 2068 
Q 947 2378 1403 2484 
z
M 1172 3481 
Q 1172 3119 1398 2916 
Q 1625 2713 2034 2713 
Q 2441 2713 2670 2916 
Q 2900 3119 2900 3481 
Q 2900 3844 2670 4047 
Q 2441 4250 2034 4250 
Q 1625 4250 1398 4047 
Q 1172 3844 1172 3481 
z
" transform="scale(0.015625)"/>
       </defs>
       <use xlink:href="#DejaVuSans-38"/>
       <use xlink:href="#DejaVuSans-30" x="63.623047"/>
      </g>
     </g>
    </g>
    <g id="ytick_6">
     <g id="line2d_23">
      <path d="M 108 100.852948 
L 777.6 100.852948 
" clip-path="url(#p0ae4cc4d00)" style="fill: none; stroke: #b0b0b0; stroke-width: 0.8; stroke-linecap: square"/>
     </g>
     <g id="line2d_24">
      <g>
       <use xlink:href="#m1b9e397d04" x="108" y="100.852948" style="stroke: #000000; stroke-width: 0.8"/>
      </g>
     </g>
     <g id="text_13">
      <!-- 100 -->
      <g transform="translate(81.9125 104.652166) scale(0.1 -0.1)">
       <use xlink:href="#DejaVuSans-31"/>
       <use xlink:href="#DejaVuSans-30" x="63.623047"/>
       <use xlink:href="#DejaVuSans-30" x="127.246094"/>
      </g>
     </g>
    </g>
    <g id="text_14">
     <!-- Pérdida (MSE) -->
     <g transform="translate(75.832812 252.977969) rotate(-90) scale(0.1 -0.1)">
      <defs>
       <path id="DejaVuSans-50" d="M 1259 4147 
L 1259 2394 
L 2053 2394 
Q 2494 2394 2734 2622 
Q 2975 2850 2975 3272 
Q 2975 3691 2734 3919 
Q 2494 4147 2053 4147 
L 1259 4147 
z
M 628 4666 
L 2053 4666 
Q 2838 4666 3239 4311 
Q 3641 3956 3641 3272 
Q 3641 2581 3239 2228 
Q 2838 1875 2053 1875 
L 1259 1875 
L 1259 0 
L 628 0 
L 628 4666 
z
" transform="scale(0.015625)"/>
       <path id="DejaVuSans-e9" d="M 3597 1894 
L 3597 1613 
L 953 1613 
Q 991 1019 1311 708 
Q 1631 397 2203 397 
Q 2534 397 2845 478 
Q 3156 559 3463 722 
L 3463 178 
Q 3153 47 2828 -22 
Q 2503 -91 2169 -91 
Q 1331 -91 842 396 
Q 353 884 353 1716 
Q 353 2575 817 3079 
Q 1281 3584 2069 3584 
Q 2775 3584 3186 3129 
Q 3597 2675 3597 1894 
z
M 3022 2063 
Q 3016 2534 2758 2815 
Q 2500 3097 2075 3097 
Q 1594 3097 1305 2825 
Q 1016 2553 972 2059 
L 3022 2063 
z
M 2466 5119 
L 3088 5119 
L 2070 3944 
L 1591 3944 
L 2466 5119 
z
" transform="scale(0.015625)"/>
       <path id="DejaVuSans-61" d="M 2194 1759 
Q 1497 1759 1228 1600 
Q 959 1441 959 1056 
Q 959 750 1161 570 
Q 1363 391 1709 391 
Q 2188 391 2477 730 
Q 2766 1069 2766 1631 
L 2766 1759 
L 2194 1759 
z
M 3341 1997 
L 3341 0 
L 2766 0 
L 2766 531 
Q 2569 213 2275 61 
Q 1981 -91 1556 -91 
Q 1019 -91 701 211 
Q 384 513 384 1019 
Q 384 1609 779 1909 
Q 1175 2209 1959 2209 
L 2766 2209 
L 2766 2266 
Q 2766 2663 2505 2880 
Q 2244 3097 1772 3097 
Q 1472 3097 1187 3025 
Q 903 2953 641 2809 
L 641 3341 
Q 956 3463 1253 3523 
Q 1550 3584 1831 3584 
Q 2591 3584 2966 3190 
Q 3341 2797 3341 1997 
z
" transform="scale(0.015625)"/>
       <path id="DejaVuSans-28" d="M 1984 4856 
Q 1566 4138 1362 3434 
Q 1159 2731 1159 2009 
Q 1159 1288 1364 580 
Q 1569 -128 1984 -844 
L 1484 -844 
Q 1016 -109 783 600 
Q 550 1309 550 2009 
Q 550 2706 781 3412 
Q 1013 4119 1484 4856 
L 1984 4856 
z
" transform="scale(0.015625)"/>
       <path id="DejaVuSans-4d" d="M 628 4666 
L 1569 4666 
L 2759 1491 
L 3956 4666 
L 4897 4666 
L 4897 0 
L 4281 0 
L 4281 4097 
L 3078 897 
L 2444 897 
L 1241 4097 
L 1241 0 
L 628 0 
L 628 4666 
z
" transform="scale(0.015625)"/>
       <path id="DejaVuSans-45" d="M 628 4666 
L 3578 4666 
L 3578 4134 
L 1259 4134 
L 1259 2753 
L 3481 2753 
L 3481 2222 
L 1259 2222 
L 1259 531 
L 3634 531 
L 3634 0 
L 628 0 
L 628 4666 
z
" transform="scale(0.015625)"/>
       <path id="DejaVuSans-29" d="M 513 4856 
L 1013 4856 
Q 1481 4119 1714 3412 
Q 1947 2706 1947 2009 
Q 1947 1309 1714 600 
Q 1481 -109 1013 -844 
L 513 -844 
Q 928 -128 1133 580 
Q 1338 1288 1338 2009 
Q 1338 2731 1133 3434 
Q 928 4138 513 4856 
z
" transform="scale(0.015625)"/>
      </defs>
      <use xlink:href="#DejaVuSans-50"/>
      <use xlink:href="#DejaVuSans-e9" x="56.677734"/>
      <use xlink:href="#DejaVuSans-72" x="118.201172"/>
      <use xlink:href="#DejaVuSans-64" x="157.564453"/>
      <use xlink:href="#DejaVuSans-69" x="221.041016"/>
      <use xlink:href="#DejaVuSans-64" x="248.824219"/>
      <use xlink:href="#DejaVuSans-61" x="312.300781"/>
      <use xlink:href="#DejaVuSans-20" x="373.580078"/>
      <use xlink:href="#DejaVuSans-28" x="405.367188"/>
      <use xlink:href="#DejaVuSans-4d" x="444.380859"/>
      <use xlink:href="#DejaVuSans-53" x="530.660156"/>
      <use xlink:href="#DejaVuSans-45" x="594.136719"/>
      <use xlink:href="#DejaVuSans-29" x="657.320312"/>
     </g>
    </g>
   </g>
   <g id="line2d_25">
    <path d="M 138.436364 369.36 
L 140.823529 353.920844 
L 143.210695 349.376708 
L 145.597861 349.62028 
L 147.985027 362.679286 
L 150.372193 362.395165 
L 152.759358 361.351232 
L 155.146524 366.170888 
L 157.53369 365.58399 
L 159.920856 362.586641 
L 162.308021 364.96269 
L 164.695187 364.602814 
L 167.082353 356.024098 
L 169.469519 359.471483 
L 171.856684 355.297314 
L 174.24385 359.451909 
L 176.631016 358.507778 
L 179.018182 352.82663 
L 181.405348 358.476148 
L 183.792513 360.11892 
L 186.179679 360.156031 
L 188.566845 360.01504 
L 190.954011 360.136942 
L 193.341176 361.385357 
L 195.728342 360.254698 
L 198.115508 363.194108 
L 200.502674 362.6153 
L 202.88984 361.372549 
L 205.277005 362.703382 
L 207.664171 363.001662 
L 210.051337 362.9474 
L 212.438503 362.441603 
L 214.825668 362.333961 
L 217.212834 361.917471 
L 219.6 363.053844 
L 221.987166 363.935961 
L 224.374332 363.358135 
L 226.761497 362.347999 
L 229.148663 363.314264 
L 231.535829 363.856556 
L 233.922995 362.860332 
L 236.31016 364.016773 
L 238.697326 363.570201 
L 241.084492 363.406407 
L 243.471658 363.630826 
L 245.858824 363.062116 
L 248.245989 363.044772 
L 250.633155 364.226535 
L 253.020321 362.609407 
L 255.407487 361.38972 
L 257.794652 362.755612 
L 260.181818 363.51848 
L 262.568984 363.636776 
L 264.95615 363.541948 
L 267.343316 363.701009 
L 269.730481 363.642835 
L 272.117647 363.180702 
L 274.504813 362.963529 
L 276.891979 363.026742 
L 279.279144 364.331421 
L 281.66631 363.840415 
L 284.053476 364.243853 
L 288.827807 364.172676 
L 291.214973 364.17617 
L 293.602139 364.418521 
L 295.989305 364.056481 
L 298.376471 363.978819 
L 303.150802 364.682912 
L 305.537968 364.979853 
L 307.925134 364.567149 
L 310.312299 364.373156 
L 315.086631 364.546604 
L 317.473797 364.02551 
L 319.860963 363.872274 
L 322.248128 364.178306 
L 324.635294 363.883548 
L 327.02246 364.009307 
L 329.409626 363.729367 
L 331.796791 363.654106 
L 334.183957 363.062804 
L 336.571123 363.212208 
L 338.958289 362.912814 
L 341.345455 362.886004 
L 346.119786 362.449737 
L 348.506952 361.824779 
L 350.894118 362.223915 
L 353.281283 362.254562 
L 358.055615 362.57996 
L 360.442781 362.348604 
L 362.829947 362.700371 
L 365.217112 362.35703 
L 367.604278 361.810733 
L 369.991444 360.748749 
L 372.37861 360.694829 
L 374.765775 361.59438 
L 377.152941 361.606698 
L 379.540107 361.319019 
L 381.927273 360.292304 
L 384.314439 360.614712 
L 386.701604 360.445965 
L 389.08877 360.643784 
L 391.475936 360.423739 
L 396.250267 360.986162 
L 398.637433 359.648571 
L 401.024599 360.530942 
L 403.411765 360.5705 
L 405.79893 360.879599 
L 408.186096 360.410326 
L 410.573262 361.163451 
L 412.960428 361.0887 
L 417.734759 361.535917 
L 420.121925 361.547859 
L 422.509091 361.179893 
L 424.896257 361.573996 
L 427.283422 361.549099 
L 429.670588 361.726973 
L 432.057754 361.143098 
L 434.44492 361.682276 
L 436.832086 361.022703 
L 439.219251 361.732142 
L 441.606417 359.023674 
L 443.993583 360.993125 
L 448.767914 360.455567 
L 451.15508 359.636215 
L 453.542246 360.069372 
L 455.929412 361.17533 
L 460.703743 360.713747 
L 463.090909 360.656303 
L 465.478075 360.990709 
L 467.865241 360.867859 
L 470.252406 360.48269 
L 472.639572 360.527398 
L 475.026738 360.748177 
L 477.413904 360.608549 
L 479.80107 360.685781 
L 482.188235 360.186864 
L 484.575401 360.515877 
L 486.962567 360.240589 
L 489.349733 360.539789 
L 491.736898 360.636793 
L 494.124064 360.231033 
L 498.898396 360.795257 
L 501.285561 359.9168 
L 503.672727 359.948504 
L 506.059893 359.334562 
L 508.447059 359.521416 
L 510.834225 358.932098 
L 513.22139 358.894679 
L 515.608556 359.010154 
L 517.995722 359.329818 
L 520.382888 359.189873 
L 522.770053 358.913923 
L 525.157219 359.707199 
L 527.544385 359.302882 
L 529.931551 359.283126 
L 534.705882 359.998317 
L 537.093048 359.026887 
L 539.480214 359.552301 
L 541.86738 359.136682 
L 544.254545 358.835915 
L 549.028877 359.342396 
L 553.803209 359.264728 
L 556.190374 359.454677 
L 558.57754 358.758079 
L 560.964706 359.248527 
L 563.351872 359.23187 
L 568.126203 358.6311 
L 572.900535 358.571705 
L 575.287701 358.895176 
L 577.674866 359.491532 
L 580.062032 359.15762 
L 584.836364 359.226392 
L 589.610695 358.528187 
L 591.997861 358.893557 
L 594.385027 358.453879 
L 596.772193 359.145124 
L 601.546524 358.756871 
L 606.320856 359.176324 
L 608.708021 359.109777 
L 611.095187 358.845255 
L 613.482353 359.296555 
L 615.869519 358.92362 
L 618.256684 359.256606 
L 620.64385 359.143308 
L 623.031016 358.116063 
L 625.418182 358.636889 
L 630.192513 359.016465 
L 632.579679 359.168206 
L 634.966845 358.92844 
L 637.354011 359.121388 
L 639.741176 358.450092 
L 642.128342 358.718464 
L 644.515508 358.466555 
L 646.902674 359.085187 
L 649.28984 358.894407 
L 656.451337 359.308729 
L 661.225668 358.666233 
L 663.612834 358.907211 
L 666 358.391878 
L 668.387166 359.031759 
L 670.774332 359.298216 
L 673.161497 358.82871 
L 675.548663 358.630225 
L 677.935829 358.735482 
L 680.322995 358.539372 
L 685.097326 358.794295 
L 687.484492 358.341605 
L 692.258824 358.631918 
L 694.645989 358.675111 
L 697.033155 358.938573 
L 701.807487 358.859659 
L 704.194652 359.079823 
L 706.581818 358.809112 
L 708.968984 359.007856 
L 711.35615 358.711359 
L 713.743316 358.941006 
L 716.130481 358.9684 
L 718.517647 359.110111 
L 720.904813 358.851682 
L 725.679144 358.687576 
L 728.06631 358.812068 
L 730.453476 359.150877 
L 732.840642 358.963641 
L 735.227807 358.994877 
L 737.614973 358.824058 
L 740.002139 358.873402 
L 742.389305 359.216145 
L 744.776471 358.811947 
L 747.163636 359.425668 
L 747.163636 359.425668 
" clip-path="url(#p0ae4cc4d00)" style="fill: none; stroke: #0000ff; stroke-width: 1.5; stroke-linecap: square"/>
   </g>
   <g id="line2d_26">
    <path d="M 138.436364 338.481689 
L 140.823529 336.467886 
L 143.210695 347.431924 
L 145.597861 352.913943 
L 147.985027 358.811029 
L 150.372193 365.443153 
L 152.759358 364.64882 
L 155.146524 348.435022 
L 159.920856 364.827601 
L 162.308021 369.205832 
L 164.695187 209.807739 
L 167.082353 238.610715 
L 169.469519 225.942999 
L 171.856684 254.850088 
L 174.24385 309.400898 
L 176.631016 284.966488 
L 179.018182 337.882829 
L 181.405348 349.418451 
L 183.792513 364.729104 
L 186.179679 355.8743 
L 188.566845 369.07451 
L 190.954011 360.37336 
L 193.341176 287.146519 
L 195.728342 320.969144 
L 198.115508 352.851851 
L 200.502674 326.163637 
L 202.88984 353.728929 
L 205.277005 360.561829 
L 207.664171 330.576729 
L 210.051337 254.895488 
L 212.438503 263.435176 
L 214.825668 325.194864 
L 217.212834 350.910679 
L 219.6 368.779712 
L 221.987166 326.368776 
L 224.374332 330.082609 
L 226.761497 354.611355 
L 229.148663 364.853695 
L 231.535829 366.603399 
L 233.922995 364.682272 
L 236.31016 361.698934 
L 238.697326 365.869453 
L 241.084492 291.876379 
L 243.471658 341.359311 
L 245.858824 360.996238 
L 248.245989 367.722899 
L 250.633155 368.487195 
L 253.020321 367.282315 
L 255.407487 295.356928 
L 257.794652 318.249929 
L 260.181818 365.54852 
L 262.568984 349.620615 
L 264.95615 363.151289 
L 267.343316 266.790865 
L 269.730481 337.017072 
L 272.117647 341.336429 
L 274.504813 347.152274 
L 276.891979 350.763752 
L 279.279144 357.083021 
L 281.66631 352.316671 
L 284.053476 338.635432 
L 286.440642 363.529146 
L 288.827807 348.514119 
L 291.214973 347.210339 
L 293.602139 338.72527 
L 295.989305 340.61538 
L 298.376471 346.150514 
L 300.763636 345.780449 
L 303.150802 362.788684 
L 305.537968 360.549496 
L 307.925134 315.376922 
L 310.312299 352.767343 
L 312.699465 333.633646 
L 315.086631 298.827171 
L 317.473797 339.749076 
L 319.860963 336.146707 
L 322.248128 358.428031 
L 324.635294 298.523169 
L 327.02246 289.191112 
L 329.409626 271.91539 
L 331.796791 292.984947 
L 334.183957 318.124175 
L 336.571123 317.154867 
L 338.958289 366.556182 
L 341.345455 237.439375 
L 343.73262 297.003829 
L 346.119786 269.408899 
L 350.894118 362.092044 
L 353.281283 345.335909 
L 355.668449 360.781334 
L 358.055615 361.294039 
L 360.442781 354.355745 
L 362.829947 328.096172 
L 365.217112 66.96 
L 367.604278 352.531992 
L 369.991444 331.999504 
L 372.37861 290.879944 
L 374.765775 353.801272 
L 377.152941 357.513648 
L 379.540107 344.64738 
L 381.927273 275.718904 
L 384.314439 355.238468 
L 386.701604 358.532435 
L 389.08877 303.722938 
L 391.475936 344.461987 
L 393.863102 268.285217 
L 396.250267 320.223136 
L 398.637433 363.631735 
L 401.024599 304.53776 
L 403.411765 314.168263 
L 405.79893 327.666924 
L 408.186096 287.867738 
L 410.573262 318.739144 
L 412.960428 357.427041 
L 415.347594 349.258765 
L 417.734759 367.556483 
L 420.121925 365.711866 
L 422.509091 361.387783 
L 424.896257 289.308037 
L 427.283422 317.435645 
L 429.670588 355.449558 
L 432.057754 286.236459 
L 434.44492 342.881987 
L 436.832086 318.639072 
L 439.219251 198.361743 
L 441.606417 259.006275 
L 443.993583 343.907996 
L 446.380749 307.958171 
L 448.767914 332.315604 
L 451.15508 270.092177 
L 453.542246 348.648955 
L 455.929412 335.86567 
L 458.316578 343.05517 
L 460.703743 306.070169 
L 463.090909 324.894388 
L 465.478075 311.066478 
L 467.865241 324.268951 
L 470.252406 358.146167 
L 472.639572 342.0526 
L 475.026738 354.831572 
L 477.413904 316.736409 
L 479.80107 291.571225 
L 482.188235 351.896959 
L 484.575401 336.359364 
L 486.962567 317.340179 
L 489.349733 352.569133 
L 491.736898 345.802884 
L 494.124064 312.488816 
L 496.51123 272.488408 
L 498.898396 217.242958 
L 501.285561 356.718807 
L 503.672727 233.102404 
L 506.059893 350.853769 
L 508.447059 186.297875 
L 510.834225 300.286717 
L 513.22139 264.132464 
L 515.608556 344.094642 
L 517.995722 347.036017 
L 520.382888 355.365703 
L 522.770053 338.609937 
L 525.157219 294.27032 
L 527.544385 364.752385 
L 529.931551 267.02444 
L 532.318717 293.610797 
L 534.705882 352.930971 
L 537.093048 315.263732 
L 539.480214 250.889609 
L 544.254545 355.12459 
L 546.641711 359.126677 
L 549.028877 262.694152 
L 551.416043 364.372828 
L 553.803209 338.327479 
L 556.190374 303.789056 
L 558.57754 294.910907 
L 560.964706 354.615354 
L 563.351872 293.757173 
L 565.739037 299.906874 
L 568.126203 269.687799 
L 570.513369 263.920282 
L 572.900535 284.580761 
L 575.287701 350.831938 
L 577.674866 367.298981 
L 580.062032 359.10399 
L 582.449198 278.038701 
L 584.836364 334.793325 
L 587.223529 366.796496 
L 589.610695 352.646421 
L 591.997861 322.976256 
L 594.385027 364.237169 
L 596.772193 359.340131 
L 599.159358 325.491073 
L 601.546524 369.273764 
L 603.93369 342.927883 
L 606.320856 273.464927 
L 608.708021 344.617112 
L 611.095187 296.602453 
L 613.482353 354.05769 
L 615.869519 346.555607 
L 618.256684 331.130226 
L 620.64385 331.669399 
L 623.031016 351.011599 
L 625.418182 359.179231 
L 627.805348 310.284006 
L 630.192513 356.322486 
L 632.579679 338.98072 
L 634.966845 363.346676 
L 637.354011 292.783357 
L 639.741176 319.594867 
L 642.128342 363.809204 
L 644.515508 294.944127 
L 646.902674 275.267385 
L 649.28984 256.522579 
L 651.677005 324.788394 
L 654.064171 349.85471 
L 656.451337 258.400342 
L 658.838503 312.523716 
L 661.225668 350.89961 
L 663.612834 275.402591 
L 666 322.707348 
L 668.387166 337.26814 
L 670.774332 331.547565 
L 673.161497 364.498555 
L 675.548663 367.438452 
L 677.935829 254.561966 
L 680.322995 358.233411 
L 682.71016 287.709232 
L 685.097326 339.413534 
L 687.484492 285.133225 
L 689.871658 366.839365 
L 692.258824 357.668828 
L 694.645989 334.996216 
L 697.033155 359.900418 
L 699.420321 340.688268 
L 701.807487 354.466312 
L 704.194652 292.800677 
L 706.581818 340.824553 
L 708.968984 302.69552 
L 711.35615 354.772737 
L 713.743316 340.227869 
L 716.130481 336.368104 
L 718.517647 328.517726 
L 720.904813 288.780497 
L 723.291979 309.285993 
L 725.679144 323.99284 
L 728.06631 345.718406 
L 730.453476 312.284799 
L 732.840642 336.28563 
L 735.227807 364.293798 
L 737.614973 353.597649 
L 740.002139 367.895869 
L 744.776471 313.667568 
L 747.163636 252.932613 
L 747.163636 252.932613 
" clip-path="url(#p0ae4cc4d00)" style="fill: none; stroke: #ff0000; stroke-width: 1.5; stroke-linecap: square"/>
   </g>
   <g id="patch_3">
    <path d="M 108 384.48 
L 108 51.84 
" style="fill: none; stroke: #000000; stroke-width: 0.8; stroke-linejoin: miter; stroke-linecap: square"/>
   </g>
   <g id="patch_4">
    <path d="M 777.6 384.48 
L 777.6 51.84 
" style="fill: none; stroke: #000000; stroke-width: 0.8; stroke-linejoin: miter; stroke-linecap: square"/>
   </g>
   <g id="patch_5">
    <path d="M 108 384.48 
L 777.6 384.48 
" style="fill: none; stroke: #000000; stroke-width: 0.8; stroke-linejoin: miter; stroke-linecap: square"/>
   </g>
   <g id="patch_6">
    <path d="M 108 51.84 
L 777.6 51.84 
" style="fill: none; stroke: #000000; stroke-width: 0.8; stroke-linejoin: miter; stroke-linecap: square"/>
   </g>
   <g id="text_15">
    <!-- Curva de Pérdidas (Train vs Test) -->
    <g transform="translate(344.970937 45.84) scale(0.12 -0.12)">
     <defs>
      <path id="DejaVuSans-43" d="M 4122 4306 
L 4122 3641 
Q 3803 3938 3442 4084 
Q 3081 4231 2675 4231 
Q 1875 4231 1450 3742 
Q 1025 3253 1025 2328 
Q 1025 1406 1450 917 
Q 1875 428 2675 428 
Q 3081 428 3442 575 
Q 3803 722 4122 1019 
L 4122 359 
Q 3791 134 3420 21 
Q 3050 -91 2638 -91 
Q 1578 -91 968 557 
Q 359 1206 359 2328 
Q 359 3453 968 4101 
Q 1578 4750 2638 4750 
Q 3056 4750 3426 4639 
Q 3797 4528 4122 4306 
z
" transform="scale(0.015625)"/>
      <path id="DejaVuSans-75" d="M 544 1381 
L 544 3500 
L 1119 3500 
L 1119 1403 
Q 1119 906 1312 657 
Q 1506 409 1894 409 
Q 2359 409 2629 706 
Q 2900 1003 2900 1516 
L 2900 3500 
L 3475 3500 
L 3475 0 
L 2900 0 
L 2900 538 
Q 2691 219 2414 64 
Q 2138 -91 1772 -91 
Q 1169 -91 856 284 
Q 544 659 544 1381 
z
M 1991 3584 
L 1991 3584 
z
" transform="scale(0.015625)"/>
      <path id="DejaVuSans-76" d="M 191 3500 
L 800 3500 
L 1894 563 
L 2988 3500 
L 3597 3500 
L 2284 0 
L 1503 0 
L 191 3500 
z
" transform="scale(0.015625)"/>
      <path id="DejaVuSans-54" d="M -19 4666 
L 3928 4666 
L 3928 4134 
L 2272 4134 
L 2272 0 
L 1638 0 
L 1638 4134 
L -19 4134 
L -19 4666 
z
" transform="scale(0.015625)"/>
      <path id="DejaVuSans-6e" d="M 3513 2113 
L 3513 0 
L 2938 0 
L 2938 2094 
Q 2938 2591 2744 2837 
Q 2550 3084 2163 3084 
Q 1697 3084 1428 2787 
Q 1159 2491 1159 1978 
L 1159 0 
L 581 0 
L 581 3500 
L 1159 3500 
L 1159 2956 
Q 1366 3272 1645 3428 
Q 1925 3584 2291 3584 
Q 2894 3584 3203 3211 
Q 3513 2838 3513 2113 
z
" transform="scale(0.015625)"/>
     </defs>
     <use xlink:href="#DejaVuSans-43"/>
     <use xlink:href="#DejaVuSans-75" x="69.824219"/>
     <use xlink:href="#DejaVuSans-72" x="133.203125"/>
     <use xlink:href="#DejaVuSans-76" x="174.316406"/>
     <use xlink:href="#DejaVuSans-61" x="233.496094"/>
     <use xlink:href="#DejaVuSans-20" x="294.775391"/>
     <use xlink:href="#DejaVuSans-64" x="326.5625"/>
     <use xlink:href="#DejaVuSans-65" x="390.039062"/>
     <use xlink:href="#DejaVuSans-20" x="451.5625"/>
     <use xlink:href="#DejaVuSans-50" x="483.349609"/>
     <use xlink:href="#DejaVuSans-e9" x="540.027344"/>
     <use xlink:href="#DejaVuSans-72" x="601.550781"/>
     <use xlink:href="#DejaVuSans-64" x="640.914062"/>
     <use xlink:href="#DejaVuSans-69" x="704.390625"/>
     <use xlink:href="#DejaVuSans-64" x="732.173828"/>
     <use xlink:href="#DejaVuSans-61" x="795.650391"/>
     <use xlink:href="#DejaVuSans-73" x="856.929688"/>
     <use xlink:href="#DejaVuSans-20" x="909.029297"/>
     <use xlink:href="#DejaVuSans-28" x="940.816406"/>
     <use xlink:href="#DejaVuSans-54" x="979.830078"/>
     <use xlink:href="#DejaVuSans-72" x="1026.164062"/>
     <use xlink:href="#DejaVuSans-61" x="1067.277344"/>
     <use xlink:href="#DejaVuSans-69" x="1128.556641"/>
     <use xlink:href="#DejaVuSans-6e" x="1156.339844"/>
     <use xlink:href="#DejaVuSans-20" x="1219.71875"/>
     <use xlink:href="#DejaVuSans-76" x="1251.505859"/>
     <use xlink:href="#DejaVuSans-73" x="1310.685547"/>
     <use xlink:href="#DejaVuSans-20" x="1362.785156"/>
     <use xlink:href="#DejaVuSans-54" x="1394.572266"/>
     <use xlink:href="#DejaVuSans-65" x="1438.65625"/>
     <use xlink:href="#DejaVuSans-73" x="1500.179688"/>
     <use xlink:href="#DejaVuSans-74" x="1552.279297"/>
     <use xlink:href="#DejaVuSans-29" x="1591.488281"/>
    </g>
   </g>
   <g id="legend_1">
    <g id="patch_7">
     <path d="M 714.6125 89.19625 
L 770.6 89.19625 
Q 772.6 89.19625 772.6 87.19625 
L 772.6 58.84 
Q 772.6 56.84 770.6 56.84 
L 714.6125 56.84 
Q 712.6125 56.84 712.6125 58.84 
L 712.6125 87.19625 
Q 712.6125 89.19625 714.6125 89.19625 
z
" style="fill: #ffffff; opacity: 0.8; stroke: #cccccc; stroke-linejoin: miter"/>
    </g>
    <g id="line2d_27">
     <path d="M 716.6125 64.938437 
L 726.6125 64.938437 
L 736.6125 64.938437 
" style="fill: none; stroke: #0000ff; stroke-width: 1.5; stroke-linecap: square"/>
    </g>
    <g id="text_16">
     <!-- Train -->
     <g transform="translate(744.6125 68.438437) scale(0.1 -0.1)">
      <use xlink:href="#DejaVuSans-54"/>
      <use xlink:href="#DejaVuSans-72" x="46.333984"/>
      <use xlink:href="#DejaVuSans-61" x="87.447266"/>
      <use xlink:href="#DejaVuSans-69" x="148.726562"/>
      <use xlink:href="#DejaVuSans-6e" x="176.509766"/>
     </g>
    </g>
    <g id="line2d_28">
     <path d="M 716.6125 79.616562 
L 726.6125 79.616562 
L 736.6125 79.616562 
" style="fill: none; stroke: #ff0000; stroke-width: 1.5; stroke-linecap: square"/>
    </g>
    <g id="text_17">
     <!-- Test -->
     <g transform="translate(744.6125 83.116562) scale(0.1 -0.1)">
      <use xlink:href="#DejaVuSans-54"/>
      <use xlink:href="#DejaVuSans-65" x="44.083984"/>
      <use xlink:href="#DejaVuSans-73" x="105.607422"/>
      <use xlink:href="#DejaVuSans-74" x="157.707031"/>
     </g>
    </g>
   </g>
  </g>
 </g>
 <defs>
  <clipPath id="p0ae4cc4d00">
   <rect x="108" y="51.84" width="669.6" height="332.64"/>
  </clipPath>
 </defs>
</svg>
