<?xml version="1.0" encoding="utf-8" standalone="no"?>
<!DOCTYPE svg PUBLIC "-//W3C//DTD SVG 1.1//EN"
  "http://www.w3.org/Graphics/SVG/1.1/DTD/svg11.dtd">
<svg xmlns:xlink="http://www.w3.org/1999/xlink" width="864pt" height="432pt" viewBox="0 0 864 432" xmlns="http://www.w3.org/2000/svg" version="1.1">
 <metadata>
  <rdf:RDF xmlns:dc="http://purl.org/dc/elements/1.1/" xmlns:cc="http://creativecommons.org/ns#" xmlns:rdf="http://www.w3.org/1999/02/22-rdf-syntax-ns#">
   <cc:Work>
    <dc:type rdf:resource="http://purl.org/dc/dcmitype/StillImage"/>
    <dc:date>2024-11-06T17:16:03.890482</dc:date>
    <dc:format>image/svg+xml</dc:format>
    <dc:creator>
     <cc:Agent>
      <dc:title>Matplotlib v3.8.4, https://matplotlib.org/</dc:title>
     </cc:Agent>
    </dc:creator>
   </cc:Work>
  </rdf:RDF>
 </metadata>
 <defs>
  <style type="text/css">*{stroke-linejoin: round; stroke-linecap: butt}</style>
 </defs>
 <g id="figure_1">
  <g id="patch_1">
   <path d="M 0 432 
L 864 432 
L 864 0 
L 0 0 
z
" style="fill: #ffffff"/>
  </g>
  <g id="axes_1">
   <g id="patch_2">
    <path d="M 108 384.48 
L 777.6 384.48 
L 777.6 51.84 
L 108 51.84 
z
" style="fill: #ffffff"/>
   </g>
   <g id="matplotlib.axis_1">
    <g id="xtick_1">
     <g id="line2d_1">
      <path d="M 136.049198 384.48 
L 136.049198 51.84 
" clip-path="url(#pa5eca96949)" style="fill: none; stroke: #b0b0b0; stroke-width: 0.8; stroke-linecap: square"/>
     </g>
     <g id="line2d_2">
      <defs>
       <path id="m66132b716b" d="M 0 0 
L 0 3.5 
" style="stroke: #000000; stroke-width: 0.8"/>
      </defs>
      <g>
       <use xlink:href="#m66132b716b" x="136.049198" y="384.48" style="stroke: #000000; stroke-width: 0.8"/>
      </g>
     </g>
     <g id="text_1">
      <!-- 0 -->
      <g transform="translate(132.867948 399.078438) scale(0.1 -0.1)">
       <defs>
        <path id="DejaVuSans-30" d="M 2034 4250 
Q 1547 4250 1301 3770 
Q 1056 3291 1056 2328 
Q 1056 1369 1301 889 
Q 1547 409 2034 409 
Q 2525 409 2770 889 
Q 3016 1369 3016 2328 
Q 3016 3291 2770 3770 
Q 2525 4250 2034 4250 
z
M 2034 4750 
Q 2819 4750 3233 4129 
Q 3647 3509 3647 2328 
Q 3647 1150 3233 529 
Q 2819 -91 2034 -91 
Q 1250 -91 836 529 
Q 422 1150 422 2328 
Q 422 3509 836 4129 
Q 1250 4750 2034 4750 
z
" transform="scale(0.015625)"/>
       </defs>
       <use xlink:href="#DejaVuSans-30"/>
      </g>
     </g>
    </g>
    <g id="xtick_2">
     <g id="line2d_3">
      <path d="M 255.407487 384.48 
L 255.407487 51.84 
" clip-path="url(#pa5eca96949)" style="fill: none; stroke: #b0b0b0; stroke-width: 0.8; stroke-linecap: square"/>
     </g>
     <g id="line2d_4">
      <g>
       <use xlink:href="#m66132b716b" x="255.407487" y="384.48" style="stroke: #000000; stroke-width: 0.8"/>
      </g>
     </g>
     <g id="text_2">
      <!-- 50 -->
      <g transform="translate(249.044987 399.078438) scale(0.1 -0.1)">
       <defs>
        <path id="DejaVuSans-35" d="M 691 4666 
L 3169 4666 
L 3169 4134 
L 1269 4134 
L 1269 2991 
Q 1406 3038 1543 3061 
Q 1681 3084 1819 3084 
Q 2600 3084 3056 2656 
Q 3513 2228 3513 1497 
Q 3513 744 3044 326 
Q 2575 -91 1722 -91 
Q 1428 -91 1123 -41 
Q 819 9 494 109 
L 494 744 
Q 775 591 1075 516 
Q 1375 441 1709 441 
Q 2250 441 2565 725 
Q 2881 1009 2881 1497 
Q 2881 1984 2565 2268 
Q 2250 2553 1709 2553 
Q 1456 2553 1204 2497 
Q 953 2441 691 2322 
L 691 4666 
z
" transform="scale(0.015625)"/>
       </defs>
       <use xlink:href="#DejaVuSans-35"/>
       <use xlink:href="#DejaVuSans-30" x="63.623047"/>
      </g>
     </g>
    </g>
    <g id="xtick_3">
     <g id="line2d_5">
      <path d="M 374.765775 384.48 
L 374.765775 51.84 
" clip-path="url(#pa5eca96949)" style="fill: none; stroke: #b0b0b0; stroke-width: 0.8; stroke-linecap: square"/>
     </g>
     <g id="line2d_6">
      <g>
       <use xlink:href="#m66132b716b" x="374.765775" y="384.48" style="stroke: #000000; stroke-width: 0.8"/>
      </g>
     </g>
     <g id="text_3">
      <!-- 100 -->
      <g transform="translate(365.222025 399.078438) scale(0.1 -0.1)">
       <defs>
        <path id="DejaVuSans-31" d="M 794 531 
L 1825 531 
L 1825 4091 
L 703 3866 
L 703 4441 
L 1819 4666 
L 2450 4666 
L 2450 531 
L 3481 531 
L 3481 0 
L 794 0 
L 794 531 
z
" transform="scale(0.015625)"/>
       </defs>
       <use xlink:href="#DejaVuSans-31"/>
       <use xlink:href="#DejaVuSans-30" x="63.623047"/>
       <use xlink:href="#DejaVuSans-30" x="127.246094"/>
      </g>
     </g>
    </g>
    <g id="xtick_4">
     <g id="line2d_7">
      <path d="M 494.124064 384.48 
L 494.124064 51.84 
" clip-path="url(#pa5eca96949)" style="fill: none; stroke: #b0b0b0; stroke-width: 0.8; stroke-linecap: square"/>
     </g>
     <g id="line2d_8">
      <g>
       <use xlink:href="#m66132b716b" x="494.124064" y="384.48" style="stroke: #000000; stroke-width: 0.8"/>
      </g>
     </g>
     <g id="text_4">
      <!-- 150 -->
      <g transform="translate(484.580314 399.078438) scale(0.1 -0.1)">
       <use xlink:href="#DejaVuSans-31"/>
       <use xlink:href="#DejaVuSans-35" x="63.623047"/>
       <use xlink:href="#DejaVuSans-30" x="127.246094"/>
      </g>
     </g>
    </g>
    <g id="xtick_5">
     <g id="line2d_9">
      <path d="M 613.482353 384.48 
L 613.482353 51.84 
" clip-path="url(#pa5eca96949)" style="fill: none; stroke: #b0b0b0; stroke-width: 0.8; stroke-linecap: square"/>
     </g>
     <g id="line2d_10">
      <g>
       <use xlink:href="#m66132b716b" x="613.482353" y="384.48" style="stroke: #000000; stroke-width: 0.8"/>
      </g>
     </g>
     <g id="text_5">
      <!-- 200 -->
      <g transform="translate(603.938603 399.078438) scale(0.1 -0.1)">
       <defs>
        <path id="DejaVuSans-32" d="M 1228 531 
L 3431 531 
L 3431 0 
L 469 0 
L 469 531 
Q 828 903 1448 1529 
Q 2069 2156 2228 2338 
Q 2531 2678 2651 2914 
Q 2772 3150 2772 3378 
Q 2772 3750 2511 3984 
Q 2250 4219 1831 4219 
Q 1534 4219 1204 4116 
Q 875 4013 500 3803 
L 500 4441 
Q 881 4594 1212 4672 
Q 1544 4750 1819 4750 
Q 2544 4750 2975 4387 
Q 3406 4025 3406 3419 
Q 3406 3131 3298 2873 
Q 3191 2616 2906 2266 
Q 2828 2175 2409 1742 
Q 1991 1309 1228 531 
z
" transform="scale(0.015625)"/>
       </defs>
       <use xlink:href="#DejaVuSans-32"/>
       <use xlink:href="#DejaVuSans-30" x="63.623047"/>
       <use xlink:href="#DejaVuSans-30" x="127.246094"/>
      </g>
     </g>
    </g>
    <g id="xtick_6">
     <g id="line2d_11">
      <path d="M 732.840642 384.48 
L 732.840642 51.84 
" clip-path="url(#pa5eca96949)" style="fill: none; stroke: #b0b0b0; stroke-width: 0.8; stroke-linecap: square"/>
     </g>
     <g id="line2d_12">
      <g>
       <use xlink:href="#m66132b716b" x="732.840642" y="384.48" style="stroke: #000000; stroke-width: 0.8"/>
      </g>
     </g>
     <g id="text_6">
      <!-- 250 -->
      <g transform="translate(723.296892 399.078438) scale(0.1 -0.1)">
       <use xlink:href="#DejaVuSans-32"/>
       <use xlink:href="#DejaVuSans-35" x="63.623047"/>
       <use xlink:href="#DejaVuSans-30" x="127.246094"/>
      </g>
     </g>
    </g>
    <g id="text_7">
     <!-- Número de Splits -->
     <g transform="translate(399.821094 413.156563) scale(0.1 -0.1)">
      <defs>
       <path id="DejaVuSans-4e" d="M 628 4666 
L 1478 4666 
L 3547 763 
L 3547 4666 
L 4159 4666 
L 4159 0 
L 3309 0 
L 1241 3903 
L 1241 0 
L 628 0 
L 628 4666 
z
" transform="scale(0.015625)"/>
       <path id="DejaVuSans-fa" d="M 544 1381 
L 544 3500 
L 1119 3500 
L 1119 1403 
Q 1119 906 1312 657 
Q 1506 409 1894 409 
Q 2359 409 2629 706 
Q 2900 1003 2900 1516 
L 2900 3500 
L 3475 3500 
L 3475 0 
L 2900 0 
L 2900 538 
Q 2691 219 2414 64 
Q 2138 -91 1772 -91 
Q 1169 -91 856 284 
Q 544 659 544 1381 
z
M 1991 3584 
L 1991 3584 
z
M 2418 5119 
L 3040 5119 
L 2022 3944 
L 1543 3944 
L 2418 5119 
z
" transform="scale(0.015625)"/>
       <path id="DejaVuSans-6d" d="M 3328 2828 
Q 3544 3216 3844 3400 
Q 4144 3584 4550 3584 
Q 5097 3584 5394 3201 
Q 5691 2819 5691 2113 
L 5691 0 
L 5113 0 
L 5113 2094 
Q 5113 2597 4934 2840 
Q 4756 3084 4391 3084 
Q 3944 3084 3684 2787 
Q 3425 2491 3425 1978 
L 3425 0 
L 2847 0 
L 2847 2094 
Q 2847 2600 2669 2842 
Q 2491 3084 2119 3084 
Q 1678 3084 1418 2786 
Q 1159 2488 1159 1978 
L 1159 0 
L 581 0 
L 581 3500 
L 1159 3500 
L 1159 2956 
Q 1356 3278 1631 3431 
Q 1906 3584 2284 3584 
Q 2666 3584 2933 3390 
Q 3200 3197 3328 2828 
z
" transform="scale(0.015625)"/>
       <path id="DejaVuSans-65" d="M 3597 1894 
L 3597 1613 
L 953 1613 
Q 991 1019 1311 708 
Q 1631 397 2203 397 
Q 2534 397 2845 478 
Q 3156 559 3463 722 
L 3463 178 
Q 3153 47 2828 -22 
Q 2503 -91 2169 -91 
Q 1331 -91 842 396 
Q 353 884 353 1716 
Q 353 2575 817 3079 
Q 1281 3584 2069 3584 
Q 2775 3584 3186 3129 
Q 3597 2675 3597 1894 
z
M 3022 2063 
Q 3016 2534 2758 2815 
Q 2500 3097 2075 3097 
Q 1594 3097 1305 2825 
Q 1016 2553 972 2059 
L 3022 2063 
z
" transform="scale(0.015625)"/>
       <path id="DejaVuSans-72" d="M 2631 2963 
Q 2534 3019 2420 3045 
Q 2306 3072 2169 3072 
Q 1681 3072 1420 2755 
Q 1159 2438 1159 1844 
L 1159 0 
L 581 0 
L 581 3500 
L 1159 3500 
L 1159 2956 
Q 1341 3275 1631 3429 
Q 1922 3584 2338 3584 
Q 2397 3584 2469 3576 
Q 2541 3569 2628 3553 
L 2631 2963 
z
" transform="scale(0.015625)"/>
       <path id="DejaVuSans-6f" d="M 1959 3097 
Q 1497 3097 1228 2736 
Q 959 2375 959 1747 
Q 959 1119 1226 758 
Q 1494 397 1959 397 
Q 2419 397 2687 759 
Q 2956 1122 2956 1747 
Q 2956 2369 2687 2733 
Q 2419 3097 1959 3097 
z
M 1959 3584 
Q 2709 3584 3137 3096 
Q 3566 2609 3566 1747 
Q 3566 888 3137 398 
Q 2709 -91 1959 -91 
Q 1206 -91 779 398 
Q 353 888 353 1747 
Q 353 2609 779 3096 
Q 1206 3584 1959 3584 
z
" transform="scale(0.015625)"/>
       <path id="DejaVuSans-20" transform="scale(0.015625)"/>
       <path id="DejaVuSans-64" d="M 2906 2969 
L 2906 4863 
L 3481 4863 
L 3481 0 
L 2906 0 
L 2906 525 
Q 2725 213 2448 61 
Q 2172 -91 1784 -91 
Q 1150 -91 751 415 
Q 353 922 353 1747 
Q 353 2572 751 3078 
Q 1150 3584 1784 3584 
Q 2172 3584 2448 3432 
Q 2725 3281 2906 2969 
z
M 947 1747 
Q 947 1113 1208 752 
Q 1469 391 1925 391 
Q 2381 391 2643 752 
Q 2906 1113 2906 1747 
Q 2906 2381 2643 2742 
Q 2381 3103 1925 3103 
Q 1469 3103 1208 2742 
Q 947 2381 947 1747 
z
" transform="scale(0.015625)"/>
       <path id="DejaVuSans-53" d="M 3425 4513 
L 3425 3897 
Q 3066 4069 2747 4153 
Q 2428 4238 2131 4238 
Q 1616 4238 1336 4038 
Q 1056 3838 1056 3469 
Q 1056 3159 1242 3001 
Q 1428 2844 1947 2747 
L 2328 2669 
Q 3034 2534 3370 2195 
Q 3706 1856 3706 1288 
Q 3706 609 3251 259 
Q 2797 -91 1919 -91 
Q 1588 -91 1214 -16 
Q 841 59 441 206 
L 441 856 
Q 825 641 1194 531 
Q 1563 422 1919 422 
Q 2459 422 2753 634 
Q 3047 847 3047 1241 
Q 3047 1584 2836 1778 
Q 2625 1972 2144 2069 
L 1759 2144 
Q 1053 2284 737 2584 
Q 422 2884 422 3419 
Q 422 4038 858 4394 
Q 1294 4750 2059 4750 
Q 2388 4750 2728 4690 
Q 3069 4631 3425 4513 
z
" transform="scale(0.015625)"/>
       <path id="DejaVuSans-70" d="M 1159 525 
L 1159 -1331 
L 581 -1331 
L 581 3500 
L 1159 3500 
L 1159 2969 
Q 1341 3281 1617 3432 
Q 1894 3584 2278 3584 
Q 2916 3584 3314 3078 
Q 3713 2572 3713 1747 
Q 3713 922 3314 415 
Q 2916 -91 2278 -91 
Q 1894 -91 1617 61 
Q 1341 213 1159 525 
z
M 3116 1747 
Q 3116 2381 2855 2742 
Q 2594 3103 2138 3103 
Q 1681 3103 1420 2742 
Q 1159 2381 1159 1747 
Q 1159 1113 1420 752 
Q 1681 391 2138 391 
Q 2594 391 2855 752 
Q 3116 1113 3116 1747 
z
" transform="scale(0.015625)"/>
       <path id="DejaVuSans-6c" d="M 603 4863 
L 1178 4863 
L 1178 0 
L 603 0 
L 603 4863 
z
" transform="scale(0.015625)"/>
       <path id="DejaVuSans-69" d="M 603 3500 
L 1178 3500 
L 1178 0 
L 603 0 
L 603 3500 
z
M 603 4863 
L 1178 4863 
L 1178 4134 
L 603 4134 
L 603 4863 
z
" transform="scale(0.015625)"/>
       <path id="DejaVuSans-74" d="M 1172 4494 
L 1172 3500 
L 2356 3500 
L 2356 3053 
L 1172 3053 
L 1172 1153 
Q 1172 725 1289 603 
Q 1406 481 1766 481 
L 2356 481 
L 2356 0 
L 1766 0 
Q 1100 0 847 248 
Q 594 497 594 1153 
L 594 3053 
L 172 3053 
L 172 3500 
L 594 3500 
L 594 4494 
L 1172 4494 
z
" transform="scale(0.015625)"/>
       <path id="DejaVuSans-73" d="M 2834 3397 
L 2834 2853 
Q 2591 2978 2328 3040 
Q 2066 3103 1784 3103 
Q 1356 3103 1142 2972 
Q 928 2841 928 2578 
Q 928 2378 1081 2264 
Q 1234 2150 1697 2047 
L 1894 2003 
Q 2506 1872 2764 1633 
Q 3022 1394 3022 966 
Q 3022 478 2636 193 
Q 2250 -91 1575 -91 
Q 1294 -91 989 -36 
Q 684 19 347 128 
L 347 722 
Q 666 556 975 473 
Q 1284 391 1588 391 
Q 1994 391 2212 530 
Q 2431 669 2431 922 
Q 2431 1156 2273 1281 
Q 2116 1406 1581 1522 
L 1381 1569 
Q 847 1681 609 1914 
Q 372 2147 372 2553 
Q 372 3047 722 3315 
Q 1072 3584 1716 3584 
Q 2034 3584 2315 3537 
Q 2597 3491 2834 3397 
z
" transform="scale(0.015625)"/>
      </defs>
      <use xlink:href="#DejaVuSans-4e"/>
      <use xlink:href="#DejaVuSans-fa" x="74.804688"/>
      <use xlink:href="#DejaVuSans-6d" x="138.183594"/>
      <use xlink:href="#DejaVuSans-65" x="235.595703"/>
      <use xlink:href="#DejaVuSans-72" x="297.119141"/>
      <use xlink:href="#DejaVuSans-6f" x="335.982422"/>
      <use xlink:href="#DejaVuSans-20" x="397.164062"/>
      <use xlink:href="#DejaVuSans-64" x="428.951172"/>
      <use xlink:href="#DejaVuSans-65" x="492.427734"/>
      <use xlink:href="#DejaVuSans-20" x="553.951172"/>
      <use xlink:href="#DejaVuSans-53" x="585.738281"/>
      <use xlink:href="#DejaVuSans-70" x="649.214844"/>
      <use xlink:href="#DejaVuSans-6c" x="712.691406"/>
      <use xlink:href="#DejaVuSans-69" x="740.474609"/>
      <use xlink:href="#DejaVuSans-74" x="768.257812"/>
      <use xlink:href="#DejaVuSans-73" x="807.466797"/>
     </g>
    </g>
   </g>
   <g id="matplotlib.axis_2">
    <g id="ytick_1">
     <g id="line2d_13">
      <path d="M 108 369.36 
L 777.6 369.36 
" clip-path="url(#pa5eca96949)" style="fill: none; stroke: #b0b0b0; stroke-width: 0.8; stroke-linecap: square"/>
     </g>
     <g id="line2d_14">
      <defs>
       <path id="mc840fc50a9" d="M 0 0 
L -3.5 0 
" style="stroke: #000000; stroke-width: 0.8"/>
      </defs>
      <g>
       <use xlink:href="#mc840fc50a9" x="108" y="369.36" style="stroke: #000000; stroke-width: 0.8"/>
      </g>
     </g>
     <g id="text_8">
      <!-- 0 -->
      <g transform="translate(94.6375 373.159219) scale(0.1 -0.1)">
       <use xlink:href="#DejaVuSans-30"/>
      </g>
     </g>
    </g>
    <g id="ytick_2">
     <g id="line2d_15">
      <path d="M 108 315.65859 
L 777.6 315.65859 
" clip-path="url(#pa5eca96949)" style="fill: none; stroke: #b0b0b0; stroke-width: 0.8; stroke-linecap: square"/>
     </g>
     <g id="line2d_16">
      <g>
       <use xlink:href="#mc840fc50a9" x="108" y="315.65859" style="stroke: #000000; stroke-width: 0.8"/>
      </g>
     </g>
     <g id="text_9">
      <!-- 20 -->
      <g transform="translate(88.275 319.457808) scale(0.1 -0.1)">
       <use xlink:href="#DejaVuSans-32"/>
       <use xlink:href="#DejaVuSans-30" x="63.623047"/>
      </g>
     </g>
    </g>
    <g id="ytick_3">
     <g id="line2d_17">
      <path d="M 108 261.957179 
L 777.6 261.957179 
" clip-path="url(#pa5eca96949)" style="fill: none; stroke: #b0b0b0; stroke-width: 0.8; stroke-linecap: square"/>
     </g>
     <g id="line2d_18">
      <g>
       <use xlink:href="#mc840fc50a9" x="108" y="261.957179" style="stroke: #000000; stroke-width: 0.8"/>
      </g>
     </g>
     <g id="text_10">
      <!-- 40 -->
      <g transform="translate(88.275 265.756398) scale(0.1 -0.1)">
       <defs>
        <path id="DejaVuSans-34" d="M 2419 4116 
L 825 1625 
L 2419 1625 
L 2419 4116 
z
M 2253 4666 
L 3047 4666 
L 3047 1625 
L 3713 1625 
L 3713 1100 
L 3047 1100 
L 3047 0 
L 2419 0 
L 2419 1100 
L 313 1100 
L 313 1709 
L 2253 4666 
z
" transform="scale(0.015625)"/>
       </defs>
       <use xlink:href="#DejaVuSans-34"/>
       <use xlink:href="#DejaVuSans-30" x="63.623047"/>
      </g>
     </g>
    </g>
    <g id="ytick_4">
     <g id="line2d_19">
      <path d="M 108 208.255769 
L 777.6 208.255769 
" clip-path="url(#pa5eca96949)" style="fill: none; stroke: #b0b0b0; stroke-width: 0.8; stroke-linecap: square"/>
     </g>
     <g id="line2d_20">
      <g>
       <use xlink:href="#mc840fc50a9" x="108" y="208.255769" style="stroke: #000000; stroke-width: 0.8"/>
      </g>
     </g>
     <g id="text_11">
      <!-- 60 -->
      <g transform="translate(88.275 212.054987) scale(0.1 -0.1)">
       <defs>
        <path id="DejaVuSans-36" d="M 2113 2584 
Q 1688 2584 1439 2293 
Q 1191 2003 1191 1497 
Q 1191 994 1439 701 
Q 1688 409 2113 409 
Q 2538 409 2786 701 
Q 3034 994 3034 1497 
Q 3034 2003 2786 2293 
Q 2538 2584 2113 2584 
z
M 3366 4563 
L 3366 3988 
Q 3128 4100 2886 4159 
Q 2644 4219 2406 4219 
Q 1781 4219 1451 3797 
Q 1122 3375 1075 2522 
Q 1259 2794 1537 2939 
Q 1816 3084 2150 3084 
Q 2853 3084 3261 2657 
Q 3669 2231 3669 1497 
Q 3669 778 3244 343 
Q 2819 -91 2113 -91 
Q 1303 -91 875 529 
Q 447 1150 447 2328 
Q 447 3434 972 4092 
Q 1497 4750 2381 4750 
Q 2619 4750 2861 4703 
Q 3103 4656 3366 4563 
z
" transform="scale(0.015625)"/>
       </defs>
       <use xlink:href="#DejaVuSans-36"/>
       <use xlink:href="#DejaVuSans-30" x="63.623047"/>
      </g>
     </g>
    </g>
    <g id="ytick_5">
     <g id="line2d_21">
      <path d="M 108 154.554358 
L 777.6 154.554358 
" clip-path="url(#pa5eca96949)" style="fill: none; stroke: #b0b0b0; stroke-width: 0.8; stroke-linecap: square"/>
     </g>
     <g id="line2d_22">
      <g>
       <use xlink:href="#mc840fc50a9" x="108" y="154.554358" style="stroke: #000000; stroke-width: 0.8"/>
      </g>
     </g>
     <g id="text_12">
      <!-- 80 -->
      <g transform="translate(88.275 158.353577) scale(0.1 -0.1)">
       <defs>
        <path id="DejaVuSans-38" d="M 2034 2216 
Q 1584 2216 1326 1975 
Q 1069 1734 1069 1313 
Q 1069 891 1326 650 
Q 1584 409 2034 409 
Q 2484 409 2743 651 
Q 3003 894 3003 1313 
Q 3003 1734 2745 1975 
Q 2488 2216 2034 2216 
z
M 1403 2484 
Q 997 2584 770 2862 
Q 544 3141 544 3541 
Q 544 4100 942 4425 
Q 1341 4750 2034 4750 
Q 2731 4750 3128 4425 
Q 3525 4100 3525 3541 
Q 3525 3141 3298 2862 
Q 3072 2584 2669 2484 
Q 3125 2378 3379 2068 
Q 3634 1759 3634 1313 
Q 3634 634 3220 271 
Q 2806 -91 2034 -91 
Q 1263 -91 848 271 
Q 434 634 434 1313 
Q 434 1759 690 2068 
Q 947 2378 1403 2484 
z
M 1172 3481 
Q 1172 3119 1398 2916 
Q 1625 2713 2034 2713 
Q 2441 2713 2670 2916 
Q 2900 3119 2900 3481 
Q 2900 3844 2670 4047 
Q 2441 4250 2034 4250 
Q 1625 4250 1398 4047 
Q 1172 3844 1172 3481 
z
" transform="scale(0.015625)"/>
       </defs>
       <use xlink:href="#DejaVuSans-38"/>
       <use xlink:href="#DejaVuSans-30" x="63.623047"/>
      </g>
     </g>
    </g>
    <g id="ytick_6">
     <g id="line2d_23">
      <path d="M 108 100.852948 
L 777.6 100.852948 
" clip-path="url(#pa5eca96949)" style="fill: none; stroke: #b0b0b0; stroke-width: 0.8; stroke-linecap: square"/>
     </g>
     <g id="line2d_24">
      <g>
       <use xlink:href="#mc840fc50a9" x="108" y="100.852948" style="stroke: #000000; stroke-width: 0.8"/>
      </g>
     </g>
     <g id="text_13">
      <!-- 100 -->
      <g transform="translate(81.9125 104.652166) scale(0.1 -0.1)">
       <use xlink:href="#DejaVuSans-31"/>
       <use xlink:href="#DejaVuSans-30" x="63.623047"/>
       <use xlink:href="#DejaVuSans-30" x="127.246094"/>
      </g>
     </g>
    </g>
    <g id="text_14">
     <!-- Mean Absolute Error -->
     <g transform="translate(75.832812 268.999844) rotate(-90) scale(0.1 -0.1)">
      <defs>
       <path id="DejaVuSans-4d" d="M 628 4666 
L 1569 4666 
L 2759 1491 
L 3956 4666 
L 4897 4666 
L 4897 0 
L 4281 0 
L 4281 4097 
L 3078 897 
L 2444 897 
L 1241 4097 
L 1241 0 
L 628 0 
L 628 4666 
z
" transform="scale(0.015625)"/>
       <path id="DejaVuSans-61" d="M 2194 1759 
Q 1497 1759 1228 1600 
Q 959 1441 959 1056 
Q 959 750 1161 570 
Q 1363 391 1709 391 
Q 2188 391 2477 730 
Q 2766 1069 2766 1631 
L 2766 1759 
L 2194 1759 
z
M 3341 1997 
L 3341 0 
L 2766 0 
L 2766 531 
Q 2569 213 2275 61 
Q 1981 -91 1556 -91 
Q 1019 -91 701 211 
Q 384 513 384 1019 
Q 384 1609 779 1909 
Q 1175 2209 1959 2209 
L 2766 2209 
L 2766 2266 
Q 2766 2663 2505 2880 
Q 2244 3097 1772 3097 
Q 1472 3097 1187 3025 
Q 903 2953 641 2809 
L 641 3341 
Q 956 3463 1253 3523 
Q 1550 3584 1831 3584 
Q 2591 3584 2966 3190 
Q 3341 2797 3341 1997 
z
" transform="scale(0.015625)"/>
       <path id="DejaVuSans-6e" d="M 3513 2113 
L 3513 0 
L 2938 0 
L 2938 2094 
Q 2938 2591 2744 2837 
Q 2550 3084 2163 3084 
Q 1697 3084 1428 2787 
Q 1159 2491 1159 1978 
L 1159 0 
L 581 0 
L 581 3500 
L 1159 3500 
L 1159 2956 
Q 1366 3272 1645 3428 
Q 1925 3584 2291 3584 
Q 2894 3584 3203 3211 
Q 3513 2838 3513 2113 
z
" transform="scale(0.015625)"/>
       <path id="DejaVuSans-41" d="M 2188 4044 
L 1331 1722 
L 3047 1722 
L 2188 4044 
z
M 1831 4666 
L 2547 4666 
L 4325 0 
L 3669 0 
L 3244 1197 
L 1141 1197 
L 716 0 
L 50 0 
L 1831 4666 
z
" transform="scale(0.015625)"/>
       <path id="DejaVuSans-62" d="M 3116 1747 
Q 3116 2381 2855 2742 
Q 2594 3103 2138 3103 
Q 1681 3103 1420 2742 
Q 1159 2381 1159 1747 
Q 1159 1113 1420 752 
Q 1681 391 2138 391 
Q 2594 391 2855 752 
Q 3116 1113 3116 1747 
z
M 1159 2969 
Q 1341 3281 1617 3432 
Q 1894 3584 2278 3584 
Q 2916 3584 3314 3078 
Q 3713 2572 3713 1747 
Q 3713 922 3314 415 
Q 2916 -91 2278 -91 
Q 1894 -91 1617 61 
Q 1341 213 1159 525 
L 1159 0 
L 581 0 
L 581 4863 
L 1159 4863 
L 1159 2969 
z
" transform="scale(0.015625)"/>
       <path id="DejaVuSans-75" d="M 544 1381 
L 544 3500 
L 1119 3500 
L 1119 1403 
Q 1119 906 1312 657 
Q 1506 409 1894 409 
Q 2359 409 2629 706 
Q 2900 1003 2900 1516 
L 2900 3500 
L 3475 3500 
L 3475 0 
L 2900 0 
L 2900 538 
Q 2691 219 2414 64 
Q 2138 -91 1772 -91 
Q 1169 -91 856 284 
Q 544 659 544 1381 
z
M 1991 3584 
L 1991 3584 
z
" transform="scale(0.015625)"/>
       <path id="DejaVuSans-45" d="M 628 4666 
L 3578 4666 
L 3578 4134 
L 1259 4134 
L 1259 2753 
L 3481 2753 
L 3481 2222 
L 1259 2222 
L 1259 531 
L 3634 531 
L 3634 0 
L 628 0 
L 628 4666 
z
" transform="scale(0.015625)"/>
      </defs>
      <use xlink:href="#DejaVuSans-4d"/>
      <use xlink:href="#DejaVuSans-65" x="86.279297"/>
      <use xlink:href="#DejaVuSans-61" x="147.802734"/>
      <use xlink:href="#DejaVuSans-6e" x="209.082031"/>
      <use xlink:href="#DejaVuSans-20" x="272.460938"/>
      <use xlink:href="#DejaVuSans-41" x="304.248047"/>
      <use xlink:href="#DejaVuSans-62" x="372.65625"/>
      <use xlink:href="#DejaVuSans-73" x="436.132812"/>
      <use xlink:href="#DejaVuSans-6f" x="488.232422"/>
      <use xlink:href="#DejaVuSans-6c" x="549.414062"/>
      <use xlink:href="#DejaVuSans-75" x="577.197266"/>
      <use xlink:href="#DejaVuSans-74" x="640.576172"/>
      <use xlink:href="#DejaVuSans-65" x="679.785156"/>
      <use xlink:href="#DejaVuSans-20" x="741.308594"/>
      <use xlink:href="#DejaVuSans-45" x="773.095703"/>
      <use xlink:href="#DejaVuSans-72" x="836.279297"/>
      <use xlink:href="#DejaVuSans-72" x="875.642578"/>
      <use xlink:href="#DejaVuSans-6f" x="914.505859"/>
      <use xlink:href="#DejaVuSans-72" x="975.6875"/>
     </g>
    </g>
   </g>
   <g id="line2d_25">
    <path d="M 138.436364 369.36 
L 140.823529 353.920844 
L 143.210695 351.757871 
L 145.597861 352.913943 
L 147.985027 364.60474 
L 150.372193 364.697375 
L 152.759358 364.125071 
L 155.146524 367.518433 
L 157.53369 366.989878 
L 159.920856 364.907616 
L 162.308021 367.027406 
L 164.695187 366.852144 
L 167.082353 362.078261 
L 169.469519 363.566513 
L 171.856684 361.040706 
L 174.24385 362.135242 
L 176.631016 361.685616 
L 179.018182 357.950086 
L 181.405348 361.822482 
L 186.179679 363.868134 
L 188.566845 363.429513 
L 190.954011 362.739482 
L 193.341176 364.234372 
L 195.728342 363.546878 
L 198.115508 364.956292 
L 200.502674 364.525028 
L 202.88984 364.492816 
L 205.277005 364.583253 
L 207.664171 364.798528 
L 212.438503 364.702354 
L 214.825668 364.293932 
L 217.212834 364.56971 
L 221.987166 365.53361 
L 224.374332 365.125364 
L 226.761497 364.400141 
L 231.535829 365.312563 
L 233.922995 364.942315 
L 236.31016 365.606878 
L 238.697326 365.431794 
L 241.084492 365.368286 
L 243.471658 365.435274 
L 248.245989 365.227159 
L 250.633155 365.837866 
L 253.020321 365.26774 
L 255.407487 364.93769 
L 257.794652 365.240049 
L 264.95615 365.155147 
L 267.343316 365.403034 
L 269.730481 365.211045 
L 274.504813 365.107855 
L 276.891979 364.92799 
L 279.279144 365.7208 
L 281.66631 365.219469 
L 286.440642 365.708489 
L 288.827807 365.396519 
L 293.602139 365.897065 
L 295.989305 365.460254 
L 298.376471 365.335332 
L 300.763636 365.675862 
L 305.537968 366.156921 
L 307.925134 366.065991 
L 312.699465 365.587734 
L 315.086631 365.721616 
L 317.473797 365.487331 
L 319.860963 365.444964 
L 324.635294 365.582761 
L 329.409626 365.329345 
L 331.796791 365.261888 
L 334.183957 364.893429 
L 336.571123 365.048593 
L 338.958289 364.750036 
L 341.345455 365.120107 
L 343.73262 364.434827 
L 346.119786 364.503672 
L 348.506952 364.274581 
L 350.894118 364.397536 
L 353.281283 364.222816 
L 362.829947 364.531898 
L 365.217112 364.131349 
L 367.604278 364.02751 
L 369.991444 363.62232 
L 374.765775 363.58887 
L 377.152941 363.788878 
L 379.540107 363.772293 
L 386.701604 363.452903 
L 389.08877 363.807313 
L 391.475936 363.616919 
L 393.863102 363.746869 
L 398.637433 363.386108 
L 401.024599 363.662746 
L 403.411765 363.705207 
L 405.79893 363.555227 
L 410.573262 363.971241 
L 412.960428 363.519166 
L 417.734759 363.782236 
L 429.670588 363.872976 
L 432.057754 363.619213 
L 434.44492 363.79704 
L 436.832086 363.687419 
L 439.219251 363.746456 
L 441.606417 362.749251 
L 443.993583 363.225973 
L 446.380749 363.360216 
L 448.767914 363.122857 
L 451.15508 362.728402 
L 455.929412 363.567951 
L 460.703743 363.057491 
L 465.478075 363.251113 
L 467.865241 363.239141 
L 470.252406 363.03577 
L 472.639572 362.992078 
L 475.026738 363.193552 
L 479.80107 363.04148 
L 482.188235 362.836637 
L 484.575401 363.05943 
L 486.962567 362.897347 
L 491.736898 363.016229 
L 494.124064 362.850504 
L 496.51123 363.128134 
L 498.898396 363.177484 
L 501.285561 362.526613 
L 503.672727 362.438118 
L 506.059893 362.145611 
L 508.447059 362.147249 
L 510.834225 361.668758 
L 515.608556 361.911795 
L 517.995722 362.073786 
L 520.382888 361.977198 
L 522.770053 361.718515 
L 525.157219 362.332644 
L 527.544385 361.895365 
L 532.318717 362.313684 
L 534.705882 362.470783 
L 537.093048 361.993087 
L 539.480214 362.314316 
L 541.86738 361.782018 
L 546.641711 361.831024 
L 549.028877 362.229674 
L 551.416043 362.038966 
L 556.190374 362.033802 
L 558.57754 361.488204 
L 560.964706 361.865384 
L 563.351872 361.863824 
L 565.739037 361.378722 
L 568.126203 361.508682 
L 570.513369 361.346908 
L 572.900535 361.378459 
L 575.287701 361.591075 
L 577.674866 361.94916 
L 580.062032 361.718152 
L 584.836364 361.866589 
L 587.223529 361.456789 
L 589.610695 361.307925 
L 591.997861 361.488148 
L 594.385027 361.074558 
L 596.772193 361.721593 
L 599.159358 361.439638 
L 603.93369 361.597152 
L 606.320856 361.763766 
L 608.708021 361.543973 
L 611.095187 361.594959 
L 613.482353 361.824978 
L 615.869519 361.392666 
L 618.256684 361.553763 
L 620.64385 361.593875 
L 623.031016 360.858167 
L 625.418182 361.215922 
L 632.579679 361.818233 
L 634.966845 361.486444 
L 637.354011 361.642765 
L 639.741176 361.08611 
L 642.128342 361.393469 
L 644.515508 361.243883 
L 646.902674 361.628763 
L 649.28984 361.581902 
L 656.451337 361.872918 
L 658.838503 361.5551 
L 661.225668 361.400637 
L 663.612834 361.589453 
L 666 361.303566 
L 668.387166 361.628617 
L 670.774332 361.759257 
L 673.161497 361.431231 
L 675.548663 361.312182 
L 677.935829 361.400736 
L 680.322995 361.259486 
L 689.871658 361.300183 
L 692.258824 361.23473 
L 697.033155 361.524841 
L 701.807487 361.433505 
L 704.194652 361.73213 
L 706.581818 361.512067 
L 708.968984 361.612758 
L 711.35615 361.376757 
L 713.743316 361.748437 
L 718.517647 361.646406 
L 720.904813 361.417649 
L 728.06631 361.361318 
L 730.453476 361.770738 
L 740.002139 361.437876 
L 742.389305 361.780474 
L 744.776471 361.425178 
L 747.163636 361.869195 
L 747.163636 361.869195 
" clip-path="url(#pa5eca96949)" style="fill: none; stroke: #0000ff; stroke-width: 1.5; stroke-linecap: square"/>
   </g>
   <g id="line2d_26">
    <path d="M 138.436364 338.481689 
L 140.823529 336.467886 
L 143.210695 347.431924 
L 145.597861 352.913943 
L 147.985027 358.811029 
L 150.372193 365.443153 
L 152.759358 364.64882 
L 155.146524 348.435022 
L 159.920856 364.827601 
L 162.308021 369.205832 
L 164.695187 209.807739 
L 167.082353 238.610715 
L 169.469519 225.942999 
L 171.856684 254.850088 
L 174.24385 309.400898 
L 176.631016 284.966488 
L 179.018182 337.882829 
L 181.405348 349.418451 
L 183.792513 364.729104 
L 186.179679 355.8743 
L 188.566845 369.07451 
L 190.954011 360.37336 
L 193.341176 287.146519 
L 195.728342 320.969144 
L 198.115508 352.851851 
L 200.502674 326.163637 
L 202.88984 353.728929 
L 205.277005 360.561829 
L 207.664171 330.576729 
L 210.051337 254.895488 
L 212.438503 263.435176 
L 214.825668 325.194864 
L 217.212834 350.910679 
L 219.6 368.779712 
L 221.987166 326.368776 
L 224.374332 330.082609 
L 226.761497 354.611355 
L 229.148663 364.853695 
L 231.535829 366.603399 
L 233.922995 364.682272 
L 236.31016 361.698934 
L 238.697326 365.869453 
L 241.084492 291.876379 
L 243.471658 341.359311 
L 245.858824 360.996238 
L 248.245989 367.722899 
L 250.633155 368.487195 
L 253.020321 367.282315 
L 255.407487 295.356928 
L 257.794652 318.249929 
L 260.181818 365.54852 
L 262.568984 349.620615 
L 264.95615 363.151289 
L 267.343316 266.790865 
L 269.730481 337.017072 
L 272.117647 341.336429 
L 274.504813 347.152274 
L 276.891979 350.763752 
L 279.279144 357.083021 
L 281.66631 352.316671 
L 284.053476 338.635432 
L 286.440642 363.529146 
L 288.827807 348.514119 
L 291.214973 347.210339 
L 293.602139 338.72527 
L 295.989305 340.61538 
L 298.376471 346.150514 
L 300.763636 345.780449 
L 303.150802 362.788684 
L 305.537968 360.549496 
L 307.925134 315.376922 
L 310.312299 352.767343 
L 312.699465 333.633646 
L 315.086631 298.827171 
L 317.473797 339.749076 
L 319.860963 336.146707 
L 322.248128 358.428031 
L 324.635294 298.523169 
L 327.02246 289.191112 
L 329.409626 271.91539 
L 331.796791 292.984947 
L 334.183957 318.124175 
L 336.571123 317.154867 
L 338.958289 366.556182 
L 341.345455 237.439375 
L 343.73262 297.003829 
L 346.119786 269.408899 
L 350.894118 362.092044 
L 353.281283 345.335909 
L 355.668449 360.781334 
L 358.055615 361.294039 
L 360.442781 354.355745 
L 362.829947 328.096172 
L 365.217112 66.96 
L 367.604278 352.531992 
L 369.991444 331.999504 
L 372.37861 290.879944 
L 374.765775 353.801272 
L 377.152941 357.513648 
L 379.540107 344.64738 
L 381.927273 275.718904 
L 384.314439 355.238468 
L 386.701604 358.532435 
L 389.08877 303.722938 
L 391.475936 344.461987 
L 393.863102 268.285217 
L 396.250267 320.223136 
L 398.637433 363.631735 
L 401.024599 304.53776 
L 403.411765 314.168263 
L 405.79893 327.666924 
L 408.186096 287.867738 
L 410.573262 318.739144 
L 412.960428 357.427041 
L 415.347594 349.258765 
L 417.734759 367.556483 
L 420.121925 365.711866 
L 422.509091 361.387783 
L 424.896257 289.308037 
L 427.283422 317.435645 
L 429.670588 355.449558 
L 432.057754 286.236459 
L 434.44492 342.881987 
L 436.832086 318.639072 
L 439.219251 198.361743 
L 441.606417 259.006275 
L 443.993583 343.907996 
L 446.380749 307.958171 
L 448.767914 332.315604 
L 451.15508 270.092177 
L 453.542246 348.648955 
L 455.929412 335.86567 
L 458.316578 343.05517 
L 460.703743 306.070169 
L 463.090909 324.894388 
L 465.478075 311.066478 
L 467.865241 324.268951 
L 470.252406 358.146167 
L 472.639572 342.0526 
L 475.026738 354.831572 
L 477.413904 316.736409 
L 479.80107 291.571225 
L 482.188235 351.896959 
L 484.575401 336.359364 
L 486.962567 317.340179 
L 489.349733 352.569133 
L 491.736898 345.802884 
L 494.124064 312.488816 
L 496.51123 272.488408 
L 498.898396 217.242958 
L 501.285561 356.718807 
L 503.672727 233.102404 
L 506.059893 350.853769 
L 508.447059 186.297875 
L 510.834225 300.286717 
L 513.22139 264.132464 
L 515.608556 344.094642 
L 517.995722 347.036017 
L 520.382888 355.365703 
L 522.770053 338.609937 
L 525.157219 294.27032 
L 527.544385 364.752385 
L 529.931551 267.02444 
L 532.318717 293.610797 
L 534.705882 352.930971 
L 537.093048 315.263732 
L 539.480214 250.889609 
L 544.254545 355.12459 
L 546.641711 359.126677 
L 549.028877 262.694152 
L 551.416043 364.372828 
L 553.803209 338.327479 
L 556.190374 303.789056 
L 558.57754 294.910907 
L 560.964706 354.615354 
L 563.351872 293.757173 
L 565.739037 299.906874 
L 568.126203 269.687799 
L 570.513369 263.920282 
L 572.900535 284.580761 
L 575.287701 350.831938 
L 577.674866 367.298981 
L 580.062032 359.10399 
L 582.449198 278.038701 
L 584.836364 334.793325 
L 587.223529 366.796496 
L 589.610695 352.646421 
L 591.997861 322.976256 
L 594.385027 364.237169 
L 596.772193 359.340131 
L 599.159358 325.491073 
L 601.546524 369.273764 
L 603.93369 342.927883 
L 606.320856 273.464927 
L 608.708021 344.617112 
L 611.095187 296.602453 
L 613.482353 354.05769 
L 615.869519 346.555607 
L 618.256684 331.130226 
L 620.64385 331.669399 
L 623.031016 351.011599 
L 625.418182 359.179231 
L 627.805348 310.284006 
L 630.192513 356.322486 
L 632.579679 338.98072 
L 634.966845 363.346676 
L 637.354011 292.783357 
L 639.741176 319.594867 
L 642.128342 363.809204 
L 644.515508 294.944127 
L 646.902674 275.267385 
L 649.28984 256.522579 
L 651.677005 324.788394 
L 654.064171 349.85471 
L 656.451337 258.400342 
L 658.838503 312.523716 
L 661.225668 350.89961 
L 663.612834 275.402591 
L 666 322.707348 
L 668.387166 337.26814 
L 670.774332 331.547565 
L 673.161497 364.498555 
L 675.548663 367.438452 
L 677.935829 254.561966 
L 680.322995 358.233411 
L 682.71016 287.709232 
L 685.097326 339.413534 
L 687.484492 285.133225 
L 689.871658 366.839365 
L 692.258824 357.668828 
L 694.645989 334.996216 
L 697.033155 359.900418 
L 699.420321 340.688268 
L 701.807487 354.466312 
L 704.194652 292.800677 
L 706.581818 340.824553 
L 708.968984 302.69552 
L 711.35615 354.772737 
L 713.743316 340.227869 
L 716.130481 336.368104 
L 718.517647 328.517726 
L 720.904813 288.780497 
L 723.291979 309.285993 
L 725.679144 323.99284 
L 728.06631 345.718406 
L 730.453476 312.284799 
L 732.840642 336.28563 
L 735.227807 364.293798 
L 737.614973 353.597649 
L 740.002139 367.895869 
L 744.776471 313.667568 
L 747.163636 252.932613 
L 747.163636 252.932613 
" clip-path="url(#pa5eca96949)" style="fill: none; stroke: #ff0000; stroke-width: 1.5; stroke-linecap: square"/>
   </g>
   <g id="patch_3">
    <path d="M 108 384.48 
L 108 51.84 
" style="fill: none; stroke: #000000; stroke-width: 0.8; stroke-linejoin: miter; stroke-linecap: square"/>
   </g>
   <g id="patch_4">
    <path d="M 777.6 384.48 
L 777.6 51.84 
" style="fill: none; stroke: #000000; stroke-width: 0.8; stroke-linejoin: miter; stroke-linecap: square"/>
   </g>
   <g id="patch_5">
    <path d="M 108 384.48 
L 777.6 384.48 
" style="fill: none; stroke: #000000; stroke-width: 0.8; stroke-linejoin: miter; stroke-linecap: square"/>
   </g>
   <g id="patch_6">
    <path d="M 108 51.84 
L 777.6 51.84 
" style="fill: none; stroke: #000000; stroke-width: 0.8; stroke-linejoin: miter; stroke-linecap: square"/>
   </g>
   <g id="text_15">
    <!-- MAE en Entrenamiento y Validación -->
    <g transform="translate(336.000938 45.84) scale(0.12 -0.12)">
     <defs>
      <path id="DejaVuSans-79" d="M 2059 -325 
Q 1816 -950 1584 -1140 
Q 1353 -1331 966 -1331 
L 506 -1331 
L 506 -850 
L 844 -850 
Q 1081 -850 1212 -737 
Q 1344 -625 1503 -206 
L 1606 56 
L 191 3500 
L 800 3500 
L 1894 763 
L 2988 3500 
L 3597 3500 
L 2059 -325 
z
" transform="scale(0.015625)"/>
      <path id="DejaVuSans-56" d="M 1831 0 
L 50 4666 
L 709 4666 
L 2188 738 
L 3669 4666 
L 4325 4666 
L 2547 0 
L 1831 0 
z
" transform="scale(0.015625)"/>
      <path id="DejaVuSans-63" d="M 3122 3366 
L 3122 2828 
Q 2878 2963 2633 3030 
Q 2388 3097 2138 3097 
Q 1578 3097 1268 2742 
Q 959 2388 959 1747 
Q 959 1106 1268 751 
Q 1578 397 2138 397 
Q 2388 397 2633 464 
Q 2878 531 3122 666 
L 3122 134 
Q 2881 22 2623 -34 
Q 2366 -91 2075 -91 
Q 1284 -91 818 406 
Q 353 903 353 1747 
Q 353 2603 823 3093 
Q 1294 3584 2113 3584 
Q 2378 3584 2631 3529 
Q 2884 3475 3122 3366 
z
" transform="scale(0.015625)"/>
      <path id="DejaVuSans-f3" d="M 1959 3097 
Q 1497 3097 1228 2736 
Q 959 2375 959 1747 
Q 959 1119 1226 758 
Q 1494 397 1959 397 
Q 2419 397 2687 759 
Q 2956 1122 2956 1747 
Q 2956 2369 2687 2733 
Q 2419 3097 1959 3097 
z
M 1959 3584 
Q 2709 3584 3137 3096 
Q 3566 2609 3566 1747 
Q 3566 888 3137 398 
Q 2709 -91 1959 -91 
Q 1206 -91 779 398 
Q 353 888 353 1747 
Q 353 2609 779 3096 
Q 1206 3584 1959 3584 
z
M 2394 5119 
L 3016 5119 
L 1998 3944 
L 1519 3944 
L 2394 5119 
z
" transform="scale(0.015625)"/>
     </defs>
     <use xlink:href="#DejaVuSans-4d"/>
     <use xlink:href="#DejaVuSans-41" x="86.279297"/>
     <use xlink:href="#DejaVuSans-45" x="154.6875"/>
     <use xlink:href="#DejaVuSans-20" x="217.871094"/>
     <use xlink:href="#DejaVuSans-65" x="249.658203"/>
     <use xlink:href="#DejaVuSans-6e" x="311.181641"/>
     <use xlink:href="#DejaVuSans-20" x="374.560547"/>
     <use xlink:href="#DejaVuSans-45" x="406.347656"/>
     <use xlink:href="#DejaVuSans-6e" x="469.53125"/>
     <use xlink:href="#DejaVuSans-74" x="532.910156"/>
     <use xlink:href="#DejaVuSans-72" x="572.119141"/>
     <use xlink:href="#DejaVuSans-65" x="610.982422"/>
     <use xlink:href="#DejaVuSans-6e" x="672.505859"/>
     <use xlink:href="#DejaVuSans-61" x="735.884766"/>
     <use xlink:href="#DejaVuSans-6d" x="797.164062"/>
     <use xlink:href="#DejaVuSans-69" x="894.576172"/>
     <use xlink:href="#DejaVuSans-65" x="922.359375"/>
     <use xlink:href="#DejaVuSans-6e" x="983.882812"/>
     <use xlink:href="#DejaVuSans-74" x="1047.261719"/>
     <use xlink:href="#DejaVuSans-6f" x="1086.470703"/>
     <use xlink:href="#DejaVuSans-20" x="1147.652344"/>
     <use xlink:href="#DejaVuSans-79" x="1179.439453"/>
     <use xlink:href="#DejaVuSans-20" x="1238.619141"/>
     <use xlink:href="#DejaVuSans-56" x="1270.40625"/>
     <use xlink:href="#DejaVuSans-61" x="1331.064453"/>
     <use xlink:href="#DejaVuSans-6c" x="1392.34375"/>
     <use xlink:href="#DejaVuSans-69" x="1420.126953"/>
     <use xlink:href="#DejaVuSans-64" x="1447.910156"/>
     <use xlink:href="#DejaVuSans-61" x="1511.386719"/>
     <use xlink:href="#DejaVuSans-63" x="1572.666016"/>
     <use xlink:href="#DejaVuSans-69" x="1627.646484"/>
     <use xlink:href="#DejaVuSans-f3" x="1655.429688"/>
     <use xlink:href="#DejaVuSans-6e" x="1716.611328"/>
    </g>
   </g>
   <g id="legend_1">
    <g id="patch_7">
     <path d="M 639.504688 89.19625 
L 770.6 89.19625 
Q 772.6 89.19625 772.6 87.19625 
L 772.6 58.84 
Q 772.6 56.84 770.6 56.84 
L 639.504688 56.84 
Q 637.504688 56.84 637.504688 58.84 
L 637.504688 87.19625 
Q 637.504688 89.19625 639.504688 89.19625 
z
" style="fill: #ffffff; opacity: 0.8; stroke: #cccccc; stroke-linejoin: miter"/>
    </g>
    <g id="line2d_27">
     <path d="M 641.504688 64.938437 
L 651.504688 64.938437 
L 661.504688 64.938437 
" style="fill: none; stroke: #0000ff; stroke-width: 1.5; stroke-linecap: square"/>
    </g>
    <g id="text_16">
     <!-- MAE Entrenamiento -->
     <g transform="translate(669.504688 68.438437) scale(0.1 -0.1)">
      <use xlink:href="#DejaVuSans-4d"/>
      <use xlink:href="#DejaVuSans-41" x="86.279297"/>
      <use xlink:href="#DejaVuSans-45" x="154.6875"/>
      <use xlink:href="#DejaVuSans-20" x="217.871094"/>
      <use xlink:href="#DejaVuSans-45" x="249.658203"/>
      <use xlink:href="#DejaVuSans-6e" x="312.841797"/>
      <use xlink:href="#DejaVuSans-74" x="376.220703"/>
      <use xlink:href="#DejaVuSans-72" x="415.429688"/>
      <use xlink:href="#DejaVuSans-65" x="454.292969"/>
      <use xlink:href="#DejaVuSans-6e" x="515.816406"/>
      <use xlink:href="#DejaVuSans-61" x="579.195312"/>
      <use xlink:href="#DejaVuSans-6d" x="640.474609"/>
      <use xlink:href="#DejaVuSans-69" x="737.886719"/>
      <use xlink:href="#DejaVuSans-65" x="765.669922"/>
      <use xlink:href="#DejaVuSans-6e" x="827.193359"/>
      <use xlink:href="#DejaVuSans-74" x="890.572266"/>
      <use xlink:href="#DejaVuSans-6f" x="929.78125"/>
     </g>
    </g>
    <g id="line2d_28">
     <path d="M 641.504688 79.616562 
L 651.504688 79.616562 
L 661.504688 79.616562 
" style="fill: none; stroke: #ff0000; stroke-width: 1.5; stroke-linecap: square"/>
    </g>
    <g id="text_17">
     <!-- MAE Validación -->
     <g transform="translate(669.504688 83.116562) scale(0.1 -0.1)">
      <use xlink:href="#DejaVuSans-4d"/>
      <use xlink:href="#DejaVuSans-41" x="86.279297"/>
      <use xlink:href="#DejaVuSans-45" x="154.6875"/>
      <use xlink:href="#DejaVuSans-20" x="217.871094"/>
      <use xlink:href="#DejaVuSans-56" x="249.658203"/>
      <use xlink:href="#DejaVuSans-61" x="310.316406"/>
      <use xlink:href="#DejaVuSans-6c" x="371.595703"/>
      <use xlink:href="#DejaVuSans-69" x="399.378906"/>
      <use xlink:href="#DejaVuSans-64" x="427.162109"/>
      <use xlink:href="#DejaVuSans-61" x="490.638672"/>
      <use xlink:href="#DejaVuSans-63" x="551.917969"/>
      <use xlink:href="#DejaVuSans-69" x="606.898438"/>
      <use xlink:href="#DejaVuSans-f3" x="634.681641"/>
      <use xlink:href="#DejaVuSans-6e" x="695.863281"/>
     </g>
    </g>
   </g>
  </g>
 </g>
 <defs>
  <clipPath id="pa5eca96949">
   <rect x="108" y="51.84" width="669.6" height="332.64"/>
  </clipPath>
 </defs>
</svg>
