<?xml version="1.0" encoding="utf-8" standalone="no"?>
<!DOCTYPE svg PUBLIC "-//W3C//DTD SVG 1.1//EN"
  "http://www.w3.org/Graphics/SVG/1.1/DTD/svg11.dtd">
<svg xmlns:xlink="http://www.w3.org/1999/xlink" width="864pt" height="432pt" viewBox="0 0 864 432" xmlns="http://www.w3.org/2000/svg" version="1.1">
 <metadata>
  <rdf:RDF xmlns:dc="http://purl.org/dc/elements/1.1/" xmlns:cc="http://creativecommons.org/ns#" xmlns:rdf="http://www.w3.org/1999/02/22-rdf-syntax-ns#">
   <cc:Work>
    <dc:type rdf:resource="http://purl.org/dc/dcmitype/StillImage"/>
    <dc:date>2024-10-20T15:48:54.410409</dc:date>
    <dc:format>image/svg+xml</dc:format>
    <dc:creator>
     <cc:Agent>
      <dc:title>Matplotlib v3.8.4, https://matplotlib.org/</dc:title>
     </cc:Agent>
    </dc:creator>
   </cc:Work>
  </rdf:RDF>
 </metadata>
 <defs>
  <style type="text/css">*{stroke-linejoin: round; stroke-linecap: butt}</style>
 </defs>
 <g id="figure_1">
  <g id="patch_1">
   <path d="M 0 432 
L 864 432 
L 864 0 
L 0 0 
z
" style="fill: #ffffff"/>
  </g>
  <g id="axes_1">
   <g id="patch_2">
    <path d="M 108 384.48 
L 777.6 384.48 
L 777.6 51.84 
L 108 51.84 
z
" style="fill: #ffffff"/>
   </g>
   <g id="matplotlib.axis_1">
    <g id="xtick_1">
     <g id="line2d_1">
      <path d="M 135.377433 384.48 
L 135.377433 51.84 
" clip-path="url(#pc8341dd8a8)" style="fill: none; stroke: #b0b0b0; stroke-width: 0.8; stroke-linecap: square"/>
     </g>
     <g id="line2d_2">
      <defs>
       <path id="m93199a3f00" d="M 0 0 
L 0 3.5 
" style="stroke: #000000; stroke-width: 0.8"/>
      </defs>
      <g>
       <use xlink:href="#m93199a3f00" x="135.377433" y="384.48" style="stroke: #000000; stroke-width: 0.8"/>
      </g>
     </g>
     <g id="text_1">
      <!-- 0 -->
      <g transform="translate(132.196183 399.078438) scale(0.1 -0.1)">
       <defs>
        <path id="DejaVuSans-30" d="M 2034 4250 
Q 1547 4250 1301 3770 
Q 1056 3291 1056 2328 
Q 1056 1369 1301 889 
Q 1547 409 2034 409 
Q 2525 409 2770 889 
Q 3016 1369 3016 2328 
Q 3016 3291 2770 3770 
Q 2525 4250 2034 4250 
z
M 2034 4750 
Q 2819 4750 3233 4129 
Q 3647 3509 3647 2328 
Q 3647 1150 3233 529 
Q 2819 -91 2034 -91 
Q 1250 -91 836 529 
Q 422 1150 422 2328 
Q 422 3509 836 4129 
Q 1250 4750 2034 4750 
z
" transform="scale(0.015625)"/>
       </defs>
       <use xlink:href="#DejaVuSans-30"/>
      </g>
     </g>
    </g>
    <g id="xtick_2">
     <g id="line2d_3">
      <path d="M 211.850708 384.48 
L 211.850708 51.84 
" clip-path="url(#pc8341dd8a8)" style="fill: none; stroke: #b0b0b0; stroke-width: 0.8; stroke-linecap: square"/>
     </g>
     <g id="line2d_4">
      <g>
       <use xlink:href="#m93199a3f00" x="211.850708" y="384.48" style="stroke: #000000; stroke-width: 0.8"/>
      </g>
     </g>
     <g id="text_2">
      <!-- 25 -->
      <g transform="translate(205.488208 399.078438) scale(0.1 -0.1)">
       <defs>
        <path id="DejaVuSans-32" d="M 1228 531 
L 3431 531 
L 3431 0 
L 469 0 
L 469 531 
Q 828 903 1448 1529 
Q 2069 2156 2228 2338 
Q 2531 2678 2651 2914 
Q 2772 3150 2772 3378 
Q 2772 3750 2511 3984 
Q 2250 4219 1831 4219 
Q 1534 4219 1204 4116 
Q 875 4013 500 3803 
L 500 4441 
Q 881 4594 1212 4672 
Q 1544 4750 1819 4750 
Q 2544 4750 2975 4387 
Q 3406 4025 3406 3419 
Q 3406 3131 3298 2873 
Q 3191 2616 2906 2266 
Q 2828 2175 2409 1742 
Q 1991 1309 1228 531 
z
" transform="scale(0.015625)"/>
        <path id="DejaVuSans-35" d="M 691 4666 
L 3169 4666 
L 3169 4134 
L 1269 4134 
L 1269 2991 
Q 1406 3038 1543 3061 
Q 1681 3084 1819 3084 
Q 2600 3084 3056 2656 
Q 3513 2228 3513 1497 
Q 3513 744 3044 326 
Q 2575 -91 1722 -91 
Q 1428 -91 1123 -41 
Q 819 9 494 109 
L 494 744 
Q 775 591 1075 516 
Q 1375 441 1709 441 
Q 2250 441 2565 725 
Q 2881 1009 2881 1497 
Q 2881 1984 2565 2268 
Q 2250 2553 1709 2553 
Q 1456 2553 1204 2497 
Q 953 2441 691 2322 
L 691 4666 
z
" transform="scale(0.015625)"/>
       </defs>
       <use xlink:href="#DejaVuSans-32"/>
       <use xlink:href="#DejaVuSans-35" x="63.623047"/>
      </g>
     </g>
    </g>
    <g id="xtick_3">
     <g id="line2d_5">
      <path d="M 288.323984 384.48 
L 288.323984 51.84 
" clip-path="url(#pc8341dd8a8)" style="fill: none; stroke: #b0b0b0; stroke-width: 0.8; stroke-linecap: square"/>
     </g>
     <g id="line2d_6">
      <g>
       <use xlink:href="#m93199a3f00" x="288.323984" y="384.48" style="stroke: #000000; stroke-width: 0.8"/>
      </g>
     </g>
     <g id="text_3">
      <!-- 50 -->
      <g transform="translate(281.961484 399.078438) scale(0.1 -0.1)">
       <use xlink:href="#DejaVuSans-35"/>
       <use xlink:href="#DejaVuSans-30" x="63.623047"/>
      </g>
     </g>
    </g>
    <g id="xtick_4">
     <g id="line2d_7">
      <path d="M 364.797259 384.48 
L 364.797259 51.84 
" clip-path="url(#pc8341dd8a8)" style="fill: none; stroke: #b0b0b0; stroke-width: 0.8; stroke-linecap: square"/>
     </g>
     <g id="line2d_8">
      <g>
       <use xlink:href="#m93199a3f00" x="364.797259" y="384.48" style="stroke: #000000; stroke-width: 0.8"/>
      </g>
     </g>
     <g id="text_4">
      <!-- 75 -->
      <g transform="translate(358.434759 399.078438) scale(0.1 -0.1)">
       <defs>
        <path id="DejaVuSans-37" d="M 525 4666 
L 3525 4666 
L 3525 4397 
L 1831 0 
L 1172 0 
L 2766 4134 
L 525 4134 
L 525 4666 
z
" transform="scale(0.015625)"/>
       </defs>
       <use xlink:href="#DejaVuSans-37"/>
       <use xlink:href="#DejaVuSans-35" x="63.623047"/>
      </g>
     </g>
    </g>
    <g id="xtick_5">
     <g id="line2d_9">
      <path d="M 441.270534 384.48 
L 441.270534 51.84 
" clip-path="url(#pc8341dd8a8)" style="fill: none; stroke: #b0b0b0; stroke-width: 0.8; stroke-linecap: square"/>
     </g>
     <g id="line2d_10">
      <g>
       <use xlink:href="#m93199a3f00" x="441.270534" y="384.48" style="stroke: #000000; stroke-width: 0.8"/>
      </g>
     </g>
     <g id="text_5">
      <!-- 100 -->
      <g transform="translate(431.726784 399.078438) scale(0.1 -0.1)">
       <defs>
        <path id="DejaVuSans-31" d="M 794 531 
L 1825 531 
L 1825 4091 
L 703 3866 
L 703 4441 
L 1819 4666 
L 2450 4666 
L 2450 531 
L 3481 531 
L 3481 0 
L 794 0 
L 794 531 
z
" transform="scale(0.015625)"/>
       </defs>
       <use xlink:href="#DejaVuSans-31"/>
       <use xlink:href="#DejaVuSans-30" x="63.623047"/>
       <use xlink:href="#DejaVuSans-30" x="127.246094"/>
      </g>
     </g>
    </g>
    <g id="xtick_6">
     <g id="line2d_11">
      <path d="M 517.74381 384.48 
L 517.74381 51.84 
" clip-path="url(#pc8341dd8a8)" style="fill: none; stroke: #b0b0b0; stroke-width: 0.8; stroke-linecap: square"/>
     </g>
     <g id="line2d_12">
      <g>
       <use xlink:href="#m93199a3f00" x="517.74381" y="384.48" style="stroke: #000000; stroke-width: 0.8"/>
      </g>
     </g>
     <g id="text_6">
      <!-- 125 -->
      <g transform="translate(508.20006 399.078438) scale(0.1 -0.1)">
       <use xlink:href="#DejaVuSans-31"/>
       <use xlink:href="#DejaVuSans-32" x="63.623047"/>
       <use xlink:href="#DejaVuSans-35" x="127.246094"/>
      </g>
     </g>
    </g>
    <g id="xtick_7">
     <g id="line2d_13">
      <path d="M 594.217085 384.48 
L 594.217085 51.84 
" clip-path="url(#pc8341dd8a8)" style="fill: none; stroke: #b0b0b0; stroke-width: 0.8; stroke-linecap: square"/>
     </g>
     <g id="line2d_14">
      <g>
       <use xlink:href="#m93199a3f00" x="594.217085" y="384.48" style="stroke: #000000; stroke-width: 0.8"/>
      </g>
     </g>
     <g id="text_7">
      <!-- 150 -->
      <g transform="translate(584.673335 399.078438) scale(0.1 -0.1)">
       <use xlink:href="#DejaVuSans-31"/>
       <use xlink:href="#DejaVuSans-35" x="63.623047"/>
       <use xlink:href="#DejaVuSans-30" x="127.246094"/>
      </g>
     </g>
    </g>
    <g id="xtick_8">
     <g id="line2d_15">
      <path d="M 670.690361 384.48 
L 670.690361 51.84 
" clip-path="url(#pc8341dd8a8)" style="fill: none; stroke: #b0b0b0; stroke-width: 0.8; stroke-linecap: square"/>
     </g>
     <g id="line2d_16">
      <g>
       <use xlink:href="#m93199a3f00" x="670.690361" y="384.48" style="stroke: #000000; stroke-width: 0.8"/>
      </g>
     </g>
     <g id="text_8">
      <!-- 175 -->
      <g transform="translate(661.146611 399.078438) scale(0.1 -0.1)">
       <use xlink:href="#DejaVuSans-31"/>
       <use xlink:href="#DejaVuSans-37" x="63.623047"/>
       <use xlink:href="#DejaVuSans-35" x="127.246094"/>
      </g>
     </g>
    </g>
    <g id="xtick_9">
     <g id="line2d_17">
      <path d="M 747.163636 384.48 
L 747.163636 51.84 
" clip-path="url(#pc8341dd8a8)" style="fill: none; stroke: #b0b0b0; stroke-width: 0.8; stroke-linecap: square"/>
     </g>
     <g id="line2d_18">
      <g>
       <use xlink:href="#m93199a3f00" x="747.163636" y="384.48" style="stroke: #000000; stroke-width: 0.8"/>
      </g>
     </g>
     <g id="text_9">
      <!-- 200 -->
      <g transform="translate(737.619886 399.078438) scale(0.1 -0.1)">
       <use xlink:href="#DejaVuSans-32"/>
       <use xlink:href="#DejaVuSans-30" x="63.623047"/>
       <use xlink:href="#DejaVuSans-30" x="127.246094"/>
      </g>
     </g>
    </g>
    <g id="text_10">
     <!-- Número de Splits -->
     <g transform="translate(399.821094 413.156563) scale(0.1 -0.1)">
      <defs>
       <path id="DejaVuSans-4e" d="M 628 4666 
L 1478 4666 
L 3547 763 
L 3547 4666 
L 4159 4666 
L 4159 0 
L 3309 0 
L 1241 3903 
L 1241 0 
L 628 0 
L 628 4666 
z
" transform="scale(0.015625)"/>
       <path id="DejaVuSans-fa" d="M 544 1381 
L 544 3500 
L 1119 3500 
L 1119 1403 
Q 1119 906 1312 657 
Q 1506 409 1894 409 
Q 2359 409 2629 706 
Q 2900 1003 2900 1516 
L 2900 3500 
L 3475 3500 
L 3475 0 
L 2900 0 
L 2900 538 
Q 2691 219 2414 64 
Q 2138 -91 1772 -91 
Q 1169 -91 856 284 
Q 544 659 544 1381 
z
M 1991 3584 
L 1991 3584 
z
M 2418 5119 
L 3040 5119 
L 2022 3944 
L 1543 3944 
L 2418 5119 
z
" transform="scale(0.015625)"/>
       <path id="DejaVuSans-6d" d="M 3328 2828 
Q 3544 3216 3844 3400 
Q 4144 3584 4550 3584 
Q 5097 3584 5394 3201 
Q 5691 2819 5691 2113 
L 5691 0 
L 5113 0 
L 5113 2094 
Q 5113 2597 4934 2840 
Q 4756 3084 4391 3084 
Q 3944 3084 3684 2787 
Q 3425 2491 3425 1978 
L 3425 0 
L 2847 0 
L 2847 2094 
Q 2847 2600 2669 2842 
Q 2491 3084 2119 3084 
Q 1678 3084 1418 2786 
Q 1159 2488 1159 1978 
L 1159 0 
L 581 0 
L 581 3500 
L 1159 3500 
L 1159 2956 
Q 1356 3278 1631 3431 
Q 1906 3584 2284 3584 
Q 2666 3584 2933 3390 
Q 3200 3197 3328 2828 
z
" transform="scale(0.015625)"/>
       <path id="DejaVuSans-65" d="M 3597 1894 
L 3597 1613 
L 953 1613 
Q 991 1019 1311 708 
Q 1631 397 2203 397 
Q 2534 397 2845 478 
Q 3156 559 3463 722 
L 3463 178 
Q 3153 47 2828 -22 
Q 2503 -91 2169 -91 
Q 1331 -91 842 396 
Q 353 884 353 1716 
Q 353 2575 817 3079 
Q 1281 3584 2069 3584 
Q 2775 3584 3186 3129 
Q 3597 2675 3597 1894 
z
M 3022 2063 
Q 3016 2534 2758 2815 
Q 2500 3097 2075 3097 
Q 1594 3097 1305 2825 
Q 1016 2553 972 2059 
L 3022 2063 
z
" transform="scale(0.015625)"/>
       <path id="DejaVuSans-72" d="M 2631 2963 
Q 2534 3019 2420 3045 
Q 2306 3072 2169 3072 
Q 1681 3072 1420 2755 
Q 1159 2438 1159 1844 
L 1159 0 
L 581 0 
L 581 3500 
L 1159 3500 
L 1159 2956 
Q 1341 3275 1631 3429 
Q 1922 3584 2338 3584 
Q 2397 3584 2469 3576 
Q 2541 3569 2628 3553 
L 2631 2963 
z
" transform="scale(0.015625)"/>
       <path id="DejaVuSans-6f" d="M 1959 3097 
Q 1497 3097 1228 2736 
Q 959 2375 959 1747 
Q 959 1119 1226 758 
Q 1494 397 1959 397 
Q 2419 397 2687 759 
Q 2956 1122 2956 1747 
Q 2956 2369 2687 2733 
Q 2419 3097 1959 3097 
z
M 1959 3584 
Q 2709 3584 3137 3096 
Q 3566 2609 3566 1747 
Q 3566 888 3137 398 
Q 2709 -91 1959 -91 
Q 1206 -91 779 398 
Q 353 888 353 1747 
Q 353 2609 779 3096 
Q 1206 3584 1959 3584 
z
" transform="scale(0.015625)"/>
       <path id="DejaVuSans-20" transform="scale(0.015625)"/>
       <path id="DejaVuSans-64" d="M 2906 2969 
L 2906 4863 
L 3481 4863 
L 3481 0 
L 2906 0 
L 2906 525 
Q 2725 213 2448 61 
Q 2172 -91 1784 -91 
Q 1150 -91 751 415 
Q 353 922 353 1747 
Q 353 2572 751 3078 
Q 1150 3584 1784 3584 
Q 2172 3584 2448 3432 
Q 2725 3281 2906 2969 
z
M 947 1747 
Q 947 1113 1208 752 
Q 1469 391 1925 391 
Q 2381 391 2643 752 
Q 2906 1113 2906 1747 
Q 2906 2381 2643 2742 
Q 2381 3103 1925 3103 
Q 1469 3103 1208 2742 
Q 947 2381 947 1747 
z
" transform="scale(0.015625)"/>
       <path id="DejaVuSans-53" d="M 3425 4513 
L 3425 3897 
Q 3066 4069 2747 4153 
Q 2428 4238 2131 4238 
Q 1616 4238 1336 4038 
Q 1056 3838 1056 3469 
Q 1056 3159 1242 3001 
Q 1428 2844 1947 2747 
L 2328 2669 
Q 3034 2534 3370 2195 
Q 3706 1856 3706 1288 
Q 3706 609 3251 259 
Q 2797 -91 1919 -91 
Q 1588 -91 1214 -16 
Q 841 59 441 206 
L 441 856 
Q 825 641 1194 531 
Q 1563 422 1919 422 
Q 2459 422 2753 634 
Q 3047 847 3047 1241 
Q 3047 1584 2836 1778 
Q 2625 1972 2144 2069 
L 1759 2144 
Q 1053 2284 737 2584 
Q 422 2884 422 3419 
Q 422 4038 858 4394 
Q 1294 4750 2059 4750 
Q 2388 4750 2728 4690 
Q 3069 4631 3425 4513 
z
" transform="scale(0.015625)"/>
       <path id="DejaVuSans-70" d="M 1159 525 
L 1159 -1331 
L 581 -1331 
L 581 3500 
L 1159 3500 
L 1159 2969 
Q 1341 3281 1617 3432 
Q 1894 3584 2278 3584 
Q 2916 3584 3314 3078 
Q 3713 2572 3713 1747 
Q 3713 922 3314 415 
Q 2916 -91 2278 -91 
Q 1894 -91 1617 61 
Q 1341 213 1159 525 
z
M 3116 1747 
Q 3116 2381 2855 2742 
Q 2594 3103 2138 3103 
Q 1681 3103 1420 2742 
Q 1159 2381 1159 1747 
Q 1159 1113 1420 752 
Q 1681 391 2138 391 
Q 2594 391 2855 752 
Q 3116 1113 3116 1747 
z
" transform="scale(0.015625)"/>
       <path id="DejaVuSans-6c" d="M 603 4863 
L 1178 4863 
L 1178 0 
L 603 0 
L 603 4863 
z
" transform="scale(0.015625)"/>
       <path id="DejaVuSans-69" d="M 603 3500 
L 1178 3500 
L 1178 0 
L 603 0 
L 603 3500 
z
M 603 4863 
L 1178 4863 
L 1178 4134 
L 603 4134 
L 603 4863 
z
" transform="scale(0.015625)"/>
       <path id="DejaVuSans-74" d="M 1172 4494 
L 1172 3500 
L 2356 3500 
L 2356 3053 
L 1172 3053 
L 1172 1153 
Q 1172 725 1289 603 
Q 1406 481 1766 481 
L 2356 481 
L 2356 0 
L 1766 0 
Q 1100 0 847 248 
Q 594 497 594 1153 
L 594 3053 
L 172 3053 
L 172 3500 
L 594 3500 
L 594 4494 
L 1172 4494 
z
" transform="scale(0.015625)"/>
       <path id="DejaVuSans-73" d="M 2834 3397 
L 2834 2853 
Q 2591 2978 2328 3040 
Q 2066 3103 1784 3103 
Q 1356 3103 1142 2972 
Q 928 2841 928 2578 
Q 928 2378 1081 2264 
Q 1234 2150 1697 2047 
L 1894 2003 
Q 2506 1872 2764 1633 
Q 3022 1394 3022 966 
Q 3022 478 2636 193 
Q 2250 -91 1575 -91 
Q 1294 -91 989 -36 
Q 684 19 347 128 
L 347 722 
Q 666 556 975 473 
Q 1284 391 1588 391 
Q 1994 391 2212 530 
Q 2431 669 2431 922 
Q 2431 1156 2273 1281 
Q 2116 1406 1581 1522 
L 1381 1569 
Q 847 1681 609 1914 
Q 372 2147 372 2553 
Q 372 3047 722 3315 
Q 1072 3584 1716 3584 
Q 2034 3584 2315 3537 
Q 2597 3491 2834 3397 
z
" transform="scale(0.015625)"/>
      </defs>
      <use xlink:href="#DejaVuSans-4e"/>
      <use xlink:href="#DejaVuSans-fa" x="74.804688"/>
      <use xlink:href="#DejaVuSans-6d" x="138.183594"/>
      <use xlink:href="#DejaVuSans-65" x="235.595703"/>
      <use xlink:href="#DejaVuSans-72" x="297.119141"/>
      <use xlink:href="#DejaVuSans-6f" x="335.982422"/>
      <use xlink:href="#DejaVuSans-20" x="397.164062"/>
      <use xlink:href="#DejaVuSans-64" x="428.951172"/>
      <use xlink:href="#DejaVuSans-65" x="492.427734"/>
      <use xlink:href="#DejaVuSans-20" x="553.951172"/>
      <use xlink:href="#DejaVuSans-53" x="585.738281"/>
      <use xlink:href="#DejaVuSans-70" x="649.214844"/>
      <use xlink:href="#DejaVuSans-6c" x="712.691406"/>
      <use xlink:href="#DejaVuSans-69" x="740.474609"/>
      <use xlink:href="#DejaVuSans-74" x="768.257812"/>
      <use xlink:href="#DejaVuSans-73" x="807.466797"/>
     </g>
    </g>
   </g>
   <g id="matplotlib.axis_2">
    <g id="ytick_1">
     <g id="line2d_19">
      <path d="M 108 369.360007 
L 777.6 369.360007 
" clip-path="url(#pc8341dd8a8)" style="fill: none; stroke: #b0b0b0; stroke-width: 0.8; stroke-linecap: square"/>
     </g>
     <g id="line2d_20">
      <defs>
       <path id="mac83503725" d="M 0 0 
L -3.5 0 
" style="stroke: #000000; stroke-width: 0.8"/>
      </defs>
      <g>
       <use xlink:href="#mac83503725" x="108" y="369.360007" style="stroke: #000000; stroke-width: 0.8"/>
      </g>
     </g>
     <g id="text_11">
      <!-- 0 -->
      <g transform="translate(94.6375 373.159226) scale(0.1 -0.1)">
       <use xlink:href="#DejaVuSans-30"/>
      </g>
     </g>
    </g>
    <g id="ytick_2">
     <g id="line2d_21">
      <path d="M 108 332.33956 
L 777.6 332.33956 
" clip-path="url(#pc8341dd8a8)" style="fill: none; stroke: #b0b0b0; stroke-width: 0.8; stroke-linecap: square"/>
     </g>
     <g id="line2d_22">
      <g>
       <use xlink:href="#mac83503725" x="108" y="332.33956" style="stroke: #000000; stroke-width: 0.8"/>
      </g>
     </g>
     <g id="text_12">
      <!-- 10 -->
      <g transform="translate(88.275 336.138779) scale(0.1 -0.1)">
       <use xlink:href="#DejaVuSans-31"/>
       <use xlink:href="#DejaVuSans-30" x="63.623047"/>
      </g>
     </g>
    </g>
    <g id="ytick_3">
     <g id="line2d_23">
      <path d="M 108 295.319112 
L 777.6 295.319112 
" clip-path="url(#pc8341dd8a8)" style="fill: none; stroke: #b0b0b0; stroke-width: 0.8; stroke-linecap: square"/>
     </g>
     <g id="line2d_24">
      <g>
       <use xlink:href="#mac83503725" x="108" y="295.319112" style="stroke: #000000; stroke-width: 0.8"/>
      </g>
     </g>
     <g id="text_13">
      <!-- 20 -->
      <g transform="translate(88.275 299.118331) scale(0.1 -0.1)">
       <use xlink:href="#DejaVuSans-32"/>
       <use xlink:href="#DejaVuSans-30" x="63.623047"/>
      </g>
     </g>
    </g>
    <g id="ytick_4">
     <g id="line2d_25">
      <path d="M 108 258.298665 
L 777.6 258.298665 
" clip-path="url(#pc8341dd8a8)" style="fill: none; stroke: #b0b0b0; stroke-width: 0.8; stroke-linecap: square"/>
     </g>
     <g id="line2d_26">
      <g>
       <use xlink:href="#mac83503725" x="108" y="258.298665" style="stroke: #000000; stroke-width: 0.8"/>
      </g>
     </g>
     <g id="text_14">
      <!-- 30 -->
      <g transform="translate(88.275 262.097883) scale(0.1 -0.1)">
       <defs>
        <path id="DejaVuSans-33" d="M 2597 2516 
Q 3050 2419 3304 2112 
Q 3559 1806 3559 1356 
Q 3559 666 3084 287 
Q 2609 -91 1734 -91 
Q 1441 -91 1130 -33 
Q 819 25 488 141 
L 488 750 
Q 750 597 1062 519 
Q 1375 441 1716 441 
Q 2309 441 2620 675 
Q 2931 909 2931 1356 
Q 2931 1769 2642 2001 
Q 2353 2234 1838 2234 
L 1294 2234 
L 1294 2753 
L 1863 2753 
Q 2328 2753 2575 2939 
Q 2822 3125 2822 3475 
Q 2822 3834 2567 4026 
Q 2313 4219 1838 4219 
Q 1578 4219 1281 4162 
Q 984 4106 628 3988 
L 628 4550 
Q 988 4650 1302 4700 
Q 1616 4750 1894 4750 
Q 2613 4750 3031 4423 
Q 3450 4097 3450 3541 
Q 3450 3153 3228 2886 
Q 3006 2619 2597 2516 
z
" transform="scale(0.015625)"/>
       </defs>
       <use xlink:href="#DejaVuSans-33"/>
       <use xlink:href="#DejaVuSans-30" x="63.623047"/>
      </g>
     </g>
    </g>
    <g id="ytick_5">
     <g id="line2d_27">
      <path d="M 108 221.278217 
L 777.6 221.278217 
" clip-path="url(#pc8341dd8a8)" style="fill: none; stroke: #b0b0b0; stroke-width: 0.8; stroke-linecap: square"/>
     </g>
     <g id="line2d_28">
      <g>
       <use xlink:href="#mac83503725" x="108" y="221.278217" style="stroke: #000000; stroke-width: 0.8"/>
      </g>
     </g>
     <g id="text_15">
      <!-- 40 -->
      <g transform="translate(88.275 225.077436) scale(0.1 -0.1)">
       <defs>
        <path id="DejaVuSans-34" d="M 2419 4116 
L 825 1625 
L 2419 1625 
L 2419 4116 
z
M 2253 4666 
L 3047 4666 
L 3047 1625 
L 3713 1625 
L 3713 1100 
L 3047 1100 
L 3047 0 
L 2419 0 
L 2419 1100 
L 313 1100 
L 313 1709 
L 2253 4666 
z
" transform="scale(0.015625)"/>
       </defs>
       <use xlink:href="#DejaVuSans-34"/>
       <use xlink:href="#DejaVuSans-30" x="63.623047"/>
      </g>
     </g>
    </g>
    <g id="ytick_6">
     <g id="line2d_29">
      <path d="M 108 184.257769 
L 777.6 184.257769 
" clip-path="url(#pc8341dd8a8)" style="fill: none; stroke: #b0b0b0; stroke-width: 0.8; stroke-linecap: square"/>
     </g>
     <g id="line2d_30">
      <g>
       <use xlink:href="#mac83503725" x="108" y="184.257769" style="stroke: #000000; stroke-width: 0.8"/>
      </g>
     </g>
     <g id="text_16">
      <!-- 50 -->
      <g transform="translate(88.275 188.056988) scale(0.1 -0.1)">
       <use xlink:href="#DejaVuSans-35"/>
       <use xlink:href="#DejaVuSans-30" x="63.623047"/>
      </g>
     </g>
    </g>
    <g id="ytick_7">
     <g id="line2d_31">
      <path d="M 108 147.237322 
L 777.6 147.237322 
" clip-path="url(#pc8341dd8a8)" style="fill: none; stroke: #b0b0b0; stroke-width: 0.8; stroke-linecap: square"/>
     </g>
     <g id="line2d_32">
      <g>
       <use xlink:href="#mac83503725" x="108" y="147.237322" style="stroke: #000000; stroke-width: 0.8"/>
      </g>
     </g>
     <g id="text_17">
      <!-- 60 -->
      <g transform="translate(88.275 151.036541) scale(0.1 -0.1)">
       <defs>
        <path id="DejaVuSans-36" d="M 2113 2584 
Q 1688 2584 1439 2293 
Q 1191 2003 1191 1497 
Q 1191 994 1439 701 
Q 1688 409 2113 409 
Q 2538 409 2786 701 
Q 3034 994 3034 1497 
Q 3034 2003 2786 2293 
Q 2538 2584 2113 2584 
z
M 3366 4563 
L 3366 3988 
Q 3128 4100 2886 4159 
Q 2644 4219 2406 4219 
Q 1781 4219 1451 3797 
Q 1122 3375 1075 2522 
Q 1259 2794 1537 2939 
Q 1816 3084 2150 3084 
Q 2853 3084 3261 2657 
Q 3669 2231 3669 1497 
Q 3669 778 3244 343 
Q 2819 -91 2113 -91 
Q 1303 -91 875 529 
Q 447 1150 447 2328 
Q 447 3434 972 4092 
Q 1497 4750 2381 4750 
Q 2619 4750 2861 4703 
Q 3103 4656 3366 4563 
z
" transform="scale(0.015625)"/>
       </defs>
       <use xlink:href="#DejaVuSans-36"/>
       <use xlink:href="#DejaVuSans-30" x="63.623047"/>
      </g>
     </g>
    </g>
    <g id="ytick_8">
     <g id="line2d_33">
      <path d="M 108 110.216874 
L 777.6 110.216874 
" clip-path="url(#pc8341dd8a8)" style="fill: none; stroke: #b0b0b0; stroke-width: 0.8; stroke-linecap: square"/>
     </g>
     <g id="line2d_34">
      <g>
       <use xlink:href="#mac83503725" x="108" y="110.216874" style="stroke: #000000; stroke-width: 0.8"/>
      </g>
     </g>
     <g id="text_18">
      <!-- 70 -->
      <g transform="translate(88.275 114.016093) scale(0.1 -0.1)">
       <use xlink:href="#DejaVuSans-37"/>
       <use xlink:href="#DejaVuSans-30" x="63.623047"/>
      </g>
     </g>
    </g>
    <g id="ytick_9">
     <g id="line2d_35">
      <path d="M 108 73.196427 
L 777.6 73.196427 
" clip-path="url(#pc8341dd8a8)" style="fill: none; stroke: #b0b0b0; stroke-width: 0.8; stroke-linecap: square"/>
     </g>
     <g id="line2d_36">
      <g>
       <use xlink:href="#mac83503725" x="108" y="73.196427" style="stroke: #000000; stroke-width: 0.8"/>
      </g>
     </g>
     <g id="text_19">
      <!-- 80 -->
      <g transform="translate(88.275 76.995645) scale(0.1 -0.1)">
       <defs>
        <path id="DejaVuSans-38" d="M 2034 2216 
Q 1584 2216 1326 1975 
Q 1069 1734 1069 1313 
Q 1069 891 1326 650 
Q 1584 409 2034 409 
Q 2484 409 2743 651 
Q 3003 894 3003 1313 
Q 3003 1734 2745 1975 
Q 2488 2216 2034 2216 
z
M 1403 2484 
Q 997 2584 770 2862 
Q 544 3141 544 3541 
Q 544 4100 942 4425 
Q 1341 4750 2034 4750 
Q 2731 4750 3128 4425 
Q 3525 4100 3525 3541 
Q 3525 3141 3298 2862 
Q 3072 2584 2669 2484 
Q 3125 2378 3379 2068 
Q 3634 1759 3634 1313 
Q 3634 634 3220 271 
Q 2806 -91 2034 -91 
Q 1263 -91 848 271 
Q 434 634 434 1313 
Q 434 1759 690 2068 
Q 947 2378 1403 2484 
z
M 1172 3481 
Q 1172 3119 1398 2916 
Q 1625 2713 2034 2713 
Q 2441 2713 2670 2916 
Q 2900 3119 2900 3481 
Q 2900 3844 2670 4047 
Q 2441 4250 2034 4250 
Q 1625 4250 1398 4047 
Q 1172 3844 1172 3481 
z
" transform="scale(0.015625)"/>
       </defs>
       <use xlink:href="#DejaVuSans-38"/>
       <use xlink:href="#DejaVuSans-30" x="63.623047"/>
      </g>
     </g>
    </g>
    <g id="text_20">
     <!-- Mean Squared Error -->
     <g transform="translate(82.195312 267.921719) rotate(-90) scale(0.1 -0.1)">
      <defs>
       <path id="DejaVuSans-4d" d="M 628 4666 
L 1569 4666 
L 2759 1491 
L 3956 4666 
L 4897 4666 
L 4897 0 
L 4281 0 
L 4281 4097 
L 3078 897 
L 2444 897 
L 1241 4097 
L 1241 0 
L 628 0 
L 628 4666 
z
" transform="scale(0.015625)"/>
       <path id="DejaVuSans-61" d="M 2194 1759 
Q 1497 1759 1228 1600 
Q 959 1441 959 1056 
Q 959 750 1161 570 
Q 1363 391 1709 391 
Q 2188 391 2477 730 
Q 2766 1069 2766 1631 
L 2766 1759 
L 2194 1759 
z
M 3341 1997 
L 3341 0 
L 2766 0 
L 2766 531 
Q 2569 213 2275 61 
Q 1981 -91 1556 -91 
Q 1019 -91 701 211 
Q 384 513 384 1019 
Q 384 1609 779 1909 
Q 1175 2209 1959 2209 
L 2766 2209 
L 2766 2266 
Q 2766 2663 2505 2880 
Q 2244 3097 1772 3097 
Q 1472 3097 1187 3025 
Q 903 2953 641 2809 
L 641 3341 
Q 956 3463 1253 3523 
Q 1550 3584 1831 3584 
Q 2591 3584 2966 3190 
Q 3341 2797 3341 1997 
z
" transform="scale(0.015625)"/>
       <path id="DejaVuSans-6e" d="M 3513 2113 
L 3513 0 
L 2938 0 
L 2938 2094 
Q 2938 2591 2744 2837 
Q 2550 3084 2163 3084 
Q 1697 3084 1428 2787 
Q 1159 2491 1159 1978 
L 1159 0 
L 581 0 
L 581 3500 
L 1159 3500 
L 1159 2956 
Q 1366 3272 1645 3428 
Q 1925 3584 2291 3584 
Q 2894 3584 3203 3211 
Q 3513 2838 3513 2113 
z
" transform="scale(0.015625)"/>
       <path id="DejaVuSans-71" d="M 947 1747 
Q 947 1113 1208 752 
Q 1469 391 1925 391 
Q 2381 391 2643 752 
Q 2906 1113 2906 1747 
Q 2906 2381 2643 2742 
Q 2381 3103 1925 3103 
Q 1469 3103 1208 2742 
Q 947 2381 947 1747 
z
M 2906 525 
Q 2725 213 2448 61 
Q 2172 -91 1784 -91 
Q 1150 -91 751 415 
Q 353 922 353 1747 
Q 353 2572 751 3078 
Q 1150 3584 1784 3584 
Q 2172 3584 2448 3432 
Q 2725 3281 2906 2969 
L 2906 3500 
L 3481 3500 
L 3481 -1331 
L 2906 -1331 
L 2906 525 
z
" transform="scale(0.015625)"/>
       <path id="DejaVuSans-75" d="M 544 1381 
L 544 3500 
L 1119 3500 
L 1119 1403 
Q 1119 906 1312 657 
Q 1506 409 1894 409 
Q 2359 409 2629 706 
Q 2900 1003 2900 1516 
L 2900 3500 
L 3475 3500 
L 3475 0 
L 2900 0 
L 2900 538 
Q 2691 219 2414 64 
Q 2138 -91 1772 -91 
Q 1169 -91 856 284 
Q 544 659 544 1381 
z
M 1991 3584 
L 1991 3584 
z
" transform="scale(0.015625)"/>
       <path id="DejaVuSans-45" d="M 628 4666 
L 3578 4666 
L 3578 4134 
L 1259 4134 
L 1259 2753 
L 3481 2753 
L 3481 2222 
L 1259 2222 
L 1259 531 
L 3634 531 
L 3634 0 
L 628 0 
L 628 4666 
z
" transform="scale(0.015625)"/>
      </defs>
      <use xlink:href="#DejaVuSans-4d"/>
      <use xlink:href="#DejaVuSans-65" x="86.279297"/>
      <use xlink:href="#DejaVuSans-61" x="147.802734"/>
      <use xlink:href="#DejaVuSans-6e" x="209.082031"/>
      <use xlink:href="#DejaVuSans-20" x="272.460938"/>
      <use xlink:href="#DejaVuSans-53" x="304.248047"/>
      <use xlink:href="#DejaVuSans-71" x="367.724609"/>
      <use xlink:href="#DejaVuSans-75" x="431.201172"/>
      <use xlink:href="#DejaVuSans-61" x="494.580078"/>
      <use xlink:href="#DejaVuSans-72" x="555.859375"/>
      <use xlink:href="#DejaVuSans-65" x="594.722656"/>
      <use xlink:href="#DejaVuSans-64" x="656.246094"/>
      <use xlink:href="#DejaVuSans-20" x="719.722656"/>
      <use xlink:href="#DejaVuSans-45" x="751.509766"/>
      <use xlink:href="#DejaVuSans-72" x="814.693359"/>
      <use xlink:href="#DejaVuSans-72" x="854.056641"/>
      <use xlink:href="#DejaVuSans-6f" x="892.919922"/>
      <use xlink:href="#DejaVuSans-72" x="954.101562"/>
     </g>
    </g>
   </g>
   <g id="line2d_37">
    <path d="M 138.436364 363.264677 
L 147.613157 362.35807 
L 150.672088 363.511609 
L 153.731019 362.733465 
L 156.78995 363.678108 
L 159.848881 363.030687 
L 162.907812 364.375116 
L 169.025674 362.989865 
L 175.143536 363.59332 
L 178.202467 364.042877 
L 181.261398 363.789286 
L 184.320329 363.878153 
L 187.37926 364.638616 
L 190.438191 364.692952 
L 193.497122 364.394347 
L 196.556053 364.6154 
L 199.614984 364.20533 
L 202.673915 364.419707 
L 211.850708 364.672483 
L 214.909639 364.32595 
L 217.96857 364.877412 
L 221.027501 364.274983 
L 224.086432 364.748598 
L 227.145363 364.320475 
L 230.204294 365.065105 
L 233.263225 365.068592 
L 236.322156 364.89372 
L 242.440018 365.486708 
L 245.498949 364.836345 
L 248.55788 365.341668 
L 251.616811 364.835902 
L 254.675742 365.224463 
L 257.734673 364.847327 
L 260.793604 365.308882 
L 266.911466 365.230037 
L 269.970397 365.737446 
L 276.088259 365.149274 
L 279.14719 365.684728 
L 282.206122 364.934016 
L 285.265053 365.580868 
L 288.323984 365.732732 
L 291.382915 365.160988 
L 294.441846 365.346117 
L 297.500777 365.06335 
L 303.618639 365.458801 
L 306.67757 365.979894 
L 309.736501 365.537426 
L 315.854363 365.737532 
L 318.913294 365.435985 
L 321.972225 365.891926 
L 325.031156 365.715114 
L 331.149018 365.978036 
L 334.207949 366.182258 
L 337.26688 365.73671 
L 346.443673 366.164928 
L 349.502604 365.996147 
L 352.561535 365.421616 
L 355.620466 365.727545 
L 364.797259 366.038565 
L 367.85619 365.851898 
L 370.915121 366.200745 
L 373.974052 365.36229 
L 377.032983 366.094066 
L 380.091914 366.154952 
L 383.150845 365.81018 
L 386.209776 365.751503 
L 389.268707 366.28917 
L 392.327638 365.668884 
L 398.4455 366.371002 
L 401.504431 366.073464 
L 404.563362 366.150487 
L 407.622293 365.93611 
L 410.681224 366.52872 
L 413.740155 366.028793 
L 416.799086 366.1796 
L 419.858017 365.817579 
L 422.916948 366.186373 
L 425.975879 366.398123 
L 429.03481 366.21801 
L 432.093741 365.568779 
L 435.152672 365.865379 
L 438.211603 365.235387 
L 441.270534 365.298113 
L 444.329466 365.506642 
L 447.388397 365.369758 
L 453.506259 365.489807 
L 456.56519 365.440591 
L 459.624121 365.854396 
L 462.683052 365.631409 
L 465.741983 365.936095 
L 468.800914 366.045572 
L 471.859845 365.408552 
L 474.918776 366.056115 
L 477.977707 365.453976 
L 481.036638 365.689585 
L 484.095569 365.433644 
L 487.1545 366.050213 
L 490.213431 365.92692 
L 496.331293 366.113555 
L 499.390224 365.751212 
L 502.449155 366.030699 
L 508.567017 366.221276 
L 514.684879 365.827632 
L 517.74381 366.263082 
L 520.802741 366.434453 
L 523.861672 366.059303 
L 526.920603 365.864691 
L 529.979534 366.334119 
L 533.038465 365.962269 
L 542.215258 366.185175 
L 545.274189 366.536888 
L 548.33312 365.800605 
L 551.392051 366.061112 
L 557.509913 366.284753 
L 560.568844 366.253064 
L 563.627775 366.10618 
L 566.686706 366.506571 
L 569.745637 366.30597 
L 572.804568 366.40834 
L 575.863499 366.13899 
L 578.92243 366.323496 
L 581.981361 366.337854 
L 585.040292 366.109144 
L 588.099223 366.447398 
L 591.158154 366.286341 
L 594.217085 366.546076 
L 600.334947 366.195158 
L 603.393878 366.594496 
L 606.45281 366.784313 
L 612.570672 366.34517 
L 615.629603 366.27339 
L 618.688534 366.731388 
L 624.806396 366.666956 
L 627.865327 366.803519 
L 630.924258 366.589499 
L 633.983189 366.573304 
L 637.04212 366.681836 
L 643.159982 367.047734 
L 646.218913 366.737954 
L 652.336775 366.709023 
L 655.395706 366.452914 
L 664.572499 366.993584 
L 670.690361 366.767857 
L 673.749292 366.667514 
L 676.808223 366.869763 
L 679.867154 366.795832 
L 685.985016 366.874681 
L 689.043947 366.744984 
L 695.161809 367.043573 
L 701.279671 366.802276 
L 707.397533 366.675848 
L 713.515395 366.771138 
L 716.574326 366.646459 
L 722.692188 366.844023 
L 725.751119 366.943058 
L 728.81005 366.628717 
L 734.927912 367.097356 
L 737.986843 367.11096 
L 741.045774 366.709226 
L 744.104705 366.909306 
L 747.163636 366.973592 
L 747.163636 366.973592 
" clip-path="url(#pc8341dd8a8)" style="fill: none; stroke: #0000ff; stroke-width: 1.5; stroke-linecap: square"/>
   </g>
   <g id="line2d_38">
    <path d="M 138.436364 364.67679 
L 141.495295 335.184661 
L 144.554226 365.259511 
L 147.613157 352.29859 
L 150.672088 361.178988 
L 153.731019 369.344748 
L 156.78995 369.328673 
L 159.848881 368.749738 
L 162.907812 368.503202 
L 165.966743 367.984337 
L 169.025674 368.469163 
L 172.084605 367.622089 
L 175.143536 369.195059 
L 178.202467 368.83628 
L 181.261398 369.337016 
L 184.320329 368.973743 
L 187.37926 366.664009 
L 190.438191 357.447795 
L 193.497122 365.412293 
L 196.556053 369.119432 
L 199.614984 361.929405 
L 202.673915 369.221235 
L 205.732846 361.639785 
L 208.791777 350.797825 
L 211.850708 344.696863 
L 217.96857 362.962878 
L 221.027501 366.082427 
L 224.086432 360.520339 
L 227.145363 363.763499 
L 230.204294 364.512472 
L 233.263225 363.343631 
L 236.322156 369.358662 
L 239.381087 365.605844 
L 242.440018 368.650528 
L 245.498949 367.713072 
L 248.55788 365.65494 
L 251.616811 362.582308 
L 254.675742 367.802597 
L 257.734673 362.964429 
L 260.793604 345.838093 
L 263.852535 360.297204 
L 266.911466 367.831355 
L 269.970397 368.365836 
L 273.029328 369.315136 
L 276.088259 360.135126 
L 279.14719 368.5322 
L 282.206122 369.244757 
L 285.265053 368.823333 
L 288.323984 359.923411 
L 291.382915 369.359271 
L 294.441846 369.069358 
L 297.500777 367.900564 
L 300.559708 368.841423 
L 303.618639 369.06113 
L 306.67757 368.781981 
L 309.736501 369.163951 
L 312.795432 369.323863 
L 315.854363 369.144378 
L 318.913294 358.593486 
L 321.972225 364.622869 
L 325.031156 362.061709 
L 328.090087 368.980004 
L 331.149018 369.315057 
L 334.207949 357.113514 
L 337.26688 342.064214 
L 340.325811 369.127748 
L 346.443673 367.937123 
L 349.502604 307.012049 
L 352.561535 367.901132 
L 355.620466 349.553563 
L 358.679397 367.655808 
L 361.738328 365.255602 
L 364.797259 341.483676 
L 367.85619 359.348981 
L 370.915121 368.125102 
L 373.974052 365.575847 
L 377.032983 369.297255 
L 380.091914 362.033489 
L 383.150845 365.428781 
L 386.209776 366.625279 
L 389.268707 368.947965 
L 392.327638 368.140975 
L 395.386569 368.535768 
L 398.4455 369.196877 
L 401.504431 368.141814 
L 404.563362 367.845936 
L 407.622293 367.809266 
L 410.681224 369.279145 
L 413.740155 367.59674 
L 416.799086 368.940167 
L 419.858017 368.969319 
L 422.916948 367.696587 
L 425.975879 368.827031 
L 429.03481 116.030334 
L 432.093741 294.374795 
L 435.152672 66.96 
L 438.211603 331.948063 
L 441.270534 363.686813 
L 444.329466 369.325464 
L 447.388397 368.613904 
L 450.447328 363.744002 
L 453.506259 365.884921 
L 456.56519 365.485674 
L 459.624121 368.697719 
L 462.683052 367.84323 
L 465.741983 367.812779 
L 468.800914 369.089689 
L 471.859845 368.650557 
L 474.918776 369.07407 
L 477.977707 368.722952 
L 481.036638 368.943944 
L 484.095569 368.803461 
L 487.1545 368.139406 
L 490.213431 368.448554 
L 493.272362 367.683608 
L 496.331293 367.779875 
L 499.390224 367.683852 
L 502.449155 356.939036 
L 505.508086 353.838724 
L 508.567017 358.97666 
L 511.625948 365.226112 
L 514.684879 337.408793 
L 517.74381 367.897514 
L 520.802741 366.262841 
L 523.861672 369.359445 
L 529.979534 369.218376 
L 533.038465 361.897449 
L 536.097396 369.157801 
L 539.156327 369.318083 
L 542.215258 368.808022 
L 545.274189 368.935989 
L 548.33312 369.185778 
L 551.392051 368.175428 
L 554.450982 368.272434 
L 557.509913 364.765397 
L 560.568844 369.186583 
L 563.627775 369.176822 
L 566.686706 369.359678 
L 569.745637 367.163635 
L 572.804568 362.544074 
L 575.863499 367.942441 
L 578.92243 368.905653 
L 581.981361 367.642091 
L 585.040292 368.673977 
L 588.099223 366.994158 
L 591.158154 368.914813 
L 600.334947 369.065777 
L 606.45281 368.934631 
L 609.511741 369.307444 
L 612.570672 364.647955 
L 615.629603 367.729844 
L 618.688534 369.17378 
L 621.747465 368.632702 
L 624.806396 369.277571 
L 627.865327 369.298925 
L 630.924258 368.849528 
L 633.983189 343.417158 
L 637.04212 336.989229 
L 640.101051 361.543449 
L 643.159982 367.07785 
L 646.218913 367.419637 
L 649.277844 368.891515 
L 652.336775 359.001616 
L 655.395706 358.872512 
L 658.454637 365.81272 
L 661.513568 358.540833 
L 664.572499 365.459456 
L 667.63143 351.835252 
L 670.690361 333.115656 
L 673.749292 367.975743 
L 676.808223 364.521626 
L 679.867154 344.972979 
L 682.926085 369.359462 
L 685.985016 367.914602 
L 689.043947 367.715127 
L 692.102878 357.614912 
L 695.161809 369.092162 
L 698.22074 367.379876 
L 701.279671 368.700113 
L 704.338602 369.290589 
L 707.397533 369.36 
L 710.456464 369.167833 
L 713.515395 368.489064 
L 716.574326 369.205289 
L 719.633257 369.33751 
L 722.692188 368.832687 
L 725.751119 369.138669 
L 731.868981 369.291028 
L 734.927912 368.995723 
L 737.986843 369.067187 
L 744.104705 368.508996 
L 747.163636 368.713612 
L 747.163636 368.713612 
" clip-path="url(#pc8341dd8a8)" style="fill: none; stroke: #ff0000; stroke-width: 1.5; stroke-linecap: square"/>
   </g>
   <g id="patch_3">
    <path d="M 108 384.48 
L 108 51.84 
" style="fill: none; stroke: #000000; stroke-width: 0.8; stroke-linejoin: miter; stroke-linecap: square"/>
   </g>
   <g id="patch_4">
    <path d="M 777.6 384.48 
L 777.6 51.84 
" style="fill: none; stroke: #000000; stroke-width: 0.8; stroke-linejoin: miter; stroke-linecap: square"/>
   </g>
   <g id="patch_5">
    <path d="M 108 384.48 
L 777.6 384.48 
" style="fill: none; stroke: #000000; stroke-width: 0.8; stroke-linejoin: miter; stroke-linecap: square"/>
   </g>
   <g id="patch_6">
    <path d="M 108 51.84 
L 777.6 51.84 
" style="fill: none; stroke: #000000; stroke-width: 0.8; stroke-linejoin: miter; stroke-linecap: square"/>
   </g>
   <g id="text_21">
    <!-- MSE en Entrenamiento y Validación -->
    <g transform="translate(336.29625 45.84) scale(0.12 -0.12)">
     <defs>
      <path id="DejaVuSans-79" d="M 2059 -325 
Q 1816 -950 1584 -1140 
Q 1353 -1331 966 -1331 
L 506 -1331 
L 506 -850 
L 844 -850 
Q 1081 -850 1212 -737 
Q 1344 -625 1503 -206 
L 1606 56 
L 191 3500 
L 800 3500 
L 1894 763 
L 2988 3500 
L 3597 3500 
L 2059 -325 
z
" transform="scale(0.015625)"/>
      <path id="DejaVuSans-56" d="M 1831 0 
L 50 4666 
L 709 4666 
L 2188 738 
L 3669 4666 
L 4325 4666 
L 2547 0 
L 1831 0 
z
" transform="scale(0.015625)"/>
      <path id="DejaVuSans-63" d="M 3122 3366 
L 3122 2828 
Q 2878 2963 2633 3030 
Q 2388 3097 2138 3097 
Q 1578 3097 1268 2742 
Q 959 2388 959 1747 
Q 959 1106 1268 751 
Q 1578 397 2138 397 
Q 2388 397 2633 464 
Q 2878 531 3122 666 
L 3122 134 
Q 2881 22 2623 -34 
Q 2366 -91 2075 -91 
Q 1284 -91 818 406 
Q 353 903 353 1747 
Q 353 2603 823 3093 
Q 1294 3584 2113 3584 
Q 2378 3584 2631 3529 
Q 2884 3475 3122 3366 
z
" transform="scale(0.015625)"/>
      <path id="DejaVuSans-f3" d="M 1959 3097 
Q 1497 3097 1228 2736 
Q 959 2375 959 1747 
Q 959 1119 1226 758 
Q 1494 397 1959 397 
Q 2419 397 2687 759 
Q 2956 1122 2956 1747 
Q 2956 2369 2687 2733 
Q 2419 3097 1959 3097 
z
M 1959 3584 
Q 2709 3584 3137 3096 
Q 3566 2609 3566 1747 
Q 3566 888 3137 398 
Q 2709 -91 1959 -91 
Q 1206 -91 779 398 
Q 353 888 353 1747 
Q 353 2609 779 3096 
Q 1206 3584 1959 3584 
z
M 2394 5119 
L 3016 5119 
L 1998 3944 
L 1519 3944 
L 2394 5119 
z
" transform="scale(0.015625)"/>
     </defs>
     <use xlink:href="#DejaVuSans-4d"/>
     <use xlink:href="#DejaVuSans-53" x="86.279297"/>
     <use xlink:href="#DejaVuSans-45" x="149.755859"/>
     <use xlink:href="#DejaVuSans-20" x="212.939453"/>
     <use xlink:href="#DejaVuSans-65" x="244.726562"/>
     <use xlink:href="#DejaVuSans-6e" x="306.25"/>
     <use xlink:href="#DejaVuSans-20" x="369.628906"/>
     <use xlink:href="#DejaVuSans-45" x="401.416016"/>
     <use xlink:href="#DejaVuSans-6e" x="464.599609"/>
     <use xlink:href="#DejaVuSans-74" x="527.978516"/>
     <use xlink:href="#DejaVuSans-72" x="567.1875"/>
     <use xlink:href="#DejaVuSans-65" x="606.050781"/>
     <use xlink:href="#DejaVuSans-6e" x="667.574219"/>
     <use xlink:href="#DejaVuSans-61" x="730.953125"/>
     <use xlink:href="#DejaVuSans-6d" x="792.232422"/>
     <use xlink:href="#DejaVuSans-69" x="889.644531"/>
     <use xlink:href="#DejaVuSans-65" x="917.427734"/>
     <use xlink:href="#DejaVuSans-6e" x="978.951172"/>
     <use xlink:href="#DejaVuSans-74" x="1042.330078"/>
     <use xlink:href="#DejaVuSans-6f" x="1081.539062"/>
     <use xlink:href="#DejaVuSans-20" x="1142.720703"/>
     <use xlink:href="#DejaVuSans-79" x="1174.507812"/>
     <use xlink:href="#DejaVuSans-20" x="1233.6875"/>
     <use xlink:href="#DejaVuSans-56" x="1265.474609"/>
     <use xlink:href="#DejaVuSans-61" x="1326.132812"/>
     <use xlink:href="#DejaVuSans-6c" x="1387.412109"/>
     <use xlink:href="#DejaVuSans-69" x="1415.195312"/>
     <use xlink:href="#DejaVuSans-64" x="1442.978516"/>
     <use xlink:href="#DejaVuSans-61" x="1506.455078"/>
     <use xlink:href="#DejaVuSans-63" x="1567.734375"/>
     <use xlink:href="#DejaVuSans-69" x="1622.714844"/>
     <use xlink:href="#DejaVuSans-f3" x="1650.498047"/>
     <use xlink:href="#DejaVuSans-6e" x="1711.679688"/>
    </g>
   </g>
   <g id="legend_1">
    <g id="patch_7">
     <path d="M 639.996875 89.19625 
L 770.6 89.19625 
Q 772.6 89.19625 772.6 87.19625 
L 772.6 58.84 
Q 772.6 56.84 770.6 56.84 
L 639.996875 56.84 
Q 637.996875 56.84 637.996875 58.84 
L 637.996875 87.19625 
Q 637.996875 89.19625 639.996875 89.19625 
z
" style="fill: #ffffff; opacity: 0.8; stroke: #cccccc; stroke-linejoin: miter"/>
    </g>
    <g id="line2d_39">
     <path d="M 641.996875 64.938437 
L 651.996875 64.938437 
L 661.996875 64.938437 
" style="fill: none; stroke: #0000ff; stroke-width: 1.5; stroke-linecap: square"/>
    </g>
    <g id="text_22">
     <!-- MSE Entrenamiento -->
     <g transform="translate(669.996875 68.438437) scale(0.1 -0.1)">
      <use xlink:href="#DejaVuSans-4d"/>
      <use xlink:href="#DejaVuSans-53" x="86.279297"/>
      <use xlink:href="#DejaVuSans-45" x="149.755859"/>
      <use xlink:href="#DejaVuSans-20" x="212.939453"/>
      <use xlink:href="#DejaVuSans-45" x="244.726562"/>
      <use xlink:href="#DejaVuSans-6e" x="307.910156"/>
      <use xlink:href="#DejaVuSans-74" x="371.289062"/>
      <use xlink:href="#DejaVuSans-72" x="410.498047"/>
      <use xlink:href="#DejaVuSans-65" x="449.361328"/>
      <use xlink:href="#DejaVuSans-6e" x="510.884766"/>
      <use xlink:href="#DejaVuSans-61" x="574.263672"/>
      <use xlink:href="#DejaVuSans-6d" x="635.542969"/>
      <use xlink:href="#DejaVuSans-69" x="732.955078"/>
      <use xlink:href="#DejaVuSans-65" x="760.738281"/>
      <use xlink:href="#DejaVuSans-6e" x="822.261719"/>
      <use xlink:href="#DejaVuSans-74" x="885.640625"/>
      <use xlink:href="#DejaVuSans-6f" x="924.849609"/>
     </g>
    </g>
    <g id="line2d_40">
     <path d="M 641.996875 79.616562 
L 651.996875 79.616562 
L 661.996875 79.616562 
" style="fill: none; stroke: #ff0000; stroke-width: 1.5; stroke-linecap: square"/>
    </g>
    <g id="text_23">
     <!-- MSE Validación -->
     <g transform="translate(669.996875 83.116562) scale(0.1 -0.1)">
      <use xlink:href="#DejaVuSans-4d"/>
      <use xlink:href="#DejaVuSans-53" x="86.279297"/>
      <use xlink:href="#DejaVuSans-45" x="149.755859"/>
      <use xlink:href="#DejaVuSans-20" x="212.939453"/>
      <use xlink:href="#DejaVuSans-56" x="244.726562"/>
      <use xlink:href="#DejaVuSans-61" x="305.384766"/>
      <use xlink:href="#DejaVuSans-6c" x="366.664062"/>
      <use xlink:href="#DejaVuSans-69" x="394.447266"/>
      <use xlink:href="#DejaVuSans-64" x="422.230469"/>
      <use xlink:href="#DejaVuSans-61" x="485.707031"/>
      <use xlink:href="#DejaVuSans-63" x="546.986328"/>
      <use xlink:href="#DejaVuSans-69" x="601.966797"/>
      <use xlink:href="#DejaVuSans-f3" x="629.75"/>
      <use xlink:href="#DejaVuSans-6e" x="690.931641"/>
     </g>
    </g>
   </g>
  </g>
 </g>
 <defs>
  <clipPath id="pc8341dd8a8">
   <rect x="108" y="51.84" width="669.6" height="332.64"/>
  </clipPath>
 </defs>
</svg>
