<?xml version="1.0" encoding="utf-8" standalone="no"?>
<!DOCTYPE svg PUBLIC "-//W3C//DTD SVG 1.1//EN"
  "http://www.w3.org/Graphics/SVG/1.1/DTD/svg11.dtd">
<svg xmlns:xlink="http://www.w3.org/1999/xlink" width="864pt" height="432pt" viewBox="0 0 864 432" xmlns="http://www.w3.org/2000/svg" version="1.1">
 <metadata>
  <rdf:RDF xmlns:dc="http://purl.org/dc/elements/1.1/" xmlns:cc="http://creativecommons.org/ns#" xmlns:rdf="http://www.w3.org/1999/02/22-rdf-syntax-ns#">
   <cc:Work>
    <dc:type rdf:resource="http://purl.org/dc/dcmitype/StillImage"/>
    <dc:date>2024-10-31T13:40:42.306570</dc:date>
    <dc:format>image/svg+xml</dc:format>
    <dc:creator>
     <cc:Agent>
      <dc:title>Matplotlib v3.8.4, https://matplotlib.org/</dc:title>
     </cc:Agent>
    </dc:creator>
   </cc:Work>
  </rdf:RDF>
 </metadata>
 <defs>
  <style type="text/css">*{stroke-linejoin: round; stroke-linecap: butt}</style>
 </defs>
 <g id="figure_1">
  <g id="patch_1">
   <path d="M 0 432 
L 864 432 
L 864 0 
L 0 0 
z
" style="fill: #ffffff"/>
  </g>
  <g id="axes_1">
   <g id="patch_2">
    <path d="M 108 384.48 
L 777.6 384.48 
L 777.6 51.84 
L 108 51.84 
z
" style="fill: #ffffff"/>
   </g>
   <g id="matplotlib.axis_1">
    <g id="xtick_1">
     <g id="line2d_1">
      <path d="M 136.049198 384.48 
L 136.049198 51.84 
" clip-path="url(#p16174d25ae)" style="fill: none; stroke: #b0b0b0; stroke-width: 0.8; stroke-linecap: square"/>
     </g>
     <g id="line2d_2">
      <defs>
       <path id="m07af213c62" d="M 0 0 
L 0 3.5 
" style="stroke: #000000; stroke-width: 0.8"/>
      </defs>
      <g>
       <use xlink:href="#m07af213c62" x="136.049198" y="384.48" style="stroke: #000000; stroke-width: 0.8"/>
      </g>
     </g>
     <g id="text_1">
      <!-- 0 -->
      <g transform="translate(132.867948 399.078438) scale(0.1 -0.1)">
       <defs>
        <path id="DejaVuSans-30" d="M 2034 4250 
Q 1547 4250 1301 3770 
Q 1056 3291 1056 2328 
Q 1056 1369 1301 889 
Q 1547 409 2034 409 
Q 2525 409 2770 889 
Q 3016 1369 3016 2328 
Q 3016 3291 2770 3770 
Q 2525 4250 2034 4250 
z
M 2034 4750 
Q 2819 4750 3233 4129 
Q 3647 3509 3647 2328 
Q 3647 1150 3233 529 
Q 2819 -91 2034 -91 
Q 1250 -91 836 529 
Q 422 1150 422 2328 
Q 422 3509 836 4129 
Q 1250 4750 2034 4750 
z
" transform="scale(0.015625)"/>
       </defs>
       <use xlink:href="#DejaVuSans-30"/>
      </g>
     </g>
    </g>
    <g id="xtick_2">
     <g id="line2d_3">
      <path d="M 255.407487 384.48 
L 255.407487 51.84 
" clip-path="url(#p16174d25ae)" style="fill: none; stroke: #b0b0b0; stroke-width: 0.8; stroke-linecap: square"/>
     </g>
     <g id="line2d_4">
      <g>
       <use xlink:href="#m07af213c62" x="255.407487" y="384.48" style="stroke: #000000; stroke-width: 0.8"/>
      </g>
     </g>
     <g id="text_2">
      <!-- 50 -->
      <g transform="translate(249.044987 399.078438) scale(0.1 -0.1)">
       <defs>
        <path id="DejaVuSans-35" d="M 691 4666 
L 3169 4666 
L 3169 4134 
L 1269 4134 
L 1269 2991 
Q 1406 3038 1543 3061 
Q 1681 3084 1819 3084 
Q 2600 3084 3056 2656 
Q 3513 2228 3513 1497 
Q 3513 744 3044 326 
Q 2575 -91 1722 -91 
Q 1428 -91 1123 -41 
Q 819 9 494 109 
L 494 744 
Q 775 591 1075 516 
Q 1375 441 1709 441 
Q 2250 441 2565 725 
Q 2881 1009 2881 1497 
Q 2881 1984 2565 2268 
Q 2250 2553 1709 2553 
Q 1456 2553 1204 2497 
Q 953 2441 691 2322 
L 691 4666 
z
" transform="scale(0.015625)"/>
       </defs>
       <use xlink:href="#DejaVuSans-35"/>
       <use xlink:href="#DejaVuSans-30" x="63.623047"/>
      </g>
     </g>
    </g>
    <g id="xtick_3">
     <g id="line2d_5">
      <path d="M 374.765775 384.48 
L 374.765775 51.84 
" clip-path="url(#p16174d25ae)" style="fill: none; stroke: #b0b0b0; stroke-width: 0.8; stroke-linecap: square"/>
     </g>
     <g id="line2d_6">
      <g>
       <use xlink:href="#m07af213c62" x="374.765775" y="384.48" style="stroke: #000000; stroke-width: 0.8"/>
      </g>
     </g>
     <g id="text_3">
      <!-- 100 -->
      <g transform="translate(365.222025 399.078438) scale(0.1 -0.1)">
       <defs>
        <path id="DejaVuSans-31" d="M 794 531 
L 1825 531 
L 1825 4091 
L 703 3866 
L 703 4441 
L 1819 4666 
L 2450 4666 
L 2450 531 
L 3481 531 
L 3481 0 
L 794 0 
L 794 531 
z
" transform="scale(0.015625)"/>
       </defs>
       <use xlink:href="#DejaVuSans-31"/>
       <use xlink:href="#DejaVuSans-30" x="63.623047"/>
       <use xlink:href="#DejaVuSans-30" x="127.246094"/>
      </g>
     </g>
    </g>
    <g id="xtick_4">
     <g id="line2d_7">
      <path d="M 494.124064 384.48 
L 494.124064 51.84 
" clip-path="url(#p16174d25ae)" style="fill: none; stroke: #b0b0b0; stroke-width: 0.8; stroke-linecap: square"/>
     </g>
     <g id="line2d_8">
      <g>
       <use xlink:href="#m07af213c62" x="494.124064" y="384.48" style="stroke: #000000; stroke-width: 0.8"/>
      </g>
     </g>
     <g id="text_4">
      <!-- 150 -->
      <g transform="translate(484.580314 399.078438) scale(0.1 -0.1)">
       <use xlink:href="#DejaVuSans-31"/>
       <use xlink:href="#DejaVuSans-35" x="63.623047"/>
       <use xlink:href="#DejaVuSans-30" x="127.246094"/>
      </g>
     </g>
    </g>
    <g id="xtick_5">
     <g id="line2d_9">
      <path d="M 613.482353 384.48 
L 613.482353 51.84 
" clip-path="url(#p16174d25ae)" style="fill: none; stroke: #b0b0b0; stroke-width: 0.8; stroke-linecap: square"/>
     </g>
     <g id="line2d_10">
      <g>
       <use xlink:href="#m07af213c62" x="613.482353" y="384.48" style="stroke: #000000; stroke-width: 0.8"/>
      </g>
     </g>
     <g id="text_5">
      <!-- 200 -->
      <g transform="translate(603.938603 399.078438) scale(0.1 -0.1)">
       <defs>
        <path id="DejaVuSans-32" d="M 1228 531 
L 3431 531 
L 3431 0 
L 469 0 
L 469 531 
Q 828 903 1448 1529 
Q 2069 2156 2228 2338 
Q 2531 2678 2651 2914 
Q 2772 3150 2772 3378 
Q 2772 3750 2511 3984 
Q 2250 4219 1831 4219 
Q 1534 4219 1204 4116 
Q 875 4013 500 3803 
L 500 4441 
Q 881 4594 1212 4672 
Q 1544 4750 1819 4750 
Q 2544 4750 2975 4387 
Q 3406 4025 3406 3419 
Q 3406 3131 3298 2873 
Q 3191 2616 2906 2266 
Q 2828 2175 2409 1742 
Q 1991 1309 1228 531 
z
" transform="scale(0.015625)"/>
       </defs>
       <use xlink:href="#DejaVuSans-32"/>
       <use xlink:href="#DejaVuSans-30" x="63.623047"/>
       <use xlink:href="#DejaVuSans-30" x="127.246094"/>
      </g>
     </g>
    </g>
    <g id="xtick_6">
     <g id="line2d_11">
      <path d="M 732.840642 384.48 
L 732.840642 51.84 
" clip-path="url(#p16174d25ae)" style="fill: none; stroke: #b0b0b0; stroke-width: 0.8; stroke-linecap: square"/>
     </g>
     <g id="line2d_12">
      <g>
       <use xlink:href="#m07af213c62" x="732.840642" y="384.48" style="stroke: #000000; stroke-width: 0.8"/>
      </g>
     </g>
     <g id="text_6">
      <!-- 250 -->
      <g transform="translate(723.296892 399.078438) scale(0.1 -0.1)">
       <use xlink:href="#DejaVuSans-32"/>
       <use xlink:href="#DejaVuSans-35" x="63.623047"/>
       <use xlink:href="#DejaVuSans-30" x="127.246094"/>
      </g>
     </g>
    </g>
    <g id="text_7">
     <!-- Número de Splits -->
     <g transform="translate(399.821094 413.156563) scale(0.1 -0.1)">
      <defs>
       <path id="DejaVuSans-4e" d="M 628 4666 
L 1478 4666 
L 3547 763 
L 3547 4666 
L 4159 4666 
L 4159 0 
L 3309 0 
L 1241 3903 
L 1241 0 
L 628 0 
L 628 4666 
z
" transform="scale(0.015625)"/>
       <path id="DejaVuSans-fa" d="M 544 1381 
L 544 3500 
L 1119 3500 
L 1119 1403 
Q 1119 906 1312 657 
Q 1506 409 1894 409 
Q 2359 409 2629 706 
Q 2900 1003 2900 1516 
L 2900 3500 
L 3475 3500 
L 3475 0 
L 2900 0 
L 2900 538 
Q 2691 219 2414 64 
Q 2138 -91 1772 -91 
Q 1169 -91 856 284 
Q 544 659 544 1381 
z
M 1991 3584 
L 1991 3584 
z
M 2418 5119 
L 3040 5119 
L 2022 3944 
L 1543 3944 
L 2418 5119 
z
" transform="scale(0.015625)"/>
       <path id="DejaVuSans-6d" d="M 3328 2828 
Q 3544 3216 3844 3400 
Q 4144 3584 4550 3584 
Q 5097 3584 5394 3201 
Q 5691 2819 5691 2113 
L 5691 0 
L 5113 0 
L 5113 2094 
Q 5113 2597 4934 2840 
Q 4756 3084 4391 3084 
Q 3944 3084 3684 2787 
Q 3425 2491 3425 1978 
L 3425 0 
L 2847 0 
L 2847 2094 
Q 2847 2600 2669 2842 
Q 2491 3084 2119 3084 
Q 1678 3084 1418 2786 
Q 1159 2488 1159 1978 
L 1159 0 
L 581 0 
L 581 3500 
L 1159 3500 
L 1159 2956 
Q 1356 3278 1631 3431 
Q 1906 3584 2284 3584 
Q 2666 3584 2933 3390 
Q 3200 3197 3328 2828 
z
" transform="scale(0.015625)"/>
       <path id="DejaVuSans-65" d="M 3597 1894 
L 3597 1613 
L 953 1613 
Q 991 1019 1311 708 
Q 1631 397 2203 397 
Q 2534 397 2845 478 
Q 3156 559 3463 722 
L 3463 178 
Q 3153 47 2828 -22 
Q 2503 -91 2169 -91 
Q 1331 -91 842 396 
Q 353 884 353 1716 
Q 353 2575 817 3079 
Q 1281 3584 2069 3584 
Q 2775 3584 3186 3129 
Q 3597 2675 3597 1894 
z
M 3022 2063 
Q 3016 2534 2758 2815 
Q 2500 3097 2075 3097 
Q 1594 3097 1305 2825 
Q 1016 2553 972 2059 
L 3022 2063 
z
" transform="scale(0.015625)"/>
       <path id="DejaVuSans-72" d="M 2631 2963 
Q 2534 3019 2420 3045 
Q 2306 3072 2169 3072 
Q 1681 3072 1420 2755 
Q 1159 2438 1159 1844 
L 1159 0 
L 581 0 
L 581 3500 
L 1159 3500 
L 1159 2956 
Q 1341 3275 1631 3429 
Q 1922 3584 2338 3584 
Q 2397 3584 2469 3576 
Q 2541 3569 2628 3553 
L 2631 2963 
z
" transform="scale(0.015625)"/>
       <path id="DejaVuSans-6f" d="M 1959 3097 
Q 1497 3097 1228 2736 
Q 959 2375 959 1747 
Q 959 1119 1226 758 
Q 1494 397 1959 397 
Q 2419 397 2687 759 
Q 2956 1122 2956 1747 
Q 2956 2369 2687 2733 
Q 2419 3097 1959 3097 
z
M 1959 3584 
Q 2709 3584 3137 3096 
Q 3566 2609 3566 1747 
Q 3566 888 3137 398 
Q 2709 -91 1959 -91 
Q 1206 -91 779 398 
Q 353 888 353 1747 
Q 353 2609 779 3096 
Q 1206 3584 1959 3584 
z
" transform="scale(0.015625)"/>
       <path id="DejaVuSans-20" transform="scale(0.015625)"/>
       <path id="DejaVuSans-64" d="M 2906 2969 
L 2906 4863 
L 3481 4863 
L 3481 0 
L 2906 0 
L 2906 525 
Q 2725 213 2448 61 
Q 2172 -91 1784 -91 
Q 1150 -91 751 415 
Q 353 922 353 1747 
Q 353 2572 751 3078 
Q 1150 3584 1784 3584 
Q 2172 3584 2448 3432 
Q 2725 3281 2906 2969 
z
M 947 1747 
Q 947 1113 1208 752 
Q 1469 391 1925 391 
Q 2381 391 2643 752 
Q 2906 1113 2906 1747 
Q 2906 2381 2643 2742 
Q 2381 3103 1925 3103 
Q 1469 3103 1208 2742 
Q 947 2381 947 1747 
z
" transform="scale(0.015625)"/>
       <path id="DejaVuSans-53" d="M 3425 4513 
L 3425 3897 
Q 3066 4069 2747 4153 
Q 2428 4238 2131 4238 
Q 1616 4238 1336 4038 
Q 1056 3838 1056 3469 
Q 1056 3159 1242 3001 
Q 1428 2844 1947 2747 
L 2328 2669 
Q 3034 2534 3370 2195 
Q 3706 1856 3706 1288 
Q 3706 609 3251 259 
Q 2797 -91 1919 -91 
Q 1588 -91 1214 -16 
Q 841 59 441 206 
L 441 856 
Q 825 641 1194 531 
Q 1563 422 1919 422 
Q 2459 422 2753 634 
Q 3047 847 3047 1241 
Q 3047 1584 2836 1778 
Q 2625 1972 2144 2069 
L 1759 2144 
Q 1053 2284 737 2584 
Q 422 2884 422 3419 
Q 422 4038 858 4394 
Q 1294 4750 2059 4750 
Q 2388 4750 2728 4690 
Q 3069 4631 3425 4513 
z
" transform="scale(0.015625)"/>
       <path id="DejaVuSans-70" d="M 1159 525 
L 1159 -1331 
L 581 -1331 
L 581 3500 
L 1159 3500 
L 1159 2969 
Q 1341 3281 1617 3432 
Q 1894 3584 2278 3584 
Q 2916 3584 3314 3078 
Q 3713 2572 3713 1747 
Q 3713 922 3314 415 
Q 2916 -91 2278 -91 
Q 1894 -91 1617 61 
Q 1341 213 1159 525 
z
M 3116 1747 
Q 3116 2381 2855 2742 
Q 2594 3103 2138 3103 
Q 1681 3103 1420 2742 
Q 1159 2381 1159 1747 
Q 1159 1113 1420 752 
Q 1681 391 2138 391 
Q 2594 391 2855 752 
Q 3116 1113 3116 1747 
z
" transform="scale(0.015625)"/>
       <path id="DejaVuSans-6c" d="M 603 4863 
L 1178 4863 
L 1178 0 
L 603 0 
L 603 4863 
z
" transform="scale(0.015625)"/>
       <path id="DejaVuSans-69" d="M 603 3500 
L 1178 3500 
L 1178 0 
L 603 0 
L 603 3500 
z
M 603 4863 
L 1178 4863 
L 1178 4134 
L 603 4134 
L 603 4863 
z
" transform="scale(0.015625)"/>
       <path id="DejaVuSans-74" d="M 1172 4494 
L 1172 3500 
L 2356 3500 
L 2356 3053 
L 1172 3053 
L 1172 1153 
Q 1172 725 1289 603 
Q 1406 481 1766 481 
L 2356 481 
L 2356 0 
L 1766 0 
Q 1100 0 847 248 
Q 594 497 594 1153 
L 594 3053 
L 172 3053 
L 172 3500 
L 594 3500 
L 594 4494 
L 1172 4494 
z
" transform="scale(0.015625)"/>
       <path id="DejaVuSans-73" d="M 2834 3397 
L 2834 2853 
Q 2591 2978 2328 3040 
Q 2066 3103 1784 3103 
Q 1356 3103 1142 2972 
Q 928 2841 928 2578 
Q 928 2378 1081 2264 
Q 1234 2150 1697 2047 
L 1894 2003 
Q 2506 1872 2764 1633 
Q 3022 1394 3022 966 
Q 3022 478 2636 193 
Q 2250 -91 1575 -91 
Q 1294 -91 989 -36 
Q 684 19 347 128 
L 347 722 
Q 666 556 975 473 
Q 1284 391 1588 391 
Q 1994 391 2212 530 
Q 2431 669 2431 922 
Q 2431 1156 2273 1281 
Q 2116 1406 1581 1522 
L 1381 1569 
Q 847 1681 609 1914 
Q 372 2147 372 2553 
Q 372 3047 722 3315 
Q 1072 3584 1716 3584 
Q 2034 3584 2315 3537 
Q 2597 3491 2834 3397 
z
" transform="scale(0.015625)"/>
      </defs>
      <use xlink:href="#DejaVuSans-4e"/>
      <use xlink:href="#DejaVuSans-fa" x="74.804688"/>
      <use xlink:href="#DejaVuSans-6d" x="138.183594"/>
      <use xlink:href="#DejaVuSans-65" x="235.595703"/>
      <use xlink:href="#DejaVuSans-72" x="297.119141"/>
      <use xlink:href="#DejaVuSans-6f" x="335.982422"/>
      <use xlink:href="#DejaVuSans-20" x="397.164062"/>
      <use xlink:href="#DejaVuSans-64" x="428.951172"/>
      <use xlink:href="#DejaVuSans-65" x="492.427734"/>
      <use xlink:href="#DejaVuSans-20" x="553.951172"/>
      <use xlink:href="#DejaVuSans-53" x="585.738281"/>
      <use xlink:href="#DejaVuSans-70" x="649.214844"/>
      <use xlink:href="#DejaVuSans-6c" x="712.691406"/>
      <use xlink:href="#DejaVuSans-69" x="740.474609"/>
      <use xlink:href="#DejaVuSans-74" x="768.257812"/>
      <use xlink:href="#DejaVuSans-73" x="807.466797"/>
     </g>
    </g>
   </g>
   <g id="matplotlib.axis_2">
    <g id="ytick_1">
     <g id="line2d_13">
      <path d="M 108 369.36 
L 777.6 369.36 
" clip-path="url(#p16174d25ae)" style="fill: none; stroke: #b0b0b0; stroke-width: 0.8; stroke-linecap: square"/>
     </g>
     <g id="line2d_14">
      <defs>
       <path id="m2d738cc340" d="M 0 0 
L -3.5 0 
" style="stroke: #000000; stroke-width: 0.8"/>
      </defs>
      <g>
       <use xlink:href="#m2d738cc340" x="108" y="369.36" style="stroke: #000000; stroke-width: 0.8"/>
      </g>
     </g>
     <g id="text_8">
      <!-- 0 -->
      <g transform="translate(94.6375 373.159219) scale(0.1 -0.1)">
       <use xlink:href="#DejaVuSans-30"/>
      </g>
     </g>
    </g>
    <g id="ytick_2">
     <g id="line2d_15">
      <path d="M 108 297.65591 
L 777.6 297.65591 
" clip-path="url(#p16174d25ae)" style="fill: none; stroke: #b0b0b0; stroke-width: 0.8; stroke-linecap: square"/>
     </g>
     <g id="line2d_16">
      <g>
       <use xlink:href="#m2d738cc340" x="108" y="297.65591" style="stroke: #000000; stroke-width: 0.8"/>
      </g>
     </g>
     <g id="text_9">
      <!-- 2 -->
      <g transform="translate(94.6375 301.455129) scale(0.1 -0.1)">
       <use xlink:href="#DejaVuSans-32"/>
      </g>
     </g>
    </g>
    <g id="ytick_3">
     <g id="line2d_17">
      <path d="M 108 225.951821 
L 777.6 225.951821 
" clip-path="url(#p16174d25ae)" style="fill: none; stroke: #b0b0b0; stroke-width: 0.8; stroke-linecap: square"/>
     </g>
     <g id="line2d_18">
      <g>
       <use xlink:href="#m2d738cc340" x="108" y="225.951821" style="stroke: #000000; stroke-width: 0.8"/>
      </g>
     </g>
     <g id="text_10">
      <!-- 4 -->
      <g transform="translate(94.6375 229.75104) scale(0.1 -0.1)">
       <defs>
        <path id="DejaVuSans-34" d="M 2419 4116 
L 825 1625 
L 2419 1625 
L 2419 4116 
z
M 2253 4666 
L 3047 4666 
L 3047 1625 
L 3713 1625 
L 3713 1100 
L 3047 1100 
L 3047 0 
L 2419 0 
L 2419 1100 
L 313 1100 
L 313 1709 
L 2253 4666 
z
" transform="scale(0.015625)"/>
       </defs>
       <use xlink:href="#DejaVuSans-34"/>
      </g>
     </g>
    </g>
    <g id="ytick_4">
     <g id="line2d_19">
      <path d="M 108 154.247731 
L 777.6 154.247731 
" clip-path="url(#p16174d25ae)" style="fill: none; stroke: #b0b0b0; stroke-width: 0.8; stroke-linecap: square"/>
     </g>
     <g id="line2d_20">
      <g>
       <use xlink:href="#m2d738cc340" x="108" y="154.247731" style="stroke: #000000; stroke-width: 0.8"/>
      </g>
     </g>
     <g id="text_11">
      <!-- 6 -->
      <g transform="translate(94.6375 158.04695) scale(0.1 -0.1)">
       <defs>
        <path id="DejaVuSans-36" d="M 2113 2584 
Q 1688 2584 1439 2293 
Q 1191 2003 1191 1497 
Q 1191 994 1439 701 
Q 1688 409 2113 409 
Q 2538 409 2786 701 
Q 3034 994 3034 1497 
Q 3034 2003 2786 2293 
Q 2538 2584 2113 2584 
z
M 3366 4563 
L 3366 3988 
Q 3128 4100 2886 4159 
Q 2644 4219 2406 4219 
Q 1781 4219 1451 3797 
Q 1122 3375 1075 2522 
Q 1259 2794 1537 2939 
Q 1816 3084 2150 3084 
Q 2853 3084 3261 2657 
Q 3669 2231 3669 1497 
Q 3669 778 3244 343 
Q 2819 -91 2113 -91 
Q 1303 -91 875 529 
Q 447 1150 447 2328 
Q 447 3434 972 4092 
Q 1497 4750 2381 4750 
Q 2619 4750 2861 4703 
Q 3103 4656 3366 4563 
z
" transform="scale(0.015625)"/>
       </defs>
       <use xlink:href="#DejaVuSans-36"/>
      </g>
     </g>
    </g>
    <g id="ytick_5">
     <g id="line2d_21">
      <path d="M 108 82.543642 
L 777.6 82.543642 
" clip-path="url(#p16174d25ae)" style="fill: none; stroke: #b0b0b0; stroke-width: 0.8; stroke-linecap: square"/>
     </g>
     <g id="line2d_22">
      <g>
       <use xlink:href="#m2d738cc340" x="108" y="82.543642" style="stroke: #000000; stroke-width: 0.8"/>
      </g>
     </g>
     <g id="text_12">
      <!-- 8 -->
      <g transform="translate(94.6375 86.342861) scale(0.1 -0.1)">
       <defs>
        <path id="DejaVuSans-38" d="M 2034 2216 
Q 1584 2216 1326 1975 
Q 1069 1734 1069 1313 
Q 1069 891 1326 650 
Q 1584 409 2034 409 
Q 2484 409 2743 651 
Q 3003 894 3003 1313 
Q 3003 1734 2745 1975 
Q 2488 2216 2034 2216 
z
M 1403 2484 
Q 997 2584 770 2862 
Q 544 3141 544 3541 
Q 544 4100 942 4425 
Q 1341 4750 2034 4750 
Q 2731 4750 3128 4425 
Q 3525 4100 3525 3541 
Q 3525 3141 3298 2862 
Q 3072 2584 2669 2484 
Q 3125 2378 3379 2068 
Q 3634 1759 3634 1313 
Q 3634 634 3220 271 
Q 2806 -91 2034 -91 
Q 1263 -91 848 271 
Q 434 634 434 1313 
Q 434 1759 690 2068 
Q 947 2378 1403 2484 
z
M 1172 3481 
Q 1172 3119 1398 2916 
Q 1625 2713 2034 2713 
Q 2441 2713 2670 2916 
Q 2900 3119 2900 3481 
Q 2900 3844 2670 4047 
Q 2441 4250 2034 4250 
Q 1625 4250 1398 4047 
Q 1172 3844 1172 3481 
z
" transform="scale(0.015625)"/>
       </defs>
       <use xlink:href="#DejaVuSans-38"/>
      </g>
     </g>
    </g>
    <g id="text_13">
     <!-- Pérdida (MSE) -->
     <g transform="translate(88.557812 252.977969) rotate(-90) scale(0.1 -0.1)">
      <defs>
       <path id="DejaVuSans-50" d="M 1259 4147 
L 1259 2394 
L 2053 2394 
Q 2494 2394 2734 2622 
Q 2975 2850 2975 3272 
Q 2975 3691 2734 3919 
Q 2494 4147 2053 4147 
L 1259 4147 
z
M 628 4666 
L 2053 4666 
Q 2838 4666 3239 4311 
Q 3641 3956 3641 3272 
Q 3641 2581 3239 2228 
Q 2838 1875 2053 1875 
L 1259 1875 
L 1259 0 
L 628 0 
L 628 4666 
z
" transform="scale(0.015625)"/>
       <path id="DejaVuSans-e9" d="M 3597 1894 
L 3597 1613 
L 953 1613 
Q 991 1019 1311 708 
Q 1631 397 2203 397 
Q 2534 397 2845 478 
Q 3156 559 3463 722 
L 3463 178 
Q 3153 47 2828 -22 
Q 2503 -91 2169 -91 
Q 1331 -91 842 396 
Q 353 884 353 1716 
Q 353 2575 817 3079 
Q 1281 3584 2069 3584 
Q 2775 3584 3186 3129 
Q 3597 2675 3597 1894 
z
M 3022 2063 
Q 3016 2534 2758 2815 
Q 2500 3097 2075 3097 
Q 1594 3097 1305 2825 
Q 1016 2553 972 2059 
L 3022 2063 
z
M 2466 5119 
L 3088 5119 
L 2070 3944 
L 1591 3944 
L 2466 5119 
z
" transform="scale(0.015625)"/>
       <path id="DejaVuSans-61" d="M 2194 1759 
Q 1497 1759 1228 1600 
Q 959 1441 959 1056 
Q 959 750 1161 570 
Q 1363 391 1709 391 
Q 2188 391 2477 730 
Q 2766 1069 2766 1631 
L 2766 1759 
L 2194 1759 
z
M 3341 1997 
L 3341 0 
L 2766 0 
L 2766 531 
Q 2569 213 2275 61 
Q 1981 -91 1556 -91 
Q 1019 -91 701 211 
Q 384 513 384 1019 
Q 384 1609 779 1909 
Q 1175 2209 1959 2209 
L 2766 2209 
L 2766 2266 
Q 2766 2663 2505 2880 
Q 2244 3097 1772 3097 
Q 1472 3097 1187 3025 
Q 903 2953 641 2809 
L 641 3341 
Q 956 3463 1253 3523 
Q 1550 3584 1831 3584 
Q 2591 3584 2966 3190 
Q 3341 2797 3341 1997 
z
" transform="scale(0.015625)"/>
       <path id="DejaVuSans-28" d="M 1984 4856 
Q 1566 4138 1362 3434 
Q 1159 2731 1159 2009 
Q 1159 1288 1364 580 
Q 1569 -128 1984 -844 
L 1484 -844 
Q 1016 -109 783 600 
Q 550 1309 550 2009 
Q 550 2706 781 3412 
Q 1013 4119 1484 4856 
L 1984 4856 
z
" transform="scale(0.015625)"/>
       <path id="DejaVuSans-4d" d="M 628 4666 
L 1569 4666 
L 2759 1491 
L 3956 4666 
L 4897 4666 
L 4897 0 
L 4281 0 
L 4281 4097 
L 3078 897 
L 2444 897 
L 1241 4097 
L 1241 0 
L 628 0 
L 628 4666 
z
" transform="scale(0.015625)"/>
       <path id="DejaVuSans-45" d="M 628 4666 
L 3578 4666 
L 3578 4134 
L 1259 4134 
L 1259 2753 
L 3481 2753 
L 3481 2222 
L 1259 2222 
L 1259 531 
L 3634 531 
L 3634 0 
L 628 0 
L 628 4666 
z
" transform="scale(0.015625)"/>
       <path id="DejaVuSans-29" d="M 513 4856 
L 1013 4856 
Q 1481 4119 1714 3412 
Q 1947 2706 1947 2009 
Q 1947 1309 1714 600 
Q 1481 -109 1013 -844 
L 513 -844 
Q 928 -128 1133 580 
Q 1338 1288 1338 2009 
Q 1338 2731 1133 3434 
Q 928 4138 513 4856 
z
" transform="scale(0.015625)"/>
      </defs>
      <use xlink:href="#DejaVuSans-50"/>
      <use xlink:href="#DejaVuSans-e9" x="56.677734"/>
      <use xlink:href="#DejaVuSans-72" x="118.201172"/>
      <use xlink:href="#DejaVuSans-64" x="157.564453"/>
      <use xlink:href="#DejaVuSans-69" x="221.041016"/>
      <use xlink:href="#DejaVuSans-64" x="248.824219"/>
      <use xlink:href="#DejaVuSans-61" x="312.300781"/>
      <use xlink:href="#DejaVuSans-20" x="373.580078"/>
      <use xlink:href="#DejaVuSans-28" x="405.367188"/>
      <use xlink:href="#DejaVuSans-4d" x="444.380859"/>
      <use xlink:href="#DejaVuSans-53" x="530.660156"/>
      <use xlink:href="#DejaVuSans-45" x="594.136719"/>
      <use xlink:href="#DejaVuSans-29" x="657.320312"/>
     </g>
    </g>
   </g>
   <g id="line2d_23">
    <path d="M 138.436364 369.36 
L 140.823529 346.893979 
L 143.210695 262.502877 
L 145.597861 221.512137 
L 147.985027 244.505226 
L 150.372193 269.206702 
L 152.759358 291.605936 
L 155.146524 300.385561 
L 157.53369 308.597855 
L 159.920856 296.2467 
L 162.308021 309.885475 
L 164.695187 310.524447 
L 167.082353 304.030825 
L 169.469519 301.405571 
L 174.24385 312.751239 
L 176.631016 308.595136 
L 179.018182 298.787742 
L 181.405348 312.831304 
L 183.792513 305.353927 
L 186.179679 300.484462 
L 188.566845 306.227841 
L 190.954011 308.885088 
L 193.341176 311.000141 
L 195.728342 304.182963 
L 198.115508 306.565231 
L 200.502674 307.10401 
L 202.88984 308.364851 
L 205.277005 308.126557 
L 210.051337 313.285706 
L 212.438503 314.737727 
L 214.825668 314.226428 
L 217.212834 312.347533 
L 219.6 312.121523 
L 221.987166 314.66344 
L 224.374332 315.231914 
L 226.761497 311.574836 
L 229.148663 315.599018 
L 231.535829 317.783633 
L 236.31016 315.694104 
L 238.697326 316.525763 
L 241.084492 314.82593 
L 243.471658 314.5215 
L 245.858824 315.962056 
L 248.245989 318.534007 
L 250.633155 317.423105 
L 253.020321 318.78201 
L 255.407487 318.322316 
L 257.794652 318.249304 
L 260.181818 320.823533 
L 262.568984 321.15187 
L 264.95615 322.666679 
L 267.343316 322.057033 
L 269.730481 320.614731 
L 272.117647 319.918421 
L 274.504813 320.381827 
L 276.891979 323.366736 
L 279.279144 323.130215 
L 281.66631 320.672227 
L 284.053476 323.368666 
L 286.440642 323.332437 
L 288.827807 323.629649 
L 291.214973 326.042069 
L 293.602139 322.728539 
L 295.989305 325.567681 
L 298.376471 323.222819 
L 300.763636 324.637452 
L 303.150802 327.206355 
L 305.537968 324.274086 
L 307.925134 325.296072 
L 310.312299 326.072017 
L 312.699465 329.095399 
L 315.086631 326.204645 
L 319.860963 328.363326 
L 322.248128 326.685078 
L 324.635294 328.302632 
L 327.02246 328.745322 
L 329.409626 327.972175 
L 331.796791 328.703533 
L 334.183957 327.783389 
L 336.571123 328.692823 
L 338.958289 330.418543 
L 341.345455 329.598088 
L 343.73262 328.978457 
L 346.119786 328.662091 
L 348.506952 332.157287 
L 350.894118 332.106507 
L 353.281283 330.355856 
L 355.668449 329.602808 
L 358.055615 333.295531 
L 360.442781 329.577425 
L 362.829947 330.245668 
L 365.217112 331.588947 
L 367.604278 332.271283 
L 369.991444 330.003731 
L 372.37861 329.449508 
L 374.765775 331.910627 
L 377.152941 331.446442 
L 379.540107 330.209178 
L 381.927273 330.707481 
L 384.314439 331.458566 
L 386.701604 331.260721 
L 389.08877 332.354778 
L 391.475936 334.163804 
L 393.863102 334.809482 
L 396.250267 332.030363 
L 398.637433 334.6047 
L 401.024599 334.035687 
L 403.411765 333.193018 
L 405.79893 332.504105 
L 408.186096 334.893686 
L 410.573262 332.951983 
L 412.960428 334.211576 
L 415.347594 332.705609 
L 417.734759 334.536851 
L 420.121925 335.320845 
L 422.509091 333.917234 
L 424.896257 336.532543 
L 427.283422 335.232314 
L 429.670588 335.025684 
L 432.057754 332.586268 
L 434.44492 334.050413 
L 436.832086 335.260626 
L 439.219251 334.668372 
L 441.606417 335.281373 
L 443.993583 335.069045 
L 446.380749 335.811982 
L 448.767914 335.390473 
L 451.15508 336.090161 
L 455.929412 335.226019 
L 460.703743 336.479673 
L 463.090909 335.050379 
L 465.478075 335.056964 
L 467.865241 334.646368 
L 470.252406 334.533741 
L 472.639572 337.132157 
L 475.026738 335.753193 
L 477.413904 336.978085 
L 479.80107 335.441332 
L 482.188235 333.744148 
L 484.575401 337.720911 
L 486.962567 335.710344 
L 491.736898 337.300686 
L 494.124064 336.118881 
L 496.51123 336.916985 
L 498.898396 336.889214 
L 501.285561 335.400302 
L 503.672727 334.655419 
L 506.059893 335.709539 
L 508.447059 335.556314 
L 510.834225 335.275892 
L 513.22139 336.041408 
L 515.608556 337.145041 
L 517.995722 336.394288 
L 520.382888 334.844361 
L 522.770053 335.769801 
L 525.157219 337.160021 
L 527.544385 335.567149 
L 529.931551 335.327864 
L 532.318717 336.810939 
L 534.705882 335.090221 
L 537.093048 335.816962 
L 539.480214 336.110472 
L 541.86738 336.756132 
L 544.254545 336.689603 
L 546.641711 337.482348 
L 549.028877 337.181485 
L 551.416043 338.139114 
L 553.803209 338.032332 
L 558.57754 336.87835 
L 560.964706 339.097538 
L 563.351872 336.726576 
L 565.739037 339.229675 
L 568.126203 339.486769 
L 570.513369 338.599887 
L 572.900535 337.531639 
L 575.287701 338.338364 
L 577.674866 337.415611 
L 580.062032 337.0112 
L 582.449198 338.136772 
L 584.836364 338.423724 
L 587.223529 337.991416 
L 589.610695 339.450231 
L 591.997861 339.733224 
L 594.385027 338.454431 
L 596.772193 338.904593 
L 599.159358 338.13703 
L 601.546524 338.881742 
L 603.93369 338.682127 
L 606.320856 339.256159 
L 608.708021 340.283841 
L 611.095187 340.13382 
L 613.482353 339.04678 
L 615.869519 339.590328 
L 618.256684 337.368098 
L 620.64385 338.493876 
L 623.031016 337.518286 
L 625.418182 338.957679 
L 627.805348 338.910634 
L 630.192513 339.400344 
L 632.579679 340.63527 
L 634.966845 340.181389 
L 637.354011 340.874821 
L 639.741176 342.133481 
L 642.128342 340.483046 
L 646.902674 340.566101 
L 649.28984 340.744316 
L 651.677005 340.413773 
L 654.064171 340.548875 
L 656.451337 341.355669 
L 658.838503 340.749631 
L 661.225668 340.902972 
L 663.612834 341.533591 
L 666 340.432347 
L 668.387166 340.406948 
L 670.774332 340.551647 
L 673.161497 341.348364 
L 675.548663 342.637884 
L 677.935829 341.009411 
L 680.322995 341.91801 
L 682.71016 342.621443 
L 685.097326 340.764556 
L 687.484492 342.691726 
L 689.871658 342.26864 
L 692.258824 342.342245 
L 694.645989 342.094301 
L 697.033155 342.829567 
L 699.420321 341.878861 
L 701.807487 342.022135 
L 704.194652 342.808167 
L 706.581818 342.699757 
L 708.968984 341.591516 
L 711.35615 342.831987 
L 713.743316 341.790385 
L 716.130481 343.005374 
L 720.904813 342.258754 
L 723.291979 343.675852 
L 725.679144 342.223397 
L 728.06631 341.681943 
L 730.453476 342.47198 
L 732.840642 341.23135 
L 735.227807 341.911991 
L 737.614973 341.7384 
L 740.002139 342.648918 
L 742.389305 343.285583 
L 744.776471 341.829885 
L 747.163636 341.924293 
L 747.163636 341.924293 
" clip-path="url(#p16174d25ae)" style="fill: none; stroke: #0000ff; stroke-width: 1.5; stroke-linecap: square"/>
   </g>
   <g id="line2d_24">
    <path d="M 138.436364 324.508618 
L 140.823529 148.003612 
L 143.210695 79.504034 
L 145.597861 86.380973 
L 147.985027 113.251212 
L 150.372193 263.986593 
L 155.146524 348.879325 
L 157.53369 332.087126 
L 159.920856 329.61028 
L 162.308021 349.37269 
L 164.695187 131.987405 
L 167.082353 66.96 
L 169.469519 116.280317 
L 171.856684 251.958421 
L 174.24385 330.391349 
L 176.631016 132.374394 
L 179.018182 288.559233 
L 181.405348 220.380668 
L 183.792513 336.229425 
L 186.179679 199.328752 
L 188.566845 230.077808 
L 190.954011 320.693358 
L 193.341176 271.832556 
L 195.728342 213.919601 
L 198.115508 291.736102 
L 200.502674 207.52682 
L 202.88984 224.326121 
L 205.277005 302.895054 
L 207.664171 299.706691 
L 210.051337 336.884493 
L 212.438503 331.354483 
L 214.825668 263.457947 
L 217.212834 321.795651 
L 219.6 365.774663 
L 221.987166 335.84902 
L 224.374332 148.011544 
L 226.761497 369.126548 
L 229.148663 349.976919 
L 231.535829 359.129248 
L 233.922995 236.642771 
L 236.31016 254.193524 
L 238.697326 338.009885 
L 241.084492 339.062629 
L 243.471658 281.312489 
L 245.858824 276.177092 
L 248.245989 262.506761 
L 250.633155 305.430256 
L 253.020321 351.431631 
L 255.407487 299.209432 
L 257.794652 340.165099 
L 260.181818 295.031375 
L 262.568984 346.642641 
L 264.95615 304.81205 
L 267.343316 292.867443 
L 269.730481 352.912489 
L 272.117647 341.794677 
L 274.504813 294.033614 
L 276.891979 339.736285 
L 279.279144 316.460706 
L 281.66631 336.154089 
L 284.053476 351.841805 
L 286.440642 353.152934 
L 288.827807 359.999686 
L 291.214973 368.678237 
L 293.602139 350.642412 
L 295.989305 359.987189 
L 298.376471 352.551118 
L 300.763636 361.349185 
L 303.150802 329.347171 
L 305.537968 366.994032 
L 307.925134 339.640547 
L 310.312299 349.630572 
L 312.699465 274.212947 
L 315.086631 325.827153 
L 317.473797 360.869985 
L 319.860963 322.68322 
L 322.248128 350.468425 
L 324.635294 330.338323 
L 327.02246 288.853725 
L 329.409626 302.17448 
L 334.183957 335.196221 
L 336.571123 328.446357 
L 338.958289 308.840308 
L 341.345455 339.433284 
L 343.73262 326.167381 
L 346.119786 328.811124 
L 348.506952 355.915332 
L 350.894118 349.01206 
L 353.281283 356.506655 
L 355.668449 336.443591 
L 358.055615 333.150303 
L 360.442781 324.470055 
L 362.829947 346.591346 
L 365.217112 319.400219 
L 367.604278 298.852359 
L 369.991444 329.752258 
L 372.37861 334.460991 
L 374.765775 350.802536 
L 377.152941 361.241887 
L 379.540107 333.089394 
L 381.927273 356.115619 
L 384.314439 368.902223 
L 386.701604 358.036861 
L 389.08877 309.823698 
L 391.475936 369.348043 
L 393.863102 368.805315 
L 396.250267 349.562139 
L 398.637433 356.88886 
L 401.024599 361.260332 
L 403.411765 358.36383 
L 405.79893 366.435965 
L 408.186096 366.882961 
L 410.573262 352.056664 
L 412.960428 302.94389 
L 415.347594 321.107262 
L 417.734759 308.451337 
L 420.121925 357.058418 
L 422.509091 359.177461 
L 424.896257 296.177633 
L 427.283422 270.465234 
L 429.670588 362.184556 
L 432.057754 364.75995 
L 434.44492 339.206814 
L 436.832086 210.58687 
L 439.219251 337.627506 
L 441.606417 284.91441 
L 443.993583 340.493457 
L 446.380749 339.217427 
L 448.767914 261.596099 
L 451.15508 304.364553 
L 453.542246 338.884212 
L 455.929412 332.696493 
L 458.316578 363.341014 
L 460.703743 325.241137 
L 463.090909 334.49086 
L 465.478075 333.169134 
L 467.865241 357.998467 
L 470.252406 358.984684 
L 472.639572 351.991134 
L 475.026738 351.970149 
L 477.413904 345.487689 
L 479.80107 342.750399 
L 482.188235 350.37765 
L 484.575401 359.113616 
L 486.962567 343.96522 
L 489.349733 360.12832 
L 491.736898 360.11758 
L 494.124064 342.455318 
L 496.51123 358.01358 
L 498.898396 144.515702 
L 501.285561 247.021496 
L 503.672727 150.339616 
L 506.059893 274.557874 
L 508.447059 345.884549 
L 510.834225 357.148339 
L 513.22139 353.17785 
L 515.608556 332.351833 
L 517.995722 348.844783 
L 520.382888 352.35019 
L 522.770053 352.248022 
L 525.157219 354.403445 
L 527.544385 355.576535 
L 529.931551 358.437555 
L 532.318717 353.640357 
L 534.705882 349.331125 
L 537.093048 359.027858 
L 539.480214 356.172375 
L 541.86738 361.757341 
L 544.254545 346.257727 
L 546.641711 340.662271 
L 549.028877 342.834682 
L 551.416043 343.545623 
L 553.803209 345.676808 
L 556.190374 290.148093 
L 558.57754 302.79519 
L 560.964706 329.839316 
L 563.351872 335.578141 
L 565.739037 282.282825 
L 568.126203 354.239246 
L 570.513369 344.83656 
L 572.900535 366.055085 
L 575.287701 365.599872 
L 577.674866 354.007415 
L 580.062032 318.092037 
L 582.449198 350.29081 
L 584.836364 363.994824 
L 587.223529 362.096158 
L 589.610695 358.467467 
L 591.997861 367.828312 
L 594.385027 354.146767 
L 596.772193 346.426663 
L 599.159358 351.577667 
L 601.546524 360.083503 
L 603.93369 361.325769 
L 606.320856 368.526592 
L 608.708021 346.366598 
L 611.095187 335.53246 
L 613.482353 352.695057 
L 615.869519 358.106137 
L 620.64385 344.222784 
L 623.031016 353.464841 
L 625.418182 357.055492 
L 627.805348 354.838515 
L 630.192513 363.743553 
L 632.579679 361.595926 
L 634.966845 365.334933 
L 637.354011 359.880979 
L 639.741176 365.995411 
L 642.128342 352.737049 
L 644.515508 351.237244 
L 646.902674 362.853598 
L 649.28984 360.382654 
L 651.677005 367.757114 
L 654.064171 362.777809 
L 656.451337 366.785123 
L 658.838503 336.057531 
L 661.225668 309.843739 
L 663.612834 341.792516 
L 666 350.044542 
L 668.387166 352.093682 
L 670.774332 360.76089 
L 673.161497 327.350979 
L 675.548663 328.677846 
L 677.935829 321.309148 
L 680.322995 327.726641 
L 682.71016 344.347028 
L 685.097326 323.646117 
L 687.484492 287.178636 
L 689.871658 354.006703 
L 692.258824 333.124041 
L 694.645989 326.218519 
L 697.033155 366.654678 
L 699.420321 351.886065 
L 701.807487 345.141299 
L 704.194652 328.129789 
L 706.581818 354.414593 
L 708.968984 354.038879 
L 711.35615 361.407013 
L 713.743316 360.209875 
L 716.130481 367.206922 
L 718.517647 359.61003 
L 720.904813 357.425838 
L 723.291979 367.588102 
L 725.679144 367.884323 
L 728.06631 356.249296 
L 730.453476 368.104442 
L 732.840642 364.028028 
L 735.227807 369.190267 
L 737.614973 362.874804 
L 740.002139 362.579964 
L 742.389305 363.961651 
L 744.776471 358.297581 
L 747.163636 364.252511 
L 747.163636 364.252511 
" clip-path="url(#p16174d25ae)" style="fill: none; stroke: #ff0000; stroke-width: 1.5; stroke-linecap: square"/>
   </g>
   <g id="patch_3">
    <path d="M 108 384.48 
L 108 51.84 
" style="fill: none; stroke: #000000; stroke-width: 0.8; stroke-linejoin: miter; stroke-linecap: square"/>
   </g>
   <g id="patch_4">
    <path d="M 777.6 384.48 
L 777.6 51.84 
" style="fill: none; stroke: #000000; stroke-width: 0.8; stroke-linejoin: miter; stroke-linecap: square"/>
   </g>
   <g id="patch_5">
    <path d="M 108 384.48 
L 777.6 384.48 
" style="fill: none; stroke: #000000; stroke-width: 0.8; stroke-linejoin: miter; stroke-linecap: square"/>
   </g>
   <g id="patch_6">
    <path d="M 108 51.84 
L 777.6 51.84 
" style="fill: none; stroke: #000000; stroke-width: 0.8; stroke-linejoin: miter; stroke-linecap: square"/>
   </g>
   <g id="text_14">
    <!-- Curva de Pérdidas (Train vs Test) -->
    <g transform="translate(344.970937 45.84) scale(0.12 -0.12)">
     <defs>
      <path id="DejaVuSans-43" d="M 4122 4306 
L 4122 3641 
Q 3803 3938 3442 4084 
Q 3081 4231 2675 4231 
Q 1875 4231 1450 3742 
Q 1025 3253 1025 2328 
Q 1025 1406 1450 917 
Q 1875 428 2675 428 
Q 3081 428 3442 575 
Q 3803 722 4122 1019 
L 4122 359 
Q 3791 134 3420 21 
Q 3050 -91 2638 -91 
Q 1578 -91 968 557 
Q 359 1206 359 2328 
Q 359 3453 968 4101 
Q 1578 4750 2638 4750 
Q 3056 4750 3426 4639 
Q 3797 4528 4122 4306 
z
" transform="scale(0.015625)"/>
      <path id="DejaVuSans-75" d="M 544 1381 
L 544 3500 
L 1119 3500 
L 1119 1403 
Q 1119 906 1312 657 
Q 1506 409 1894 409 
Q 2359 409 2629 706 
Q 2900 1003 2900 1516 
L 2900 3500 
L 3475 3500 
L 3475 0 
L 2900 0 
L 2900 538 
Q 2691 219 2414 64 
Q 2138 -91 1772 -91 
Q 1169 -91 856 284 
Q 544 659 544 1381 
z
M 1991 3584 
L 1991 3584 
z
" transform="scale(0.015625)"/>
      <path id="DejaVuSans-76" d="M 191 3500 
L 800 3500 
L 1894 563 
L 2988 3500 
L 3597 3500 
L 2284 0 
L 1503 0 
L 191 3500 
z
" transform="scale(0.015625)"/>
      <path id="DejaVuSans-54" d="M -19 4666 
L 3928 4666 
L 3928 4134 
L 2272 4134 
L 2272 0 
L 1638 0 
L 1638 4134 
L -19 4134 
L -19 4666 
z
" transform="scale(0.015625)"/>
      <path id="DejaVuSans-6e" d="M 3513 2113 
L 3513 0 
L 2938 0 
L 2938 2094 
Q 2938 2591 2744 2837 
Q 2550 3084 2163 3084 
Q 1697 3084 1428 2787 
Q 1159 2491 1159 1978 
L 1159 0 
L 581 0 
L 581 3500 
L 1159 3500 
L 1159 2956 
Q 1366 3272 1645 3428 
Q 1925 3584 2291 3584 
Q 2894 3584 3203 3211 
Q 3513 2838 3513 2113 
z
" transform="scale(0.015625)"/>
     </defs>
     <use xlink:href="#DejaVuSans-43"/>
     <use xlink:href="#DejaVuSans-75" x="69.824219"/>
     <use xlink:href="#DejaVuSans-72" x="133.203125"/>
     <use xlink:href="#DejaVuSans-76" x="174.316406"/>
     <use xlink:href="#DejaVuSans-61" x="233.496094"/>
     <use xlink:href="#DejaVuSans-20" x="294.775391"/>
     <use xlink:href="#DejaVuSans-64" x="326.5625"/>
     <use xlink:href="#DejaVuSans-65" x="390.039062"/>
     <use xlink:href="#DejaVuSans-20" x="451.5625"/>
     <use xlink:href="#DejaVuSans-50" x="483.349609"/>
     <use xlink:href="#DejaVuSans-e9" x="540.027344"/>
     <use xlink:href="#DejaVuSans-72" x="601.550781"/>
     <use xlink:href="#DejaVuSans-64" x="640.914062"/>
     <use xlink:href="#DejaVuSans-69" x="704.390625"/>
     <use xlink:href="#DejaVuSans-64" x="732.173828"/>
     <use xlink:href="#DejaVuSans-61" x="795.650391"/>
     <use xlink:href="#DejaVuSans-73" x="856.929688"/>
     <use xlink:href="#DejaVuSans-20" x="909.029297"/>
     <use xlink:href="#DejaVuSans-28" x="940.816406"/>
     <use xlink:href="#DejaVuSans-54" x="979.830078"/>
     <use xlink:href="#DejaVuSans-72" x="1026.164062"/>
     <use xlink:href="#DejaVuSans-61" x="1067.277344"/>
     <use xlink:href="#DejaVuSans-69" x="1128.556641"/>
     <use xlink:href="#DejaVuSans-6e" x="1156.339844"/>
     <use xlink:href="#DejaVuSans-20" x="1219.71875"/>
     <use xlink:href="#DejaVuSans-76" x="1251.505859"/>
     <use xlink:href="#DejaVuSans-73" x="1310.685547"/>
     <use xlink:href="#DejaVuSans-20" x="1362.785156"/>
     <use xlink:href="#DejaVuSans-54" x="1394.572266"/>
     <use xlink:href="#DejaVuSans-65" x="1438.65625"/>
     <use xlink:href="#DejaVuSans-73" x="1500.179688"/>
     <use xlink:href="#DejaVuSans-74" x="1552.279297"/>
     <use xlink:href="#DejaVuSans-29" x="1591.488281"/>
    </g>
   </g>
   <g id="legend_1">
    <g id="patch_7">
     <path d="M 714.6125 89.19625 
L 770.6 89.19625 
Q 772.6 89.19625 772.6 87.19625 
L 772.6 58.84 
Q 772.6 56.84 770.6 56.84 
L 714.6125 56.84 
Q 712.6125 56.84 712.6125 58.84 
L 712.6125 87.19625 
Q 712.6125 89.19625 714.6125 89.19625 
z
" style="fill: #ffffff; opacity: 0.8; stroke: #cccccc; stroke-linejoin: miter"/>
    </g>
    <g id="line2d_25">
     <path d="M 716.6125 64.938437 
L 726.6125 64.938437 
L 736.6125 64.938437 
" style="fill: none; stroke: #0000ff; stroke-width: 1.5; stroke-linecap: square"/>
    </g>
    <g id="text_15">
     <!-- Train -->
     <g transform="translate(744.6125 68.438437) scale(0.1 -0.1)">
      <use xlink:href="#DejaVuSans-54"/>
      <use xlink:href="#DejaVuSans-72" x="46.333984"/>
      <use xlink:href="#DejaVuSans-61" x="87.447266"/>
      <use xlink:href="#DejaVuSans-69" x="148.726562"/>
      <use xlink:href="#DejaVuSans-6e" x="176.509766"/>
     </g>
    </g>
    <g id="line2d_26">
     <path d="M 716.6125 79.616562 
L 726.6125 79.616562 
L 736.6125 79.616562 
" style="fill: none; stroke: #ff0000; stroke-width: 1.5; stroke-linecap: square"/>
    </g>
    <g id="text_16">
     <!-- Test -->
     <g transform="translate(744.6125 83.116562) scale(0.1 -0.1)">
      <use xlink:href="#DejaVuSans-54"/>
      <use xlink:href="#DejaVuSans-65" x="44.083984"/>
      <use xlink:href="#DejaVuSans-73" x="105.607422"/>
      <use xlink:href="#DejaVuSans-74" x="157.707031"/>
     </g>
    </g>
   </g>
  </g>
 </g>
 <defs>
  <clipPath id="p16174d25ae">
   <rect x="108" y="51.84" width="669.6" height="332.64"/>
  </clipPath>
 </defs>
</svg>
