<?xml version="1.0" encoding="utf-8" standalone="no"?>
<!DOCTYPE svg PUBLIC "-//W3C//DTD SVG 1.1//EN"
  "http://www.w3.org/Graphics/SVG/1.1/DTD/svg11.dtd">
<svg xmlns:xlink="http://www.w3.org/1999/xlink" width="864pt" height="432pt" viewBox="0 0 864 432" xmlns="http://www.w3.org/2000/svg" version="1.1">
 <metadata>
  <rdf:RDF xmlns:dc="http://purl.org/dc/elements/1.1/" xmlns:cc="http://creativecommons.org/ns#" xmlns:rdf="http://www.w3.org/1999/02/22-rdf-syntax-ns#">
   <cc:Work>
    <dc:type rdf:resource="http://purl.org/dc/dcmitype/StillImage"/>
    <dc:date>2024-11-07T11:25:20.096632</dc:date>
    <dc:format>image/svg+xml</dc:format>
    <dc:creator>
     <cc:Agent>
      <dc:title>Matplotlib v3.8.4, https://matplotlib.org/</dc:title>
     </cc:Agent>
    </dc:creator>
   </cc:Work>
  </rdf:RDF>
 </metadata>
 <defs>
  <style type="text/css">*{stroke-linejoin: round; stroke-linecap: butt}</style>
 </defs>
 <g id="figure_1">
  <g id="patch_1">
   <path d="M 0 432 
L 864 432 
L 864 0 
L 0 0 
z
" style="fill: #ffffff"/>
  </g>
  <g id="axes_1">
   <g id="patch_2">
    <path d="M 108 384.48 
L 777.6 384.48 
L 777.6 51.84 
L 108 51.84 
z
" style="fill: #ffffff"/>
   </g>
   <g id="matplotlib.axis_1">
    <g id="xtick_1">
     <g id="line2d_1">
      <path d="M 136.049198 384.48 
L 136.049198 51.84 
" clip-path="url(#p451f072b20)" style="fill: none; stroke: #b0b0b0; stroke-width: 0.8; stroke-linecap: square"/>
     </g>
     <g id="line2d_2">
      <defs>
       <path id="mee64da24f5" d="M 0 0 
L 0 3.5 
" style="stroke: #000000; stroke-width: 0.8"/>
      </defs>
      <g>
       <use xlink:href="#mee64da24f5" x="136.049198" y="384.48" style="stroke: #000000; stroke-width: 0.8"/>
      </g>
     </g>
     <g id="text_1">
      <!-- 0 -->
      <g transform="translate(132.867948 399.078438) scale(0.1 -0.1)">
       <defs>
        <path id="DejaVuSans-30" d="M 2034 4250 
Q 1547 4250 1301 3770 
Q 1056 3291 1056 2328 
Q 1056 1369 1301 889 
Q 1547 409 2034 409 
Q 2525 409 2770 889 
Q 3016 1369 3016 2328 
Q 3016 3291 2770 3770 
Q 2525 4250 2034 4250 
z
M 2034 4750 
Q 2819 4750 3233 4129 
Q 3647 3509 3647 2328 
Q 3647 1150 3233 529 
Q 2819 -91 2034 -91 
Q 1250 -91 836 529 
Q 422 1150 422 2328 
Q 422 3509 836 4129 
Q 1250 4750 2034 4750 
z
" transform="scale(0.015625)"/>
       </defs>
       <use xlink:href="#DejaVuSans-30"/>
      </g>
     </g>
    </g>
    <g id="xtick_2">
     <g id="line2d_3">
      <path d="M 255.407487 384.48 
L 255.407487 51.84 
" clip-path="url(#p451f072b20)" style="fill: none; stroke: #b0b0b0; stroke-width: 0.8; stroke-linecap: square"/>
     </g>
     <g id="line2d_4">
      <g>
       <use xlink:href="#mee64da24f5" x="255.407487" y="384.48" style="stroke: #000000; stroke-width: 0.8"/>
      </g>
     </g>
     <g id="text_2">
      <!-- 50 -->
      <g transform="translate(249.044987 399.078438) scale(0.1 -0.1)">
       <defs>
        <path id="DejaVuSans-35" d="M 691 4666 
L 3169 4666 
L 3169 4134 
L 1269 4134 
L 1269 2991 
Q 1406 3038 1543 3061 
Q 1681 3084 1819 3084 
Q 2600 3084 3056 2656 
Q 3513 2228 3513 1497 
Q 3513 744 3044 326 
Q 2575 -91 1722 -91 
Q 1428 -91 1123 -41 
Q 819 9 494 109 
L 494 744 
Q 775 591 1075 516 
Q 1375 441 1709 441 
Q 2250 441 2565 725 
Q 2881 1009 2881 1497 
Q 2881 1984 2565 2268 
Q 2250 2553 1709 2553 
Q 1456 2553 1204 2497 
Q 953 2441 691 2322 
L 691 4666 
z
" transform="scale(0.015625)"/>
       </defs>
       <use xlink:href="#DejaVuSans-35"/>
       <use xlink:href="#DejaVuSans-30" x="63.623047"/>
      </g>
     </g>
    </g>
    <g id="xtick_3">
     <g id="line2d_5">
      <path d="M 374.765775 384.48 
L 374.765775 51.84 
" clip-path="url(#p451f072b20)" style="fill: none; stroke: #b0b0b0; stroke-width: 0.8; stroke-linecap: square"/>
     </g>
     <g id="line2d_6">
      <g>
       <use xlink:href="#mee64da24f5" x="374.765775" y="384.48" style="stroke: #000000; stroke-width: 0.8"/>
      </g>
     </g>
     <g id="text_3">
      <!-- 100 -->
      <g transform="translate(365.222025 399.078438) scale(0.1 -0.1)">
       <defs>
        <path id="DejaVuSans-31" d="M 794 531 
L 1825 531 
L 1825 4091 
L 703 3866 
L 703 4441 
L 1819 4666 
L 2450 4666 
L 2450 531 
L 3481 531 
L 3481 0 
L 794 0 
L 794 531 
z
" transform="scale(0.015625)"/>
       </defs>
       <use xlink:href="#DejaVuSans-31"/>
       <use xlink:href="#DejaVuSans-30" x="63.623047"/>
       <use xlink:href="#DejaVuSans-30" x="127.246094"/>
      </g>
     </g>
    </g>
    <g id="xtick_4">
     <g id="line2d_7">
      <path d="M 494.124064 384.48 
L 494.124064 51.84 
" clip-path="url(#p451f072b20)" style="fill: none; stroke: #b0b0b0; stroke-width: 0.8; stroke-linecap: square"/>
     </g>
     <g id="line2d_8">
      <g>
       <use xlink:href="#mee64da24f5" x="494.124064" y="384.48" style="stroke: #000000; stroke-width: 0.8"/>
      </g>
     </g>
     <g id="text_4">
      <!-- 150 -->
      <g transform="translate(484.580314 399.078438) scale(0.1 -0.1)">
       <use xlink:href="#DejaVuSans-31"/>
       <use xlink:href="#DejaVuSans-35" x="63.623047"/>
       <use xlink:href="#DejaVuSans-30" x="127.246094"/>
      </g>
     </g>
    </g>
    <g id="xtick_5">
     <g id="line2d_9">
      <path d="M 613.482353 384.48 
L 613.482353 51.84 
" clip-path="url(#p451f072b20)" style="fill: none; stroke: #b0b0b0; stroke-width: 0.8; stroke-linecap: square"/>
     </g>
     <g id="line2d_10">
      <g>
       <use xlink:href="#mee64da24f5" x="613.482353" y="384.48" style="stroke: #000000; stroke-width: 0.8"/>
      </g>
     </g>
     <g id="text_5">
      <!-- 200 -->
      <g transform="translate(603.938603 399.078438) scale(0.1 -0.1)">
       <defs>
        <path id="DejaVuSans-32" d="M 1228 531 
L 3431 531 
L 3431 0 
L 469 0 
L 469 531 
Q 828 903 1448 1529 
Q 2069 2156 2228 2338 
Q 2531 2678 2651 2914 
Q 2772 3150 2772 3378 
Q 2772 3750 2511 3984 
Q 2250 4219 1831 4219 
Q 1534 4219 1204 4116 
Q 875 4013 500 3803 
L 500 4441 
Q 881 4594 1212 4672 
Q 1544 4750 1819 4750 
Q 2544 4750 2975 4387 
Q 3406 4025 3406 3419 
Q 3406 3131 3298 2873 
Q 3191 2616 2906 2266 
Q 2828 2175 2409 1742 
Q 1991 1309 1228 531 
z
" transform="scale(0.015625)"/>
       </defs>
       <use xlink:href="#DejaVuSans-32"/>
       <use xlink:href="#DejaVuSans-30" x="63.623047"/>
       <use xlink:href="#DejaVuSans-30" x="127.246094"/>
      </g>
     </g>
    </g>
    <g id="xtick_6">
     <g id="line2d_11">
      <path d="M 732.840642 384.48 
L 732.840642 51.84 
" clip-path="url(#p451f072b20)" style="fill: none; stroke: #b0b0b0; stroke-width: 0.8; stroke-linecap: square"/>
     </g>
     <g id="line2d_12">
      <g>
       <use xlink:href="#mee64da24f5" x="732.840642" y="384.48" style="stroke: #000000; stroke-width: 0.8"/>
      </g>
     </g>
     <g id="text_6">
      <!-- 250 -->
      <g transform="translate(723.296892 399.078438) scale(0.1 -0.1)">
       <use xlink:href="#DejaVuSans-32"/>
       <use xlink:href="#DejaVuSans-35" x="63.623047"/>
       <use xlink:href="#DejaVuSans-30" x="127.246094"/>
      </g>
     </g>
    </g>
    <g id="text_7">
     <!-- Número de Splits -->
     <g transform="translate(399.821094 413.156563) scale(0.1 -0.1)">
      <defs>
       <path id="DejaVuSans-4e" d="M 628 4666 
L 1478 4666 
L 3547 763 
L 3547 4666 
L 4159 4666 
L 4159 0 
L 3309 0 
L 1241 3903 
L 1241 0 
L 628 0 
L 628 4666 
z
" transform="scale(0.015625)"/>
       <path id="DejaVuSans-fa" d="M 544 1381 
L 544 3500 
L 1119 3500 
L 1119 1403 
Q 1119 906 1312 657 
Q 1506 409 1894 409 
Q 2359 409 2629 706 
Q 2900 1003 2900 1516 
L 2900 3500 
L 3475 3500 
L 3475 0 
L 2900 0 
L 2900 538 
Q 2691 219 2414 64 
Q 2138 -91 1772 -91 
Q 1169 -91 856 284 
Q 544 659 544 1381 
z
M 1991 3584 
L 1991 3584 
z
M 2418 5119 
L 3040 5119 
L 2022 3944 
L 1543 3944 
L 2418 5119 
z
" transform="scale(0.015625)"/>
       <path id="DejaVuSans-6d" d="M 3328 2828 
Q 3544 3216 3844 3400 
Q 4144 3584 4550 3584 
Q 5097 3584 5394 3201 
Q 5691 2819 5691 2113 
L 5691 0 
L 5113 0 
L 5113 2094 
Q 5113 2597 4934 2840 
Q 4756 3084 4391 3084 
Q 3944 3084 3684 2787 
Q 3425 2491 3425 1978 
L 3425 0 
L 2847 0 
L 2847 2094 
Q 2847 2600 2669 2842 
Q 2491 3084 2119 3084 
Q 1678 3084 1418 2786 
Q 1159 2488 1159 1978 
L 1159 0 
L 581 0 
L 581 3500 
L 1159 3500 
L 1159 2956 
Q 1356 3278 1631 3431 
Q 1906 3584 2284 3584 
Q 2666 3584 2933 3390 
Q 3200 3197 3328 2828 
z
" transform="scale(0.015625)"/>
       <path id="DejaVuSans-65" d="M 3597 1894 
L 3597 1613 
L 953 1613 
Q 991 1019 1311 708 
Q 1631 397 2203 397 
Q 2534 397 2845 478 
Q 3156 559 3463 722 
L 3463 178 
Q 3153 47 2828 -22 
Q 2503 -91 2169 -91 
Q 1331 -91 842 396 
Q 353 884 353 1716 
Q 353 2575 817 3079 
Q 1281 3584 2069 3584 
Q 2775 3584 3186 3129 
Q 3597 2675 3597 1894 
z
M 3022 2063 
Q 3016 2534 2758 2815 
Q 2500 3097 2075 3097 
Q 1594 3097 1305 2825 
Q 1016 2553 972 2059 
L 3022 2063 
z
" transform="scale(0.015625)"/>
       <path id="DejaVuSans-72" d="M 2631 2963 
Q 2534 3019 2420 3045 
Q 2306 3072 2169 3072 
Q 1681 3072 1420 2755 
Q 1159 2438 1159 1844 
L 1159 0 
L 581 0 
L 581 3500 
L 1159 3500 
L 1159 2956 
Q 1341 3275 1631 3429 
Q 1922 3584 2338 3584 
Q 2397 3584 2469 3576 
Q 2541 3569 2628 3553 
L 2631 2963 
z
" transform="scale(0.015625)"/>
       <path id="DejaVuSans-6f" d="M 1959 3097 
Q 1497 3097 1228 2736 
Q 959 2375 959 1747 
Q 959 1119 1226 758 
Q 1494 397 1959 397 
Q 2419 397 2687 759 
Q 2956 1122 2956 1747 
Q 2956 2369 2687 2733 
Q 2419 3097 1959 3097 
z
M 1959 3584 
Q 2709 3584 3137 3096 
Q 3566 2609 3566 1747 
Q 3566 888 3137 398 
Q 2709 -91 1959 -91 
Q 1206 -91 779 398 
Q 353 888 353 1747 
Q 353 2609 779 3096 
Q 1206 3584 1959 3584 
z
" transform="scale(0.015625)"/>
       <path id="DejaVuSans-20" transform="scale(0.015625)"/>
       <path id="DejaVuSans-64" d="M 2906 2969 
L 2906 4863 
L 3481 4863 
L 3481 0 
L 2906 0 
L 2906 525 
Q 2725 213 2448 61 
Q 2172 -91 1784 -91 
Q 1150 -91 751 415 
Q 353 922 353 1747 
Q 353 2572 751 3078 
Q 1150 3584 1784 3584 
Q 2172 3584 2448 3432 
Q 2725 3281 2906 2969 
z
M 947 1747 
Q 947 1113 1208 752 
Q 1469 391 1925 391 
Q 2381 391 2643 752 
Q 2906 1113 2906 1747 
Q 2906 2381 2643 2742 
Q 2381 3103 1925 3103 
Q 1469 3103 1208 2742 
Q 947 2381 947 1747 
z
" transform="scale(0.015625)"/>
       <path id="DejaVuSans-53" d="M 3425 4513 
L 3425 3897 
Q 3066 4069 2747 4153 
Q 2428 4238 2131 4238 
Q 1616 4238 1336 4038 
Q 1056 3838 1056 3469 
Q 1056 3159 1242 3001 
Q 1428 2844 1947 2747 
L 2328 2669 
Q 3034 2534 3370 2195 
Q 3706 1856 3706 1288 
Q 3706 609 3251 259 
Q 2797 -91 1919 -91 
Q 1588 -91 1214 -16 
Q 841 59 441 206 
L 441 856 
Q 825 641 1194 531 
Q 1563 422 1919 422 
Q 2459 422 2753 634 
Q 3047 847 3047 1241 
Q 3047 1584 2836 1778 
Q 2625 1972 2144 2069 
L 1759 2144 
Q 1053 2284 737 2584 
Q 422 2884 422 3419 
Q 422 4038 858 4394 
Q 1294 4750 2059 4750 
Q 2388 4750 2728 4690 
Q 3069 4631 3425 4513 
z
" transform="scale(0.015625)"/>
       <path id="DejaVuSans-70" d="M 1159 525 
L 1159 -1331 
L 581 -1331 
L 581 3500 
L 1159 3500 
L 1159 2969 
Q 1341 3281 1617 3432 
Q 1894 3584 2278 3584 
Q 2916 3584 3314 3078 
Q 3713 2572 3713 1747 
Q 3713 922 3314 415 
Q 2916 -91 2278 -91 
Q 1894 -91 1617 61 
Q 1341 213 1159 525 
z
M 3116 1747 
Q 3116 2381 2855 2742 
Q 2594 3103 2138 3103 
Q 1681 3103 1420 2742 
Q 1159 2381 1159 1747 
Q 1159 1113 1420 752 
Q 1681 391 2138 391 
Q 2594 391 2855 752 
Q 3116 1113 3116 1747 
z
" transform="scale(0.015625)"/>
       <path id="DejaVuSans-6c" d="M 603 4863 
L 1178 4863 
L 1178 0 
L 603 0 
L 603 4863 
z
" transform="scale(0.015625)"/>
       <path id="DejaVuSans-69" d="M 603 3500 
L 1178 3500 
L 1178 0 
L 603 0 
L 603 3500 
z
M 603 4863 
L 1178 4863 
L 1178 4134 
L 603 4134 
L 603 4863 
z
" transform="scale(0.015625)"/>
       <path id="DejaVuSans-74" d="M 1172 4494 
L 1172 3500 
L 2356 3500 
L 2356 3053 
L 1172 3053 
L 1172 1153 
Q 1172 725 1289 603 
Q 1406 481 1766 481 
L 2356 481 
L 2356 0 
L 1766 0 
Q 1100 0 847 248 
Q 594 497 594 1153 
L 594 3053 
L 172 3053 
L 172 3500 
L 594 3500 
L 594 4494 
L 1172 4494 
z
" transform="scale(0.015625)"/>
       <path id="DejaVuSans-73" d="M 2834 3397 
L 2834 2853 
Q 2591 2978 2328 3040 
Q 2066 3103 1784 3103 
Q 1356 3103 1142 2972 
Q 928 2841 928 2578 
Q 928 2378 1081 2264 
Q 1234 2150 1697 2047 
L 1894 2003 
Q 2506 1872 2764 1633 
Q 3022 1394 3022 966 
Q 3022 478 2636 193 
Q 2250 -91 1575 -91 
Q 1294 -91 989 -36 
Q 684 19 347 128 
L 347 722 
Q 666 556 975 473 
Q 1284 391 1588 391 
Q 1994 391 2212 530 
Q 2431 669 2431 922 
Q 2431 1156 2273 1281 
Q 2116 1406 1581 1522 
L 1381 1569 
Q 847 1681 609 1914 
Q 372 2147 372 2553 
Q 372 3047 722 3315 
Q 1072 3584 1716 3584 
Q 2034 3584 2315 3537 
Q 2597 3491 2834 3397 
z
" transform="scale(0.015625)"/>
      </defs>
      <use xlink:href="#DejaVuSans-4e"/>
      <use xlink:href="#DejaVuSans-fa" x="74.804688"/>
      <use xlink:href="#DejaVuSans-6d" x="138.183594"/>
      <use xlink:href="#DejaVuSans-65" x="235.595703"/>
      <use xlink:href="#DejaVuSans-72" x="297.119141"/>
      <use xlink:href="#DejaVuSans-6f" x="335.982422"/>
      <use xlink:href="#DejaVuSans-20" x="397.164062"/>
      <use xlink:href="#DejaVuSans-64" x="428.951172"/>
      <use xlink:href="#DejaVuSans-65" x="492.427734"/>
      <use xlink:href="#DejaVuSans-20" x="553.951172"/>
      <use xlink:href="#DejaVuSans-53" x="585.738281"/>
      <use xlink:href="#DejaVuSans-70" x="649.214844"/>
      <use xlink:href="#DejaVuSans-6c" x="712.691406"/>
      <use xlink:href="#DejaVuSans-69" x="740.474609"/>
      <use xlink:href="#DejaVuSans-74" x="768.257812"/>
      <use xlink:href="#DejaVuSans-73" x="807.466797"/>
     </g>
    </g>
   </g>
   <g id="matplotlib.axis_2">
    <g id="ytick_1">
     <g id="line2d_13">
      <path d="M 108 369.36 
L 777.6 369.36 
" clip-path="url(#p451f072b20)" style="fill: none; stroke: #b0b0b0; stroke-width: 0.8; stroke-linecap: square"/>
     </g>
     <g id="line2d_14">
      <defs>
       <path id="m40abe610d7" d="M 0 0 
L -3.5 0 
" style="stroke: #000000; stroke-width: 0.8"/>
      </defs>
      <g>
       <use xlink:href="#m40abe610d7" x="108" y="369.36" style="stroke: #000000; stroke-width: 0.8"/>
      </g>
     </g>
     <g id="text_8">
      <!-- 0 -->
      <g transform="translate(94.6375 373.159219) scale(0.1 -0.1)">
       <use xlink:href="#DejaVuSans-30"/>
      </g>
     </g>
    </g>
    <g id="ytick_2">
     <g id="line2d_15">
      <path d="M 108 306.114844 
L 777.6 306.114844 
" clip-path="url(#p451f072b20)" style="fill: none; stroke: #b0b0b0; stroke-width: 0.8; stroke-linecap: square"/>
     </g>
     <g id="line2d_16">
      <g>
       <use xlink:href="#m40abe610d7" x="108" y="306.114844" style="stroke: #000000; stroke-width: 0.8"/>
      </g>
     </g>
     <g id="text_9">
      <!-- 100 -->
      <g transform="translate(81.9125 309.914063) scale(0.1 -0.1)">
       <use xlink:href="#DejaVuSans-31"/>
       <use xlink:href="#DejaVuSans-30" x="63.623047"/>
       <use xlink:href="#DejaVuSans-30" x="127.246094"/>
      </g>
     </g>
    </g>
    <g id="ytick_3">
     <g id="line2d_17">
      <path d="M 108 242.869688 
L 777.6 242.869688 
" clip-path="url(#p451f072b20)" style="fill: none; stroke: #b0b0b0; stroke-width: 0.8; stroke-linecap: square"/>
     </g>
     <g id="line2d_18">
      <g>
       <use xlink:href="#m40abe610d7" x="108" y="242.869688" style="stroke: #000000; stroke-width: 0.8"/>
      </g>
     </g>
     <g id="text_10">
      <!-- 200 -->
      <g transform="translate(81.9125 246.668906) scale(0.1 -0.1)">
       <use xlink:href="#DejaVuSans-32"/>
       <use xlink:href="#DejaVuSans-30" x="63.623047"/>
       <use xlink:href="#DejaVuSans-30" x="127.246094"/>
      </g>
     </g>
    </g>
    <g id="ytick_4">
     <g id="line2d_19">
      <path d="M 108 179.624531 
L 777.6 179.624531 
" clip-path="url(#p451f072b20)" style="fill: none; stroke: #b0b0b0; stroke-width: 0.8; stroke-linecap: square"/>
     </g>
     <g id="line2d_20">
      <g>
       <use xlink:href="#m40abe610d7" x="108" y="179.624531" style="stroke: #000000; stroke-width: 0.8"/>
      </g>
     </g>
     <g id="text_11">
      <!-- 300 -->
      <g transform="translate(81.9125 183.42375) scale(0.1 -0.1)">
       <defs>
        <path id="DejaVuSans-33" d="M 2597 2516 
Q 3050 2419 3304 2112 
Q 3559 1806 3559 1356 
Q 3559 666 3084 287 
Q 2609 -91 1734 -91 
Q 1441 -91 1130 -33 
Q 819 25 488 141 
L 488 750 
Q 750 597 1062 519 
Q 1375 441 1716 441 
Q 2309 441 2620 675 
Q 2931 909 2931 1356 
Q 2931 1769 2642 2001 
Q 2353 2234 1838 2234 
L 1294 2234 
L 1294 2753 
L 1863 2753 
Q 2328 2753 2575 2939 
Q 2822 3125 2822 3475 
Q 2822 3834 2567 4026 
Q 2313 4219 1838 4219 
Q 1578 4219 1281 4162 
Q 984 4106 628 3988 
L 628 4550 
Q 988 4650 1302 4700 
Q 1616 4750 1894 4750 
Q 2613 4750 3031 4423 
Q 3450 4097 3450 3541 
Q 3450 3153 3228 2886 
Q 3006 2619 2597 2516 
z
" transform="scale(0.015625)"/>
       </defs>
       <use xlink:href="#DejaVuSans-33"/>
       <use xlink:href="#DejaVuSans-30" x="63.623047"/>
       <use xlink:href="#DejaVuSans-30" x="127.246094"/>
      </g>
     </g>
    </g>
    <g id="ytick_5">
     <g id="line2d_21">
      <path d="M 108 116.379375 
L 777.6 116.379375 
" clip-path="url(#p451f072b20)" style="fill: none; stroke: #b0b0b0; stroke-width: 0.8; stroke-linecap: square"/>
     </g>
     <g id="line2d_22">
      <g>
       <use xlink:href="#m40abe610d7" x="108" y="116.379375" style="stroke: #000000; stroke-width: 0.8"/>
      </g>
     </g>
     <g id="text_12">
      <!-- 400 -->
      <g transform="translate(81.9125 120.178594) scale(0.1 -0.1)">
       <defs>
        <path id="DejaVuSans-34" d="M 2419 4116 
L 825 1625 
L 2419 1625 
L 2419 4116 
z
M 2253 4666 
L 3047 4666 
L 3047 1625 
L 3713 1625 
L 3713 1100 
L 3047 1100 
L 3047 0 
L 2419 0 
L 2419 1100 
L 313 1100 
L 313 1709 
L 2253 4666 
z
" transform="scale(0.015625)"/>
       </defs>
       <use xlink:href="#DejaVuSans-34"/>
       <use xlink:href="#DejaVuSans-30" x="63.623047"/>
       <use xlink:href="#DejaVuSans-30" x="127.246094"/>
      </g>
     </g>
    </g>
    <g id="ytick_6">
     <g id="line2d_23">
      <path d="M 108 53.134219 
L 777.6 53.134219 
" clip-path="url(#p451f072b20)" style="fill: none; stroke: #b0b0b0; stroke-width: 0.8; stroke-linecap: square"/>
     </g>
     <g id="line2d_24">
      <g>
       <use xlink:href="#m40abe610d7" x="108" y="53.134219" style="stroke: #000000; stroke-width: 0.8"/>
      </g>
     </g>
     <g id="text_13">
      <!-- 500 -->
      <g transform="translate(81.9125 56.933438) scale(0.1 -0.1)">
       <use xlink:href="#DejaVuSans-35"/>
       <use xlink:href="#DejaVuSans-30" x="63.623047"/>
       <use xlink:href="#DejaVuSans-30" x="127.246094"/>
      </g>
     </g>
    </g>
    <g id="text_14">
     <!-- Pérdida (MSE) -->
     <g transform="translate(75.832812 252.977969) rotate(-90) scale(0.1 -0.1)">
      <defs>
       <path id="DejaVuSans-50" d="M 1259 4147 
L 1259 2394 
L 2053 2394 
Q 2494 2394 2734 2622 
Q 2975 2850 2975 3272 
Q 2975 3691 2734 3919 
Q 2494 4147 2053 4147 
L 1259 4147 
z
M 628 4666 
L 2053 4666 
Q 2838 4666 3239 4311 
Q 3641 3956 3641 3272 
Q 3641 2581 3239 2228 
Q 2838 1875 2053 1875 
L 1259 1875 
L 1259 0 
L 628 0 
L 628 4666 
z
" transform="scale(0.015625)"/>
       <path id="DejaVuSans-e9" d="M 3597 1894 
L 3597 1613 
L 953 1613 
Q 991 1019 1311 708 
Q 1631 397 2203 397 
Q 2534 397 2845 478 
Q 3156 559 3463 722 
L 3463 178 
Q 3153 47 2828 -22 
Q 2503 -91 2169 -91 
Q 1331 -91 842 396 
Q 353 884 353 1716 
Q 353 2575 817 3079 
Q 1281 3584 2069 3584 
Q 2775 3584 3186 3129 
Q 3597 2675 3597 1894 
z
M 3022 2063 
Q 3016 2534 2758 2815 
Q 2500 3097 2075 3097 
Q 1594 3097 1305 2825 
Q 1016 2553 972 2059 
L 3022 2063 
z
M 2466 5119 
L 3088 5119 
L 2070 3944 
L 1591 3944 
L 2466 5119 
z
" transform="scale(0.015625)"/>
       <path id="DejaVuSans-61" d="M 2194 1759 
Q 1497 1759 1228 1600 
Q 959 1441 959 1056 
Q 959 750 1161 570 
Q 1363 391 1709 391 
Q 2188 391 2477 730 
Q 2766 1069 2766 1631 
L 2766 1759 
L 2194 1759 
z
M 3341 1997 
L 3341 0 
L 2766 0 
L 2766 531 
Q 2569 213 2275 61 
Q 1981 -91 1556 -91 
Q 1019 -91 701 211 
Q 384 513 384 1019 
Q 384 1609 779 1909 
Q 1175 2209 1959 2209 
L 2766 2209 
L 2766 2266 
Q 2766 2663 2505 2880 
Q 2244 3097 1772 3097 
Q 1472 3097 1187 3025 
Q 903 2953 641 2809 
L 641 3341 
Q 956 3463 1253 3523 
Q 1550 3584 1831 3584 
Q 2591 3584 2966 3190 
Q 3341 2797 3341 1997 
z
" transform="scale(0.015625)"/>
       <path id="DejaVuSans-28" d="M 1984 4856 
Q 1566 4138 1362 3434 
Q 1159 2731 1159 2009 
Q 1159 1288 1364 580 
Q 1569 -128 1984 -844 
L 1484 -844 
Q 1016 -109 783 600 
Q 550 1309 550 2009 
Q 550 2706 781 3412 
Q 1013 4119 1484 4856 
L 1984 4856 
z
" transform="scale(0.015625)"/>
       <path id="DejaVuSans-4d" d="M 628 4666 
L 1569 4666 
L 2759 1491 
L 3956 4666 
L 4897 4666 
L 4897 0 
L 4281 0 
L 4281 4097 
L 3078 897 
L 2444 897 
L 1241 4097 
L 1241 0 
L 628 0 
L 628 4666 
z
" transform="scale(0.015625)"/>
       <path id="DejaVuSans-45" d="M 628 4666 
L 3578 4666 
L 3578 4134 
L 1259 4134 
L 1259 2753 
L 3481 2753 
L 3481 2222 
L 1259 2222 
L 1259 531 
L 3634 531 
L 3634 0 
L 628 0 
L 628 4666 
z
" transform="scale(0.015625)"/>
       <path id="DejaVuSans-29" d="M 513 4856 
L 1013 4856 
Q 1481 4119 1714 3412 
Q 1947 2706 1947 2009 
Q 1947 1309 1714 600 
Q 1481 -109 1013 -844 
L 513 -844 
Q 928 -128 1133 580 
Q 1338 1288 1338 2009 
Q 1338 2731 1133 3434 
Q 928 4138 513 4856 
z
" transform="scale(0.015625)"/>
      </defs>
      <use xlink:href="#DejaVuSans-50"/>
      <use xlink:href="#DejaVuSans-e9" x="56.677734"/>
      <use xlink:href="#DejaVuSans-72" x="118.201172"/>
      <use xlink:href="#DejaVuSans-64" x="157.564453"/>
      <use xlink:href="#DejaVuSans-69" x="221.041016"/>
      <use xlink:href="#DejaVuSans-64" x="248.824219"/>
      <use xlink:href="#DejaVuSans-61" x="312.300781"/>
      <use xlink:href="#DejaVuSans-20" x="373.580078"/>
      <use xlink:href="#DejaVuSans-28" x="405.367188"/>
      <use xlink:href="#DejaVuSans-4d" x="444.380859"/>
      <use xlink:href="#DejaVuSans-53" x="530.660156"/>
      <use xlink:href="#DejaVuSans-45" x="594.136719"/>
      <use xlink:href="#DejaVuSans-29" x="657.320312"/>
     </g>
    </g>
   </g>
   <g id="line2d_25">
    <path d="M 138.436364 369.36 
L 159.920856 369.36 
L 162.308021 369.130064 
L 164.695187 369.139129 
L 167.082353 367.378824 
L 169.469519 367.335507 
L 171.856684 363.923994 
L 174.24385 363.856275 
L 176.631016 360.78093 
L 179.018182 360.829636 
L 183.792513 361.171089 
L 186.179679 361.063459 
L 193.341176 361.542986 
L 195.728342 361.117456 
L 198.115508 360.105997 
L 202.88984 360.333808 
L 210.051337 360.706692 
L 217.212834 360.207716 
L 219.6 359.841355 
L 221.987166 359.60588 
L 224.374332 359.733468 
L 226.761497 359.086285 
L 231.535829 359.191564 
L 241.084492 359.557533 
L 243.471658 359.479487 
L 248.245989 359.618739 
L 255.407487 359.894892 
L 257.794652 359.753125 
L 284.053476 359.972804 
L 293.602139 360.146852 
L 317.473797 360.350152 
L 322.248128 360.236683 
L 331.796791 360.235135 
L 341.345455 360.369768 
L 343.73262 360.228067 
L 346.119786 360.27909 
L 348.506952 359.87124 
L 365.217112 360.177117 
L 367.604278 358.723494 
L 372.37861 358.723907 
L 381.927273 358.779922 
L 384.314439 358.594189 
L 393.863102 358.720172 
L 398.637433 358.671131 
L 401.024599 358.710833 
L 405.79893 358.600482 
L 439.219251 358.879304 
L 443.993583 358.489044 
L 451.15508 358.557923 
L 455.929412 358.362716 
L 467.865241 358.175276 
L 484.575401 358.3321 
L 489.349733 358.311651 
L 496.51123 358.320014 
L 498.898396 358.207607 
L 501.285561 357.961072 
L 503.672727 357.992158 
L 506.059893 357.628274 
L 508.447059 357.654139 
L 510.834225 357.469544 
L 520.382888 357.334191 
L 529.931551 357.379532 
L 537.093048 356.968198 
L 539.480214 357.004184 
L 544.254545 356.948071 
L 556.190374 356.991299 
L 565.739037 357.020584 
L 568.126203 356.518217 
L 572.900535 356.47541 
L 575.287701 356.34942 
L 649.28984 356.810375 
L 654.064171 356.76388 
L 656.451337 356.792639 
L 661.225668 356.689239 
L 675.548663 356.763508 
L 747.163636 357.0167 
L 747.163636 357.0167 
" clip-path="url(#p451f072b20)" style="fill: none; stroke: #0000ff; stroke-width: 1.5; stroke-linecap: square"/>
   </g>
   <g id="line2d_26">
    <path d="M 138.436364 362.086807 
L 140.823529 349.154846 
L 143.210695 367.226384 
L 145.597861 368.874959 
L 147.985027 354.78574 
L 150.372193 367.507805 
L 152.759358 368.058008 
L 155.146524 307.24831 
L 157.53369 360.962737 
L 159.920856 367.406436 
L 162.308021 369.201067 
L 164.695187 223.628777 
L 167.082353 333.224745 
L 169.469519 320.509682 
L 171.856684 359.145155 
L 174.24385 66.96 
L 176.631016 352.282586 
L 179.018182 364.887404 
L 181.405348 362.409743 
L 183.792513 356.630202 
L 186.179679 364.935347 
L 188.566845 366.52468 
L 190.954011 364.67843 
L 193.341176 350.889181 
L 195.728342 332.691285 
L 198.115508 358.097934 
L 200.502674 155.23511 
L 202.88984 368.110806 
L 205.277005 368.747398 
L 207.664171 361.04442 
L 210.051337 297.540658 
L 212.438503 352.55673 
L 214.825668 350.835449 
L 217.212834 344.594528 
L 219.6 347.586061 
L 221.987166 366.881102 
L 224.374332 332.675928 
L 226.761497 358.06487 
L 229.148663 361.931563 
L 231.535829 363.826024 
L 233.922995 360.800664 
L 236.31016 368.746305 
L 238.697326 365.607447 
L 241.084492 354.192195 
L 243.471658 359.792309 
L 245.858824 368.774631 
L 248.245989 364.878781 
L 250.633155 366.830435 
L 253.020321 367.331727 
L 255.407487 352.226344 
L 257.794652 359.500564 
L 260.181818 364.373653 
L 262.568984 358.776877 
L 264.95615 364.434266 
L 267.343316 354.00754 
L 269.730481 353.544751 
L 272.117647 368.904414 
L 274.504813 364.621577 
L 276.891979 355.797215 
L 279.279144 367.432683 
L 281.66631 364.013219 
L 284.053476 366.755659 
L 286.440642 367.190637 
L 288.827807 360.430974 
L 291.214973 360.915622 
L 293.602139 361.816497 
L 295.989305 368.579114 
L 298.376471 360.17255 
L 300.763636 354.961469 
L 303.150802 366.054116 
L 305.537968 367.667283 
L 307.925134 357.596004 
L 310.312299 367.220742 
L 312.699465 367.77764 
L 315.086631 356.095644 
L 317.473797 353.131738 
L 319.860963 357.639588 
L 322.248128 357.718733 
L 324.635294 364.064046 
L 327.02246 358.018358 
L 329.409626 355.997313 
L 331.796791 365.834083 
L 334.183957 361.252502 
L 336.571123 365.152955 
L 338.958289 361.6699 
L 341.345455 350.0067 
L 343.73262 367.817647 
L 346.119786 337.955973 
L 348.506952 367.88864 
L 350.894118 362.745484 
L 353.281283 365.935051 
L 355.668449 364.719442 
L 358.055615 369.052508 
L 360.442781 369.351216 
L 362.829947 365.284904 
L 365.217112 305.162889 
L 367.604278 353.614848 
L 369.991444 367.098927 
L 372.37861 358.62041 
L 374.765775 366.001516 
L 377.152941 368.388237 
L 379.540107 353.864412 
L 381.927273 345.539806 
L 384.314439 363.296132 
L 386.701604 368.933997 
L 389.08877 358.163433 
L 391.475936 363.392565 
L 393.863102 353.019982 
L 398.637433 364.678878 
L 401.024599 349.910515 
L 403.411765 356.417267 
L 405.79893 361.38669 
L 408.186096 356.531317 
L 410.573262 362.331912 
L 412.960428 366.822695 
L 415.347594 369.176873 
L 417.734759 369.153393 
L 420.121925 366.365968 
L 422.509091 361.017359 
L 424.896257 357.242137 
L 427.283422 354.751548 
L 429.670588 363.423965 
L 432.057754 355.038323 
L 434.44492 362.683569 
L 436.832086 358.347267 
L 439.219251 343.282431 
L 441.606417 340.827963 
L 443.993583 362.242625 
L 446.380749 358.367085 
L 448.767914 369.101717 
L 451.15508 345.424886 
L 453.542246 351.901001 
L 455.929412 352.648524 
L 458.316578 349.879314 
L 460.703743 362.822787 
L 463.090909 361.092367 
L 465.478075 346.001816 
L 467.865241 366.104498 
L 470.252406 360.334644 
L 472.639572 367.178928 
L 475.026738 362.594514 
L 477.413904 358.364657 
L 479.80107 357.850198 
L 482.188235 366.58614 
L 484.575401 352.360984 
L 486.962567 362.566988 
L 489.349733 362.914579 
L 491.736898 363.90064 
L 494.124064 352.320627 
L 496.51123 346.37157 
L 498.898396 332.387978 
L 501.285561 364.082535 
L 503.672727 328.479267 
L 506.059893 362.357951 
L 508.447059 338.396741 
L 510.834225 349.671615 
L 513.22139 350.783418 
L 515.608556 348.501419 
L 517.995722 363.161023 
L 520.382888 359.892063 
L 522.770053 365.739172 
L 525.157219 351.896553 
L 527.544385 363.033237 
L 529.931551 341.153627 
L 532.318717 337.408166 
L 534.705882 347.968118 
L 537.093048 367.525958 
L 539.480214 346.484228 
L 541.86738 361.870152 
L 544.254545 354.980646 
L 546.641711 369.359793 
L 549.028877 350.46697 
L 551.416043 362.399875 
L 553.803209 367.07237 
L 556.190374 360.219548 
L 558.57754 351.98505 
L 560.964706 365.44242 
L 563.351872 359.155862 
L 565.739037 263.233045 
L 568.126203 355.297598 
L 570.513369 350.318997 
L 572.900535 341.07102 
L 575.287701 359.623174 
L 577.674866 356.575978 
L 580.062032 362.647509 
L 582.449198 359.974834 
L 584.836364 361.344921 
L 587.223529 364.698981 
L 589.610695 367.137832 
L 591.997861 365.081725 
L 594.385027 365.326691 
L 599.159358 362.136152 
L 601.546524 358.155303 
L 603.93369 356.782613 
L 606.320856 354.096463 
L 608.708021 368.136335 
L 611.095187 354.344414 
L 613.482353 364.615344 
L 615.869519 368.6947 
L 618.256684 357.621006 
L 620.64385 362.051002 
L 623.031016 358.216343 
L 625.418182 361.395901 
L 627.805348 348.293372 
L 630.192513 360.749894 
L 632.579679 366.439894 
L 634.966845 357.475683 
L 637.354011 362.850856 
L 639.741176 367.246062 
L 642.128342 357.253369 
L 644.515508 356.573222 
L 646.902674 358.759913 
L 649.28984 346.718607 
L 651.677005 360.06959 
L 654.064171 368.395512 
L 656.451337 343.163705 
L 658.838503 353.59466 
L 661.225668 367.07027 
L 663.612834 347.842338 
L 666 367.422799 
L 668.387166 368.895916 
L 670.774332 364.17289 
L 673.161497 360.678537 
L 675.548663 358.487872 
L 677.935829 352.607742 
L 680.322995 361.738002 
L 682.71016 361.26675 
L 685.097326 365.490957 
L 687.484492 356.948074 
L 689.871658 365.445464 
L 692.258824 366.380602 
L 694.645989 360.934779 
L 697.033155 369.207172 
L 699.420321 367.462055 
L 701.807487 368.396493 
L 704.194652 349.279725 
L 706.581818 354.118344 
L 708.968984 369.096187 
L 711.35615 368.72899 
L 713.743316 368.015716 
L 716.130481 366.834013 
L 718.517647 360.208281 
L 720.904813 357.951666 
L 723.291979 349.649038 
L 725.679144 349.220744 
L 728.06631 348.498748 
L 730.453476 362.369949 
L 732.840642 362.956076 
L 735.227807 358.531435 
L 737.614973 363.909484 
L 740.002139 359.217084 
L 742.389305 359.929059 
L 744.776471 366.5751 
L 747.163636 346.782765 
L 747.163636 346.782765 
" clip-path="url(#p451f072b20)" style="fill: none; stroke: #ff0000; stroke-width: 1.5; stroke-linecap: square"/>
   </g>
   <g id="patch_3">
    <path d="M 108 384.48 
L 108 51.84 
" style="fill: none; stroke: #000000; stroke-width: 0.8; stroke-linejoin: miter; stroke-linecap: square"/>
   </g>
   <g id="patch_4">
    <path d="M 777.6 384.48 
L 777.6 51.84 
" style="fill: none; stroke: #000000; stroke-width: 0.8; stroke-linejoin: miter; stroke-linecap: square"/>
   </g>
   <g id="patch_5">
    <path d="M 108 384.48 
L 777.6 384.48 
" style="fill: none; stroke: #000000; stroke-width: 0.8; stroke-linejoin: miter; stroke-linecap: square"/>
   </g>
   <g id="patch_6">
    <path d="M 108 51.84 
L 777.6 51.84 
" style="fill: none; stroke: #000000; stroke-width: 0.8; stroke-linejoin: miter; stroke-linecap: square"/>
   </g>
   <g id="text_15">
    <!-- Curva de Pérdidas (Train vs Test) -->
    <g transform="translate(344.970937 45.84) scale(0.12 -0.12)">
     <defs>
      <path id="DejaVuSans-43" d="M 4122 4306 
L 4122 3641 
Q 3803 3938 3442 4084 
Q 3081 4231 2675 4231 
Q 1875 4231 1450 3742 
Q 1025 3253 1025 2328 
Q 1025 1406 1450 917 
Q 1875 428 2675 428 
Q 3081 428 3442 575 
Q 3803 722 4122 1019 
L 4122 359 
Q 3791 134 3420 21 
Q 3050 -91 2638 -91 
Q 1578 -91 968 557 
Q 359 1206 359 2328 
Q 359 3453 968 4101 
Q 1578 4750 2638 4750 
Q 3056 4750 3426 4639 
Q 3797 4528 4122 4306 
z
" transform="scale(0.015625)"/>
      <path id="DejaVuSans-75" d="M 544 1381 
L 544 3500 
L 1119 3500 
L 1119 1403 
Q 1119 906 1312 657 
Q 1506 409 1894 409 
Q 2359 409 2629 706 
Q 2900 1003 2900 1516 
L 2900 3500 
L 3475 3500 
L 3475 0 
L 2900 0 
L 2900 538 
Q 2691 219 2414 64 
Q 2138 -91 1772 -91 
Q 1169 -91 856 284 
Q 544 659 544 1381 
z
M 1991 3584 
L 1991 3584 
z
" transform="scale(0.015625)"/>
      <path id="DejaVuSans-76" d="M 191 3500 
L 800 3500 
L 1894 563 
L 2988 3500 
L 3597 3500 
L 2284 0 
L 1503 0 
L 191 3500 
z
" transform="scale(0.015625)"/>
      <path id="DejaVuSans-54" d="M -19 4666 
L 3928 4666 
L 3928 4134 
L 2272 4134 
L 2272 0 
L 1638 0 
L 1638 4134 
L -19 4134 
L -19 4666 
z
" transform="scale(0.015625)"/>
      <path id="DejaVuSans-6e" d="M 3513 2113 
L 3513 0 
L 2938 0 
L 2938 2094 
Q 2938 2591 2744 2837 
Q 2550 3084 2163 3084 
Q 1697 3084 1428 2787 
Q 1159 2491 1159 1978 
L 1159 0 
L 581 0 
L 581 3500 
L 1159 3500 
L 1159 2956 
Q 1366 3272 1645 3428 
Q 1925 3584 2291 3584 
Q 2894 3584 3203 3211 
Q 3513 2838 3513 2113 
z
" transform="scale(0.015625)"/>
     </defs>
     <use xlink:href="#DejaVuSans-43"/>
     <use xlink:href="#DejaVuSans-75" x="69.824219"/>
     <use xlink:href="#DejaVuSans-72" x="133.203125"/>
     <use xlink:href="#DejaVuSans-76" x="174.316406"/>
     <use xlink:href="#DejaVuSans-61" x="233.496094"/>
     <use xlink:href="#DejaVuSans-20" x="294.775391"/>
     <use xlink:href="#DejaVuSans-64" x="326.5625"/>
     <use xlink:href="#DejaVuSans-65" x="390.039062"/>
     <use xlink:href="#DejaVuSans-20" x="451.5625"/>
     <use xlink:href="#DejaVuSans-50" x="483.349609"/>
     <use xlink:href="#DejaVuSans-e9" x="540.027344"/>
     <use xlink:href="#DejaVuSans-72" x="601.550781"/>
     <use xlink:href="#DejaVuSans-64" x="640.914062"/>
     <use xlink:href="#DejaVuSans-69" x="704.390625"/>
     <use xlink:href="#DejaVuSans-64" x="732.173828"/>
     <use xlink:href="#DejaVuSans-61" x="795.650391"/>
     <use xlink:href="#DejaVuSans-73" x="856.929688"/>
     <use xlink:href="#DejaVuSans-20" x="909.029297"/>
     <use xlink:href="#DejaVuSans-28" x="940.816406"/>
     <use xlink:href="#DejaVuSans-54" x="979.830078"/>
     <use xlink:href="#DejaVuSans-72" x="1026.164062"/>
     <use xlink:href="#DejaVuSans-61" x="1067.277344"/>
     <use xlink:href="#DejaVuSans-69" x="1128.556641"/>
     <use xlink:href="#DejaVuSans-6e" x="1156.339844"/>
     <use xlink:href="#DejaVuSans-20" x="1219.71875"/>
     <use xlink:href="#DejaVuSans-76" x="1251.505859"/>
     <use xlink:href="#DejaVuSans-73" x="1310.685547"/>
     <use xlink:href="#DejaVuSans-20" x="1362.785156"/>
     <use xlink:href="#DejaVuSans-54" x="1394.572266"/>
     <use xlink:href="#DejaVuSans-65" x="1438.65625"/>
     <use xlink:href="#DejaVuSans-73" x="1500.179688"/>
     <use xlink:href="#DejaVuSans-74" x="1552.279297"/>
     <use xlink:href="#DejaVuSans-29" x="1591.488281"/>
    </g>
   </g>
   <g id="legend_1">
    <g id="patch_7">
     <path d="M 714.6125 89.19625 
L 770.6 89.19625 
Q 772.6 89.19625 772.6 87.19625 
L 772.6 58.84 
Q 772.6 56.84 770.6 56.84 
L 714.6125 56.84 
Q 712.6125 56.84 712.6125 58.84 
L 712.6125 87.19625 
Q 712.6125 89.19625 714.6125 89.19625 
z
" style="fill: #ffffff; opacity: 0.8; stroke: #cccccc; stroke-linejoin: miter"/>
    </g>
    <g id="line2d_27">
     <path d="M 716.6125 64.938437 
L 726.6125 64.938437 
L 736.6125 64.938437 
" style="fill: none; stroke: #0000ff; stroke-width: 1.5; stroke-linecap: square"/>
    </g>
    <g id="text_16">
     <!-- Train -->
     <g transform="translate(744.6125 68.438437) scale(0.1 -0.1)">
      <use xlink:href="#DejaVuSans-54"/>
      <use xlink:href="#DejaVuSans-72" x="46.333984"/>
      <use xlink:href="#DejaVuSans-61" x="87.447266"/>
      <use xlink:href="#DejaVuSans-69" x="148.726562"/>
      <use xlink:href="#DejaVuSans-6e" x="176.509766"/>
     </g>
    </g>
    <g id="line2d_28">
     <path d="M 716.6125 79.616562 
L 726.6125 79.616562 
L 736.6125 79.616562 
" style="fill: none; stroke: #ff0000; stroke-width: 1.5; stroke-linecap: square"/>
    </g>
    <g id="text_17">
     <!-- Test -->
     <g transform="translate(744.6125 83.116562) scale(0.1 -0.1)">
      <use xlink:href="#DejaVuSans-54"/>
      <use xlink:href="#DejaVuSans-65" x="44.083984"/>
      <use xlink:href="#DejaVuSans-73" x="105.607422"/>
      <use xlink:href="#DejaVuSans-74" x="157.707031"/>
     </g>
    </g>
   </g>
  </g>
 </g>
 <defs>
  <clipPath id="p451f072b20">
   <rect x="108" y="51.84" width="669.6" height="332.64"/>
  </clipPath>
 </defs>
</svg>
